<svg xmlns="http://www.w3.org/2000/svg" xmlns:xlink="http://www.w3.org/1999/xlink" width="115.2" height="128.5mm" viewBox="0 0 30.48 128.5">
  <defs>
    <linearGradient id="b">
      <stop offset="0" style="stop-color:#30e0b0;stop-opacity:1"/>
      <stop offset="1" style="stop-color:#409880;stop-opacity:1"/>
    </linearGradient>
    <linearGradient id="a">
      <stop offset="0" style="stop-color:#409880;stop-opacity:1"/>
      <stop offset="1" style="stop-color:#409880;stop-opacity:0"/>
    </linearGradient>
    <linearGradient xlink:href="#a" id="c" x1="15.44" x2="15.44" y1="285.34" y2="190.99" gradientTransform="matrix(1 0 0 .9899 0 1.09)" gradientUnits="userSpaceOnUse"/>
    <linearGradient xlink:href="#b" id="d" x1="14.98" x2="15.44" y1="14.091" y2="115.05" gradientUnits="userSpaceOnUse"/>
  </defs>
  <g style="display:inline">
    <path d="M.2 168.5h30.48V297H.2z" style="display:inline;fill:#404040;fill-opacity:1;stroke-width:.42674565" transform="translate(0 -168.5)"/>
    <path d="M.2 190.152h30.48v93.398H.2z" style="display:inline;fill:url(#c);fill-opacity:1;stroke-width:.36381963" transform="translate(0 -168.5)"/>
    <g aria-label="RAGE" style="font-style:normal;font-variant:normal;font-weight:400;font-stretch:normal;font-size:19.7555542px;line-height:1.25;font-family:Ravie;-inkscape-font-specification:Ravie;letter-spacing:0;word-spacing:0;display:inline;fill:#e03040;fill-opacity:1;stroke:none;stroke-width:.26458332">
      <path d="M6.22 291.836c0 .011 0 .023-.01.034l.022-.023v.012c.023-.102.045-.158.057-.192.248-.599.553-1.242.925-1.942h.023v-.023l-.011.012c.463-.87.948-1.524 1.467-1.987l.689-.621c.135-.158.203-.282.203-.384 0-.147-.147-.226-.452-.226-.485 0-1.004.305-1.569.926l.271-.993c-.034-.362-.18-.542-.417-.542a.594.594 0 0 0-.328.124l-.327.305c-1.479 1.377-2.597 2.077-3.376 2.088-.293 0-.474-.045-.541-.135.146.17.406.248.767.248.734 0 1.761-.429 3.082-1.276v.012c-.192.485-.564 1.603-1.118 3.353l-.191.553a.654.654 0 0 1-.057.158l-.09.26-.023.169c0 .067 0 .113.012.135.033-.079.056-.113.079-.113h.045c-.034.102-.08.158-.113.17.011.011.011.011.011.022 0 .012 0 .012.011.023h.068v-.068h.045c.034.011.045.023.045.045l-.067.023c0 .034.022.045.067.045v.045h-.101c.056.125.192.181.429.181.034 0 .056 0 .068-.011a.89.89 0 0 0-.26-.102c0 .034-.011.045-.045.045h-.023v-.022c0-.09.057-.204.18-.35l-.067.237c.102.067.203.124.305.169l.068-.034a.437.437 0 0 0 .248-.293l-.011-.023h-.023c-.034 0-.045-.011-.045-.045l.068-.023zm-.293-.52-.022.068.056.023.068-.023c0 .034-.034.046-.09.046 0 .011.011.011.022.011 0 .045-.022.068-.056.068v.045c.034 0 .056.011.056.045l-.079-.023-.022.046c.011 0 .022.01.022.022-.146.023-.225.045-.225.068a.432.432 0 0 1-.215-.18c.011 0 .011-.012.011-.023-.022 0-.034-.012-.034-.046.023 0 .034-.01.034-.022a.345.345 0 0 0-.056-.102c.011-.011.011-.011.022-.011.012 0 .012 0 .023-.011l.023-.012a.52.52 0 0 1 .237-.079zm2.823-2.675c0 .102-.057.192-.181.271l.113-.022v.067h-.045v.046a.75.75 0 0 0 .192.067l-.023.215.045-.023a.024.024 0 0 0-.022-.022.38.38 0 0 0 .045-.17h.045l.023.102h.022c0-.023.011-.068.023-.147h.022v.045h.068c0-.022-.011-.034-.045-.045a.534.534 0 0 0 .068-.226c-.023 0-.034-.011-.046-.045v-.023c.057 0 .09-.022.09-.067v-.023h-.067l-.09.045v-.045l-.203.023zm.542 1.705c-.068.034-.102.056-.102.09.034 0 .056.045.079.147a.024.024 0 0 0 .023-.023c.01 0 .022.012.022.023.045-.045.08-.068.09-.068v-.101c-.022-.046-.045-.068-.067-.068zM5.86 292.23c-.023 0-.034 0-.045.011.079.057.124.113.158.147h.045c.034-.034.079-.045.147-.045v-.023c-.023 0-.046-.01-.08-.045h-.067v-.022c-.012-.012-.023-.012-.057-.023l-.056-.011c-.011.011-.023.011-.045.011zm-.599-.248c-.022-.023-.033-.057-.033-.102l-.023.034h-.136v.023c0 .034.034.056.113.067 0 .034-.01.046-.045.046 0 .022.023.045.08.067a.285.285 0 0 1 .1-.045c0-.011 0-.011-.01-.023zm4.053.056.045.068c.09-.045.136-.09.136-.136l-.023-.045a.024.024 0 0 0-.022.023c-.034 0-.046-.023-.046-.057-.033.023-.056.034-.09.034zm-1.67.068c.033 0 .045-.011.045-.045l.045.022c0-.022.01-.056.045-.113l-.068-.056c-.09.034-.135.056-.135.079zm.394-.068a.024.024 0 0 1-.022.023c0 .011.011.022.022.022a.024.024 0 0 1-.022.023c0 .034.011.045.045.045h.068v-.09zm1.412-1.366c0 .034.01.045.045.045.045-.022.067-.045.067-.067v-.023l-.09-.022zm-4.73 1.14-.226.046h.305v-.023c-.023 0-.046-.011-.08-.045zm4.865-.372-.023.068.068.022c.023 0 .034-.022.045-.068v-.022zm-5.159.282h.068v-.023h-.068c0-.022-.034-.045-.09-.067h-.08v.022c.035 0 .068.012.125.046h.045zm.384-2.687c.022.046.045.068.068.068H4.9c.034 0 .045-.011.045-.045v-.023zm.643.204c0 .033.045.056.147.067-.023-.045-.045-.067-.068-.067zm-.485-.113h.101c0 .022.046.045.136.067h.023v-.022a.269.269 0 0 1-.136-.045l-.124-.023Zm3.025 2.822-.022.068c.011 0 .022.01.022.022l.068-.022v-.023c0-.023-.011-.034-.045-.045zm-2.54-2.71c0-.022-.011-.033-.045-.045h-.022c-.023 0-.034.012-.046.046l.068.022zm-.079 2.349h.023c.034.011.045.022.045.045 0 .034-.011.045-.045.045h-.023zm4.561-.316c.034 0 .045-.012.045-.046 0-.022-.011-.033-.045-.045-.011 0-.023.012-.034.023zm-5.069.632h.09c0-.023-.01-.034-.045-.045h-.045v-.023h-.045v.023h.045zm.903-.17v.023c0 .034-.01.045-.045.045H5.68c0-.022.023-.045.068-.067zm3.218-2.404h.045l-.023-.09h-.045zm-4.335 2.585c0 .034.011.045.045.045h.079l-.023-.045-.033.023-.068-.034zm3.274 0c0 .023.01.034.045.034l.045-.023c0-.01-.011-.022-.045-.034h-.045zm2.19-.09c0 .034.01.045.045.045l.034-.023c0-.022-.012-.034-.034-.045zm-.757-2.235c0 .033.012.045.045.045v-.068H9.36Zm.599 2.077c-.023 0-.034.011-.046.045l.068.023zm-4.493 5.588h.158l-.09-.023h-.068Zm-.971.067h.113v-.022h-.113Zm1.196-8.015c0 .023.012.034.046.034h.045c0-.011-.012-.022-.045-.034zm1.389.395.102.023-.102.023zm-1.061 2.574h-.045v.045h.045zm-.203-.587v.045c-.034 0-.046-.01-.046-.045zm-.192-.056c.034 0 .045-.011.045-.045h-.045Zm3.804-1.197h.045v-.022h-.045zm-.643-1.06h.045v-.024h-.045zm.203 0h.045v-.024h-.045zm-3.568 2.46h.023v.045h-.023Zm.226-2.111.09-.023h-.09zm-.666 0h.045v-.023H4.98zm.158 2.134h.045v-.023h-.045Zm2.45-5.261c-.011.034-.034.045-.068.057zm-2.608 5.317.068-.011h-.068zm4.91-.7.012-.011-.011-.045zm-4.628.282.023-.067z" style="font-style:normal;font-variant:normal;font-weight:500;font-stretch:normal;font-size:11.28888893px;font-family:&quot;Unfolding Tragedy&quot;;-inkscape-font-specification:&quot;Unfolding Tragedy Medium&quot;;fill:#e03040;fill-opacity:1;stroke-width:.26458332" transform="translate(0 -168.5)"/>
      <path d="M13.291 291.475c-.304.067-.508.101-.61.101-.191-.034-.327-.124-.406-.293-.09-.203-.169-.632-.225-1.298-.012-.034-.012-.102-.012-.192l.012-.18c0-.114-.012-.25-.034-.407l-.023-.113c-.045-.147-.113-.26-.214-.328.225-.598.338-1.016.338-1.23v-.09c0-.192-.034-.384-.101-.553-.09-.204-.215-.305-.362-.305-.079 0-.124.011-.158.045l-.158.124-.192.192c-.53.53-1.14 1.31-1.806 2.314-.632 1.05-.948 1.795-.948 2.247 0 .214.068.406.192.564.113.124.226.192.327.192.53 0 1.152-.429 1.84-1.298a.458.458 0 0 1-.022.079l-.023.079c-.248.756-.384 1.14-.418 1.174.034 0 .215-.395.554-1.174.18-.407.338-.7.474-.87.158 1.434.62 2.157 1.4 2.157.35-.034.666-.136.925-.305.282-.18.418-.384.418-.598 0-.08-.045-.125-.136-.125-.112 0-.327.034-.632.09zm-3.217-1.852-.079-.022c.587-.903 1.129-1.648 1.637-2.247.011.012.011.045.011.08 0 .327-.09.767-.26 1.331a.332.332 0 0 0-.169.181l-.158.237c-.722 1.106-1.343 1.818-1.874 2.122.305-.745.542-1.264.711-1.546a.246.246 0 0 1 .034-.057l.147-.045v.023l.113-.057c0 .023.011.034.034.034v-.034c0-.022-.023-.045-.057-.056h-.09zm-1.422-4.176-.317-.023-.022.034c-.147 0-.271.124-.395.384a.45.45 0 0 0 .18.067c.102 0 .283-.067.531-.203 0-.079.045-.147.147-.226v-.034c0-.022-.012-.033-.045-.045h-.023zm.722 2.359a.628.628 0 0 1-.214-.08l.022-.191H9.16l-.034.192c0 .034.034.056.113.09h-.08c-.045.023-.067.045-.067.068v.023l.079.022c0-.011.056-.034.158-.068 0-.01 0-.01-.011-.022.01.011.022.011.045.011.022 0 .034 0 .045.011 0-.01.011-.022.023-.022h.09l.056.022v-.056h-.113v-.023zm-.858-2.89c-.079.056-.113.09-.113.124l.023.045c.079 0 .158-.045.226-.146v-.023l-.068.023zm.045 1.874-.09-.023a.203.203 0 0 0-.18.102c0 .034.01.045.044.045h.068c.08-.068.136-.101.158-.101zm.678 2.969.146.011v-.034c.09 0 .215-.022.384-.056v.056l-.316.057H9.24Zm-.362-2.62h.057v.023h.17v.034h.191v-.034h-.192v-.022h-.056c-.023-.045-.045-.068-.068-.068-.011 0-.034.011-.045.034h-.057zm-1.151-.394c-.147.045-.226.09-.226.124v.023c.113 0 .192-.046.226-.125zM7.5 286.7c-.09.033-.135.056-.135.09v.045h.022c.08 0 .124-.034.136-.09zm1.603.135c.08 0 .192.023.328.079h.09v-.034c-.057 0-.18-.022-.361-.079h-.057zm-1.908-2.98c0 .011-.045.056-.135.135v.045c.056 0 .113-.033.158-.112v-.068zm.7 3.003c-.079.01-.113.022-.113.056v.045h.045l.09-.067zm.09-3.308c-.078.011-.112.023-.112.056v.046h.045c.045-.023.068-.046.068-.068zm1.423 3.725c-.08.057-.113.09-.113.113h.034c.056-.034.079-.056.079-.079zm-.203.17-.023.09h.057c0-.034.01-.056.033-.09zm.124-.226a.24.24 0 0 1 .135.034l.023-.057h-.158Zm-1.57-1.163c-.01 0-.022.011-.033.045l.022.045c.023 0 .034-.01.034-.045v-.045zm1.728 1.197H9.6v-.034h-.113Zm-2.45.214c-.022 0-.034.012-.045.045v.023h.023c.034 0 .045-.011.045-.045v-.023zm.226-2.529c-.011 0-.034.012-.045.034v.023h.045zm.632 1.604c.034 0 .045-.012.045-.046h-.045zm.068.88c.034 0 .045-.011.045-.045h-.045zm.835-.677h.057v-.023h-.057zm.474.7h.023v-.057h-.023zm-2.438-.949c-.011 0-.023.012-.034.046h.034zm.756 1.016h.046v-.022H7.59zm1.795 2.28v-.022l.068.023zm-1.467-2.923h.045l-.045-.011z" style="font-style:normal;font-variant:normal;font-weight:500;font-stretch:normal;font-size:11.28888893px;font-family:&quot;Unfolding Tragedy&quot;;-inkscape-font-specification:&quot;Unfolding Tragedy Medium&quot;;fill:#e03040;fill-opacity:1;stroke-width:.26458332" transform="translate(0 -168.5)"/>
      <path d="M16.633 291.813c0-.033 0-.045-.011-.056a5.53 5.53 0 0 1 .598-.418c.452-.27 1.005-.463 1.648-.587 1.186-.192 2.02-.293 2.518-.293.519 0 1.06.079 1.625.226.463.124.7.214.7.26l.011-.023c0-.034-.056-.09-.158-.181-.733-.61-1.772-.914-3.138-.914h-.316c-1.524 0-2.72.293-3.612.891l.214-.654.361-.904c.147-.35.305-.745.497-1.174.011-.01.011-.022.023-.033.316-.7.474-1.095.485-1.197a.79.79 0 0 0-.192-.553c-.124-.17-.27-.249-.44-.249-.282 0-.587.328-.915.994a.727.727 0 0 0-.474-.158c-.327 0-.722.18-1.174.553-.35.282-.62.587-.835.892h-.011c-.023 0-.068.067-.147.192-.395.756-.655 1.456-.768 2.1l-.022.191a1.524 1.524 0 0 0-.046.271c-.01.316.023.599.125.836.124.327.327.485.598.485.316 0 .689-.26 1.129-.768h.011a11.98 11.98 0 0 0-.068.52c-.406.395-.745.745-1.027 1.05-2.167.146-3.917 1.038-5.25 2.686-.112.192-.169.35-.18.463-.011.215.057.373.192.474a.366.366 0 0 0 .237.102h.034c.056.022.203.034.463.034a3.61 3.61 0 0 0 1.693-.395l.158-.08c.023 0 .124-.045.294-.146a11.465 11.465 0 0 0 3.104-2.54c.102.011.215.034.328.068.01.079.01.203.022.36l.023.396c.011-.056.101-.282.282-.677.147.045.316.101.508.169.801.282 1.298.418 1.49.418.08 0 .124-.057.124-.158 0-.046-.068-.226-.192-.554a7.672 7.672 0 0 1-.338-1.106c0-.034 0-.045-.012-.056l.057.361c.022.17.045.305.056.406l.147.44c.011.035.023.068.034.125l.09.35a3.496 3.496 0 0 1-.35-.124l-.96-.407c-.225-.101-.394-.18-.507-.237l.248-.564c.135-.226.237-.418.294-.565l.71-.598c0 .034 0 .045.012.056zm-1.513-2.607.012.011c.44-1.039.79-1.558 1.05-1.558l-.125.384-.406 1.151a25.83 25.83 0 0 0-.407 1.163l-.304.407c-.18.214-.294.327-.339.327l-.011-.011c.022-.407.192-.982.496-1.739l-.033.012-.023-.09zm-4.267 6.197c0 .012-.079.046-.237.113-.147.068-.406.147-.779.249.847-.802 1.897-1.412 3.15-1.852-1.163 1.005-1.874 1.502-2.123 1.502zm3.138-3.341a.384.384 0 0 1-.079-.17c.034-.09.09-.135.158-.135a.451.451 0 0 0 .147.068l-.022.045h.045a.024.024 0 0 1-.023.022c-.011.046.011.068.057.068v.023c0 .113-.046.17-.125.17h-.045a.024.024 0 0 1-.022-.024l-.068.023.023-.068a.024.024 0 0 1-.023-.022.024.024 0 0 0 .023-.023h-.023a.024.024 0 0 1-.023.023zm2.428-3.387a.331.331 0 0 0 .112-.068c.068.012.102.034.113.09a.024.024 0 0 0-.022.023c.011 0 .022 0 .022.012-.056.034-.09.045-.113.045a.024.024 0 0 0-.022-.023.024.024 0 0 1-.023.023zm-.723 2.551c.034-.056.045-.09.045-.112.034.033.057.045.09.045v.09h-.09zm-2.472.09h.034l.056.294c-.034 0-.068-.09-.09-.282zm4.267-1.365c-.08.034-.113.056-.113.09l.023.068c.056-.034.09-.068.09-.09zm-1.377.62c.079.012.113.023.113.057s-.012.045-.046.045h-.079zm-.971-.846.022.045c.057-.011.09-.034.102-.09l-.124-.011zm-.057-.384c.09-.022.136-.056.136-.101l-.09-.023c0 .023 0 .034-.012.045zm3.421 1.648c-.023 0-.034.012-.045.046l-.011.045h.09l.011-.09zm-1.377-.417h.067c.034.011.046.022.046.045l-.09.034-.023-.034zm-3.014.654c.022 0 .101-.01.225-.033 0 .022-.056.045-.169.056h-.056zm1.377-.225v.011a2.663 2.663 0 0 1-.271.034l-.08-.011c.046 0 .159-.012.328-.034zm2.133-3.06c-.033 0-.045.012-.056.046v.045h.023c.022 0 .033-.012.033-.045l.012-.046zm-4.504 2.676h.023a.7.7 0 0 0 .034.124h-.057zm.045.237h.023l.022.158h-.022zm.158.937h-.022v-.023h.022v.023h.034v.09h-.034zm-.869-3.725h.034v-.057h-.034l.011-.068h-.022l-.011.068h.022zm.26 3.048h-.023v.067h.023zm.214-1.423h.023l-.011-.113h-.034zm.294 1.524h.034c0 .034.01.068.022.08h-.056zm2.02.215h-.022v-.034h.022v.034h.034v.045h.023v.034h-.023v-.034h-.034zm-2.709-1.423h.023v.034h.034v-.034h-.023c.011-.011.023-.022.023-.034h-.057zm4.606-1.648v.045h-.068c0-.034.012-.045.045-.045zm-4.583 1.784h.034v-.08h-.034zm.293 1.772h.023v-.09h-.023zm-3.251.88.011-.146H9.59Zm7.665-4.368h-.068c.012-.034.023-.045.046-.045zm-3.545.564c.034 0 .057.012.057.034v.011c-.034 0-.057-.01-.057-.033zm-1.444-.52h.045c-.012-.01-.023-.033-.023-.067h-.022zm2.765 2.575h.08v.022c-.046 0-.08 0-.091.012zm1.694 1.14c-.046-.17-.08-.282-.102-.361zm-4.008-3.24h.034v-.056h-.034zm2.134 1.863h.034l.01-.034h-.033v-.034h-.023v.034h.023zm-2.134-1.93h.034v-.057h-.034zm2.36.7c0 .033.01.044.045.044v-.045zm-2.732-.486c-.012.022 0 .034.033.034l.012-.057zm2.054.214h.045c0 .034-.011.046-.045.046zm-.835 1.66h-.045c0-.034.01-.045.045-.045zm1.072.18-.147.034v-.022zm-1.513-.35h.057c0 .023-.023.034-.057.034zm1.886 1.107.034-.17-.012.147zm-1.818-.78.057.023c-.012.012-.012.012-.023.012s-.011 0-.011-.012l-.023.046zm-.87-2.2h.024v-.068h-.023zm.43.101h.023v-.068h-.023zm-1.31 4.042h.023l.011-.068h-.022zm1.412-3.59h.022v-.068h-.022zm-.384.146h.034v-.045h-.034zm.36-.225h.046c.011-.023 0-.034-.034-.034zm-1.354 3.578h.023v-.056h-.023zm1.095-2.732h.023l.011-.056h-.022zm2.529.915h.023v.056h-.023zm-2.224-1.615h.023v-.056h-.023zm2.134 1.524-.113.023-.057-.011zm-1.92-.485h.023v-.056H13.1zm-.282 1.197h.034v-.034h-.034zm-.406-2.45h.034v-.034h-.034zm-.926 3.567h.023v-.045h-.023zm.87-3.827h.022v-.045h-.022zm-.068-.485h.022v-.045h-.022zm.485.553h.023l.011-.045h-.022zm1.603 2.055h.045v.022h-.045zm-1.637.18h.023l.011-.045h-.022zm1.908-.248h.08l-.08.022zm-1.783.858.022.011v-.045h-.022zm3.872.214c0 .057.01.136.045.26v.034zm-4.335-4.346h.022v-.034H12.4zm1.275 1.072h.023v.034h-.023zm-2.19 3.906h.023v-.033h-.023zm2.021-4.086h.023v-.034h-.023zm-.497 1.174h.023v-.034h-.023zm-.643-.745h.022v-.034h-.022zm1.038-.553h.023v-.034h-.023zm-.09-.113h.023v-.034h-.023zm.057 3.488h.022v.034h-.022zm-.587-.384h.022v-.034h-.022zm1.05-2.472h.033l-.034.034zm1.377 2.19h.022l-.034.045zm-.407-.666h.023v-.045zm-.384.52h.08l-.08.01zm-.62-2.112h.022l-.034.034zm-.599 2.01h.023l-.023.034zm-3.894-1.457.022-.033h-.022zm3.477 1.942.01-.056h-.01zm-.09-.474.022-.056h-.012zm2.02.982.056-.079-.056.068zm.079-1.377.011-.034h-.011zm.768 1.377h.01l-.01.034zm-.644-1.23h.011l-.01.034zm-2.416-1.14.012-.023H12.5zm4.301 2.867c0-.023 0-.034-.01-.045 0 .022 0 .034.01.045z" style="font-style:normal;font-variant:normal;font-weight:500;font-stretch:normal;font-size:11.28888893px;font-family:&quot;Unfolding Tragedy&quot;;-inkscape-font-specification:&quot;Unfolding Tragedy Medium&quot;;fill:#e03040;fill-opacity:1;stroke-width:.26458332" transform="translate(0 -168.5)"/>
      <path d="M20.606 292.062c-.44.135-.88.282-1.31.429-.597.214-1.026.327-1.286.327-.282 0-.407-.237-.373-.7l.023-.237c.011-.056.023-.135.045-.248l.203-.824c1.49-1.434 2.27-2.585 2.348-3.466.034-.282 0-.542-.101-.779-.136-.305-.35-.451-.632-.451-.486 0-1.016.587-1.57 1.76l-.225.543c-.621 1.467-.96 2.404-.994 2.81l-.124.565c-.17.135-.327.248-.485.339l-.237.158.237-.136c.192-.124.35-.214.474-.293-.124 1.445.293 2.167 1.264 2.167.339 0 .711-.09 1.129-.282l.485-.215c1.536-.7 2.382-1.083 2.54-1.14l.012.011v-.022l.067.022v-.022l.046.022.045-.022v.022l.034-.022h.214l.045.022v-.022c.012 0 .023.011.023.022l.045-.022.056.022v-.022l.09.022a.343.343 0 0 1 .148-.022v-.023l-.068-.022c-.011.011-.023.022-.034.022h-.62a6.476 6.476 0 0 1 2.054-.338c.553 0 1.151.113 1.783.338-.767-.463-1.716-.688-2.845-.688-.575 0-1.185.067-1.806.192zm-1.06-4.595a1.014 1.014 0 0 1-.08.305c-.372.87-.824 1.67-1.354 2.427.519-1.558.982-2.574 1.377-3.048.056.057.067.17.056.316zm6.637-1.58-.011.079-.136.09c-.079 0-.146.068-.192.192l.023.045c0 .023-.011.034-.045.034-.011.034.011.045.056.045l-.011.124.056.102c.125.022.192.068.181.135.09-.022.18-.113.282-.282.09-.147.158-.226.203-.226v-.022h-.112l.01-.045h.046l-.023-.046-.067.046h-.034v-.046c-.147-.056-.215-.101-.215-.124l.023-.18h-.068zm-.192 1.603c.034 0 .045.022.045.079l.045-.023.046.023.09-.102.011-.067c0-.034-.056-.046-.158-.057zm.023.27-.023.068.057.034.09-.01c-.034-.057-.057-.091-.08-.091zm-8.783 2.958a.998.998 0 0 0 .327.046v.034H17.4c0-.023-.011-.034-.022-.034v.034l-.034-.034h-.113zm-.26-.056a.86.86 0 0 0 .237.056l-.022.046a.514.514 0 0 0-.249-.046zm9.065-4.854h.068v-.045c0-.023-.011-.034-.045-.045h-.023zm1.93 1.366.068.022v-.067h-.067Zm-2.573-1.253c-.011.034 0 .045.034.045h.022l-.011-.068zm.564 6.434a.208.208 0 0 0 .102.08c.022 0 .034 0 .045.01a.468.468 0 0 1-.135-.078zm.226.147c.011-.034-.011-.056-.056-.056h-.023zm.237-5.836h.045v-.045h-.045zm.565-.61h.045v-.022h-.045z" style="font-style:normal;font-variant:normal;font-weight:500;font-stretch:normal;font-size:11.28888893px;font-family:&quot;Unfolding Tragedy&quot;;-inkscape-font-specification:&quot;Unfolding Tragedy Medium&quot;;fill:#e03040;fill-opacity:1;stroke-width:.26458332" transform="translate(0 -168.5)"/>
    </g>
  </g>
  <g style="display:inline">
    <path d="M27.771 15.974c.695.237 1.398.608 1.952 1.23.553.623.974 1.546.871 2.343.008.033.972 69.793.086 95.503H.2s.092-76.695 0-78.921c-.09-2.174 0-7.156 0-7.156.75-1.148 1.294-.96 2.613-.93.36.009.744.11 1.064-.028.519-.225.668-.97.839-1.605.811-3.019 3.374-4.928 6.178-4.603.281.033.604.07.768-.168.145-.213.098-.552.064-.855-.144-1.289.115-2.603.868-3.346.785-.774 1.956-.692 2.934.074.906-1.3 1.912-3.16 3.512-3.397 1.427-.212 3.81.991 4.324 2.897 1.071-1.342 2.733-1.606 4.407-1.038" style="display:inline;fill:url(#d);fill-opacity:1;fill-rule:nonzero;stroke:none;stroke-width:.0284852"/>
    <path d="M9.327 36.951c-.372 2.085-1.397 3.902-2.931 4.831-1.534.93-3.582.902-5.328-.246-.633-.416-.38.009-.868-.65.404.161-.381-1.039.026-.964 1.754.324 3.845.133 5.073-1.09a5.244 5.244 0 0 0 1.5-4.236c2.074-.198 3.517-2.617 3.1-5.196.873.404 1.787.01 2.303-.74.516-.752.698-1.796.753-2.838.76.949.736 2.422.222 3.341-.514.92-1.392 1.418-2.24 1.887.473 1.925-.48 3.892-2.012 4.155.229.382.406.794.545 1.218-.074.153-.11.345-.143.528" style="display:inline;fill:#409880;fill-opacity:1;fill-rule:nonzero;stroke:none;stroke-width:.0284852"/>
    <path d="M26.977 9.414c2.96-.404 3.092 5.032.867 5.347-1.4.198-.31-.653-.344-1.637-.04-1.213-2.578-3.43-.523-3.71" style="display:inline;fill:#30e0b0;fill-opacity:1;fill-rule:nonzero;stroke:none;stroke-width:.0284852"/>
    <path d="M2.813 28.044c.36.008.744.11 1.064-.029.519-.225.668-.971.839-1.605.811-3.019 3.374-4.928 6.178-4.603.281.033.604.07.768-.168.145-.213.098-.552.064-.855-.144-1.289.115-2.603.868-3.346.785-.774 1.956-.692 2.934.074.906-1.3 1.912-3.16 3.512-3.397 1.427-.212 3.81.991 4.324 2.897 1.071-1.342 2.733-1.607 4.407-1.038.695.237 1.398.608 1.952 1.23.069.078.136.16.199.247l-.165-.06c-1.285-.468-2.544-.623-3.755-.303-.388.102-3.19 1.327-2.888 2.083-.71-1.773-2.565-2.77-4.016-2.458-1.45.313-2.488 1.683-3 3.298-.518-1.196-2.036-1.234-2.645-.346-.61.888-.578 2.248-.521 3.506-1.917-.384-3.813.165-5.16 1.493-1.346 1.328-2.127 3.42-2.124 5.69-.473-.382-1.038-.425-1.555-.404-2.187.09-2.47-.436-3.922 1.267.367-.876-.467-1.485.029-2.244.75-1.148 1.294-.96 2.613-.93" style="display:inline;fill:#e03040;fill-opacity:1;fill-rule:nonzero;stroke:none;stroke-width:.0284852"/>
    <path d="M30.68 21.652c-1.588-.05-1.423 1.352-1.908 3.063-.398-.986-1.335-1.613-2.19-1.71-.855-.099-1.64.24-2.347.665-1.033.618-2.048 1.632-1.968 3.129-.57-1.623-1.835-2.991-3.215-3.478-1.38-.486-2.825-.073-3.673 1.05.069-1.662 1.341-2.81 2.748-2.713 1.408.097 2.836 1.287 3.674 2.821.332-1.482 1.301-2.618 2.545-2.982 1.244-.365 2.733.05 3.91 1.09.45-1.33 1.271-2.435 2.338-3.04M26.977 9.414c1.026-.14 1.712.423 2.078 1.23a.892.892 0 0 0-1.04.586c-.223-.627-.829-1.031-1.358-1.036-.16-.002-.312.03-.458.082-.093-.437.069-.765.778-.862" style="display:inline;fill:#e03040;fill-opacity:1;fill-rule:nonzero;stroke:none;stroke-width:.0284852"/>
    <path d="M2.714 20.244c-2.96-.404-3.092 5.031-.867 5.346 1.4.199.31-.652.344-1.636.04-1.213 2.578-3.43.523-3.71" style="display:inline;fill:#30e0b0;fill-opacity:1;fill-rule:nonzero;stroke:none;stroke-width:.0284852"/>
    <path d="M2.714 20.244c-1.027-.14-1.712.423-2.078 1.23a.892.892 0 0 1 1.04.585c.222-.626.829-1.03 1.358-1.035.16-.002.312.03.458.082.093-.438-.069-.765-.778-.862" style="display:inline;fill:#e03040;fill-opacity:1;fill-rule:nonzero;stroke:none;stroke-width:.0284852"/>
    <path d="M28.14 39.355c1.604-.8 2.675-2.547 2.637-4.636l-.011-1.057s-.75-.902-.903-.517c-.664 1.656-1.942 3.321-3.631 3.707a5.244 5.244 0 0 1-4.383-.995c-1.276 1.647-2.45 1.119-4.408-.611-.124.953-2.883 1.312-3.794 1.347-.91.035-1.901-1.958-2.447-2.924.062 1.478.321 3.756 1.614 4.061 1.385.214 2.977.197 3.826-.27 1.376 1.43 3.548 1.58 4.588.425.2.398.68.718 1.37 1.345 2.289 1.127 3.936.925 5.541.125z" style="display:inline;fill:#409880;fill-opacity:1;fill-rule:nonzero;stroke:none;stroke-width:.0284852"/>
  </g>
  <g style="opacity:1">
    <path d="M24.003 68.292a8.793 8.793 0 1 1-11.228-8.452c.089-.025.182-.04.27-.073 1.01-.37.661-.8 1.688-3.161.143-.33.344 2.88.46 2.975.062.052 1.87-1.355 1.745-1.184-.828 1.141-.206 1.491-.12 1.496 4.624.26 7.185 3.71 7.185 8.399z" style="display:inline;opacity:1;fill:#ffdb00;fill-opacity:1;fill-rule:evenodd;stroke:#000;stroke-width:.40000001;stroke-miterlimit:4;stroke-dasharray:none;stroke-opacity:1"/>
    <path d="M16.75 73c-1.373-.458-2.118-.077-3.76.437-.172.57.22.83 1.836.38 1.807-.505 3.47.952 2.908-.415-.336-.188-.671-.298-.984-.402Z" style="display:inline;opacity:1;fill:#fefac1;fill-opacity:1;fill-rule:evenodd;stroke:#000;stroke-width:.1;stroke-linecap:round;stroke-miterlimit:4;stroke-dasharray:none;stroke-opacity:1"/>
    <path d="M12.937 73.633c1.264.112 1.822-.36 2.58-.381.752-.02 1.322.341 2.434.243" style="display:inline;fill:none;fill-opacity:1;fill-rule:evenodd;stroke:#000;stroke-width:.1;stroke-miterlimit:4;stroke-dasharray:none;stroke-opacity:1"/>
    <path d="M16.951 69.245c.215.783.25.881 1.75 2.88 1.5 2-.5 1.37-2 .87-1.5-.5-2.25 0-4.25.5s1-.695.75-3.945c.799-.55 1.049-1.3 1.049-1.3.674-.028.62-.174 1-.75.31.815.639.683.639.683z" style="display:inline;fill:#f39e13;fill-opacity:1;fill-rule:evenodd;stroke:#000;stroke-width:.26458332;stroke-opacity:1"/>
    <path d="M18 73.5c1.134 1.34-1.4.643-2.257.643-1.415 0-3.752 1.082-3.18-.693l.413-.093c-.182.508.186.905 1.801.454 1.807-.503 3.502.798 2.956-.472.21-.042.267.161.267.161Z" style="display:inline;fill:#f39e15;fill-opacity:1;fill-rule:evenodd;stroke:#000;stroke-width:.26458332;stroke-linecap:round;stroke-opacity:1"/>
    <path d="M14.031 69.74c.027.07.034.143.055.213.022.054.041.11.067.162.023.06.055.117.09.172a.973.973 0 0 0 .16.162l.048.046.383.158-.049-.048c-.054-.05-.114-.095-.163-.152a.7.7 0 0 1-.092-.167 2.26 2.26 0 0 1-.068-.159c-.03-.066-.033-.14-.054-.21l-.377-.176zm2.169-.04c-.026.068-.033.141-.055.211-.022.055-.04.11-.066.163-.024.06-.056.117-.09.172a.973.973 0 0 1-.16.162l-.049.046-.382.158.048-.048c.055-.05.114-.095.163-.152a.7.7 0 0 0 .092-.167 2.26 2.26 0 0 0 .069-.16c.03-.065.032-.14.053-.208l.377-.178z" style="display:inline;fill:#000;fill-opacity:1;fill-rule:evenodd;stroke:#000;stroke-width:.26458332;stroke-opacity:1"/>
    <path d="m13.254 67.437-1.444-1.155c-.144-.115-.907-.586-1.109-.537-.79.17-1.082.795-1.37 1.526.261 1.554 1.88 3.263 3.25 2.677.85-.375 1.287-.94 1.77-1.789-.4-.164-1.097-.722-1.097-.722zm6.947 1.808s-2 2-4.312-1.062c.809-.462 2.11-1.13 3.062-1.646.178-.102.357-.203.537-.302.623-.031 1.072.515 1.44.978.007.774-.369 1.675-.727 2.032z" style="display:inline;fill:#e5b3b2;fill-opacity:1;fill-rule:evenodd;stroke:#000;stroke-width:.26458332;stroke-opacity:1"/>
    <path d="M10.5 68.16c.197.604.481.895.656.959.206.074.522.234 1.235.002" style="opacity:1;fill:none;fill-rule:evenodd;stroke:#000;stroke-width:.1;stroke-linecap:round;stroke-miterlimit:4;stroke-dasharray:none;stroke-opacity:1"/>
    <path d="M19.95 67.75c0 .636-.18 1.001-.327 1.116-.173.134-.423.384-1.173.384" style="fill:none;fill-rule:evenodd;stroke:#000;stroke-width:.1;stroke-linecap:round;stroke-miterlimit:4;stroke-dasharray:none;stroke-opacity:1"/>
    <path d="M13.219 67.528c0 .698-.62 1.175-1.258 1.175-.639 0-1.156-.565-1.156-1.262 0-.698.249-.953.857-1.166" style="display:inline;fill:#e03040;fill-opacity:1;fill-rule:evenodd;stroke:#000;stroke-width:.26499999;stroke-linecap:round;stroke-miterlimit:4;stroke-dasharray:none;stroke-opacity:1"/>
    <path d="M19.09 66.495c.403.39.421.752.47 1.25-.109.75-.609.926-1.228.941-.637.015-1.181-.408-1.181-1.099" style="display:inline;fill:#e03040;fill-opacity:1;fill-rule:evenodd;stroke:#000;stroke-width:.26458332;stroke-linecap:round;stroke-opacity:1"/>
    <path d="M9.332 67.271a5.3 5.3 0 0 1-.343.667c-.36.307-.788-.909-1.038-1.693.75-1.5 1.5-2 2.25-2.25 1.162.159 2.75 1.5 2.75 1.5m1.363.75c.393.14.637.5.756.75.034.208.053.292.051.5 0 .5-.41.666-.77.664m2.6-2.414c-1.007.585-1.692.835-1.742 1.093-.008.407-.022.48-.008.755.014.274.466.678.688.59m5.062-.938c.196.256.373.5.64.5 1.25-.14.61-1.25.61-1.25-.5-.75-1.25-2.25-2.5-2l-1.25.5" style="display:inline;fill:none;fill-opacity:1;fill-rule:evenodd;stroke:#000;stroke-width:.26458332;stroke-opacity:1"/>
    <path d="M7.377 63.484 1.373 61.75s-.289 1.91-.246 1.75zm16.746 0 6.004-1.734s.289 1.91.246 1.75zM8.754 60.75l-3.75-5s-1.38 1.352-1.25 1.25zm13.992 0 3.75-5s1.38 1.352 1.25 1.25zm-11.242-1.698-1.343-6.104s-1.816.659-1.655.62zm8.492 0 1.343-6.104s1.816.659 1.655.62z" style="display:inline;opacity:1;fill:#000;fill-opacity:1;fill-rule:evenodd;stroke-width:.26458332"/>
  </g>
  <g style="display:inline">
    <g aria-label="blank" style="font-style:normal;font-variant:normal;font-weight:400;font-stretch:normal;font-size:19.7555542px;line-height:1.25;font-family:&quot;Unfolding Tragedy&quot;;-inkscape-font-specification:&quot;Unfolding Tragedy&quot;;letter-spacing:0;word-spacing:0;display:inline;fill:#e03040;fill-opacity:1;stroke:none;stroke-width:.26458332">
      <path d="M4.983 178.055c0 .108.04.612.188 1.491.059.405.227.612.533.612h.01c.02.01.05.01.089.01 1.037 0 1.847-1.797 1.847-3.002 0-.267-.03-.504-.099-.78-.217-.9-.435-1.206-.682-1.206a.66.66 0 0 0-.237.04c.247-.632.722-1.808 1.433-3.556.345-.721.523-1.186.523-1.393 0-.089-.03-.138-.099-.138-.237 0-.859.71-1.343 1.62-1.472 3.526-1.817 4.454-2.094 5.324-1.66 2.4-2.736 3.516-3.833 3.516-.059 0-.227 0-.266-.02l.03.02c.108.03.227.04.355.04.899 0 2.114-.929 3.645-2.776zm1.491-2.174c.08.237.247.9.247 1.492 0 .405-.079.77-.207 1.156 0 .03-.168.573-.326.73-.01-.039-.01-.078-.02-.128-.108-.83-.158-1.304-.158-1.432v-.178c.01-.336.06-1.175.464-1.64zm.139-.158c.01-.01.02-.02.03-.02l-.03.03zm-5.68 4.84-.03-.01c.01 0 .02 0 .03.01zm.02.01-.02-.01s.01 0 .02.01zM8.68 178.4c.761-2.45 1.136-3.803 1.136-4.06 0-.01 0-.02-.01-.03.01 0 .02-.049.04-.128-.06 1.364-.346 2.588-.494 2.845.267-.355 1.077-2.904 1.107-5.116-.08-.405-.09-.554-.366-.554-.128 0-.277.03-.395.405l-.119.366c-.355 1.264-.533 1.936-.533 1.975l-.06.228c-.157.691-.631 2.943-.77 3.96-.296 2.223-.474 3.448-.474 3.675.06-.355.445-1.985.939-3.566zm3.438.721a1.145 1.145 0 0 1-.089-.484c0-.365.099-.879.336-1.511l.02-.04c.03-.069.118-.266.118-.375 0-.365-.286-.514-.513-.514-.04 0-.08.01-.119.02.04-.237.07-.484.099-.74-.03-.12-.247-.287-.415-.287-.385 0-.74.425-1.205 1.254-.395.702-1.156 2.43-1.156 2.875v.02c-.01.01-.01.02-.01.04 0 .266.238.592.573.592.307 0 .504-.227.583-.306l.08-.09c.246-.345.503-.68.77-1.017.049.9.671 1.512 1.313 1.512h.03c.474 0 1.245-.346 1.245-.484v-.01c-.01-.01-.05-.02-.1-.02l-.473.04c-.09.01-.168.019-.257.019-.464 0-.741-.168-.83-.494zm-.711-2.47c-.119.149-.237.297-.366.445l.11-.276c.108-.267.207-.474.305-.642-.01.168-.02.306-.04.405zm-1.067 2.49a1.11 1.11 0 0 0 .277-.158c-.09.109-.188.158-.277.158zm2.055-2.134c0 .01-.01.02-.02.03 0-.01 0-.01.01-.02l.01-.03z" style="font-style:normal;font-variant:normal;font-weight:400;font-stretch:normal;font-size:9.87777805px;line-height:2;font-family:&quot;Unfolding Tragedy&quot;;-inkscape-font-specification:&quot;Unfolding Tragedy&quot;;fill:#e03040;fill-opacity:1;stroke-width:.26458332" transform="translate(1.176 -168.596)"/>
      <path d="M16.713 178.084c-.207 1.136-.276 1.62-.276 2.065 0 .326.079.395.158.395l.06-.01c.009.01.009.01.009.02 0 .03-.099.118-.178.118-.355 0-.543-.78-.543-2.213 0-.661.02-.8.128-1.985-.336.425-.79 1.027-.79 1.166-.01 0-.365.592-.968 1.659l-.168.296c-.197.346-.04.198-.267.346a.316.316 0 0 1-.187.07h-.04c-.187-.01-.395-.159-.395-.406v-.06c.129-.513.346-1.026.543-1.51.484-1.225.949-2.43 1.166-3.033-.07.346-.168.948-.336 1.857.099-.138.099-.168.346-.543l.118-.178c.267-.405.8-1.017 1.304-1.017.504.049.613.494.613.938l.01.119c0 .01-.03.177-.307 1.906zm-1.738-3.092c.069-.197.108-.306.108-.316-.03 0-.069.1-.108.307l-.01.02zm4.014 2.253c-.02-.01-.05-.03-.08-.04.287-.415.583-.88.89-1.393.138-.227.355-.72.632-1.481l.059-.178.01-.099c-.01-.079-.05-.119-.099-.119-.05 0-.04-.039-.188.178l-.148.218a45.414 45.414 0 0 0-.85 1.51c.01-.078.03-.147.04-.216l.03-.287v-.03c.217-.8.484-2.034.484-3.002 0-.02 0-.04-.01-.06v-.049c0-.198-.286-.326-.375-.326-.109 0-.06 0-.188.168l-.05.079c-.01.03-.02.05-.029.06l-.089.375c-.385 1.63-.583 2.528-.583 2.696 0 .07.02.04.02.07 0 .167-.356 1.738-1.067 3.269-.207.444-.355.909-.365 1.146v.108c.03.158.158.316.355.316.09 0 .178-.03.257-.088l.07-.09c.049-.068.039-.078.088-.157l.198-.494c.138-.346.563-1.61.672-1.61h.01c.03.03.177.177.375.484.869 1.373 1.62 2.272 2.262 2.716.75.514 1.422.79 2.133.83h.168c.534 0 1.196-.277 1.344-.405-.148.118-.77.355-1.205.355-.79 0-1.541-.335-2.302-.958-.593-.474-1.245-1.383-1.966-2.795-.266-.425-.434-.652-.503-.702zm.256-1.215c-.03.049-.069.088-.098.138l.03-.148c.01-.01.01-.02.019-.03.257-.464.583-1.017.84-1.353l-.208.415c-.217.444-.425.74-.583.978zm5.75 5.284-.01.01z" style="font-style:normal;font-variant:normal;font-weight:400;font-stretch:normal;font-size:9.87777805px;line-height:2;font-family:&quot;Unfolding Tragedy&quot;;-inkscape-font-specification:&quot;Unfolding Tragedy&quot;;fill:#e03040;fill-opacity:1;stroke-width:.26458332" transform="translate(1.176 -168.596)"/>
    </g>
  </g>
</svg>
