<?xml version="1.0" encoding="UTF-8" standalone="no"?>
<!-- Created with Inkscape (http://www.inkscape.org/) -->

<svg
   xmlns:osb="http://www.openswatchbook.org/uri/2009/osb"
   xmlns:dc="http://purl.org/dc/elements/1.1/"
   xmlns:cc="http://creativecommons.org/ns#"
   xmlns:rdf="http://www.w3.org/1999/02/22-rdf-syntax-ns#"
   xmlns:svg="http://www.w3.org/2000/svg"
   xmlns="http://www.w3.org/2000/svg"
   xmlns:xlink="http://www.w3.org/1999/xlink"
   xmlns:sodipodi="http://sodipodi.sourceforge.net/DTD/sodipodi-0.dtd"
   xmlns:inkscape="http://www.inkscape.org/namespaces/inkscape"
   width="30.48mm"
   height="128.5mm"
   viewBox="0 0 30.479999 128.5"
   version="1.1"
   id="svg8"
   inkscape:version="0.92.4 (5da689c313, 2019-01-14)"
   sodipodi:docname="Blank.svg"
   enable-background="new">
  <defs
     id="defs2">
    <linearGradient
       id="linearGradient7269"
       osb:paint="solid">
      <stop
         style="stop-color:#000000;stop-opacity:1;"
         offset="0"
         id="stop7267" />
    </linearGradient>
    <linearGradient
       id="linearGradient6416"
       inkscape:collect="always">
      <stop
         id="stop6412"
         offset="0"
         style="stop-color:#30e0b0;stop-opacity:1" />
      <stop
         id="stop6414"
         offset="1"
         style="stop-color:#409880;stop-opacity:1" />
    </linearGradient>
    <linearGradient
       inkscape:collect="always"
       id="linearGradient968">
      <stop
         style="stop-color:#30e0b0;stop-opacity:1"
         offset="0"
         id="stop964" />
      <stop
         style="stop-color:#409880;stop-opacity:1"
         offset="1"
         id="stop966" />
    </linearGradient>
    <linearGradient
       id="linearGradient926"
       inkscape:collect="always">
      <stop
         id="stop922"
         offset="0"
         style="stop-color:#30e0b0;stop-opacity:1" />
      <stop
         id="stop924"
         offset="1"
         style="stop-color:#409880;stop-opacity:0;" />
    </linearGradient>
    <linearGradient
       inkscape:collect="always"
       id="linearGradient4624">
      <stop
         style="stop-color:#409880;stop-opacity:1"
         offset="0"
         id="stop4620" />
      <stop
         style="stop-color:#409880;stop-opacity:0;"
         offset="1"
         id="stop4622" />
    </linearGradient>
    <inkscape:perspective
       sodipodi:type="inkscape:persp3d"
       inkscape:vp_x="-0.52916667 : 65.8375 : 1"
       inkscape:vp_y="0 : 1000 : 0"
       inkscape:vp_z="31.220833 : 67.689583 : 1"
       inkscape:persp3d-origin="25.4 : 42.833333 : 1"
       id="perspective3717" />
    <linearGradient
       inkscape:collect="always"
       xlink:href="#linearGradient4624"
       id="linearGradient4630"
       x1="15.44"
       y1="285.34"
       x2="15.44"
       y2="190.98956"
       gradientUnits="userSpaceOnUse"
       gradientTransform="matrix(1,0,0,0.98990457,-3.7997961e-7,1.0906062)" />
    <linearGradient
       inkscape:collect="always"
       xlink:href="#linearGradient926"
       id="linearGradient920"
       x1="15.455564"
       y1="180.33466"
       x2="15.455564"
       y2="283.68228"
       gradientUnits="userSpaceOnUse" />
    <linearGradient
       inkscape:collect="always"
       xlink:href="#linearGradient968"
       id="linearGradient970"
       x1="15.715448"
       y1="180.44376"
       x2="15.455504"
       y2="283.6825"
       gradientUnits="userSpaceOnUse" />
    <linearGradient
       inkscape:collect="always"
       xlink:href="#linearGradient6416"
       id="linearGradient6410"
       x1="14.979761"
       y1="14.090852"
       x2="15.44"
       y2="115.04999"
       gradientUnits="userSpaceOnUse" />
  </defs>
  <sodipodi:namedview
     id="base"
     pagecolor="#ffffff"
     bordercolor="#666666"
     borderopacity="1.0"
     inkscape:pageopacity="0.0"
     inkscape:pageshadow="2"
     inkscape:zoom="1.6644737"
     inkscape:cx="57.79108"
     inkscape:cy="233.69678"
     inkscape:document-units="mm"
     inkscape:current-layer="layer3"
     showgrid="false"
     inkscape:lockguides="true"
     showguides="false"
     inkscape:window-width="1920"
     inkscape:window-height="1017"
     inkscape:window-x="-9"
     inkscape:window-y="29"
     inkscape:window-maximized="1"
     objecttolerance="11"
     guidetolerance="20"
     gridtolerance="10"
     inkscape:snap-perpendicular="true"
     inkscape:snap-tangential="true"
     inkscape:snap-object-midpoints="true"
     inkscape:snap-center="true"
     inkscape:snap-intersection-paths="true"
     inkscape:object-paths="true"
     inkscape:snap-bbox="true"
     inkscape:snap-bbox-edge-midpoints="true">
    <inkscape:grid
       type="xygrid"
       id="grid7345"
       units="mm"
       spacingx="0.25"
       spacingy="0.25"
       enabled="true"
       dotted="false" />
  </sodipodi:namedview>
  <metadata
     id="metadata5">
    <rdf:RDF>
      <cc:Work
         rdf:about="">
        <dc:format>image/svg+xml</dc:format>
        <dc:type
           rdf:resource="http://purl.org/dc/dcmitype/StillImage" />
        <dc:title></dc:title>
      </cc:Work>
    </rdf:RDF>
  </metadata>
  <g
     inkscape:label="BG"
     inkscape:groupmode="layer"
     id="layer1"
     transform="translate(0,-168.5)"
     style="display:inline"
     sodipodi:insensitive="true">
    <rect
       id="rect26-0"
       width="30.48"
       height="128.5"
       x="0.2"
       y="168.49998"
       style="display:inline;fill:#404040;fill-opacity:1;stroke-width:0.42674565"
       sodipodi:insensitive="true" />
    <rect
       style="display:inline;fill:url(#linearGradient4630);fill-opacity:1;stroke-width:0.36381963"
       y="190.15207"
       x="0.19999963"
       height="93.397919"
       width="30.48"
       id="rect4596"
       sodipodi:insensitive="true" />
    <g
       aria-label="RAGE"
       style="font-style:normal;font-variant:normal;font-weight:normal;font-stretch:normal;font-size:19.7555542px;line-height:1.25;font-family:Ravie;-inkscape-font-specification:Ravie;letter-spacing:0px;word-spacing:0px;display:inline;fill:#e03040;fill-opacity:1;stroke:none;stroke-width:0.26458332"
       id="text5750"
       sodipodi:insensitive="true">
      <path
         d="m 6.2209459,291.83604 c 0,0.0113 0,0.0226 -0.011289,0.0339 l 0.022578,-0.0226 v 0.0113 c 0.022578,-0.1016 0.045156,-0.15804 0.056444,-0.19191 0.2483556,-0.59831 0.5531556,-1.24177 0.9256889,-1.94169 h 0.022578 v -0.0226 l -0.011289,0.0113 c 0.4628445,-0.86925 0.9482667,-1.524 1.4675556,-1.98685 L 9.3818346,287.106 c 0.1354667,-0.15804 0.2032,-0.28222 0.2032,-0.38382 0,-0.14676 -0.1467556,-0.22578 -0.4515556,-0.22578 -0.4854222,0 -1.0047111,0.3048 -1.5691555,0.92569 l 0.2709333,-0.99342 c -0.033867,-0.36125 -0.1806222,-0.54187 -0.4176889,-0.54187 -0.1016,0 -0.2144889,0.0452 -0.3273778,0.12418 l -0.3273777,0.3048 c -1.4788445,1.37724 -2.5964445,2.07716 -3.3753778,2.08844 -0.2935111,0 -0.4741334,-0.0451 -0.5418667,-0.13546 0.1467556,0.16933 0.4064,0.24835 0.7676444,0.24835 0.7337778,0 1.7610667,-0.42897 3.0818667,-1.27564 v 0.0113 c -0.1919111,0.48542 -0.5644444,1.60302 -1.1176,3.3528 l -0.1919111,0.55315 c -0.011289,0.0564 -0.033867,0.11289 -0.056444,0.15805 l -0.090311,0.25964 -0.022578,0.16934 c 0,0.0677 0,0.11288 0.011289,0.13546 0.033867,-0.079 0.056444,-0.11289 0.079022,-0.11289 h 0.045155 c -0.033867,0.1016 -0.079022,0.15805 -0.1128888,0.16934 0.011289,0.0113 0.011289,0.0113 0.011289,0.0226 0,0.0113 0,0.0113 0.011289,0.0226 h 0.067733 v -0.0677 h 0.045155 c 0.033867,0.0113 0.045156,0.0226 0.045156,0.0452 l -0.067733,0.0226 c 0,0.0339 0.022578,0.0452 0.067733,0.0452 v 0.0452 h -0.1016 c 0.056444,0.12418 0.1919111,0.18063 0.4289778,0.18063 0.033867,0 0.056444,0 0.067733,-0.0113 -0.079022,-0.0452 -0.1580445,-0.079 -0.2596445,-0.1016 0,0.0339 -0.011289,0.0451 -0.045155,0.0451 h -0.022578 v -0.0226 c 0,-0.0903 0.056445,-0.2032 0.1806222,-0.34995 l -0.067733,0.23707 c 0.1016,0.0677 0.2032,0.12417 0.3048,0.16933 l 0.067733,-0.0339 c 0.1241778,-0.0564 0.2032,-0.14675 0.2483556,-0.29351 l -0.011289,-0.0226 h -0.022578 c -0.033867,0 -0.045155,-0.0113 -0.045155,-0.0451 l 0.067733,-0.0226 z m -0.2935111,-0.51929 -0.022578,0.0677 0.056444,0.0226 0.067733,-0.0226 c 0,0.0339 -0.033867,0.0452 -0.090311,0.0452 0,0.0113 0.011289,0.0113 0.022578,0.0113 0,0.0452 -0.022578,0.0677 -0.056444,0.0677 v 0.0451 c 0.033867,0 0.056444,0.0113 0.056444,0.0452 l -0.079022,-0.0226 -0.022578,0.0452 c 0.011289,0 0.022578,0.0113 0.022578,0.0226 -0.1467555,0.0226 -0.2257778,0.0451 -0.2257778,0.0677 -0.1016,-0.0452 -0.1693333,-0.1016 -0.2144888,-0.18062 0.011289,0 0.011289,-0.0113 0.011289,-0.0226 -0.022578,0 -0.033867,-0.0113 -0.033867,-0.0452 0.022578,0 0.033867,-0.0113 0.033867,-0.0226 -0.022578,-0.0564 -0.045155,-0.0903 -0.056444,-0.1016 0.011289,-0.0113 0.011289,-0.0113 0.022578,-0.0113 0.011289,0 0.011289,0 0.022578,-0.0113 l 0.022578,-0.0113 c 0.1016,-0.0564 0.1806223,-0.079 0.2370667,-0.079 z m 2.8222222,-2.67547 c 0,0.1016 -0.056444,0.19191 -0.1806222,0.27093 l 0.1128889,-0.0226 v 0.0677 h -0.045156 v 0.0452 c 0.1016,0.0452 0.1693334,0.0677 0.1919111,0.0677 l -0.022578,0.21449 0.045155,-0.0226 c 0,-0.0113 -0.011289,-0.0226 -0.022578,-0.0226 0.033867,-0.0677 0.045156,-0.12418 0.045156,-0.16933 h 0.045156 l 0.022578,0.1016 h 0.022578 c 0,-0.0226 0.011289,-0.0677 0.022578,-0.14676 h 0.022578 v 0.0452 h 0.067733 c 0,-0.0226 -0.011289,-0.0339 -0.045156,-0.0452 0.033867,-0.0564 0.056444,-0.12417 0.067733,-0.22577 -0.022578,0 -0.033867,-0.0113 -0.045156,-0.0452 v -0.0226 c 0.056445,0 0.090311,-0.0226 0.090311,-0.0677 v -0.0226 h -0.067733 l -0.090311,0.0452 v -0.0452 l -0.2032,0.0226 z m 0.5418667,1.70462 c -0.067733,0.0339 -0.1016,0.0565 -0.1016,0.0903 0.033867,0 0.056444,0.0452 0.079022,0.14676 0.011289,0 0.022578,-0.0113 0.022578,-0.0226 0.011289,0 0.022578,0.0113 0.022578,0.0226 0.045155,-0.0452 0.079022,-0.0677 0.090311,-0.0677 v -0.1016 c -0.022578,-0.0452 -0.045156,-0.0677 -0.067733,-0.0677 z m -3.4318223,1.88525 c -0.022578,0 -0.033867,0 -0.045155,0.0113 0.079022,0.0564 0.1241778,0.11289 0.1580444,0.14675 h 0.045156 c 0.033867,-0.0339 0.079022,-0.0451 0.1467555,-0.0451 v -0.0226 c -0.022578,0 -0.045155,-0.0113 -0.079022,-0.0452 h -0.067733 v -0.0226 c -0.011289,-0.0113 -0.022578,-0.0113 -0.056445,-0.0226 l -0.056444,-0.0113 c -0.011289,0.0113 -0.022578,0.0113 -0.045156,0.0113 z m -0.5983111,-0.24836 c -0.022578,-0.0226 -0.033867,-0.0564 -0.033867,-0.1016 l -0.022578,0.0339 H 5.0694792 v 0.0226 c 0,0.0339 0.033867,0.0564 0.1128889,0.0677 0,0.0339 -0.011289,0.0452 -0.045155,0.0452 0,0.0226 0.022578,0.0452 0.079022,0.0677 0.056444,-0.0339 0.090311,-0.0452 0.1016,-0.0452 0,-0.0113 0,-0.0113 -0.011289,-0.0226 z m 4.0527112,0.0564 0.045155,0.0677 c 0.090311,-0.0452 0.1354667,-0.0903 0.1354667,-0.13547 l -0.022578,-0.0451 c -0.011289,0 -0.022578,0.0113 -0.022578,0.0226 -0.033867,0 -0.045155,-0.0226 -0.045155,-0.0565 -0.033867,0.0226 -0.056445,0.0339 -0.090311,0.0339 z m -1.6707556,0.0677 c 0.033867,0 0.045156,-0.0113 0.045156,-0.0452 l 0.045155,0.0226 c 0,-0.0226 0.011289,-0.0564 0.045156,-0.11289 l -0.067733,-0.0564 c -0.090311,0.0339 -0.1354666,0.0564 -0.1354666,0.079 z m 0.3951111,-0.0677 c 0,0.0113 -0.011289,0.0226 -0.022578,0.0226 0,0.0113 0.011289,0.0226 0.022578,0.0226 0,0.0113 -0.011289,0.0226 -0.022578,0.0226 0,0.0339 0.011289,0.0452 0.045156,0.0452 h 0.067733 v -0.0903 z m 1.4111111,-1.36596 c 0,0.0339 0.011289,0.0452 0.045156,0.0452 0.045155,-0.0226 0.067733,-0.0452 0.067733,-0.0677 v -0.0226 l -0.090311,-0.0226 z m -4.7300444,1.14018 -0.2257778,0.0451 h 0.3048 v -0.0226 c -0.022578,0 -0.045156,-0.0113 -0.079022,-0.0452 z m 4.8655111,-0.37253 -0.022578,0.0677 0.067733,0.0226 c 0.022578,0 0.033867,-0.0226 0.045156,-0.0677 v -0.0226 z m -5.1590222,0.28222 h 0.067733 v -0.0226 h -0.067733 c 0,-0.0226 -0.033867,-0.0452 -0.090311,-0.0677 h -0.079022 v 0.0226 c 0.033867,0 0.067733,0.0113 0.1241778,0.0452 h 0.045156 z m 0.3838222,-2.68676 c 0.022578,0.0452 0.045155,0.0677 0.067733,0.0677 h 0.022578 c 0.033867,0 0.045155,-0.0113 0.045155,-0.0452 v -0.0226 z m 0.6434666,0.2032 c 0,0.0339 0.045156,0.0564 0.1467556,0.0677 -0.022578,-0.0452 -0.045156,-0.0677 -0.067733,-0.0677 z M 4.9678792,289.1267 h 0.1016 c 0,0.0226 0.045156,0.0452 0.1354667,0.0677 h 0.022578 v -0.0226 c -0.033867,0 -0.079022,-0.0113 -0.1354667,-0.0452 L 4.9678794,289.104 Z m 3.0254223,2.82223 -0.022578,0.0677 c 0.011289,0 0.022578,0.0113 0.022578,0.0226 l 0.067733,-0.0226 v -0.0226 c 0,-0.0226 -0.011289,-0.0339 -0.045156,-0.0451 z m -2.5400001,-2.70934 c 0,-0.0226 -0.011289,-0.0339 -0.045155,-0.0452 h -0.022578 c -0.022578,0 -0.033867,0.0113 -0.045156,0.0452 l 0.067733,0.0226 z m -0.079022,2.34809 h 0.022578 c 0.033867,0.0113 0.045156,0.0226 0.045156,0.0452 0,0.0339 -0.011289,0.0452 -0.045156,0.0452 h -0.022578 z m 4.5607111,-0.31609 c 0.033867,0 0.045156,-0.0113 0.045156,-0.0451 0,-0.0226 -0.011289,-0.0339 -0.045156,-0.0452 -0.011289,0 -0.022578,0.0113 -0.033867,0.0226 z m -5.0687111,0.63218 h 0.090311 c 0,-0.0226 -0.011289,-0.0339 -0.045155,-0.0452 h -0.045156 v -0.0226 h -0.045155 v 0.0226 h 0.045155 z m 0.9031111,-0.16933 v 0.0226 c 0,0.0339 -0.011289,0.0452 -0.045156,0.0452 h -0.045156 c 0,-0.0226 0.022578,-0.0452 0.067733,-0.0677 z m 3.2173334,-2.40454 h 0.045155 l -0.022578,-0.0903 h -0.045156 z m -4.3349334,2.58516 c 0,0.0339 0.011289,0.0452 0.045156,0.0452 h 0.079022 l -0.022578,-0.0452 -0.033867,0.0226 -0.067733,-0.0339 z m 3.2737778,0 c 0,0.0226 0.011289,0.0339 0.045156,0.0339 l 0.045156,-0.0226 c 0,-0.0113 -0.011289,-0.0226 -0.045156,-0.0339 h -0.045156 z m 2.1900447,-0.0903 c 0,0.0339 0.01129,0.0451 0.04515,0.0451 l 0.03387,-0.0226 c 0,-0.0226 -0.01129,-0.0339 -0.03387,-0.0452 z m -0.7563558,-2.2352 c 0,0.0339 0.011289,0.0452 0.045156,0.0452 v -0.0677 H 9.359257 Z m 0.5983111,2.07715 c -0.022578,0 -0.033867,0.0113 -0.045155,0.0452 l 0.067733,0.0226 z m -4.4929778,5.588 H 5.622635 l -0.090311,-0.0226 H 5.464591 Z m -0.9708444,0.0677 H 4.606635 v -0.0226 H 4.4937459 Z m 1.1966222,-8.01511 c 0,0.0226 0.011289,0.0339 0.045156,0.0339 h 0.045155 c 0,-0.0113 -0.011289,-0.0226 -0.045155,-0.0339 z m 1.3885333,0.39511 0.1016,0.0226 -0.1016,0.0226 z m -1.0611555,2.57386 h -0.045156 v 0.0452 h 0.045156 z m -0.2032,-0.58702 v 0.0452 c -0.033867,0 -0.045156,-0.0113 -0.045156,-0.0452 z m -0.1919111,-0.0564 c 0.033867,0 0.045155,-0.0113 0.045155,-0.0452 H 5.622635 Z m 3.8043555,-1.19663 h 0.045156 v -0.0226 h -0.045156 z m -0.6434666,-1.06115 h 0.045155 v -0.0226 h -0.045155 z m 0.2032,0 h 0.045155 v -0.0226 h -0.045155 z m -3.5672889,2.46098 h 0.022578 v 0.0451 H 5.419435 Z m 0.2257778,-2.11103 0.090311,-0.0226 h -0.090311 z m -0.6660445,0 h 0.045156 v -0.0226 h -0.045156 z m 0.1580445,2.1336 h 0.045155 v -0.0226 H 5.1372128 Z M 7.5869017,286.598 c -0.011289,0.0339 -0.033867,0.0452 -0.067733,0.0565 z m -2.6077334,5.31707 0.067733,-0.0113 h -0.067733 z m 4.9106667,-0.69991 0.011289,-0.0113 -0.011289,-0.0452 z m -4.6284445,0.28222 0.022578,-0.0677 z"
         style="font-style:normal;font-variant:normal;font-weight:500;font-stretch:normal;font-size:11.28888893px;font-family:'Unfolding Tragedy';-inkscape-font-specification:'Unfolding Tragedy Medium';fill:#e03040;fill-opacity:1;stroke-width:0.26458332"
         id="path6234"
         inkscape:connector-curvature="0" />
      <path
         d="m 13.291318,291.47479 c -0.3048,0.0677 -0.508,0.1016 -0.6096,0.1016 -0.191911,-0.0339 -0.327378,-0.12418 -0.4064,-0.29351 -0.09031,-0.2032 -0.169333,-0.63218 -0.225778,-1.29822 -0.01129,-0.0339 -0.01129,-0.1016 -0.01129,-0.19191 l 0.01129,-0.18062 c 0,-0.11289 -0.01129,-0.24836 -0.03387,-0.4064 l -0.02258,-0.11289 c -0.04516,-0.14676 -0.112889,-0.25965 -0.214489,-0.32738 0.225778,-0.59831 0.338667,-1.016 0.338667,-1.23049 v -0.0903 c 0,-0.19191 -0.03387,-0.38382 -0.1016,-0.55316 -0.09031,-0.2032 -0.214489,-0.3048 -0.361245,-0.3048 -0.07902,0 -0.124177,0.0113 -0.158044,0.0452 l -0.158045,0.12418 -0.191911,0.19191 c -0.530577,0.53058 -1.140177,1.30951 -1.8062219,2.31422 -0.6321778,1.04987 -0.9482667,1.79493 -0.9482667,2.24649 0,0.21449 0.067733,0.4064 0.1919111,0.56444 0.1128889,0.12418 0.2257778,0.19191 0.3273778,0.19191 0.5305778,0 1.1514667,-0.42897 1.8400887,-1.29822 0,0.0113 -0.01129,0.0452 -0.02258,0.079 l -0.02258,0.079 c -0.248356,0.75635 -0.383823,1.14017 -0.417689,1.17404 0.03387,0 0.214489,-0.39511 0.553155,-1.17404 0.180623,-0.4064 0.338667,-0.69991 0.474134,-0.86925 0.158044,1.43369 0.620889,2.15618 1.399822,2.15618 0.349955,-0.0339 0.666044,-0.13547 0.925689,-0.3048 0.282222,-0.18062 0.417689,-0.38382 0.417689,-0.59831 0,-0.079 -0.04516,-0.12418 -0.135467,-0.12418 -0.112889,0 -0.327378,0.0339 -0.632178,0.0903 z m -3.217333,-1.85138 -0.079022,-0.0226 c 0.587022,-0.90311 1.128889,-1.64818 1.636889,-2.24649 0.01129,0.0113 0.01129,0.0451 0.01129,0.079 0,0.32738 -0.09031,0.76764 -0.259644,1.33209 -0.07902,0.0339 -0.135467,0.1016 -0.169333,0.18062 l -0.158045,0.23707 c -0.722489,1.10631 -1.3433772,1.81751 -1.873955,2.12231 0.3048,-0.74507 0.5418667,-1.26436 0.7112,-1.54658 0.011289,-0.0226 0.022578,-0.0451 0.033867,-0.0564 l 0.146756,-0.0452 v 0.0226 l 0.112889,-0.0565 c 0,0.0226 0.01129,0.0339 0.03387,0.0339 v -0.0339 c 0,-0.0226 -0.02258,-0.0451 -0.05644,-0.0564 h -0.09031 z m -1.4224002,-4.17688 -0.3160889,-0.0226 -0.022578,0.0339 c -0.1467556,0 -0.2709334,0.12418 -0.3951111,0.38383 0.079022,0.0452 0.1467555,0.0677 0.1806222,0.0677 0.1016,0 0.2822222,-0.0677 0.5305778,-0.2032 0,-0.079 0.045155,-0.14676 0.1467555,-0.22578 v -0.0339 c 0,-0.0226 -0.011289,-0.0339 -0.045155,-0.0452 h -0.022578 z m 0.7224889,2.35937 c -0.067733,-0.0113 -0.1354666,-0.0339 -0.2144889,-0.079 l 0.022578,-0.19191 h -0.022578 l -0.033867,0.19191 c 0,0.0339 0.033867,0.0564 0.1128889,0.0903 h -0.079022 c -0.045155,0.0226 -0.067733,0.0452 -0.067733,0.0677 v 0.0226 l 0.079022,0.0226 c 0,-0.0113 0.056444,-0.0339 0.1580445,-0.0677 0,-0.0113 0,-0.0113 -0.011289,-0.0226 0.011289,0.0113 0.022578,0.0113 0.045155,0.0113 0.022578,0 0.033867,0 0.045156,0.0113 0,-0.0113 0.011289,-0.0226 0.022578,-0.0226 h 0.090311 l 0.056444,0.0226 V 287.806 H 9.4643848 v -0.0226 z m -0.8579555,-2.88995 c -0.079022,0.0564 -0.1128889,0.0903 -0.1128889,0.12418 l 0.022578,0.0452 c 0.079022,0 0.1580444,-0.0452 0.2257777,-0.14675 v -0.0226 l -0.067733,0.0226 z m 0.045155,1.87395 -0.090311,-0.0226 c -0.079022,0 -0.1354667,0.0339 -0.1806222,0.1016 0,0.0339 0.011289,0.0452 0.045155,0.0452 h 0.067733 c 0.079022,-0.0677 0.1354666,-0.1016 0.1580444,-0.1016 z m 0.6773334,2.96898 0.1467555,0.0113 v -0.0339 c 0.090311,0 0.2144889,-0.0226 0.3838222,-0.0564 v 0.0564 l -0.3160889,0.0564 H 9.2386071 Z m -0.3612445,-2.61902 h 0.056444 v 0.0226 h 0.1693333 v 0.0339 h 0.1919111 v -0.0339 H 9.1031404 v -0.0226 h -0.056444 c -0.022578,-0.0452 -0.045155,-0.0677 -0.067733,-0.0677 -0.011289,0 -0.033867,0.0113 -0.045155,0.0339 h -0.056444 z m -1.1514667,-0.39511 c -0.1467555,0.0451 -0.2257777,0.0903 -0.2257777,0.12418 v 0.0226 c 0.1128889,0 0.1919111,-0.0452 0.2257777,-0.12417 z m -0.2257777,-0.0452 c -0.090311,0.0339 -0.1354667,0.0564 -0.1354667,0.0903 v 0.0452 h 0.022578 c 0.079022,0 0.1241778,-0.0339 0.1354666,-0.0903 z m 1.6030222,0.13547 c 0.079022,0 0.1919111,0.0226 0.3273778,0.079 h 0.090311 v -0.0339 c -0.056445,0 -0.1806222,-0.0226 -0.3612445,-0.079 h -0.056444 z m -1.9078222,-2.98027 c 0,0.0113 -0.045156,0.0565 -0.1354667,0.13547 v 0.0452 c 0.056444,0 0.1128889,-0.0339 0.1580444,-0.11288 v -0.0677 z m 0.6999111,3.00285 c -0.079022,0.0113 -0.1128889,0.0226 -0.1128889,0.0564 v 0.0452 h 0.045155 l 0.090311,-0.0677 z m 0.090311,-3.30765 c -0.079022,0.0113 -0.1128889,0.0226 -0.1128889,0.0565 v 0.0451 h 0.045156 c 0.045155,-0.0226 0.067733,-0.0451 0.067733,-0.0677 z m 1.4224,3.72534 c -0.079022,0.0564 -0.1128889,0.0903 -0.1128889,0.11288 h 0.033867 c 0.056444,-0.0339 0.079022,-0.0564 0.079022,-0.079 z m -0.2032,0.16933 -0.022578,0.0903 h 0.056444 c 0,-0.0339 0.011289,-0.0564 0.033867,-0.0903 z m 0.1241778,-0.22578 c 0.056444,0 0.1016,0.0113 0.1354666,0.0339 l 0.022578,-0.0564 H 9.3289182 Z M 7.759762,286.05609 c -0.011289,0 -0.022578,0.0113 -0.033867,0.0451 l 0.022578,0.0452 c 0.022578,0 0.033867,-0.0113 0.033867,-0.0452 v -0.0451 z m 1.7272,1.19662 h 0.1128889 v -0.0339 H 9.4869626 Z m -2.4496889,0.21449 c -0.022578,0 -0.033867,0.0113 -0.045155,0.0451 v 0.0226 h 0.022578 c 0.033867,0 0.045156,-0.0113 0.045156,-0.0452 v -0.0226 z m 0.2257778,-2.52871 c -0.011289,0 -0.033867,0.0113 -0.045156,0.0339 v 0.0226 h 0.045156 z m 0.6321778,1.60302 c 0.033867,0 0.045156,-0.0113 0.045156,-0.0452 h -0.045156 z m 0.067733,0.88053 c 0.033867,0 0.045156,-0.0113 0.045156,-0.0451 h -0.045156 z m 0.8353778,-0.67733 h 0.056444 v -0.0226 h -0.056444 z m 0.4741333,0.69991 h 0.022578 v -0.0564 h -0.022578 z m -2.4384,-0.94827 c -0.011289,0 -0.022578,0.0113 -0.033867,0.0452 h 0.033867 z m 0.7563556,1.016 h 0.045155 v -0.0226 h -0.045155 z m 1.7949333,2.28036 v -0.0226 l 0.067733,0.0226 z m -1.4675555,-2.92382 h 0.045155 l -0.045155,-0.0113 z"
         style="font-style:normal;font-variant:normal;font-weight:500;font-stretch:normal;font-size:11.28888893px;font-family:'Unfolding Tragedy';-inkscape-font-specification:'Unfolding Tragedy Medium';fill:#e03040;fill-opacity:1;stroke-width:0.26458332"
         id="path6236"
         inkscape:connector-curvature="0" />
      <path
         d="m 16.633006,291.81346 c 0,-0.0339 0,-0.0452 -0.01129,-0.0565 0.225778,-0.18062 0.428978,-0.31608 0.598311,-0.41768 0.451555,-0.27094 1.004711,-0.46285 1.648178,-0.58703 1.185333,-0.19191 2.020711,-0.29351 2.517422,-0.29351 0.519289,0 1.061155,0.079 1.6256,0.22578 0.462844,0.12418 0.699911,0.21449 0.699911,0.25964 l 0.01129,-0.0226 c 0,-0.0339 -0.05645,-0.0903 -0.158045,-0.18063 -0.733777,-0.6096 -1.772355,-0.9144 -3.138311,-0.9144 h -0.316089 c -1.524,0 -2.720622,0.29352 -3.612444,0.89183 l 0.214489,-0.65476 0.361244,-0.90311 c 0.146756,-0.34996 0.3048,-0.74507 0.496711,-1.17404 0.01129,-0.0113 0.01129,-0.0226 0.02258,-0.0339 0.316089,-0.69991 0.474134,-1.09502 0.485422,-1.19662 0.01129,-0.2032 -0.05644,-0.38383 -0.191911,-0.55316 -0.124177,-0.16933 -0.270933,-0.24835 -0.440266,-0.24835 -0.282223,0 -0.587023,0.32737 -0.9144,0.99342 -0.124178,-0.1016 -0.282223,-0.15805 -0.474134,-0.15805 -0.327377,0 -0.722489,0.18063 -1.174044,0.55316 -0.349956,0.28222 -0.620889,0.58702 -0.835378,0.89182 h -0.01129 c -0.02258,0 -0.06773,0.0677 -0.146755,0.19191 -0.395111,0.75636 -0.654756,1.45627 -0.767645,2.09974 l -0.02258,0.19191 c -0.03387,0.14675 -0.04516,0.23706 -0.04516,0.27093 -0.01129,0.31609 0.02258,0.59831 0.124178,0.83538 0.124177,0.32738 0.327377,0.48542 0.598311,0.48542 0.316089,0 0.688622,-0.25964 1.128889,-0.76764 h 0.01129 c -0.01129,0.0564 -0.03387,0.23706 -0.06773,0.51928 -0.4064,0.39512 -0.745066,0.74507 -1.027289,1.04987 -2.167466,0.14676 -3.9172441,1.03858 -5.249333,2.68676 -0.1128889,0.19191 -0.1693334,0.34995 -0.1806223,0.46284 -0.011289,0.21449 0.056444,0.37253 0.1919112,0.47413 0.079022,0.0677 0.1580444,0.1016 0.2370666,0.1016 h 0.033867 c 0.056444,0.0226 0.2032,0.0339 0.4628444,0.0339 0.6321778,0 1.1966221,-0.13547 1.6933331,-0.39511 l 0.158044,-0.079 c 0.02258,0 0.124178,-0.0452 0.293512,-0.14676 1.162755,-0.64346 2.190044,-1.49013 3.104444,-2.54 0.1016,0.0113 0.214489,0.0339 0.327378,0.0677 0.01129,0.079 0.01129,0.2032 0.02258,0.36124 l 0.02258,0.39511 c 0.01129,-0.0564 0.1016,-0.28222 0.282223,-0.67733 0.146755,0.0452 0.316088,0.1016 0.508,0.16933 0.801511,0.28222 1.298222,0.41769 1.490133,0.41769 0.07902,0 0.124178,-0.0564 0.124178,-0.15804 0,-0.0452 -0.06773,-0.22578 -0.191911,-0.55316 -0.124178,-0.3048 -0.237067,-0.67733 -0.338667,-1.10631 0,-0.0339 0,-0.0452 -0.01129,-0.0564 l 0.05644,0.36125 c 0.02258,0.16933 0.04516,0.3048 0.05645,0.4064 l 0.146755,0.44027 c 0.01129,0.0339 0.02258,0.0677 0.03387,0.12417 l 0.09031,0.34996 c -0.214489,-0.0677 -0.327378,-0.11289 -0.349955,-0.12418 l -0.959556,-0.4064 c -0.225778,-0.1016 -0.395111,-0.18062 -0.508,-0.23707 l 0.248356,-0.56444 c 0.135466,-0.22578 0.237066,-0.41769 0.293511,-0.56444 l 0.7112,-0.59832 c 0,0.0339 0,0.0452 0.01129,0.0565 z m -1.512711,-2.60773 0.01129,0.0113 c 0.440267,-1.03857 0.790223,-1.55786 1.049867,-1.55786 l -0.124178,0.38382 -0.4064,1.15147 c -0.225777,0.62089 -0.361244,1.00471 -0.4064,1.16275 l -0.3048,0.4064 c -0.180622,0.21449 -0.293511,0.32738 -0.338666,0.32738 l -0.01129,-0.0113 c 0.02258,-0.4064 0.191911,-0.98213 0.496711,-1.73849 l -0.03387,0.0113 -0.02258,-0.0903 z m -4.2672,6.1976 c 0,0.0113 -0.07902,0.0452 -0.237067,0.11288 -0.146756,0.0677 -0.4064,0.14676 -0.7789335,0.24836 0.8466665,-0.80151 1.8965335,-1.41111 3.1496005,-1.85138 -1.162756,1.00471 -1.873956,1.50142 -2.122312,1.50142 z m 3.138311,-3.34152 c -0.04516,-0.0564 -0.06773,-0.11288 -0.07902,-0.16933 0.03387,-0.0903 0.09031,-0.13547 0.158045,-0.13547 0.07902,0.0452 0.124178,0.0677 0.146755,0.0677 l -0.02258,0.0451 h 0.04515 c 0,0.0113 -0.01129,0.0226 -0.02258,0.0226 -0.01129,0.0452 0.01129,0.0677 0.05645,0.0677 v 0.0226 c 0,0.11289 -0.04516,0.16934 -0.124178,0.16934 h -0.04515 c -0.01129,0 -0.02258,-0.0113 -0.02258,-0.0226 l -0.06773,0.0226 0.02258,-0.0677 c -0.01129,0 -0.02258,-0.0113 -0.02258,-0.0226 0.01129,0 0.02258,-0.0113 0.02258,-0.0226 h -0.02258 c 0,0.0113 -0.01129,0.0226 -0.02258,0.0226 z m 2.427111,-3.38666 c 0.01129,0 0.05644,-0.0226 0.112889,-0.0677 0.06773,0.0113 0.1016,0.0339 0.112889,0.0903 -0.01129,0 -0.02258,0.0113 -0.02258,0.0226 0.01129,0 0.02258,0 0.02258,0.0113 -0.05645,0.0339 -0.09031,0.0452 -0.112889,0.0452 0,-0.0113 -0.01129,-0.0226 -0.02258,-0.0226 0,0.0113 -0.01129,0.0226 -0.02258,0.0226 z m -0.722489,2.55129 c 0.03387,-0.0565 0.04515,-0.0903 0.04515,-0.11289 0.03387,0.0339 0.05645,0.0452 0.09031,0.0452 v 0.0903 h -0.09031 z m -2.472267,0.0903 h 0.03387 l 0.05644,0.29351 c -0.03387,0 -0.06773,-0.0903 -0.09031,-0.28222 z m 4.2672,-1.36596 c -0.07902,0.0339 -0.112889,0.0565 -0.112889,0.0903 l 0.02258,0.0677 c 0.05645,-0.0339 0.09031,-0.0677 0.09031,-0.0903 z m -1.377244,0.62089 c 0.07902,0.0113 0.112889,0.0226 0.112889,0.0564 0,0.0339 -0.01129,0.0451 -0.04516,0.0451 h -0.07902 z m -0.970845,-0.84667 0.02258,0.0452 c 0.05645,-0.0113 0.09031,-0.0339 0.1016,-0.0903 l -0.124178,-0.0113 z m -0.05644,-0.38382 c 0.09031,-0.0226 0.135467,-0.0564 0.135467,-0.1016 l -0.09031,-0.0226 c 0,0.0226 0,0.0339 -0.01129,0.0452 z m 3.420533,1.64818 c -0.02258,0 -0.03387,0.0113 -0.04516,0.0452 l -0.01129,0.0451 h 0.09031 l 0.01129,-0.0903 z m -1.377244,-0.41769 h 0.06773 c 0.03387,0.0113 0.04516,0.0226 0.04516,0.0452 l -0.09031,0.0339 -0.02258,-0.0339 z m -3.014134,0.65476 c 0.02258,0 0.1016,-0.0113 0.225778,-0.0339 0,0.0226 -0.05644,0.0452 -0.169333,0.0564 h -0.05644 z m 1.377245,-0.22578 v 0.0113 c -0.146756,0.0226 -0.237067,0.0339 -0.270933,0.0339 l -0.07902,-0.0113 c 0.04516,0 0.158045,-0.0113 0.327378,-0.0339 z m 2.1336,-3.05929 c -0.03387,0 -0.04516,0.0113 -0.05645,0.0452 v 0.0451 h 0.02258 c 0.02258,0 0.03387,-0.0113 0.03387,-0.0451 l 0.01129,-0.0452 z m -4.504267,2.67547 h 0.02258 c 0,0.0113 0.01129,0.0564 0.03387,0.12417 h -0.05645 z m 0.04516,0.23706 h 0.02258 l 0.02258,0.15805 h -0.02258 z m 0.158044,0.93698 h -0.02258 v -0.0226 h 0.02258 v 0.0226 h 0.03387 v 0.0903 h -0.03387 z m -0.869244,-3.72533 h 0.03387 v -0.0564 h -0.03387 l 0.01129,-0.0677 h -0.02258 l -0.01129,0.0677 h 0.02258 z m 0.259644,3.048 h -0.02258 v 0.0677 h 0.02258 z m 0.214489,-1.4224 h 0.02258 l -0.01129,-0.11289 h -0.03387 z m 0.293511,1.524 h 0.03387 c 0,0.0339 0.01129,0.0677 0.02258,0.079 h -0.05645 z m 2.020711,0.21449 H 15.2219 v -0.0339 h 0.02258 v 0.0339 h 0.03387 v 0.0451 h 0.02258 v 0.0339 h -0.02258 v -0.0339 h -0.03387 z m -2.709333,-1.4224 h 0.02258 v 0.0339 h 0.03387 v -0.0339 h -0.02258 c 0.01129,-0.0113 0.02258,-0.0226 0.02258,-0.0339 h -0.05644 z m 4.605867,-1.64818 v 0.0451 h -0.06773 c 0,-0.0339 0.01129,-0.0451 0.04516,-0.0451 z m -4.583289,1.78364 h 0.03387 v -0.079 h -0.03387 z m 0.293511,1.77236 h 0.02258 v -0.0903 h -0.02258 z m -3.2512001,0.88053 0.011289,-0.14675 H 9.588739 Z m 7.6651551,-4.3688 h -0.06773 c 0.01129,-0.0339 0.02258,-0.0451 0.04516,-0.0451 z m -3.544711,0.56445 c 0.03387,0 0.05645,0.0113 0.05645,0.0339 v 0.0113 c -0.03387,0 -0.05645,-0.0113 -0.05645,-0.0339 z m -1.444977,-0.51929 h 0.04516 c -0.01129,-0.0113 -0.02258,-0.0339 -0.02258,-0.0677 h -0.02258 z m 2.765777,2.57386 h 0.07902 v 0.0226 c -0.04516,0 -0.07902,0 -0.09031,0.0113 z m 1.693334,1.14018 c -0.04516,-0.16933 -0.07902,-0.28222 -0.1016,-0.36124 z m -4.007556,-3.23991 h 0.03387 v -0.0564 h -0.03387 z m 2.1336,1.86267 h 0.03387 l 0.01129,-0.0339 h -0.03387 v -0.0339 h -0.02258 v 0.0339 h 0.02258 z m -2.1336,-1.9304 h 0.03387 v -0.0564 h -0.03387 z m 2.359378,0.69991 c 0,0.0339 0.01129,0.0451 0.04515,0.0451 v -0.0451 z m -2.731911,-0.48542 c -0.01129,0.0226 0,0.0339 0.03387,0.0339 l 0.01129,-0.0564 z m 2.054578,0.21449 h 0.04515 c 0,0.0339 -0.01129,0.0452 -0.04515,0.0452 z m -0.835378,1.65946 h -0.04516 c 0,-0.0339 0.01129,-0.0451 0.04516,-0.0451 z m 1.072444,0.18062 -0.146755,0.0339 v -0.0226 z m -1.512711,-0.34995 h 0.05645 c 0,0.0226 -0.02258,0.0339 -0.05645,0.0339 z m 1.885245,1.10631 0.03387,-0.16933 -0.01129,0.14675 z m -1.817512,-0.77893 0.05645,0.0226 c -0.01129,0.0113 -0.01129,0.0113 -0.02258,0.0113 -0.01129,0 -0.01129,0 -0.01129,-0.0113 l -0.02258,0.0452 z m -0.869244,-2.20134 h 0.02258 v -0.0677 h -0.02258 z m 0.428978,0.1016 h 0.02258 v -0.0677 h -0.02258 z m -1.309511,4.04143 h 0.02258 l 0.01129,-0.0677 h -0.02258 z m 1.411111,-3.58987 h 0.02258 v -0.0677 h -0.02258 z m -0.383822,0.14675 h 0.03387 v -0.0451 h -0.03387 z m 0.361244,-0.22577 h 0.04516 c 0.01129,-0.0226 0,-0.0339 -0.03387,-0.0339 z m -1.354667,3.57857 h 0.02258 v -0.0564 h -0.02258 z m 1.095023,-2.73191 h 0.02258 l 0.01129,-0.0564 h -0.02258 z m 2.528711,0.9144 h 0.02258 v 0.0564 h -0.02258 z m -2.223911,-1.61431 h 0.02258 v -0.0564 h -0.02258 z m 2.1336,1.524 -0.112889,0.0226 -0.05645,-0.0113 z m -1.919112,-0.48542 h 0.02258 v -0.0564 h -0.02258 z m -0.282222,1.19662 h 0.03387 v -0.0339 h -0.03387 z m -0.4064,-2.44969 h 0.03387 v -0.0339 h -0.03387 z m -0.925689,3.56729 h 0.02258 v -0.0452 h -0.02258 z m 0.869245,-3.82693 h 0.02258 v -0.0452 h -0.02258 z m -0.06773,-0.48542 h 0.02258 v -0.0452 h -0.02258 z m 0.485423,0.55315 h 0.02258 l 0.01129,-0.0451 h -0.02258 z m 1.603022,2.05458 h 0.04515 v 0.0226 h -0.04515 z m -1.636889,0.18062 h 0.02258 l 0.01129,-0.0452 h -0.02258 z m 1.907822,-0.24835 h 0.07902 l -0.07902,0.0226 z m -1.783644,0.85795 0.02258,0.0113 v -0.0451 h -0.02258 z m 3.872089,0.21449 c 0,0.0565 0.01129,0.13547 0.04516,0.25965 v 0.0339 z m -4.334934,-4.34622 h 0.02258 v -0.0339 h -0.02258 z m 1.275645,1.07244 h 0.02258 v 0.0339 h -0.02258 z m -2.190045,3.90596 h 0.02258 v -0.0339 h -0.02258 z m 2.020711,-4.08658 h 0.02258 v -0.0339 h -0.02258 z m -0.496711,1.17405 h 0.02258 v -0.0339 h -0.02258 z m -0.643466,-0.74507 h 0.02258 v -0.0339 h -0.02258 z m 1.038577,-0.55316 h 0.02258 v -0.0339 h -0.02258 z m -0.09031,-0.11289 h 0.02258 v -0.0339 h -0.02258 z m 0.05645,3.48827 h 0.02258 v 0.0339 h -0.02258 z m -0.587022,-0.38382 h 0.02258 v -0.0339 h -0.02258 z m 1.049866,-2.47227 h 0.03387 l -0.03387,0.0339 z m 1.377245,2.19005 h 0.02258 l -0.03387,0.0452 z m -0.4064,-0.66605 h 0.02258 v -0.0451 z m -0.383823,0.51929 h 0.07902 l -0.07902,0.0113 z m -0.620888,-2.11102 h 0.02258 l -0.03387,0.0339 z m -0.598312,2.00942 h 0.02258 l -0.02258,0.0339 z m -3.8946663,-1.45627 0.022578,-0.0339 h -0.022578 z m 3.4769783,1.94169 0.01129,-0.0564 h -0.01129 z m -0.09031,-0.47413 0.02258,-0.0564 h -0.01129 z m 2.020712,0.98213 0.05644,-0.079 -0.05644,0.0677 z m 0.07902,-1.37724 0.01129,-0.0339 h -0.01129 z m 0.767644,1.37724 h 0.01129 l -0.01129,0.0339 z m -0.643466,-1.23049 h 0.01129 l -0.01129,0.0339 z m -2.415823,-1.14017 0.01129,-0.0226 h -0.01129 z m 4.301067,2.86737 c 0,-0.0226 0,-0.0339 -0.01129,-0.0452 0,0.0226 0,0.0339 0.01129,0.0452 z"
         style="font-style:normal;font-variant:normal;font-weight:500;font-stretch:normal;font-size:11.28888893px;font-family:'Unfolding Tragedy';-inkscape-font-specification:'Unfolding Tragedy Medium';fill:#e03040;fill-opacity:1;stroke-width:0.26458332"
         id="path6238"
         inkscape:connector-curvature="0" />
      <path
         d="m 20.606342,292.06181 c -0.440267,0.13547 -0.880533,0.28223 -1.309511,0.42898 -0.598311,0.21449 -1.027289,0.32738 -1.286933,0.32738 -0.282223,0 -0.4064,-0.23707 -0.372534,-0.69991 l 0.02258,-0.23707 c 0.01129,-0.0564 0.02258,-0.13546 0.04516,-0.24835 l 0.2032,-0.82409 c 1.490133,-1.43369 2.269066,-2.58516 2.348089,-3.46569 0.03387,-0.28222 0,-0.54187 -0.1016,-0.77893 -0.135467,-0.3048 -0.349956,-0.45156 -0.632178,-0.45156 -0.485422,0 -1.016,0.58702 -1.569156,1.76107 l -0.225778,0.54186 c -0.620888,1.46756 -0.959555,2.40454 -0.993422,2.81094 l -0.124178,0.56444 c -0.169333,0.13547 -0.327377,0.24836 -0.485422,0.33867 l -0.237066,0.15804 0.237066,-0.13546 c 0.191911,-0.12418 0.349956,-0.21449 0.474134,-0.29352 -0.124178,1.44498 0.293511,2.16747 1.264355,2.16747 0.338667,0 0.7112,-0.0903 1.128889,-0.28222 l 0.485422,-0.21449 c 1.535289,-0.69991 2.381956,-1.08373 2.54,-1.14018 l 0.01129,0.0113 v -0.0226 l 0.06773,0.0226 v -0.0226 l 0.04516,0.0226 0.04516,-0.0226 v 0.0226 l 0.03387,-0.0226 h 0.214489 l 0.04516,0.0226 v -0.0226 c 0.01129,0 0.02258,0.0113 0.02258,0.0226 l 0.04516,-0.0226 0.05644,0.0226 v -0.0226 l 0.09031,0.0226 c 0.01129,-0.0113 0.06773,-0.0226 0.146755,-0.0226 v -0.0226 l -0.06773,-0.0226 c -0.01129,0.0113 -0.02258,0.0226 -0.03387,0.0226 h -0.620889 c 0.677334,-0.22578 1.365956,-0.33867 2.054578,-0.33867 0.553156,0 1.151467,0.11289 1.783644,0.33867 -0.767644,-0.46285 -1.715911,-0.68863 -2.8448,-0.68863 -0.575733,0 -1.185333,0.0677 -1.806222,0.19191 z m -1.061155,-4.59457 c -0.01129,0.1016 -0.03387,0.2032 -0.07902,0.3048 -0.372533,0.86924 -0.824089,1.67075 -1.354666,2.42711 0.519289,-1.55787 0.982133,-2.57387 1.377244,-3.048 0.05645,0.0564 0.06773,0.16933 0.05645,0.31609 z m 6.637866,-1.58045 -0.01129,0.079 -0.135466,0.0903 c -0.07902,0 -0.146756,0.0677 -0.191911,0.19191 l 0.02258,0.0451 c 0,0.0226 -0.01129,0.0339 -0.04516,0.0339 -0.01129,0.0339 0.01129,0.0451 0.05644,0.0451 l -0.01129,0.12418 0.05645,0.1016 c 0.124178,0.0226 0.191911,0.0677 0.180622,0.13547 0.09031,-0.0226 0.180622,-0.11289 0.282222,-0.28222 0.09031,-0.14676 0.158045,-0.22578 0.2032,-0.22578 v -0.0226 h -0.112889 l 0.01129,-0.0451 h 0.04516 l -0.02258,-0.0452 -0.06773,0.0452 h -0.03387 v -0.0452 c -0.146756,-0.0564 -0.214489,-0.1016 -0.214489,-0.12418 l 0.02258,-0.18062 h -0.06773 z m -0.191911,1.60302 c 0.03387,0 0.04516,0.0226 0.04516,0.079 l 0.04516,-0.0226 0.04516,0.0226 0.09031,-0.1016 0.01129,-0.0677 c 0,-0.0339 -0.05645,-0.0451 -0.158045,-0.0564 z m 0.02258,0.27094 -0.02258,0.0677 0.05645,0.0339 0.09031,-0.0113 c -0.03387,-0.0565 -0.05645,-0.0903 -0.07902,-0.0903 z m -8.782756,2.95769 c 0.1016,0.0339 0.2032,0.0452 0.327378,0.0452 v 0.0339 H 17.4003 c 0,-0.0226 -0.01129,-0.0339 -0.02258,-0.0339 v 0.0339 l -0.03387,-0.0339 h -0.112889 z m -0.259644,-0.0564 c 0.1016,0.0339 0.180622,0.0564 0.237067,0.0564 l -0.02258,0.0452 c -0.05645,-0.0339 -0.146756,-0.0452 -0.248356,-0.0452 z m 9.064978,-4.85422 h 0.06773 v -0.0452 c 0,-0.0226 -0.01129,-0.0339 -0.04516,-0.0451 h -0.02258 z m 1.9304,1.36596 0.06773,0.0226 v -0.0677 H 27.9667 Z m -2.573867,-1.25307 c -0.01129,0.0339 0,0.0451 0.03387,0.0451 h 0.02258 l -0.01129,-0.0677 z m 0.564444,6.43467 c 0.03387,0.0452 0.06773,0.0677 0.1016,0.079 0.02258,0 0.03387,0 0.04516,0.0113 -0.01129,0 -0.05644,-0.0226 -0.135467,-0.079 z m 0.225778,0.14675 c 0.01129,-0.0339 -0.01129,-0.0564 -0.05644,-0.0564 h -0.02258 z m 0.237067,-5.83635 h 0.04515 v -0.0452 h -0.04515 z m 0.564444,-0.6096 h 0.04516 v -0.0226 h -0.04516 z"
         style="font-style:normal;font-variant:normal;font-weight:500;font-stretch:normal;font-size:11.28888893px;font-family:'Unfolding Tragedy';-inkscape-font-specification:'Unfolding Tragedy Medium';fill:#e03040;fill-opacity:1;stroke-width:0.26458332"
         id="path6240"
         inkscape:connector-curvature="0" />
    </g>
  </g>
  <g
     inkscape:groupmode="layer"
     id="layer4"
     inkscape:label="cloud"
     style="display:inline"
     sodipodi:insensitive="true">
    <path
       d="m 27.771249,15.974478 c 0.694548,0.236086 1.398216,0.607085 1.951417,1.229763 0.553667,0.622494 0.973894,1.546056 0.871758,2.342783 0.0074,0.03297 0.971556,69.793294 0.08557,95.502966 H 0.2 c 0,0 0.092269,-76.695127 0,-78.921243 -0.090034,-2.173262 0,-7.15599 0,-7.15599 0.7506713,-1.147796 1.2941441,-0.960526 2.6129675,-0.929016 0.3594004,0.0083 0.7439145,0.10993 1.0635817,-0.02852 0.519067,-0.22504 0.6687187,-0.970936 0.8391341,-1.605412 0.8113138,-3.018599 3.3742878,-4.927661 6.1785047,-4.602726 0.280971,0.03266 0.604261,0.06936 0.767495,-0.16857 0.145546,-0.212021 0.09802,-0.551826 0.064,-0.85444 -0.143998,-1.288973 0.114929,-2.603054 0.868559,-3.345787 0.784337,-0.773841 1.955549,-0.692117 2.933905,0.07387 0.906121,-1.299903 1.912155,-3.159717 3.512267,-3.397215 1.426532,-0.211821 3.809119,0.991332 4.323155,2.897238 1.071457,-1.342183 2.73362,-1.60655 4.407685,-1.037705"
       style="display:inline;fill:url(#linearGradient6410);fill-opacity:1;fill-rule:nonzero;stroke:none;stroke-width:0.0284852"
       id="path176"
       inkscape:connector-curvature="0"
       sodipodi:nodetypes="cccccccccccccccccc" />
    <path
       d="m 9.3272932,36.950984 c -0.372679,2.08508 -1.3971821,3.90201 -2.9312966,4.831414 -1.5338842,0.92931 -3.5820228,0.901402 -5.3281581,-0.246289 -0.63259504,-0.41578 -0.38020141,0.0084 -0.86783887,-0.650588 0.40422926,0.161789 -0.38138438,-1.038406 0.025827,-0.963663 1.75419637,0.323958 3.84516347,0.133225 5.07363447,-1.089116 0.9966048,-0.992258 1.6762311,-2.525261 1.4995366,-4.23639 2.0741804,-0.198523 3.5167943,-2.6169 3.1004505,-5.196303 0.8724268,0.404135 1.7861298,0.0097 2.3026208,-0.740994 0.516253,-0.751265 0.697444,-1.794892 0.753354,-2.83701 0.759966,0.948813 0.735217,2.422077 0.221214,3.341014 -0.514112,0.919329 -1.391602,1.418 -2.239302,1.88663 0.473157,1.925716 -0.479815,3.892779 -2.0123859,4.154964 0.228651,0.38231 0.405907,0.793866 0.544998,1.217868 -0.07404,0.15346 -0.109939,0.345086 -0.142657,0.528464"
       style="display:inline;fill:#409880;fill-opacity:1;fill-rule:nonzero;stroke:none;stroke-width:0.0284852"
       id="path178"
       inkscape:connector-curvature="0"
       sodipodi:nodetypes="ccccccccccccccc" />
    <path
       d="m 26.977228,9.4141257 c 2.959083,-0.403847 3.092178,5.0314853 0.866932,5.3465123 -1.399594,0.198273 -0.310884,-0.652416 -0.344001,-1.636654 -0.04096,-1.212499 -2.577847,-3.4293313 -0.522931,-3.7098583"
       style="display:inline;fill:#30e0b0;fill-opacity:1;fill-rule:nonzero;stroke:none;stroke-width:0.0284852"
       id="path182"
       inkscape:connector-curvature="0" />
    <path
       d="m 2.8129675,28.043741 c 0.3594004,0.0083 0.7439145,0.10993 1.0635817,-0.02852 0.519067,-0.22504 0.668599,-0.971236 0.8391341,-1.605412 0.8113138,-3.018599 3.3742878,-4.927661 6.1785047,-4.602726 0.280971,0.03266 0.604261,0.06936 0.767495,-0.16857 0.145546,-0.212021 0.09802,-0.551826 0.064,-0.85444 -0.143998,-1.288973 0.114929,-2.603054 0.868559,-3.345787 0.784337,-0.773841 1.955549,-0.692117 2.933905,0.07387 0.906121,-1.299903 1.912155,-3.159717 3.512267,-3.397215 1.426532,-0.211821 3.809119,0.991332 4.323155,2.897238 1.071457,-1.342183 2.7335,-1.606851 4.407685,-1.037705 0.694548,0.236086 1.398216,0.607085 1.951417,1.229763 0.0693,0.07773 0.135989,0.160345 0.199208,0.246438 -0.05487,-0.01928 -0.10857,-0.03833 -0.165316,-0.05894 -1.284316,-0.468983 -2.543346,-0.623485 -3.754262,-0.303703 -0.388039,0.102231 -3.19103,1.327091 -2.887964,2.08279 -0.710691,-1.773294 -2.565698,-2.769673 -4.016313,-2.457496 -1.450616,0.312178 -2.488002,1.682987 -2.999247,3.298138 -0.519082,-1.196805 -2.036483,-1.234889 -2.645537,-0.346757 -0.609397,0.888617 -0.577866,2.24832 -0.521446,3.506299 C 11.015296,22.786903 9.1189612,23.33567 7.7723482,24.663814 6.4255014,25.992049 5.6447756,28.083341 5.6482235,30.354344 5.1750502,29.971938 4.6103193,29.928676 4.0926793,29.950025 1.9055237,30.040445 1.6222495,29.513521 0.17058956,31.216557 0.53782666,30.340512 -0.29607667,29.73202 0.2,28.972757 0.9506713,27.824961 1.4941441,28.012231 2.8129675,28.043741"
       style="display:inline;fill:#e03040;fill-opacity:1;fill-rule:nonzero;stroke:none;stroke-width:0.0284852"
       id="path186"
       inkscape:connector-curvature="0"
       sodipodi:nodetypes="ccccccccccccccccsccccccccc" />
    <path
       d="m 30.679998,21.652069 c -1.588199,-0.05065 -1.422995,1.351857 -1.908398,3.062786 -0.397216,-0.985451 -1.334537,-1.612867 -2.189831,-1.710784 -0.854942,-0.09771 -1.639306,0.24128 -2.347035,0.665542 -1.032259,0.618049 -2.047761,1.632512 -1.967854,3.128905 -0.569555,-1.622334 -1.834529,-2.99075 -3.214443,-3.477056 -1.379917,-0.486306 -2.825533,-0.07317 -3.673518,1.050312 0.06872,-1.662881 1.341119,-2.81167 2.74839,-2.713909 1.407383,0.09737 2.835915,1.287401 3.673626,2.82117 0.332343,-1.481948 1.301511,-2.617862 2.545197,-2.982487 1.243574,-0.364231 2.732564,0.05095 3.909503,1.090854 0.45084,-1.329627 1.27159,-2.434902 2.338789,-3.040378"
       style="display:inline;fill:#e03040;fill-opacity:1;fill-rule:nonzero;stroke:none;stroke-width:0.0284852"
       id="path184"
       inkscape:connector-curvature="0"
       sodipodi:nodetypes="cccccscccccc" />
    <path
       d="m 26.977228,9.4141257 c 1.026232,-0.140296 1.711994,0.422825 2.07789,1.2305733 -0.439266,-0.09021 -0.878257,0.132172 -1.039522,0.585001 -0.223133,-0.626374 -0.82921,-1.031102 -1.358356,-1.035873 -0.160462,-0.0016 -0.312608,0.02988 -0.457979,0.08234 -0.09324,-0.4374213 0.06863,-0.7651983 0.777966,-0.8620373"
       style="display:inline;fill:#e03040;fill-opacity:1;fill-rule:nonzero;stroke:none;stroke-width:0.0284852"
       id="path196"
       inkscape:connector-curvature="0" />
    <path
       d="M 2.713688,20.243861 C -0.24539503,19.840014 -0.37849003,25.275347 1.846756,25.590374 3.24635,25.788647 2.15764,24.937958 2.190757,23.95372 2.231717,22.741221 4.768604,20.524388 2.713688,20.243861"
       style="display:inline;fill:#30e0b0;fill-opacity:1;fill-rule:nonzero;stroke:none;stroke-width:0.0284852"
       id="path182-1"
       inkscape:connector-curvature="0" />
    <path
       d="M 2.713688,20.243861 C 1.687456,20.103565 1.001694,20.666686 0.63579797,21.474435 1.075064,21.384225 1.514055,21.606607 1.67532,22.059436 c 0.223133,-0.626374 0.82921,-1.031102 1.358356,-1.035873 0.160462,-0.0016 0.312608,0.02988 0.457979,0.08234 0.09324,-0.437422 -0.06863,-0.765199 -0.777966,-0.862038"
       style="display:inline;fill:#e03040;fill-opacity:1;fill-rule:nonzero;stroke:none;stroke-width:0.0284852"
       id="path196-2"
       inkscape:connector-curvature="0" />
    <path
       d="m 28.139421,39.35459 c 1.604977,-0.800292 2.675449,-2.546643 2.637963,-4.635848 l -0.01136,-1.057093 c 0,0 -0.749169,-0.901186 -0.903507,-0.517011 -0.663182,1.656001 -1.941365,3.321765 -3.630919,3.707339 -1.37119,0.312464 -3.03019,0.06811 -4.382349,-0.995304 -1.275801,1.647411 -2.449922,1.118868 -4.408081,-0.610951 -0.124384,0.953406 -2.883509,1.311991 -3.794023,1.347617 -0.910869,0.03512 -1.901236,-1.958837 -2.447021,-2.924532 0.06188,1.47773 0.320969,3.756485 1.614238,4.061653 1.385043,0.213794 2.977047,0.196409 3.826035,-0.269884 1.375201,1.428664 3.547159,1.580258 4.587464,0.424715 0.201056,0.397516 0.680377,0.717834 1.369853,1.345143 2.289153,1.12615 3.936528,0.924591 5.541707,0.124156 z"
       style="display:inline;fill:#409880;fill-opacity:1;fill-rule:nonzero;stroke:none;stroke-width:0.0284852"
       id="path178-1"
       inkscape:connector-curvature="0"
       sodipodi:nodetypes="cccccccccccccc" />
  </g>
  <g
     inkscape:groupmode="layer"
     id="layer3"
     inkscape:label="body"
     style="opacity:1">
    <path
       style="display:inline;opacity:1;fill:#ffdb00;fill-opacity:1;fill-rule:evenodd;stroke:#000000;stroke-width:0.40000001;stroke-miterlimit:4;stroke-dasharray:none;stroke-opacity:1"
       d="m 24.002646,68.291975 c 0,4.856332 -3.936835,8.793168 -8.793167,8.793168 -4.856333,0 -8.7931673,-3.936835 -8.7931673,-8.793168 0,-4.01156 2.6863157,-7.395697 6.3582033,-8.451669 0.0894,-0.02571 0.182204,-0.04089 0.269926,-0.07296 1.011073,-0.369639 0.661774,-0.80102 1.688124,-3.161347 0.143836,-0.330784 0.344324,2.879952 0.46041,2.975496 0.06205,0.05107 1.870095,-1.355931 1.745393,-1.184227 -0.828505,1.140768 -0.20623,1.491064 -0.119536,1.495937 4.623051,0.259851 7.183846,3.710714 7.183846,8.398774 z"
       id="path7327"
       inkscape:connector-curvature="0"
       sodipodi:nodetypes="csssssssssc"
       inkscape:label="Head" />
    <path
       id="path7871-6"
       style="display:inline;opacity:1;fill:#fefac1;fill-opacity:1;fill-rule:evenodd;stroke:#000000;stroke-width:0.1;stroke-linecap:round;stroke-miterlimit:4;stroke-dasharray:none;stroke-opacity:1"
       d="m 16.75,73 c -1.373422,-0.457808 -2.118081,-0.07726 -3.759594,0.437011 -0.172318,0.570765 0.219923,0.829546 1.835283,0.37919 1.807081,-0.503806 3.470045,0.953234 2.908336,-0.413727 C 17.397826,73.214352 17.063026,73.104342 16.75,73 Z"
       inkscape:connector-curvature="0"
       sodipodi:nodetypes="ccscc"
       inkscape:label="teeth" />
    <path
       style="display:inline;fill:none;fill-opacity:1;fill-rule:evenodd;stroke:#000000;stroke-width:0.1;stroke-miterlimit:4;stroke-dasharray:none;stroke-opacity:1"
       d="m 12.936908,73.633455 c 1.26453,0.11172 1.822247,-0.361117 2.580922,-0.381749 0.751651,-0.02044 1.321136,0.341765 2.433608,0.243469"
       id="path7861"
       inkscape:connector-curvature="0"
       inkscape:label="teethLine" />
    <path
       style="display:inline;fill:#f39e13;fill-opacity:1;fill-rule:evenodd;stroke:#000000;stroke-width:0.26458332;stroke-opacity:1"
       d="m 16.951438,69.245175 c 0.214328,0.782443 0.25,0.881136 1.75,2.880646 1.5,1.999511 -0.5,1.369353 -2,0.869354 -1.5,-0.500001 -2.25,0 -4.25,0.499999 -2,0.499999 1,-0.695359 0.75,-3.945358 C 14,69 14.25,68.25 14.25,68.25 c 0.674407,-0.0281 0.620646,-0.173944 1,-0.75 0.309103,0.814908 0.638938,0.682675 0.638938,0.682675 z"
       id="path7879"
       inkscape:connector-curvature="0"
       sodipodi:nodetypes="cscsccccc"
       inkscape:label="BillUpper" />
    <path
       id="path7871"
       style="display:inline;fill:#f39e15;fill-opacity:1;fill-rule:evenodd;stroke:#000000;stroke-width:0.26458332;stroke-linecap:round;stroke-opacity:1"
       d="m 18,73.5 c 1.13399,1.339244 -1.399339,0.642924 -2.256826,0.642924 -1.414777,0 -3.751996,1.082381 -3.180263,-0.693206 l 0.412883,-0.09246 c -0.181912,0.507776 0.185973,0.904472 1.801333,0.454116 1.807081,-0.503806 3.501608,0.797309 2.955874,-0.472126 C 17.943753,73.297098 18,73.5 18,73.5 Z"
       inkscape:connector-curvature="0"
       sodipodi:nodetypes="csccscc"
       inkscape:label="BillLower" />
    <path
       style="display:inline;fill:#000000;fill-opacity:1;fill-rule:evenodd;stroke:#000000;stroke-width:0.26458332;stroke-opacity:1"
       d="m 14.030974,69.740779 c 0.02692,0.06839 0.03387,0.141999 0.05544,0.211863 0.02195,0.05429 0.04059,0.10954 0.06616,0.162282 0.02374,0.06084 0.05568,0.117239 0.09043,0.17231 0.04446,0.06172 0.102065,0.112487 0.159364,0.161951 0.03296,0.03019 0.0166,0.01487 0.04907,0.04599 0,0 0.382291,0.157877 0.382291,0.157877 v 0 c -0.03212,-0.03212 -0.01595,-0.01617 -0.04852,-0.04783 -0.05458,-0.05028 -0.114177,-0.09539 -0.163169,-0.151797 -0.03589,-0.0527 -0.07146,-0.106031 -0.09201,-0.166941 -0.02487,-0.05264 -0.0476,-0.105087 -0.0684,-0.159515 -0.0305,-0.06603 -0.03245,-0.139869 -0.0536,-0.209116 0,0 -0.377049,-0.177075 -0.377049,-0.177075 z"
       id="path7855"
       inkscape:connector-curvature="0"
       inkscape:label="NoseL" />
    <path
       style="display:inline;fill:#000000;fill-opacity:1;fill-rule:evenodd;stroke:#000000;stroke-width:0.26458332;stroke-opacity:1"
       d="m 16.200494,69.69947 c -0.02692,0.06839 -0.03387,0.141999 -0.05544,0.211863 -0.02195,0.05429 -0.04059,0.10954 -0.06616,0.162282 -0.02374,0.06084 -0.05568,0.117239 -0.09043,0.17231 -0.04446,0.06172 -0.102065,0.112487 -0.159364,0.161951 -0.03296,0.03019 -0.0166,0.01487 -0.04907,0.04599 0,0 -0.382291,0.157877 -0.382291,0.157877 v 0 c 0.03212,-0.03212 0.01595,-0.01617 0.04852,-0.04783 0.05458,-0.05028 0.114177,-0.09539 0.163169,-0.151797 0.03589,-0.0527 0.07146,-0.106031 0.09201,-0.166941 0.02487,-0.05264 0.0476,-0.105087 0.0684,-0.159515 0.0305,-0.06603 0.03245,-0.139869 0.0536,-0.209116 0,0 0.377049,-0.177075 0.377049,-0.177075 z"
       id="path7758"
       inkscape:connector-curvature="0"
       inkscape:label="NoseR" />
    <path
       style="display:inline;fill:#e5b3b2;fill-opacity:1;fill-rule:evenodd;stroke:#000000;stroke-width:0.26458332;stroke-opacity:1"
       d="m 13.253734,67.437008 -1.444018,-1.155215 c -0.143752,-0.114997 -0.906982,-0.586058 -1.108278,-0.536618 -0.7900155,0.170152 -1.082934,0.794749 -1.3696489,1.526107 0.2602757,1.554144 1.8795719,3.262975 3.2487189,2.676397 0.85005,-0.374871 1.287703,-0.939163 1.770225,-1.788691 -0.399295,-0.163813 -1.097004,-0.72198 -1.097004,-0.72198 z"
       id="path7938"
       inkscape:connector-curvature="0"
       inkscape:label="EyeL"
       sodipodi:nodetypes="cccccccc" />
    <path
       style="display:inline;fill:#e5b3b2;fill-opacity:1;fill-rule:evenodd;stroke:#000000;stroke-width:0.26458332;stroke-opacity:1"
       d="m 20.201438,69.245175 c 0,0 -2,2 -4.3125,-1.0625 0.808884,-0.461664 2.109374,-1.130378 3.062178,-1.645723 0.178317,-0.102103 0.357191,-0.202867 0.536948,-0.301506 0.622853,-0.03159 1.072391,0.514738 1.439049,0.977703 0.0078,0.773758 -0.368017,1.674368 -0.725675,2.032026 z"
       inkscape:connector-curvature="0"
       id="path7952"
       inkscape:label="EyeR"
       sodipodi:nodetypes="cccccc" />
    <path
       style="opacity:1;fill:none;fill-rule:evenodd;stroke:#000000;stroke-width:0.1;stroke-linecap:round;stroke-miterlimit:4;stroke-dasharray:none;stroke-opacity:1"
       d="m 10.5,68.159283 c 0.196866,0.604661 0.481111,0.895923 0.656274,0.959256 0.206148,0.07454 0.521263,0.234858 1.234415,0.0027"
       id="path7980-0"
       inkscape:connector-curvature="0"
       sodipodi:nodetypes="csc"
       inkscape:label="EyeLineL" />
    <path
       style="fill:none;fill-rule:evenodd;stroke:#000000;stroke-width:0.1;stroke-linecap:round;stroke-miterlimit:4;stroke-dasharray:none;stroke-opacity:1"
       d="m 19.949995,67.750354 c 0,0.635902 -0.180106,1.000853 -0.327056,1.115304 -0.172944,0.134696 -0.422944,0.384696 -1.172944,0.384696"
       id="path7980"
       inkscape:connector-curvature="0"
       sodipodi:nodetypes="csc"
       inkscape:label="EyeLineR" />
    <path
       style="display:inline;fill:#e03040;fill-opacity:1;fill-rule:evenodd;stroke:#000000;stroke-width:0.26499999;stroke-linecap:round;stroke-miterlimit:4;stroke-dasharray:none;stroke-opacity:1"
       d="m 13.218604,67.528334 c 0,0.697357 -0.619352,1.175082 -1.257865,1.175082 -0.638513,0 -1.15613,-0.56532 -1.15613,-1.262677 0,-0.697357 0.249303,-0.952589 0.857576,-1.165971"
       id="path7887"
       inkscape:connector-curvature="0"
       inkscape:label="PupilL"
       sodipodi:nodetypes="cssc" />
    <path
       style="display:inline;fill:#e03040;fill-opacity:1;fill-rule:evenodd;stroke:#000000;stroke-width:0.26458332;stroke-linecap:round;stroke-opacity:1"
       d="m 19.09025,66.495175 c 0.402982,0.389815 0.420798,0.751911 0.47048,1.25 -0.109292,0.75 -0.609292,0.926236 -1.228718,0.940897 -0.637167,0.01508 -1.181198,-0.408511 -1.181198,-1.098867"
       id="path7889"
       inkscape:connector-curvature="0"
       inkscape:label="PupilR"
       sodipodi:nodetypes="ccsc" />
    <path
       style="display:inline;fill:none;fill-opacity:1;fill-rule:evenodd;stroke:#000000;stroke-width:0.26458332;stroke-opacity:1"
       d="M 9.3317891,67.271282 C 9.2280121,67.501128 9.1208474,67.730086 8.98874,67.937579 8.6285156,68.245175 8.2014381,67.029082 7.9514381,66.245175 c 0.75,-1.5 1.5,-2 2.2499999,-2.25 1.161577,0.158674 2.75,1.5 2.75,1.5"
       id="path7932"
       inkscape:connector-curvature="0"
       inkscape:label="BrowLL"
       sodipodi:nodetypes="ccccc" />
    <path
       style="display:inline;fill:none;fill-opacity:1;fill-rule:evenodd;stroke:#000000;stroke-width:0.26458332;stroke-opacity:1"
       d="m 14.313839,66.245175 c 0.392674,0.139373 0.637599,0.5 0.755826,0.75 0.03417,0.20762 0.0537,0.292241 0.0518,0.5 2.5e-5,0.5 -0.410687,0.665978 -0.770727,0.663813"
       id="path7947"
       inkscape:connector-curvature="0"
       inkscape:label="BrowLR" />
    <path
       style="display:inline;fill:none;fill-opacity:1;fill-rule:evenodd;stroke:#000000;stroke-width:0.26458332;stroke-opacity:1"
       d="m 16.951438,65.745175 c -1.007537,0.584376 -1.692507,0.834764 -1.741943,1.092344 -0.0081,0.407656 -0.02201,0.481238 -0.0081,0.755111 0.01395,0.273874 0.46548,0.67887 0.687543,0.590045"
       inkscape:connector-curvature="0"
       id="path7954"
       inkscape:label="BrowRL"
       sodipodi:nodetypes="cccc" />
    <path
       style="display:inline;fill:none;fill-opacity:1;fill-rule:evenodd;stroke:#000000;stroke-width:0.26458332;stroke-opacity:1"
       d="m 20.951438,67.245175 c 0.195924,0.25577 0.373038,0.5 0.639089,0.5 1.25,-0.140716 0.610911,-1.25 0.610911,-1.25 -0.5,-0.75 -1.25,-2.25 -2.5,-2 l -1.25,0.5"
       inkscape:connector-curvature="0"
       id="path7885"
       inkscape:label="BrowRR"
       sodipodi:nodetypes="ccccc" />
    <path
       id="path7520-3-2"
       style="display:inline;opacity:1;fill:#000000;fill-opacity:1;fill-rule:evenodd;stroke-width:0.26458332"
       d="M 7.377172,63.484119 1.372562,61.75 c 0,0 -0.288331,1.910261 -0.245368,1.750657 z m 16.745656,0 6.00461,-1.734119 c 0,0 0.288331,1.910261 0.245368,1.750657 z"
       inkscape:connector-curvature="0"
       inkscape:label="bar0" />
    <path
       id="path7520-31"
       style="display:inline;opacity:1;fill:#000000;fill-opacity:1;fill-rule:evenodd;stroke-width:0.26458332"
       d="m 8.754345,60.75 -3.75,-5 c 0,0 -1.380406,1.351559 -1.25,1.25 z m 13.99131,0 3.75,-5 c 0,0 1.380406,1.351559 1.25,1.25 z"
       inkscape:connector-curvature="0"
       inkscape:label="bar1" />
    <path
       id="path7520-6-5"
       style="display:inline;opacity:1;fill:#000000;fill-opacity:1;fill-rule:evenodd;stroke-width:0.26458332"
       d="m 11.50418,59.052016 -1.342871,-6.104032 c 0,0 -1.816169,0.658606 -1.655414,0.620165 z m 8.49164,0 1.342871,-6.104032 c 0,0 1.816169,0.658606 1.655414,0.620165 z"
       inkscape:connector-curvature="0"
       inkscape:label="bar2" />
  </g>
  <g
     inkscape:groupmode="layer"
     id="layer5"
     inkscape:label="title"
     style="display:inline"
     sodipodi:insensitive="true">
    <g
       transform="translate(1.1763911,-168.59576)"
       aria-label="blank"
       style="font-style:normal;font-variant:normal;font-weight:normal;font-stretch:normal;font-size:19.7555542px;line-height:1.25;font-family:'Unfolding Tragedy';-inkscape-font-specification:'Unfolding Tragedy';letter-spacing:0px;word-spacing:0px;display:inline;fill:#e03040;fill-opacity:1;stroke:none;stroke-width:0.26458332"
       id="text6232">
      <path
         d="m 4.9828384,178.05451 c 0,0.10866 0.039511,0.61243 0.1876777,1.49155 0.059267,0.40499 0.2271889,0.61242 0.5334001,0.61242 h 0.00988 c 0.019756,0.01 0.049389,0.01 0.0889,0.01 1.0371667,0 1.8471445,-1.79776 1.8471445,-3.00285 0,-0.2667 -0.029633,-0.50376 -0.098778,-0.78034 -0.2173111,-0.89888 -0.4346222,-1.20509 -0.6815666,-1.20509 -0.069145,0 -0.1679223,0.01 -0.2370667,0.0395 0.2469444,-0.63218 0.7210778,-1.80763 1.4322778,-3.556 0.3457222,-0.72108 0.5235222,-1.18533 0.5235222,-1.39277 0,-0.0889 -0.029633,-0.13828 -0.098778,-0.13828 -0.2370667,0 -0.8593667,0.7112 -1.3433779,1.61995 -1.4717889,3.52637 -1.8175111,4.45488 -2.0940889,5.32412 -1.6594667,2.4003 -2.7361445,3.51649 -3.8325779,3.51649 -0.059267,0 -0.22718888,0 -0.26669999,-0.0197 l 0.0296333,0.0197 c 0.10865559,0.0296 0.22718889,0.0395 0.35560009,0.0395 0.8988778,0 2.1138445,-0.92851 3.6449001,-2.77565 z m 1.4915444,-2.17311 c 0.079022,0.23707 0.2469445,0.89888 0.2469445,1.49155 0,0.40499 -0.079022,0.77046 -0.2074333,1.1557 0,0.0296 -0.1679223,0.57291 -0.3259667,0.73095 -0.00988,-0.0395 -0.00988,-0.079 -0.019756,-0.12841 -0.1086555,-0.82973 -0.1580444,-1.30387 -0.1580444,-1.43228 v -0.1778 c 0.00988,-0.33584 0.059267,-1.17545 0.4642559,-1.63971 z m 0.1382889,-0.15804 c 0.00988,-0.01 0.019756,-0.0198 0.029633,-0.0198 l -0.029633,0.0296 z m -5.67972235,4.84011 -0.0296333,-0.01 c 0.009878,0 0.0197556,0 0.0296333,0.01 z m 0.0197556,0.01 -0.0197556,-0.01 c 0,0 0.009878,0 0.0197556,0.01 z"
         style="font-style:normal;font-variant:normal;font-weight:normal;font-stretch:normal;font-size:9.87777805px;line-height:2;font-family:'Unfolding Tragedy';-inkscape-font-specification:'Unfolding Tragedy';fill:#e03040;fill-opacity:1;stroke-width:0.26458332"
         id="path6243"
         inkscape:connector-curvature="0" />
      <path
         d="m 8.6805229,178.40024 c 0.7605889,-2.44969 1.1359445,-3.80295 1.1359445,-4.05977 0,-0.01 0,-0.0198 -0.00988,-0.0296 0.00988,0 0.019756,-0.0494 0.039511,-0.12842 -0.059267,1.36314 -0.3457222,2.58798 -0.4938889,2.8448 0.2667,-0.3556 1.0766785,-2.90406 1.1063115,-5.11668 -0.07902,-0.40499 -0.0889,-0.55316 -0.365478,-0.55316 -0.1284112,0 -0.2765779,0.0296 -0.3951112,0.40499 l -0.1185334,0.36548 c -0.3556,1.26435 -0.5334,1.93604 -0.5334,1.97555 l -0.059267,0.22719 c -0.1580444,0.69145 -0.6321777,2.94358 -0.7704666,3.96099 -0.2963334,2.2225 -0.4741334,3.44734 -0.4741334,3.67453 0.059267,-0.3556 0.4445,-1.98543 0.9383889,-3.56587 z"
         style="font-style:normal;font-variant:normal;font-weight:normal;font-stretch:normal;font-size:9.87777805px;line-height:2;font-family:'Unfolding Tragedy';-inkscape-font-specification:'Unfolding Tragedy';fill:#e03040;fill-opacity:1;stroke-width:0.26458332"
         id="path6245"
         inkscape:connector-curvature="0" />
      <path
         d="m 12.118144,179.12131 c -0.05927,-0.12841 -0.0889,-0.28645 -0.0889,-0.48401 0,-0.36548 0.09878,-0.87912 0.335844,-1.5113 l 0.01976,-0.0395 c 0.02963,-0.0691 0.118533,-0.2667 0.118533,-0.37535 0,-0.36548 -0.286455,-0.51365 -0.513644,-0.51365 -0.03951,0 -0.07902,0.01 -0.118534,0.0198 0.03951,-0.23707 0.06914,-0.48401 0.09878,-0.74084 -0.02963,-0.11853 -0.246944,-0.28645 -0.414866,-0.28645 -0.385234,0 -0.740834,0.42474 -1.205089,1.25448 -0.3951115,0.70132 -1.1557004,2.42993 -1.1557004,2.87443 v 0.0197 c -0.00988,0.01 -0.00988,0.0198 -0.00988,0.0395 0,0.2667 0.2370667,0.59266 0.5729112,0.59266 0.3062112,0 0.5037672,-0.22719 0.5827892,-0.30621 l 0.07902,-0.0889 c 0.246945,-0.34572 0.503767,-0.68157 0.770467,-1.01741 0.04939,0.89888 0.671689,1.5113 1.313744,1.5113 h 0.02963 c 0.474133,0 1.2446,-0.34572 1.2446,-0.48401 v -0.01 c -0.0099,-0.01 -0.04939,-0.0198 -0.09878,-0.0198 l -0.474133,0.0395 c -0.0889,0.01 -0.167923,0.0197 -0.256823,0.0197 -0.464255,0 -0.740833,-0.16792 -0.829733,-0.49389 z m -0.7112,-2.46944 c -0.118533,0.14817 -0.237067,0.29633 -0.365478,0.4445 l 0.108656,-0.27658 c 0.108655,-0.2667 0.207433,-0.47413 0.306211,-0.64205 -0.0099,0.16792 -0.01976,0.30621 -0.03951,0.40498 z m -1.0668,2.4892 c 0.09878,-0.0395 0.187678,-0.0889 0.276578,-0.15805 -0.0889,0.10866 -0.187678,0.15805 -0.276578,0.15805 z m 2.054578,-2.1336 c 0,0.01 -0.0099,0.0197 -0.01976,0.0296 0,-0.01 0,-0.01 0.0099,-0.0198 l 0.0099,-0.0296 z"
         style="font-style:normal;font-variant:normal;font-weight:normal;font-stretch:normal;font-size:9.87777805px;line-height:2;font-family:'Unfolding Tragedy';-inkscape-font-specification:'Unfolding Tragedy';fill:#e03040;fill-opacity:1;stroke-width:0.26458332"
         id="path6247"
         inkscape:connector-curvature="0" />
      <path
         d="m 16.713318,178.08415 c -0.207434,1.13594 -0.276578,1.61995 -0.276578,2.06445 0,0.32597 0.07902,0.39511 0.158044,0.39511 l 0.05927,-0.01 c 0.0099,0.01 0.0099,0.01 0.0099,0.0198 0,0.0296 -0.09878,0.11853 -0.1778,0.11853 -0.3556,0 -0.543278,-0.78034 -0.543278,-2.21262 0,-0.66181 0.01975,-0.8001 0.128411,-1.98543 -0.335844,0.42474 -0.790222,1.02729 -0.790222,1.16558 -0.0099,0 -0.365478,0.59266 -0.968023,1.65946 l -0.167922,0.29634 c -0.197555,0.34572 -0.03951,0.19755 -0.2667,0.34572 -0.06914,0.0494 -0.128411,0.0691 -0.187678,0.0691 h -0.03951 c -0.187677,-0.01 -0.395111,-0.15804 -0.395111,-0.40499 v -0.0593 c 0.128411,-0.51365 0.345722,-1.02729 0.543278,-1.5113 0.484011,-1.22485 0.948267,-2.42994 1.165578,-3.03248 -0.06914,0.34572 -0.167922,0.94827 -0.335845,1.85702 0.09878,-0.13829 0.09878,-0.16792 0.345723,-0.54328 l 0.118533,-0.1778 c 0.2667,-0.40498 0.8001,-1.01741 1.303867,-1.01741 0.503766,0.0494 0.612422,0.49389 0.612422,0.93839 l 0.0099,0.11854 c 0,0.01 -0.02963,0.1778 -0.306211,1.90641 z m -1.738489,-3.09175 c 0.06914,-0.19755 0.108655,-0.30621 0.108655,-0.31609 -0.02963,0 -0.06914,0.0988 -0.108655,0.30621 l -0.0099,0.0198 z"
         style="font-style:normal;font-variant:normal;font-weight:normal;font-stretch:normal;font-size:9.87777805px;line-height:2;font-family:'Unfolding Tragedy';-inkscape-font-specification:'Unfolding Tragedy';fill:#e03040;fill-opacity:1;stroke-width:0.26458332"
         id="path6249"
         inkscape:connector-curvature="0" />
      <path
         d="m 18.988602,177.24454 c -0.01976,-0.01 -0.04939,-0.0296 -0.07902,-0.0395 0.286455,-0.41486 0.582789,-0.87912 0.889,-1.39276 0.138289,-0.22719 0.3556,-0.72108 0.632178,-1.48167 l 0.05927,-0.1778 0.0099,-0.0988 c -0.0099,-0.079 -0.04939,-0.11853 -0.09878,-0.11853 -0.04939,0 -0.03951,-0.0395 -0.187678,0.1778 l -0.148166,0.21731 c -0.286456,0.48401 -0.582789,1.01741 -0.849489,1.5113 0.0099,-0.079 0.02963,-0.14817 0.03951,-0.21731 l 0.02963,-0.28646 v -0.0296 c 0.217311,-0.8001 0.484011,-2.03482 0.484011,-3.00284 0,-0.0198 0,-0.0395 -0.0099,-0.0593 v -0.0494 c 0,-0.19755 -0.286456,-0.32597 -0.375356,-0.32597 -0.108655,0 -0.05927,0 -0.187678,0.16793 l -0.04939,0.079 c -0.0099,0.0296 -0.01975,0.0494 -0.02963,0.0593 l -0.0889,0.37535 c -0.385233,1.62983 -0.582789,2.52871 -0.582789,2.69663 0,0.0691 0.01976,0.0395 0.01976,0.0691 0,0.16792 -0.3556,1.73849 -1.0668,3.26954 -0.207434,0.4445 -0.3556,0.90876 -0.365478,1.14583 v 0.10865 c 0.02963,0.15805 0.158044,0.31609 0.3556,0.31609 0.0889,0 0.1778,-0.0296 0.256822,-0.0889 l 0.06915,-0.0889 c 0.04939,-0.0691 0.03951,-0.079 0.0889,-0.15804 l 0.197555,-0.49389 c 0.138289,-0.34573 0.563033,-1.61008 0.671689,-1.61008 h 0.0099 c 0.02963,0.0296 0.1778,0.1778 0.375355,0.48401 0.869245,1.37301 1.619956,2.27189 2.262012,2.71639 0.750711,0.51364 1.4224,0.79022 2.1336,0.82973 h 0.167922 c 0.5334,0 1.195211,-0.27658 1.343378,-0.40499 -0.148167,0.11854 -0.770467,0.3556 -1.205089,0.3556 -0.790222,0 -1.540934,-0.33584 -2.301523,-0.95814 -0.592666,-0.47413 -1.2446,-1.38289 -1.965677,-2.79541 -0.2667,-0.42475 -0.434623,-0.65194 -0.503767,-0.70132 z m 0.256822,-1.21497 c -0.02963,0.0494 -0.06914,0.0889 -0.09878,0.13829 l 0.02963,-0.14817 c 0.0099,-0.01 0.0099,-0.0197 0.01975,-0.0296 0.256823,-0.46426 0.582789,-1.01741 0.839611,-1.35326 l -0.207433,0.41487 c -0.217311,0.4445 -0.424744,0.74083 -0.582789,0.9779 z m 5.748867,5.28461 -0.0099,0.01 z"
         style="font-style:normal;font-variant:normal;font-weight:normal;font-stretch:normal;font-size:9.87777805px;line-height:2;font-family:'Unfolding Tragedy';-inkscape-font-specification:'Unfolding Tragedy';fill:#e03040;fill-opacity:1;stroke-width:0.26458332"
         id="path6251"
         inkscape:connector-curvature="0" />
    </g>
  </g>
  <g
     inkscape:groupmode="layer"
     id="layer2"
     inkscape:label="components"
     style="display:inline"
     sodipodi:insensitive="true" />
</svg>
