<svg xmlns="http://www.w3.org/2000/svg" xmlns:xlink="http://www.w3.org/1999/xlink" width="115.2" height="128.5mm" viewBox="0 0 30.48 128.5">
  <defs>
    <linearGradient id="b">
      <stop offset="0" style="stop-color:#30e0b0;stop-opacity:1"/>
      <stop offset="1" style="stop-color:#409880;stop-opacity:1"/>
    </linearGradient>
    <linearGradient id="a">
      <stop offset="0" style="stop-color:#409880;stop-opacity:1"/>
      <stop offset="1" style="stop-color:#409880;stop-opacity:0"/>
    </linearGradient>
    <linearGradient xlink:href="#a" id="c" x1="15.44" x2="15.44" y1="285.34" y2="190.99" gradientTransform="matrix(1 0 0 .9899 0 1.09)" gradientUnits="userSpaceOnUse"/>
    <linearGradient xlink:href="#b" id="d" x1="14.98" x2="15.44" y1="14.091" y2="115.05" gradientUnits="userSpaceOnUse"/>
  </defs>
  <g style="display:inline">
    <path d="M.2 168.5h30.48V297H.2z" style="display:inline;fill:#404040;fill-opacity:1;stroke-width:.42674565" transform="translate(0 -168.5)"/>
    <path d="M.2 190.152h30.48v93.398H.2z" style="display:inline;fill:url(#c);fill-opacity:1;stroke-width:.36381963" transform="translate(0 -168.5)"/>
    <g aria-label="RAGE" style="font-style:normal;font-variant:normal;font-weight:400;font-stretch:normal;font-size:19.7555542px;line-height:1.25;font-family:Ravie;-inkscape-font-specification:Ravie;letter-spacing:0;word-spacing:0;display:inline;fill:#be30de;fill-opacity:1;stroke:none;stroke-width:.26458332">
      <path d="M6.22 291.836c0 .011 0 .023-.01.034l.022-.023v.012c.023-.102.045-.158.057-.192.248-.599.553-1.242.925-1.942h.023v-.023l-.011.012c.463-.87.948-1.524 1.467-1.987l.689-.621c.135-.158.203-.282.203-.384 0-.147-.147-.226-.452-.226-.485 0-1.004.305-1.569.926l.271-.993c-.034-.362-.18-.542-.417-.542a.594.594 0 0 0-.328.124l-.327.305c-1.479 1.377-2.597 2.077-3.376 2.088-.293 0-.474-.045-.541-.135.146.17.406.248.767.248.734 0 1.761-.429 3.082-1.276v.012c-.192.485-.564 1.603-1.118 3.353l-.191.553a.654.654 0 0 1-.057.158l-.09.26-.023.169c0 .067 0 .113.012.135.033-.079.056-.113.079-.113h.045c-.034.102-.08.158-.113.17.011.011.011.011.011.022 0 .012 0 .012.011.023h.068v-.068h.045c.034.011.045.023.045.045l-.067.023c0 .034.022.045.067.045v.045h-.101c.056.125.192.181.429.181.034 0 .056 0 .068-.011a.89.89 0 0 0-.26-.102c0 .034-.011.045-.045.045h-.023v-.022c0-.09.057-.204.18-.35l-.067.237c.102.067.203.124.305.169l.068-.034a.437.437 0 0 0 .248-.293l-.011-.023h-.023c-.034 0-.045-.011-.045-.045l.068-.023zm-.293-.52-.022.068.056.023.068-.023c0 .034-.034.046-.09.046 0 .011.011.011.022.011 0 .045-.022.068-.056.068v.045c.034 0 .056.011.056.045l-.079-.023-.022.046c.011 0 .022.01.022.022-.146.023-.225.045-.225.068a.432.432 0 0 1-.215-.18c.011 0 .011-.012.011-.023-.022 0-.034-.012-.034-.046.023 0 .034-.01.034-.022a.345.345 0 0 0-.056-.102c.011-.011.011-.011.022-.011.012 0 .012 0 .023-.011l.023-.012a.52.52 0 0 1 .237-.079zm2.823-2.675c0 .102-.057.192-.181.271l.113-.022v.067h-.045v.046a.75.75 0 0 0 .192.067l-.023.215.045-.023a.024.024 0 0 0-.022-.022.38.38 0 0 0 .045-.17h.045l.023.102h.022c0-.023.011-.068.023-.147h.022v.045h.068c0-.022-.011-.034-.045-.045a.534.534 0 0 0 .068-.226c-.023 0-.034-.011-.046-.045v-.023c.057 0 .09-.022.09-.067v-.023h-.067l-.09.045v-.045l-.203.023zm.542 1.705c-.068.034-.102.056-.102.09.034 0 .056.045.079.147a.024.024 0 0 0 .023-.023c.01 0 .022.012.022.023.045-.045.08-.068.09-.068v-.101c-.022-.046-.045-.068-.067-.068zM5.86 292.23c-.023 0-.034 0-.045.011.079.057.124.113.158.147h.045c.034-.034.079-.045.147-.045v-.023c-.023 0-.046-.01-.08-.045h-.067v-.022c-.012-.012-.023-.012-.057-.023l-.056-.011c-.011.011-.023.011-.045.011zm-.599-.248c-.022-.023-.033-.057-.033-.102l-.023.034h-.136v.023c0 .034.034.056.113.067 0 .034-.01.046-.045.046 0 .022.023.045.08.067a.285.285 0 0 1 .1-.045c0-.011 0-.011-.01-.023zm4.053.056.045.068c.09-.045.136-.09.136-.136l-.023-.045a.024.024 0 0 0-.022.023c-.034 0-.046-.023-.046-.057-.033.023-.056.034-.09.034zm-1.67.068c.033 0 .045-.011.045-.045l.045.022c0-.022.01-.056.045-.113l-.068-.056c-.09.034-.135.056-.135.079zm.394-.068a.024.024 0 0 1-.022.023c0 .011.011.022.022.022a.024.024 0 0 1-.022.023c0 .034.011.045.045.045h.068v-.09zm1.412-1.366c0 .034.01.045.045.045.045-.022.067-.045.067-.067v-.023l-.09-.022zm-4.73 1.14-.226.046h.305v-.023c-.023 0-.046-.011-.08-.045zm4.865-.372-.023.068.068.022c.023 0 .034-.022.045-.068v-.022zm-5.159.282h.068v-.023h-.068c0-.022-.034-.045-.09-.067h-.08v.022c.035 0 .068.012.125.046h.045zm.384-2.687c.022.046.045.068.068.068H4.9c.034 0 .045-.011.045-.045v-.023zm.643.204c0 .033.045.056.147.067-.023-.045-.045-.067-.068-.067zm-.485-.113h.101c0 .022.046.045.136.067h.023v-.022a.269.269 0 0 1-.136-.045l-.124-.023Zm3.025 2.822-.022.068c.011 0 .022.01.022.022l.068-.022v-.023c0-.023-.011-.034-.045-.045zm-2.54-2.71c0-.022-.011-.033-.045-.045h-.022c-.023 0-.034.012-.046.046l.068.022zm-.079 2.349h.023c.034.011.045.022.045.045 0 .034-.011.045-.045.045h-.023zm4.561-.316c.034 0 .045-.012.045-.046 0-.022-.011-.033-.045-.045-.011 0-.023.012-.034.023zm-5.069.632h.09c0-.023-.01-.034-.045-.045h-.045v-.023h-.045v.023h.045zm.903-.17v.023c0 .034-.01.045-.045.045H5.68c0-.022.023-.045.068-.067zm3.218-2.404h.045l-.023-.09h-.045zm-4.335 2.585c0 .034.011.045.045.045h.079l-.023-.045-.033.023-.068-.034zm3.274 0c0 .023.01.034.045.034l.045-.023c0-.01-.011-.022-.045-.034h-.045zm2.19-.09c0 .034.01.045.045.045l.034-.023c0-.022-.012-.034-.034-.045zm-.757-2.235c0 .033.012.045.045.045v-.068H9.36Zm.599 2.077c-.023 0-.034.011-.046.045l.068.023zm-4.493 5.588h.158l-.09-.023h-.068Zm-.971.067h.113v-.022h-.113Zm1.196-8.015c0 .023.012.034.046.034h.045c0-.011-.012-.022-.045-.034zm1.389.395.102.023-.102.023zm-1.061 2.574h-.045v.045h.045zm-.203-.587v.045c-.034 0-.046-.01-.046-.045zm-.192-.056c.034 0 .045-.011.045-.045h-.045Zm3.804-1.197h.045v-.022h-.045zm-.643-1.06h.045v-.024h-.045zm.203 0h.045v-.024h-.045zm-3.568 2.46h.023v.045h-.023Zm.226-2.111.09-.023h-.09zm-.666 0h.045v-.023H4.98zm.158 2.134h.045v-.023h-.045Zm2.45-5.261c-.011.034-.034.045-.068.057zm-2.608 5.317.068-.011h-.068zm4.91-.7.012-.011-.011-.045zm-4.628.282.023-.067z" style="font-style:normal;font-variant:normal;font-weight:500;font-stretch:normal;font-size:11.28888893px;font-family:&quot;Unfolding Tragedy&quot;;-inkscape-font-specification:&quot;Unfolding Tragedy Medium&quot;;fill:#be30de;fill-opacity:1;stroke-width:.26458332" transform="translate(0 -168.5)"/>
      <path d="M13.291 291.475c-.304.067-.508.101-.61.101-.191-.034-.327-.124-.406-.293-.09-.203-.169-.632-.225-1.298-.012-.034-.012-.102-.012-.192l.012-.18c0-.114-.012-.25-.034-.407l-.023-.113c-.045-.147-.113-.26-.214-.328.225-.598.338-1.016.338-1.23v-.09c0-.192-.034-.384-.101-.553-.09-.204-.215-.305-.362-.305-.079 0-.124.011-.158.045l-.158.124-.192.192c-.53.53-1.14 1.31-1.806 2.314-.632 1.05-.948 1.795-.948 2.247 0 .214.068.406.192.564.113.124.226.192.327.192.53 0 1.152-.429 1.84-1.298a.458.458 0 0 1-.022.079l-.023.079c-.248.756-.384 1.14-.418 1.174.034 0 .215-.395.554-1.174.18-.407.338-.7.474-.87.158 1.434.62 2.157 1.4 2.157.35-.034.666-.136.925-.305.282-.18.418-.384.418-.598 0-.08-.045-.125-.136-.125-.112 0-.327.034-.632.09zm-3.217-1.852-.079-.022c.587-.903 1.129-1.648 1.637-2.247.011.012.011.045.011.08 0 .327-.09.767-.26 1.331a.332.332 0 0 0-.169.181l-.158.237c-.722 1.106-1.343 1.818-1.874 2.122.305-.745.542-1.264.711-1.546a.246.246 0 0 1 .034-.057l.147-.045v.023l.113-.057c0 .023.011.034.034.034v-.034c0-.022-.023-.045-.057-.056h-.09zm-1.422-4.176-.317-.023-.022.034c-.147 0-.271.124-.395.384a.45.45 0 0 0 .18.067c.102 0 .283-.067.531-.203 0-.079.045-.147.147-.226v-.034c0-.022-.012-.033-.045-.045h-.023zm.722 2.359a.628.628 0 0 1-.214-.08l.022-.191H9.16l-.034.192c0 .034.034.056.113.09h-.08c-.045.023-.067.045-.067.068v.023l.079.022c0-.011.056-.034.158-.068 0-.01 0-.01-.011-.022.01.011.022.011.045.011.022 0 .034 0 .045.011 0-.01.011-.022.023-.022h.09l.056.022v-.056h-.113v-.023zm-.858-2.89c-.079.056-.113.09-.113.124l.023.045c.079 0 .158-.045.226-.146v-.023l-.068.023zm.045 1.874-.09-.023a.203.203 0 0 0-.18.102c0 .034.01.045.044.045h.068c.08-.068.136-.101.158-.101zm.678 2.969.146.011v-.034c.09 0 .215-.022.384-.056v.056l-.316.057H9.24Zm-.362-2.62h.057v.023h.17v.034h.191v-.034h-.192v-.022h-.056c-.023-.045-.045-.068-.068-.068-.011 0-.034.011-.045.034h-.057zm-1.151-.394c-.147.045-.226.09-.226.124v.023c.113 0 .192-.046.226-.125zM7.5 286.7c-.09.033-.135.056-.135.09v.045h.022c.08 0 .124-.034.136-.09zm1.603.135c.08 0 .192.023.328.079h.09v-.034c-.057 0-.18-.022-.361-.079h-.057zm-1.908-2.98c0 .011-.045.056-.135.135v.045c.056 0 .113-.033.158-.112v-.068zm.7 3.003c-.079.01-.113.022-.113.056v.045h.045l.09-.067zm.09-3.308c-.078.011-.112.023-.112.056v.046h.045c.045-.023.068-.046.068-.068zm1.423 3.725c-.08.057-.113.09-.113.113h.034c.056-.034.079-.056.079-.079zm-.203.17-.023.09h.057c0-.034.01-.056.033-.09zm.124-.226a.24.24 0 0 1 .135.034l.023-.057h-.158Zm-1.57-1.163c-.01 0-.022.011-.033.045l.022.045c.023 0 .034-.01.034-.045v-.045zm1.728 1.197H9.6v-.034h-.113Zm-2.45.214c-.022 0-.034.012-.045.045v.023h.023c.034 0 .045-.011.045-.045v-.023zm.226-2.529c-.011 0-.034.012-.045.034v.023h.045zm.632 1.604c.034 0 .045-.012.045-.046h-.045zm.068.88c.034 0 .045-.011.045-.045h-.045zm.835-.677h.057v-.023h-.057zm.474.7h.023v-.057h-.023zm-2.438-.949c-.011 0-.023.012-.034.046h.034zm.756 1.016h.046v-.022H7.59zm1.795 2.28v-.022l.068.023zm-1.467-2.923h.045l-.045-.011z" style="font-style:normal;font-variant:normal;font-weight:500;font-stretch:normal;font-size:11.28888893px;font-family:&quot;Unfolding Tragedy&quot;;-inkscape-font-specification:&quot;Unfolding Tragedy Medium&quot;;fill:#be30de;fill-opacity:1;stroke-width:.26458332" transform="translate(0 -168.5)"/>
      <path d="M16.633 291.813c0-.033 0-.045-.011-.056a5.53 5.53 0 0 1 .598-.418c.452-.27 1.005-.463 1.648-.587 1.186-.192 2.02-.293 2.518-.293.519 0 1.06.079 1.625.226.463.124.7.214.7.26l.011-.023c0-.034-.056-.09-.158-.181-.733-.61-1.772-.914-3.138-.914h-.316c-1.524 0-2.72.293-3.612.891l.214-.654.361-.904c.147-.35.305-.745.497-1.174.011-.01.011-.022.023-.033.316-.7.474-1.095.485-1.197a.79.79 0 0 0-.192-.553c-.124-.17-.27-.249-.44-.249-.282 0-.587.328-.915.994a.727.727 0 0 0-.474-.158c-.327 0-.722.18-1.174.553-.35.282-.62.587-.835.892h-.011c-.023 0-.068.067-.147.192-.395.756-.655 1.456-.768 2.1l-.022.191a1.524 1.524 0 0 0-.046.271c-.01.316.023.599.125.836.124.327.327.485.598.485.316 0 .689-.26 1.129-.768h.011a11.98 11.98 0 0 0-.068.52c-.406.395-.745.745-1.027 1.05-2.167.146-3.917 1.038-5.25 2.686-.112.192-.169.35-.18.463-.011.215.057.373.192.474a.366.366 0 0 0 .237.102h.034c.056.022.203.034.463.034a3.61 3.61 0 0 0 1.693-.395l.158-.08c.023 0 .124-.045.294-.146a11.465 11.465 0 0 0 3.104-2.54c.102.011.215.034.328.068.01.079.01.203.022.36l.023.396c.011-.056.101-.282.282-.677.147.045.316.101.508.169.801.282 1.298.418 1.49.418.08 0 .124-.057.124-.158 0-.046-.068-.226-.192-.554a7.672 7.672 0 0 1-.338-1.106c0-.034 0-.045-.012-.056l.057.361c.022.17.045.305.056.406l.147.44c.011.035.023.068.034.125l.09.35a3.496 3.496 0 0 1-.35-.124l-.96-.407c-.225-.101-.394-.18-.507-.237l.248-.564c.135-.226.237-.418.294-.565l.71-.598c0 .034 0 .045.012.056zm-1.513-2.607.012.011c.44-1.039.79-1.558 1.05-1.558l-.125.384-.406 1.151a25.83 25.83 0 0 0-.407 1.163l-.304.407c-.18.214-.294.327-.339.327l-.011-.011c.022-.407.192-.982.496-1.739l-.033.012-.023-.09zm-4.267 6.197c0 .012-.079.046-.237.113-.147.068-.406.147-.779.249.847-.802 1.897-1.412 3.15-1.852-1.163 1.005-1.874 1.502-2.123 1.502zm3.138-3.341a.384.384 0 0 1-.079-.17c.034-.09.09-.135.158-.135a.451.451 0 0 0 .147.068l-.022.045h.045a.024.024 0 0 1-.023.022c-.011.046.011.068.057.068v.023c0 .113-.046.17-.125.17h-.045a.024.024 0 0 1-.022-.024l-.068.023.023-.068a.024.024 0 0 1-.023-.022.024.024 0 0 0 .023-.023h-.023a.024.024 0 0 1-.023.023zm2.428-3.387a.331.331 0 0 0 .112-.068c.068.012.102.034.113.09a.024.024 0 0 0-.022.023c.011 0 .022 0 .022.012-.056.034-.09.045-.113.045a.024.024 0 0 0-.022-.023.024.024 0 0 1-.023.023zm-.723 2.551c.034-.056.045-.09.045-.112.034.033.057.045.09.045v.09h-.09zm-2.472.09h.034l.056.294c-.034 0-.068-.09-.09-.282zm4.267-1.365c-.08.034-.113.056-.113.09l.023.068c.056-.034.09-.068.09-.09zm-1.377.62c.079.012.113.023.113.057s-.012.045-.046.045h-.079zm-.971-.846.022.045c.057-.011.09-.034.102-.09l-.124-.011zm-.057-.384c.09-.022.136-.056.136-.101l-.09-.023c0 .023 0 .034-.012.045zm3.421 1.648c-.023 0-.034.012-.045.046l-.011.045h.09l.011-.09zm-1.377-.417h.067c.034.011.046.022.046.045l-.09.034-.023-.034zm-3.014.654c.022 0 .101-.01.225-.033 0 .022-.056.045-.169.056h-.056zm1.377-.225v.011a2.663 2.663 0 0 1-.271.034l-.08-.011c.046 0 .159-.012.328-.034zm2.133-3.06c-.033 0-.045.012-.056.046v.045h.023c.022 0 .033-.012.033-.045l.012-.046zm-4.504 2.676h.023a.7.7 0 0 0 .034.124h-.057zm.045.237h.023l.022.158h-.022zm.158.937h-.022v-.023h.022v.023h.034v.09h-.034zm-.869-3.725h.034v-.057h-.034l.011-.068h-.022l-.011.068h.022zm.26 3.048h-.023v.067h.023zm.214-1.423h.023l-.011-.113h-.034zm.294 1.524h.034c0 .034.01.068.022.08h-.056zm2.02.215h-.022v-.034h.022v.034h.034v.045h.023v.034h-.023v-.034h-.034zm-2.709-1.423h.023v.034h.034v-.034h-.023c.011-.011.023-.022.023-.034h-.057zm4.606-1.648v.045h-.068c0-.034.012-.045.045-.045zm-4.583 1.784h.034v-.08h-.034zm.293 1.772h.023v-.09h-.023zm-3.251.88.011-.146H9.59Zm7.665-4.368h-.068c.012-.034.023-.045.046-.045zm-3.545.564c.034 0 .057.012.057.034v.011c-.034 0-.057-.01-.057-.033zm-1.444-.52h.045c-.012-.01-.023-.033-.023-.067h-.022zm2.765 2.575h.08v.022c-.046 0-.08 0-.091.012zm1.694 1.14c-.046-.17-.08-.282-.102-.361zm-4.008-3.24h.034v-.056h-.034zm2.134 1.863h.034l.01-.034h-.033v-.034h-.023v.034h.023zm-2.134-1.93h.034v-.057h-.034zm2.36.7c0 .033.01.044.045.044v-.045zm-2.732-.486c-.012.022 0 .034.033.034l.012-.057zm2.054.214h.045c0 .034-.011.046-.045.046zm-.835 1.66h-.045c0-.034.01-.045.045-.045zm1.072.18-.147.034v-.022zm-1.513-.35h.057c0 .023-.023.034-.057.034zm1.886 1.107.034-.17-.012.147zm-1.818-.78.057.023c-.012.012-.012.012-.023.012s-.011 0-.011-.012l-.023.046zm-.87-2.2h.024v-.068h-.023zm.43.101h.023v-.068h-.023zm-1.31 4.042h.023l.011-.068h-.022zm1.412-3.59h.022v-.068h-.022zm-.384.146h.034v-.045h-.034zm.36-.225h.046c.011-.023 0-.034-.034-.034zm-1.354 3.578h.023v-.056h-.023zm1.095-2.732h.023l.011-.056h-.022zm2.529.915h.023v.056h-.023zm-2.224-1.615h.023v-.056h-.023zm2.134 1.524-.113.023-.057-.011zm-1.92-.485h.023v-.056H13.1zm-.282 1.197h.034v-.034h-.034zm-.406-2.45h.034v-.034h-.034zm-.926 3.567h.023v-.045h-.023zm.87-3.827h.022v-.045h-.022zm-.068-.485h.022v-.045h-.022zm.485.553h.023l.011-.045h-.022zm1.603 2.055h.045v.022h-.045zm-1.637.18h.023l.011-.045h-.022zm1.908-.248h.08l-.08.022zm-1.783.858.022.011v-.045h-.022zm3.872.214c0 .057.01.136.045.26v.034zm-4.335-4.346h.022v-.034H12.4zm1.275 1.072h.023v.034h-.023zm-2.19 3.906h.023v-.033h-.023zm2.021-4.086h.023v-.034h-.023zm-.497 1.174h.023v-.034h-.023zm-.643-.745h.022v-.034h-.022zm1.038-.553h.023v-.034h-.023zm-.09-.113h.023v-.034h-.023zm.057 3.488h.022v.034h-.022zm-.587-.384h.022v-.034h-.022zm1.05-2.472h.033l-.034.034zm1.377 2.19h.022l-.034.045zm-.407-.666h.023v-.045zm-.384.52h.08l-.08.01zm-.62-2.112h.022l-.034.034zm-.599 2.01h.023l-.023.034zm-3.894-1.457.022-.033h-.022zm3.477 1.942.01-.056h-.01zm-.09-.474.022-.056h-.012zm2.02.982.056-.079-.056.068zm.079-1.377.011-.034h-.011zm.768 1.377h.01l-.01.034zm-.644-1.23h.011l-.01.034zm-2.416-1.14.012-.023H12.5zm4.301 2.867c0-.023 0-.034-.01-.045 0 .022 0 .034.01.045z" style="font-style:normal;font-variant:normal;font-weight:500;font-stretch:normal;font-size:11.28888893px;font-family:&quot;Unfolding Tragedy&quot;;-inkscape-font-specification:&quot;Unfolding Tragedy Medium&quot;;fill:#be30de;fill-opacity:1;stroke-width:.26458332" transform="translate(0 -168.5)"/>
      <path d="M20.606 292.062c-.44.135-.88.282-1.31.429-.597.214-1.026.327-1.286.327-.282 0-.407-.237-.373-.7l.023-.237c.011-.056.023-.135.045-.248l.203-.824c1.49-1.434 2.27-2.585 2.348-3.466.034-.282 0-.542-.101-.779-.136-.305-.35-.451-.632-.451-.486 0-1.016.587-1.57 1.76l-.225.543c-.621 1.467-.96 2.404-.994 2.81l-.124.565c-.17.135-.327.248-.485.339l-.237.158.237-.136c.192-.124.35-.214.474-.293-.124 1.445.293 2.167 1.264 2.167.339 0 .711-.09 1.129-.282l.485-.215c1.536-.7 2.382-1.083 2.54-1.14l.012.011v-.022l.067.022v-.022l.046.022.045-.022v.022l.034-.022h.214l.045.022v-.022c.012 0 .023.011.023.022l.045-.022.056.022v-.022l.09.022a.343.343 0 0 1 .148-.022v-.023l-.068-.022c-.011.011-.023.022-.034.022h-.62a6.476 6.476 0 0 1 2.054-.338c.553 0 1.151.113 1.783.338-.767-.463-1.716-.688-2.845-.688-.575 0-1.185.067-1.806.192zm-1.06-4.595a1.014 1.014 0 0 1-.08.305c-.372.87-.824 1.67-1.354 2.427.519-1.558.982-2.574 1.377-3.048.056.057.067.17.056.316zm6.637-1.58-.011.079-.136.09c-.079 0-.146.068-.192.192l.023.045c0 .023-.011.034-.045.034-.011.034.011.045.056.045l-.011.124.056.102c.125.022.192.068.181.135.09-.022.18-.113.282-.282.09-.147.158-.226.203-.226v-.022h-.112l.01-.045h.046l-.023-.046-.067.046h-.034v-.046c-.147-.056-.215-.101-.215-.124l.023-.18h-.068zm-.192 1.603c.034 0 .045.022.045.079l.045-.023.046.023.09-.102.011-.067c0-.034-.056-.046-.158-.057zm.023.27-.023.068.057.034.09-.01c-.034-.057-.057-.091-.08-.091zm-8.783 2.958a.998.998 0 0 0 .327.046v.034H17.4c0-.023-.011-.034-.022-.034v.034l-.034-.034h-.113zm-.26-.056a.86.86 0 0 0 .237.056l-.022.046a.514.514 0 0 0-.249-.046zm9.065-4.854h.068v-.045c0-.023-.011-.034-.045-.045h-.023zm1.93 1.366.068.022v-.067h-.067Zm-2.573-1.253c-.011.034 0 .045.034.045h.022l-.011-.068zm.564 6.434a.208.208 0 0 0 .102.08c.022 0 .034 0 .045.01a.468.468 0 0 1-.135-.078zm.226.147c.011-.034-.011-.056-.056-.056h-.023zm.237-5.836h.045v-.045h-.045zm.565-.61h.045v-.022h-.045z" style="font-style:normal;font-variant:normal;font-weight:500;font-stretch:normal;font-size:11.28888893px;font-family:&quot;Unfolding Tragedy&quot;;-inkscape-font-specification:&quot;Unfolding Tragedy Medium&quot;;fill:#be30de;fill-opacity:1;stroke-width:.26458332" transform="translate(0 -168.5)"/>
    </g>
  </g>
  <g style="display:inline">
    <g aria-label="crusher" style="font-style:normal;font-weight:400;font-size:26.54396629px;line-height:1.25;font-family:sans-serif;letter-spacing:0;word-spacing:0;display:inline;fill:#be30de;fill-opacity:1;stroke:none;stroke-width:.35549957">
      <path d="M-3.694 11.77c-.056.008-.096.016-.136.016h-.024c-.096-.016-.136-.008-.136-.313 0-.136.008-.312.064-.512l.032-.176c.04-.233 0-.12.449-1.298.056-.152.16-.288.192-.385.064.16.128.497.176.834.032.28.04.288.168.296h.024c.289 0 .337-1.041.337-1.378 0-.024 0-.056-.008-.08v-.072c-.008.008-.048.208-.104.48-.016-.536-.24-.84-.625-.84-.48 0-.833.616-1.13 1.385l-.088.225c-.056 0-.224.849-.224 1.233 0 .681.216 1.17.753 1.17.448 0 .985-.473 1.338-.825.376-.377.584-.641.705-.761-.057.048-.153.12-.273.2-.673.456-1.17.713-1.49.8zm1.875-1.106a.528.528 0 0 0-.096.089c.064-.057.096-.08.096-.089zm-.737-1.97v-.048c0-.016 0-.024-.008-.024 0 .024 0 .048.008.072zm-.425 1.274c0-.008.008-.016.024-.024a.175.175 0 0 1-.032.04z" style="font-style:normal;font-variant:normal;font-weight:400;font-stretch:normal;font-size:8.01031303px;font-family:&quot;Unfolding Tragedy&quot;;-inkscape-font-specification:&quot;Unfolding Tragedy&quot;;fill:#be30de;fill-opacity:1;stroke-width:.35549957" transform="matrix(.7626 -.37131 .5443 1.04628 0 0)"/>
      <path d="M-1.468 8.534c-.577 1.361-1.258 1.994-1.57 2.034h-.048c0 .008.016.008.048.008h.032c.216 0 .705-.192 1.177-.665-.192.65-.288.986-.288.994l-.096.376c-.056.2-.128.32-.128.569l-.008.024c0 .296.184.489.4.489.072 0 .176-.016.232-.072l.072-.065.12-.176a1.84 1.84 0 0 0 .137-.24c.296-.489.953-2.115 1.017-2.21.369-.762.857-1.235 1.45-1.355h-.016c-.689 0-1.378.337-1.955 1.202.057-.256.209-.913.209-.977l.008-.048c.008-.008.008-.016.008-.04 0-.329-.24-.393-.305-.393-.152 0-.272.072-.296.136l-.024.04a.473.473 0 0 0-.048.096zm.12-.169c0-.008 0-.016.008-.024l-.008.032zm2.805 2.98c-.376.257-.376.4-.48.44v.009c-.033-.056-.08-.12-.137-.208v-.008c-.008-.249.28-1.322.577-2.235l.176-.553c.032-.104.072-.12.072-.256 0-.064-.104-.2-.176-.2h-.008c-.008-.009-.024-.009-.048-.009-.056 0-.152.057-.208.08l-.016.017h.008c-.249.44-.705 1.281-.77 1.41-.6 1.794-.88 2.33-1.289 2.354h-.08c0 .008.024.008.072.008.417-.032.705-.352 1.346-1.674-.112.425-.208.841-.208 1.034 0 .024 0 .032.008.032l-.016.136c.064.24.2.68.576.68.169 0 .353-.08.537-.24.97-.833 1.738-1.938 2.179-3.348.088-.296.128-.553.128-.745v-.048c-.008-.168-.048-.264-.12-.272h-.008c-.168 0-.377.392-.569.945a7.671 7.671 0 0 1-1.546 2.651zm-.553.633c0 .008 0 .008-.008.016zm4.348-.088c.425-.489.513-1.033.513-1.802 0-.633-.04-2.019-.705-2.019h-.032c-.216.024-.553.264-.553.433-.537 1.634-.809 2.45-.809 2.459a95.96 95.96 0 0 1-1.01 1.346 2.38 2.38 0 0 1-.4.256c.072-.016.217-.08.44-.176.465-.056 1.37-.761 2.092-2.131.008.12.016.224.016.312 0 .545-.097.881-.393 1.13-.777.424-1.161.673-1.161.76.008.033.056.049.152.049.2 0 .617-.064 1.257-.2.2-.057.393-.193.593-.417z" style="font-style:normal;font-variant:normal;font-weight:400;font-stretch:normal;font-size:8.01031303px;font-family:&quot;Unfolding Tragedy&quot;;-inkscape-font-specification:&quot;Unfolding Tragedy&quot;;fill:#be30de;fill-opacity:1;stroke-width:.35549957" transform="matrix(.7626 -.37131 .5443 1.04628 0 0)"/>
      <path d="M9.19 9.27c.056-.184.08-.32.088-.44-.04-.344-.152-.473-.384-.473-.112 0-.32.089-.545.273.833-1.466 1.322-2.956 1.322-3.533 0-.128-.008-.584-.449-.584H9.15c-.312.072-.473.184-.673.44-.424.553-.793 1.274-1.586 3.477l-.056.184a63.06 63.06 0 0 0-.713 2.491 9.824 9.824 0 0 1-1.77 1.234l.112-.056c.569-.28 1.121-.593 1.602-.986-.08.305-.136.585-.2.841l-.016.137c.008.184.152.304.336.304h.056c.112-.032.225-.056.305-.168l.08-.112c.008-.008.032-.057.072-.129l.272-.544c.625-1.122 1.21-1.995 1.57-2.355-.328 1.241-.416 1.93-.416 2.587 0 .873.24 1.386.729 1.386.216 0 .52-.136.52-.184v-.008c0-.008-.008-.008-.032-.008H9.31a.656.656 0 0 0-.16.032h-.072c-.393 0-.577-.257-.577-.834 0-.672.152-1.393.69-2.971zm-.849-1.61a8.795 8.795 0 0 1-1.057 2.107c.168-.584.296-1.001.4-1.241l-.008.008c0-.209.77-2.091 1.202-2.932.04-.072.072-.128.096-.184-.04.424-.273 1.201-.633 2.243zm-4.085 4.72-.096.048c.008 0 .04-.016.096-.048zm.04-.016.016-.008-.056.024zm.04-.016-.024.008c.008 0 .016 0 .024-.008zm.016-.008c-.008 0-.008 0-.016.008z" style="font-style:normal;font-variant:normal;font-weight:400;font-stretch:normal;font-size:8.01031303px;font-family:&quot;Unfolding Tragedy&quot;;-inkscape-font-specification:&quot;Unfolding Tragedy&quot;;fill:#be30de;fill-opacity:1;stroke-width:.35549957" transform="matrix(.7626 -.37131 .5443 1.04628 0 0)"/>
      <path d="M10.474 11.898a1.598 1.598 0 0 1-.16-.705c0-.032.008-.104.016-.216.825-.497 1.394-1.498 1.394-1.97V8.99c0-.328-.273-.64-.617-.64-.52 0-.793.304-.97.52l-.055.088c-.024 0-.072.104-.16.32a4.116 4.116 0 0 0-.32 1.579v.176a1.99 1.99 0 0 1-1.018.368h-.136c-.105 0-.193-.008-.28-.024l-.129-.024.12.04c.168.056.393.097.641.097.28 0 .553-.049.833-.153.256 1.306 1.37 1.57 2.179 1.843l.457.128a9.026 9.026 0 0 1-.425-.2c-1.01-.601-1.065-.65-1.37-1.21zm.104-1.882c-.024.024-.04.056-.064.088.072-.289.249-.745.377-.81a2.557 2.557 0 0 1-.313.722zm1.755 3.316h.008l-.072-.024a.217.217 0 0 0 .064.024z" style="font-style:normal;font-variant:normal;font-weight:400;font-stretch:normal;font-size:8.01031303px;font-family:&quot;Unfolding Tragedy&quot;;-inkscape-font-specification:&quot;Unfolding Tragedy&quot;;fill:#be30de;fill-opacity:1;stroke-width:.35549957" transform="matrix(.7626 -.37131 .5443 1.04628 0 0)"/>
      <path d="M12.456 8.534c-.577 1.361-1.258 1.994-1.57 2.034h-.048c0 .008.016.008.048.008h.032c.216 0 .705-.192 1.177-.665-.192.65-.288.986-.288.994l-.096.376c-.056.2-.128.32-.128.569l-.008.024c0 .296.184.489.4.489.072 0 .177-.016.233-.072l.072-.065.12-.176c.056-.088.104-.168.136-.24.296-.489.953-2.115 1.017-2.21.369-.762.857-1.235 1.45-1.355h-.016c-.689 0-1.378.337-1.954 1.202.056-.256.208-.913.208-.977l.008-.048c.008-.008.008-.016.008-.04 0-.329-.24-.393-.304-.393-.153 0-.273.072-.297.136l-.024.04a.474.474 0 0 0-.048.096zm.12-.169c0-.008 0-.016.008-.024l-.008.032z" style="font-style:normal;font-variant:normal;font-weight:400;font-stretch:normal;font-size:8.01031303px;font-family:&quot;Unfolding Tragedy&quot;;-inkscape-font-specification:&quot;Unfolding Tragedy&quot;;fill:#be30de;fill-opacity:1;stroke-width:.35549957" transform="matrix(.7626 -.37131 .5443 1.04628 0 0)"/>
    </g>
  </g>
  <g style="display:inline">
    <path d="M27.771 15.974c.695.237 1.398.608 1.952 1.23.553.623.974 1.546.871 2.343.008.033.972 69.793.086 95.503H.2s.092-76.695 0-78.921c-.09-2.174 0-7.156 0-7.156.75-1.148 1.294-.96 2.613-.93.36.009.744.11 1.064-.028.519-.225.668-.97.839-1.605.811-3.019 3.374-4.928 6.178-4.603.281.033.604.07.768-.168.145-.213.098-.552.064-.855-.144-1.289.115-2.603.868-3.346.785-.774 1.956-.692 2.934.074.906-1.3 1.912-3.16 3.512-3.397 1.427-.212 3.81.991 4.324 2.897 1.071-1.342 2.733-1.606 4.407-1.038" style="display:inline;fill:url(#d);fill-opacity:1;fill-rule:nonzero;stroke:none;stroke-width:.0284852"/>
    <path d="M9.327 36.951c-.372 2.085-1.397 3.902-2.931 4.831-1.534.93-3.582.902-5.328-.246-.633-.416-.38.009-.868-.65.404.161-.381-1.039.026-.964 1.754.324 3.845.133 5.073-1.09a5.244 5.244 0 0 0 1.5-4.236c2.074-.198 3.517-2.617 3.1-5.196.873.404 1.787.01 2.303-.74.516-.752.698-1.796.753-2.838.76.949.736 2.422.222 3.341-.514.92-1.392 1.418-2.24 1.887.473 1.925-.48 3.892-2.012 4.155.229.382.406.794.545 1.218-.074.153-.11.345-.143.528" style="display:inline;fill:#409880;fill-opacity:1;fill-rule:nonzero;stroke:none;stroke-width:.0284852"/>
    <path d="M26.977 9.414c2.96-.404 3.092 5.032.867 5.347-1.4.198-.31-.653-.344-1.637-.04-1.213-2.578-3.43-.523-3.71" style="display:inline;fill:#30e0b0;fill-opacity:1;fill-rule:nonzero;stroke:none;stroke-width:.0284852"/>
    <path d="M2.813 28.044c.36.008.744.11 1.064-.029.519-.225.668-.971.839-1.605.811-3.019 3.374-4.928 6.178-4.603.281.033.604.07.768-.168.145-.213.098-.552.064-.855-.144-1.289.115-2.603.868-3.346.785-.774 1.956-.692 2.934.074.906-1.3 1.912-3.16 3.512-3.397 1.427-.212 3.81.991 4.324 2.897 1.071-1.342 2.733-1.607 4.407-1.038.695.237 1.398.608 1.952 1.23.069.078.136.16.199.247l-.165-.06c-1.285-.468-2.544-.623-3.755-.303-.388.102-3.19 1.327-2.888 2.083-.71-1.773-2.565-2.77-4.016-2.458-1.45.313-2.488 1.683-3 3.298-.518-1.196-2.036-1.234-2.645-.346-.61.888-.578 2.248-.521 3.506-1.917-.384-3.813.165-5.16 1.493-1.346 1.328-2.127 3.42-2.124 5.69-.473-.382-1.038-.425-1.555-.404-2.187.09-2.47-.436-3.922 1.267.367-.876-.467-1.485.029-2.244.75-1.148 1.294-.96 2.613-.93" style="display:inline;fill:#be30de;fill-opacity:1;fill-rule:nonzero;stroke:none;stroke-width:.0284852"/>
    <path d="M30.68 21.652c-1.588-.05-1.423 1.352-1.908 3.063-.398-.986-1.335-1.613-2.19-1.71-.855-.099-1.64.24-2.347.665-1.033.618-2.048 1.632-1.968 3.129-.57-1.623-1.835-2.991-3.215-3.478-1.38-.486-2.825-.073-3.673 1.05.069-1.662 1.341-2.81 2.748-2.713 1.408.097 2.836 1.287 3.674 2.821.332-1.482 1.301-2.618 2.545-2.982 1.244-.365 2.733.05 3.91 1.09.45-1.33 1.271-2.435 2.338-3.04M26.977 9.414c1.026-.14 1.712.423 2.078 1.23a.892.892 0 0 0-1.04.586c-.223-.627-.829-1.031-1.358-1.036-.16-.002-.312.03-.458.082-.093-.437.069-.765.778-.862" style="display:inline;fill:#be30de;fill-opacity:1;fill-rule:nonzero;stroke:none;stroke-width:.0284852"/>
    <path d="M2.714 20.244c-2.96-.404-3.092 5.031-.867 5.346 1.4.199.31-.652.344-1.636.04-1.213 2.578-3.43.523-3.71" style="display:inline;fill:#30e0b0;fill-opacity:1;fill-rule:nonzero;stroke:none;stroke-width:.0284852"/>
    <path d="M2.714 20.244c-1.027-.14-1.712.423-2.078 1.23a.892.892 0 0 1 1.04.585c.222-.626.829-1.03 1.358-1.035.16-.002.312.03.458.082.093-.438-.069-.765-.778-.862" style="display:inline;fill:#be30de;fill-opacity:1;fill-rule:nonzero;stroke:none;stroke-width:.0284852"/>
    <path d="M28.14 39.355c1.604-.8 2.675-2.547 2.637-4.636l-.011-1.057s-.75-.902-.903-.517c-.664 1.656-1.942 3.321-3.631 3.707a5.244 5.244 0 0 1-4.383-.995c-1.276 1.647-2.45 1.119-4.408-.611-.124.953-2.883 1.312-3.794 1.347-.91.035-1.901-1.958-2.447-2.924.062 1.478.321 3.756 1.614 4.061 1.385.214 2.977.197 3.826-.27 1.376 1.43 3.548 1.58 4.588.425.2.398.68.718 1.37 1.345 2.289 1.127 3.936.925 5.541.125z" style="display:inline;fill:#409880;fill-opacity:1;fill-rule:nonzero;stroke:none;stroke-width:.0284852"/>
  </g>
  <g style="display:inline;opacity:1">
    <rect width="10" height="27.5" x="20" y="86" rx="3" ry="3.3" style="fill:#404040;fill-opacity:1;fill-rule:evenodd;stroke-width:.27749732;paint-order:stroke fill markers"/>
    <g style="font-style:normal;font-weight:400;font-size:19.7555542px;line-height:1.25;font-family:sans-serif;letter-spacing:0;word-spacing:0;fill:#000;fill-opacity:1;stroke:none;stroke-width:.26458332">
      <path d="M20.979 98.273q0-.48.229-.745.23-.264.638-.264.41 0 .639.264.23.265.23.745v.55q0 .494-.23.751-.23.258-.639.258-.409 0-.638-.258-.23-.257-.23-.751zm.867 1.284q.286 0 .427-.194.145-.198.145-.561v-.508q0-.339-.145-.547-.14-.208-.427-.208-.285 0-.43.208-.141.208-.141.547v.508q0 .363.14.56.146.195.431.195zm2.634-1.524h.274v1.75h-.275v-.318h-.042q-.085.17-.222.268-.138.099-.35.099-.144 0-.268-.05-.12-.045-.208-.14-.085-.096-.134-.237-.046-.141-.046-.328v-1.044h.275v1.009q0 .275.113.402t.346.127q.25 0 .392-.17.144-.172.144-.458zm.847 0h.55v-.72h.276v.72h.677v.254h-.677v1.136q0 .105.095.105h.497v.254h-.596q-.12 0-.198-.077-.074-.078-.074-.198v-1.22h-.55zm2.859 1.474v-2.063h-.043l-.405.927h-.293v-.02l.462-1.038h.575v2.194h.699v.275h-1.694v-.275z" aria-label="Out1" style="font-style:normal;font-variant:normal;font-weight:400;font-stretch:normal;font-size:3.52777767px;font-family:&quot;SpaceMono Nerd Font&quot;;-inkscape-font-specification:&quot;SpaceMono Nerd Font&quot;;fill:#fff;fill-opacity:1;stroke-width:.26458332" transform="translate(-.08 -1.298)"/>
    </g>
    <g style="font-style:normal;font-weight:400;font-size:19.7555542px;line-height:1.25;font-family:sans-serif;letter-spacing:0;word-spacing:0;display:inline;opacity:1;fill:#000;fill-opacity:1;stroke:none;stroke-width:.26458332">
      <path d="M20.979 109.523q0-.48.229-.745.23-.264.638-.264.41 0 .639.264.23.265.23.745v.55q0 .494-.23.751-.23.258-.639.258-.409 0-.638-.258-.23-.257-.23-.751zm.867 1.284q.286 0 .427-.194.145-.198.145-.561v-.508q0-.339-.145-.547-.14-.208-.427-.208-.285 0-.43.208-.141.208-.141.547v.508q0 .363.14.56.146.195.431.195zm2.634-1.524h.274v1.75h-.275v-.318h-.042q-.085.17-.222.268-.138.099-.35.099-.144 0-.268-.05-.12-.045-.208-.14-.085-.096-.134-.237-.046-.141-.046-.328v-1.044h.275v1.009q0 .275.113.402t.346.127q.25 0 .392-.17.144-.172.144-.458zm.847 0h.55v-.72h.276v.72h.677v.254h-.677v1.136q0 .105.095.105h.497v.254h-.596q-.12 0-.198-.077-.074-.078-.074-.198v-1.22h-.55zm3.829 1.474v.275h-1.672v-.423q0-.17.056-.293.057-.127.159-.215.106-.092.254-.152.148-.06.335-.102.314-.07.452-.201.14-.13.14-.321v-.021q0-.095-.031-.187-.032-.092-.099-.166-.067-.074-.173-.116-.102-.046-.247-.046-.271 0-.423.166-.148.165-.148.44v.156h-.296v-.177q0-.169.056-.324t.166-.275q.11-.12.271-.19.163-.071.374-.071.216 0 .374.067.159.063.265.172.106.106.155.244.053.134.053.275v.064q0 .282-.176.483-.177.197-.565.282-.338.074-.497.198-.159.12-.159.352v.106z" aria-label="Out2" style="font-style:normal;font-variant:normal;font-weight:400;font-stretch:normal;font-size:3.52777767px;font-family:&quot;SpaceMono Nerd Font&quot;;-inkscape-font-specification:&quot;SpaceMono Nerd Font&quot;;fill:#fff;fill-opacity:1;stroke-width:.26458332"/>
    </g>
    <g style="font-style:normal;font-variant:normal;font-weight:400;font-stretch:normal;font-size:19.7555542px;line-height:1.25;font-family:&quot;SpaceMono Nerd Font&quot;;-inkscape-font-specification:&quot;SpaceMono Nerd Font&quot;;letter-spacing:0;word-spacing:0;display:inline;fill:#000;fill-opacity:1;stroke:none;stroke-width:.26458332">
      <path d="M2.421 108.481h1.567v.275h-.635v1.92h.635v.275H2.42v-.276h.635v-1.919H2.42zm2.443 2.469h-.276v-1.75h.276v.297h.042q.162-.346.564-.346.304 0 .484.19.18.188.18.565v1.045h-.276v-.988q0-.275-.123-.413-.124-.138-.335-.138-.25 0-.395.173-.141.17-.141.455zm2.523-.275v-2.063h-.042l-.406.928h-.293v-.022l.462-1.037h.575v2.194h.699v.276H6.689v-.276z" aria-label="In1" style="font-size:3.52777767px;fill:#fff;fill-opacity:1;stroke-width:.26458332" transform="translate(.004)"/>
    </g>
    <g style="font-style:normal;font-variant:normal;font-weight:400;font-stretch:normal;font-size:19.7555542px;line-height:1.25;font-family:&quot;SpaceMono Nerd Font&quot;;-inkscape-font-specification:&quot;SpaceMono Nerd Font&quot;;letter-spacing:0;word-spacing:0;display:inline;fill:#000;fill-opacity:1;stroke:none;stroke-width:.26458332">
      <path d="M12.021 108.53h1.567v.276h-.635v1.919h.635V111H12.02v-.275h.635v-1.92h-.635zm2.443 2.47h-.275v-1.75h.275v.297h.042q.162-.346.565-.346.303 0 .483.19.18.187.18.565V111h-.275v-.988q0-.275-.124-.413-.123-.137-.335-.137-.25 0-.395.173-.141.17-.141.455zm3.493-.275V111h-1.672v-.423q0-.17.057-.293.056-.127.158-.215.106-.092.254-.152.149-.06.336-.102.314-.07.451-.201.141-.13.141-.321v-.022q0-.095-.031-.187-.032-.091-.1-.165-.066-.075-.172-.117-.102-.046-.247-.046-.272 0-.423.166-.149.166-.149.441v.155h-.296v-.176q0-.17.057-.325.056-.155.165-.275.11-.12.272-.19.162-.07.374-.07.215 0 .374.066.159.064.264.173.106.106.156.243.053.134.053.276v.063q0 .282-.177.483-.176.198-.564.283-.339.074-.498.197-.158.12-.158.353v.106z" aria-label="In2" style="font-size:3.52777767px;fill:#fff;fill-opacity:1;stroke-width:.26458332" transform="translate(.004)"/>
    </g>
    <path d="M7.5 76v7.5H5V91m17.5-15v7.5H15V91" style="fill:none;stroke:#fff;stroke-width:.5;stroke-linecap:butt;stroke-linejoin:miter;stroke-miterlimit:4;stroke-dasharray:1,.5;stroke-dashoffset:5;stroke-opacity:1"/>
    <g style="font-style:normal;font-variant:normal;font-weight:400;font-stretch:normal;font-size:3.52777767px;line-height:1.25;font-family:&quot;SpaceMono Nerd Font&quot;;-inkscape-font-specification:&quot;SpaceMono Nerd Font&quot;;letter-spacing:0;word-spacing:0;fill:#000;fill-opacity:1;stroke:none;stroke-width:.26458332">
      <path d="M19.078 54.8h1.1v1.185h-.274v-.297h-.043q-.06.156-.211.25-.152.096-.353.096-.399 0-.628-.257-.226-.258-.226-.752v-.55q0-.48.23-.745.229-.264.638-.264.212 0 .374.07.162.067.272.19.109.12.165.287.057.162.057.349v.042h-.297v-.042q0-.12-.035-.233-.032-.113-.102-.197-.067-.089-.177-.138-.105-.053-.257-.053-.286 0-.43.208-.142.208-.142.547v.508q0 .363.142.56.144.195.437.195.265 0 .413-.17.151-.169.151-.472v-.042h-.804zm2.89.888h-.042q-.085.177-.236.261-.148.085-.314.085-.173 0-.321-.056-.148-.06-.261-.173-.11-.117-.173-.282-.064-.166-.064-.385v-.056q0-.216.064-.381.063-.166.173-.28.113-.115.26-.175.149-.06.315-.06.18 0 .324.08.148.078.233.244h.042v-.275h.276v1.39q0 .106.095.106h.088v.254h-.187q-.12 0-.197-.078-.075-.077-.075-.197zm-.564.085q.124 0 .226-.046.106-.046.18-.13.074-.085.116-.201.042-.12.042-.265v-.042q0-.141-.042-.258-.042-.12-.12-.204-.074-.085-.18-.131-.102-.05-.222-.05-.123 0-.226.046-.102.046-.18.131-.074.081-.116.201-.042.117-.042.258v.056q0 .3.155.47.159.165.409.165zm1.994-2.06q0-.102.071-.173.074-.074.176-.074.103 0 .173.074.074.07.074.173 0 .102-.074.176-.07.07-.173.07-.102 0-.176-.07-.07-.074-.07-.176zm-.5 2.018h.613v-1.242h-.55v-.254h.825v1.496h.572v.254h-1.46zm2.389.254h-.275v-1.75h.275v.296h.042q.163-.345.565-.345.303 0 .483.19.18.187.18.565v1.044h-.275v-.988q0-.275-.124-.413-.123-.137-.335-.137-.25 0-.395.172-.141.17-.141.456z" aria-label="Gain" style="font-size:3.52777767px;line-height:4.40972233px;fill:#fff;fill-opacity:1;stroke-width:.26458332" transform="translate(0 -2.5)"/>
    </g>
    <g style="font-style:normal;font-variant:normal;font-weight:400;font-stretch:normal;font-size:3.52777767px;line-height:1.25;font-family:&quot;SpaceMono Nerd Font&quot;;-inkscape-font-specification:&quot;SpaceMono Nerd Font&quot;;letter-spacing:0;word-spacing:0;display:inline;opacity:1;fill:#000;fill-opacity:1;stroke:none;stroke-width:.26458332">
      <path d="M19.47 67.29h.565l.331 2.342h.043l.331-2.342h.565v2.47h-.275v-2.343h-.043l-.331 2.342h-.537l-.331-2.342h-.043v2.342h-.275zm2.845.198q0-.103.07-.173.074-.074.177-.074.102 0 .173.074.074.07.074.173 0 .102-.074.176-.071.07-.173.07-.103 0-.177-.07-.07-.074-.07-.176zm-.501 2.017h.614v-1.241h-.55v-.254h.825v1.495h.571v.254h-1.46zm3.359-1.495h.314l-.515.832v.043l.558.874h-.321l-.477-.769h-.063l-.476.77h-.321l.557-.875v-.043l-.515-.832h.314l.441.726h.063z" aria-label="Mix" style="font-size:3.52777767px;line-height:4.40972233px;fill:#fff;fill-opacity:1;stroke-width:.26458332"/>
    </g>
    <g style="font-style:normal;font-variant:normal;font-weight:400;font-stretch:normal;font-size:3.52777767px;line-height:1.25;font-family:&quot;SpaceMono Nerd Font&quot;;-inkscape-font-specification:&quot;SpaceMono Nerd Font&quot;;letter-spacing:0;word-spacing:0;display:inline;opacity:1;fill:#000;fill-opacity:1;stroke:none;stroke-width:.26458332">
      <path d="M2.356 67.265h.811q.459 0 .67.219.212.219.212.699v.635q0 .48-.211.698-.212.219-.67.219h-.812v-.279h.212V67.54h-.212Zm.769 2.195q.162 0 .279-.032.12-.032.197-.106.078-.078.113-.205.039-.127.039-.32v-.593q0-.194-.039-.321-.035-.127-.113-.201-.077-.078-.197-.11-.117-.032-.279-.032h-.261v1.92zm1.338-1.475h.635v.233h.043q.067-.145.19-.212.123-.07.282-.07.265 0 .427.172.162.173.173.505l-.29.042q0-.243-.116-.349-.116-.11-.285-.11-.11 0-.191.043-.078.042-.13.116-.053.074-.078.173-.025.099-.025.212v.74h.445v.255H4.42v-.254h.402v-1.242h-.36Zm2.799-.522q0-.102.07-.173.075-.074.177-.074t.173.074q.074.07.074.173 0 .102-.074.176-.07.07-.173.07-.102 0-.177-.07-.07-.074-.07-.176zM6.76 69.48h.614v-1.242h-.55v-.254h.825v1.496h.571v.254H6.76Zm3.156.255h-.543l-.61-1.75h.324l.536 1.623h.042l.537-1.623h.324zm1.317-.79q.01.26.162.42.152.158.424.158.123 0 .215-.028.091-.028.155-.078.067-.05.106-.113.042-.067.067-.14l.26.07q-.073.243-.274.398-.198.152-.537.152-.186 0-.345-.063-.155-.067-.268-.187-.113-.12-.177-.286-.063-.166-.063-.367v-.085q0-.183.063-.342.067-.159.184-.271.116-.117.271-.18.16-.067.343-.067.215 0 .37.08.159.078.257.195.103.116.149.254.05.137.05.254v.226zm.586-.748q-.117 0-.22.038-.098.036-.176.103-.074.067-.123.158-.046.089-.06.195h1.129q-.007-.113-.057-.205-.045-.092-.123-.155-.074-.064-.173-.1-.095-.034-.197-.034z" aria-label="Drive" style="font-size:3.52777767px;line-height:4.40972233px;fill:#fff;fill-opacity:1;stroke-width:.26458332"/>
    </g>
    <path d="M22.5 59.75h-15" style="display:inline;fill:#fff;fill-opacity:1;stroke:#fff;stroke-width:.5;stroke-linecap:butt;stroke-linejoin:miter;stroke-miterlimit:4;stroke-dasharray:1,.5;stroke-dashoffset:5;stroke-opacity:1"/>
    <rect width="22.5" height="22.5" x="3.75" y="19.75" rx="3.857" ry="3.857" style="fill:#404040;fill-opacity:1;fill-rule:evenodd;stroke-width:1.4;stroke:#be30de;stroke-opacity:1;stroke-miterlimit:4;stroke-dasharray:none"/>
  </g>
  <g style="display:inline">
    <circle cx="15" cy="91" r="3" style="display:inline;fill:#0f0;fill-opacity:1;fill-rule:evenodd;stroke-width:.26458332"/>
    <circle cx="25" cy="91" r="3" style="display:inline;fill:#00f;fill-opacity:1;fill-rule:evenodd;stroke-width:.26458332"/>
    <circle cx="5" cy="91" r="3" style="display:inline;fill:#0f0;fill-opacity:1;fill-rule:evenodd;stroke-width:.26458332"/>
    <circle cx="15" cy="103.5" r="3" style="display:inline;fill:#0f0;fill-opacity:1;fill-rule:evenodd;stroke-width:.26458332"/>
    <circle cx="25" cy="103.5" r="3" style="display:inline;fill:#00f;fill-opacity:1;fill-rule:evenodd;stroke-width:.26458332"/>
    <circle cx="5" cy="103.5" r="3" style="display:inline;fill:#0f0;fill-opacity:1;fill-rule:evenodd;stroke-width:.26458332"/>
    <circle cx="22.5" cy="76" r="3" style="display:inline;fill:red;fill-opacity:1;fill-rule:evenodd;stroke-width:.26458332"/>
    <circle cx="7.5" cy="59.75" r="3" style="display:inline;fill:#0f0;fill-opacity:1;fill-rule:evenodd;stroke-width:.26458332"/>
    <circle cx="7.5" cy="76" r="3" style="display:inline;fill:red;fill-opacity:1;fill-rule:evenodd;stroke-width:.26458332"/>
    <circle cx="22.5" cy="59.75" r="3" style="display:inline;fill:red;fill-opacity:1;fill-rule:evenodd;stroke-width:.26458332"/>
  </g>
</svg>
