<?xml version="1.0" encoding="UTF-8" standalone="no"?>
<!-- Created with Inkscape (http://www.inkscape.org/) -->

<svg
   xmlns:osb="http://www.openswatchbook.org/uri/2009/osb"
   xmlns:dc="http://purl.org/dc/elements/1.1/"
   xmlns:cc="http://creativecommons.org/ns#"
   xmlns:rdf="http://www.w3.org/1999/02/22-rdf-syntax-ns#"
   xmlns:svg="http://www.w3.org/2000/svg"
   xmlns="http://www.w3.org/2000/svg"
   xmlns:xlink="http://www.w3.org/1999/xlink"
   xmlns:sodipodi="http://sodipodi.sourceforge.net/DTD/sodipodi-0.dtd"
   xmlns:inkscape="http://www.inkscape.org/namespaces/inkscape"
   width="30.48mm"
   height="128.5mm"
   viewBox="0 0 30.479999 128.5"
   version="1.1"
   id="svg8"
   inkscape:version="0.92.4 (5da689c313, 2019-01-14)"
   sodipodi:docname="Crusher.svg"
   enable-background="new">
  <defs
     id="defs2">
    <linearGradient
       id="linearGradient1795"
       osb:paint="solid">
      <stop
         style="stop-color:#000000;stop-opacity:1;"
         offset="0"
         id="stop1793" />
    </linearGradient>
    <linearGradient
       id="linearGradient7269"
       osb:paint="solid">
      <stop
         style="stop-color:#000000;stop-opacity:1;"
         offset="0"
         id="stop7267" />
    </linearGradient>
    <linearGradient
       id="linearGradient6416"
       inkscape:collect="always">
      <stop
         id="stop6412"
         offset="0"
         style="stop-color:#30e0b0;stop-opacity:1" />
      <stop
         id="stop6414"
         offset="1"
         style="stop-color:#409880;stop-opacity:1" />
    </linearGradient>
    <linearGradient
       inkscape:collect="always"
       id="linearGradient968">
      <stop
         style="stop-color:#30e0b0;stop-opacity:1"
         offset="0"
         id="stop964" />
      <stop
         style="stop-color:#409880;stop-opacity:1"
         offset="1"
         id="stop966" />
    </linearGradient>
    <linearGradient
       id="linearGradient926"
       inkscape:collect="always">
      <stop
         id="stop922"
         offset="0"
         style="stop-color:#30e0b0;stop-opacity:1" />
      <stop
         id="stop924"
         offset="1"
         style="stop-color:#409880;stop-opacity:0;" />
    </linearGradient>
    <linearGradient
       inkscape:collect="always"
       id="linearGradient4624">
      <stop
         style="stop-color:#409880;stop-opacity:1"
         offset="0"
         id="stop4620" />
      <stop
         style="stop-color:#409880;stop-opacity:0;"
         offset="1"
         id="stop4622" />
    </linearGradient>
    <inkscape:perspective
       sodipodi:type="inkscape:persp3d"
       inkscape:vp_x="-0.52916667 : 65.8375 : 1"
       inkscape:vp_y="0 : 1000 : 0"
       inkscape:vp_z="31.220833 : 67.689583 : 1"
       inkscape:persp3d-origin="25.4 : 42.833333 : 1"
       id="perspective3717" />
    <linearGradient
       inkscape:collect="always"
       xlink:href="#linearGradient4624"
       id="linearGradient4630"
       x1="15.44"
       y1="285.34"
       x2="15.44"
       y2="190.98956"
       gradientUnits="userSpaceOnUse"
       gradientTransform="matrix(1,0,0,0.98990457,-3.7997961e-7,1.0906062)" />
    <linearGradient
       inkscape:collect="always"
       xlink:href="#linearGradient926"
       id="linearGradient920"
       x1="15.455564"
       y1="180.33466"
       x2="15.455564"
       y2="283.68228"
       gradientUnits="userSpaceOnUse" />
    <linearGradient
       inkscape:collect="always"
       xlink:href="#linearGradient968"
       id="linearGradient970"
       x1="15.715448"
       y1="180.44376"
       x2="15.455504"
       y2="283.6825"
       gradientUnits="userSpaceOnUse" />
    <linearGradient
       inkscape:collect="always"
       xlink:href="#linearGradient6416"
       id="linearGradient6410"
       x1="14.979761"
       y1="14.090852"
       x2="15.44"
       y2="115.04999"
       gradientUnits="userSpaceOnUse" />
  </defs>
  <sodipodi:namedview
     id="base"
     pagecolor="#ffffff"
     bordercolor="#666666"
     borderopacity="1.0"
     inkscape:pageopacity="0.0"
     inkscape:pageshadow="2"
     inkscape:zoom="2.56"
     inkscape:cx="-17.483386"
     inkscape:cy="219.65087"
     inkscape:document-units="mm"
     inkscape:current-layer="layer3"
     showgrid="true"
     inkscape:lockguides="true"
     showguides="false"
     inkscape:window-width="1920"
     inkscape:window-height="1017"
     inkscape:window-x="-9"
     inkscape:window-y="29"
     inkscape:window-maximized="1"
     objecttolerance="11"
     guidetolerance="20"
     gridtolerance="10"
     inkscape:snap-perpendicular="true"
     inkscape:snap-tangential="true"
     inkscape:snap-object-midpoints="true"
     inkscape:snap-center="true"
     inkscape:snap-intersection-paths="true"
     inkscape:object-paths="true"
     inkscape:snap-bbox="true"
     inkscape:snap-bbox-edge-midpoints="true">
    <inkscape:grid
       type="xygrid"
       id="grid7345"
       units="mm"
       spacingx="0.25"
       spacingy="0.25"
       enabled="true"
       dotted="false" />
  </sodipodi:namedview>
  <metadata
     id="metadata5">
    <rdf:RDF>
      <cc:Work
         rdf:about="">
        <dc:format>image/svg+xml</dc:format>
        <dc:type
           rdf:resource="http://purl.org/dc/dcmitype/StillImage" />
        <dc:title />
      </cc:Work>
    </rdf:RDF>
  </metadata>
  <g
     inkscape:label="BG"
     inkscape:groupmode="layer"
     id="layer1"
     transform="translate(0,-168.5)"
     style="display:inline"
     sodipodi:insensitive="true">
    <rect
       id="rect26-0"
       width="30.48"
       height="128.5"
       x="0.2"
       y="168.49998"
       style="display:inline;fill:#404040;fill-opacity:1;stroke-width:0.42674565" />
    <rect
       style="display:inline;fill:url(#linearGradient4630);fill-opacity:1;stroke-width:0.36381963"
       y="190.15207"
       x="0.19999963"
       height="93.397919"
       width="30.48"
       id="rect4596" />
    <g
       aria-label="RAGE"
       style="font-style:normal;font-variant:normal;font-weight:normal;font-stretch:normal;font-size:19.7555542px;line-height:1.25;font-family:Ravie;-inkscape-font-specification:Ravie;letter-spacing:0px;word-spacing:0px;display:inline;fill:#be30de;fill-opacity:1;stroke:none;stroke-width:0.26458332"
       id="text5750">
      <path
         d="m 6.2209459,291.83604 c 0,0.0113 0,0.0226 -0.011289,0.0339 l 0.022578,-0.0226 v 0.0113 c 0.022578,-0.1016 0.045156,-0.15804 0.056444,-0.19191 0.2483556,-0.59831 0.5531556,-1.24177 0.9256889,-1.94169 h 0.022578 v -0.0226 l -0.011289,0.0113 c 0.4628445,-0.86925 0.9482667,-1.524 1.4675556,-1.98685 L 9.3818346,287.106 c 0.1354667,-0.15804 0.2032,-0.28222 0.2032,-0.38382 0,-0.14676 -0.1467556,-0.22578 -0.4515556,-0.22578 -0.4854222,0 -1.0047111,0.3048 -1.5691555,0.92569 l 0.2709333,-0.99342 c -0.033867,-0.36125 -0.1806222,-0.54187 -0.4176889,-0.54187 -0.1016,0 -0.2144889,0.0452 -0.3273778,0.12418 l -0.3273777,0.3048 c -1.4788445,1.37724 -2.5964445,2.07716 -3.3753778,2.08844 -0.2935111,0 -0.4741334,-0.0451 -0.5418667,-0.13546 0.1467556,0.16933 0.4064,0.24835 0.7676444,0.24835 0.7337778,0 1.7610667,-0.42897 3.0818667,-1.27564 v 0.0113 c -0.1919111,0.48542 -0.5644444,1.60302 -1.1176,3.3528 l -0.1919111,0.55315 c -0.011289,0.0564 -0.033867,0.11289 -0.056444,0.15805 l -0.090311,0.25964 -0.022578,0.16934 c 0,0.0677 0,0.11288 0.011289,0.13546 0.033867,-0.079 0.056444,-0.11289 0.079022,-0.11289 h 0.045155 c -0.033867,0.1016 -0.079022,0.15805 -0.1128888,0.16934 0.011289,0.0113 0.011289,0.0113 0.011289,0.0226 0,0.0113 0,0.0113 0.011289,0.0226 h 0.067733 v -0.0677 h 0.045155 c 0.033867,0.0113 0.045156,0.0226 0.045156,0.0452 l -0.067733,0.0226 c 0,0.0339 0.022578,0.0452 0.067733,0.0452 v 0.0452 h -0.1016 c 0.056444,0.12418 0.1919111,0.18063 0.4289778,0.18063 0.033867,0 0.056444,0 0.067733,-0.0113 -0.079022,-0.0452 -0.1580445,-0.079 -0.2596445,-0.1016 0,0.0339 -0.011289,0.0451 -0.045155,0.0451 h -0.022578 v -0.0226 c 0,-0.0903 0.056445,-0.2032 0.1806222,-0.34995 l -0.067733,0.23707 c 0.1016,0.0677 0.2032,0.12417 0.3048,0.16933 l 0.067733,-0.0339 c 0.1241778,-0.0564 0.2032,-0.14675 0.2483556,-0.29351 l -0.011289,-0.0226 h -0.022578 c -0.033867,0 -0.045155,-0.0113 -0.045155,-0.0451 l 0.067733,-0.0226 z m -0.2935111,-0.51929 -0.022578,0.0677 0.056444,0.0226 0.067733,-0.0226 c 0,0.0339 -0.033867,0.0452 -0.090311,0.0452 0,0.0113 0.011289,0.0113 0.022578,0.0113 0,0.0452 -0.022578,0.0677 -0.056444,0.0677 v 0.0451 c 0.033867,0 0.056444,0.0113 0.056444,0.0452 l -0.079022,-0.0226 -0.022578,0.0452 c 0.011289,0 0.022578,0.0113 0.022578,0.0226 -0.1467555,0.0226 -0.2257778,0.0451 -0.2257778,0.0677 -0.1016,-0.0452 -0.1693333,-0.1016 -0.2144888,-0.18062 0.011289,0 0.011289,-0.0113 0.011289,-0.0226 -0.022578,0 -0.033867,-0.0113 -0.033867,-0.0452 0.022578,0 0.033867,-0.0113 0.033867,-0.0226 -0.022578,-0.0564 -0.045155,-0.0903 -0.056444,-0.1016 0.011289,-0.0113 0.011289,-0.0113 0.022578,-0.0113 0.011289,0 0.011289,0 0.022578,-0.0113 l 0.022578,-0.0113 c 0.1016,-0.0564 0.1806223,-0.079 0.2370667,-0.079 z m 2.8222222,-2.67547 c 0,0.1016 -0.056444,0.19191 -0.1806222,0.27093 l 0.1128889,-0.0226 v 0.0677 h -0.045156 v 0.0452 c 0.1016,0.0452 0.1693334,0.0677 0.1919111,0.0677 l -0.022578,0.21449 0.045155,-0.0226 c 0,-0.0113 -0.011289,-0.0226 -0.022578,-0.0226 0.033867,-0.0677 0.045156,-0.12418 0.045156,-0.16933 h 0.045156 l 0.022578,0.1016 h 0.022578 c 0,-0.0226 0.011289,-0.0677 0.022578,-0.14676 h 0.022578 v 0.0452 h 0.067733 c 0,-0.0226 -0.011289,-0.0339 -0.045156,-0.0452 0.033867,-0.0564 0.056444,-0.12417 0.067733,-0.22577 -0.022578,0 -0.033867,-0.0113 -0.045156,-0.0452 v -0.0226 c 0.056445,0 0.090311,-0.0226 0.090311,-0.0677 v -0.0226 h -0.067733 l -0.090311,0.0452 v -0.0452 l -0.2032,0.0226 z m 0.5418667,1.70462 c -0.067733,0.0339 -0.1016,0.0565 -0.1016,0.0903 0.033867,0 0.056444,0.0452 0.079022,0.14676 0.011289,0 0.022578,-0.0113 0.022578,-0.0226 0.011289,0 0.022578,0.0113 0.022578,0.0226 0.045155,-0.0452 0.079022,-0.0677 0.090311,-0.0677 v -0.1016 c -0.022578,-0.0452 -0.045156,-0.0677 -0.067733,-0.0677 z m -3.4318223,1.88525 c -0.022578,0 -0.033867,0 -0.045155,0.0113 0.079022,0.0564 0.1241778,0.11289 0.1580444,0.14675 h 0.045156 c 0.033867,-0.0339 0.079022,-0.0451 0.1467555,-0.0451 v -0.0226 c -0.022578,0 -0.045155,-0.0113 -0.079022,-0.0452 h -0.067733 v -0.0226 c -0.011289,-0.0113 -0.022578,-0.0113 -0.056445,-0.0226 l -0.056444,-0.0113 c -0.011289,0.0113 -0.022578,0.0113 -0.045156,0.0113 z m -0.5983111,-0.24836 c -0.022578,-0.0226 -0.033867,-0.0564 -0.033867,-0.1016 l -0.022578,0.0339 H 5.0694792 v 0.0226 c 0,0.0339 0.033867,0.0564 0.1128889,0.0677 0,0.0339 -0.011289,0.0452 -0.045155,0.0452 0,0.0226 0.022578,0.0452 0.079022,0.0677 0.056444,-0.0339 0.090311,-0.0452 0.1016,-0.0452 0,-0.0113 0,-0.0113 -0.011289,-0.0226 z m 4.0527112,0.0564 0.045155,0.0677 c 0.090311,-0.0452 0.1354667,-0.0903 0.1354667,-0.13547 l -0.022578,-0.0451 c -0.011289,0 -0.022578,0.0113 -0.022578,0.0226 -0.033867,0 -0.045155,-0.0226 -0.045155,-0.0565 -0.033867,0.0226 -0.056445,0.0339 -0.090311,0.0339 z m -1.6707556,0.0677 c 0.033867,0 0.045156,-0.0113 0.045156,-0.0452 l 0.045155,0.0226 c 0,-0.0226 0.011289,-0.0564 0.045156,-0.11289 l -0.067733,-0.0564 c -0.090311,0.0339 -0.1354666,0.0564 -0.1354666,0.079 z m 0.3951111,-0.0677 c 0,0.0113 -0.011289,0.0226 -0.022578,0.0226 0,0.0113 0.011289,0.0226 0.022578,0.0226 0,0.0113 -0.011289,0.0226 -0.022578,0.0226 0,0.0339 0.011289,0.0452 0.045156,0.0452 h 0.067733 v -0.0903 z m 1.4111111,-1.36596 c 0,0.0339 0.011289,0.0452 0.045156,0.0452 0.045155,-0.0226 0.067733,-0.0452 0.067733,-0.0677 v -0.0226 l -0.090311,-0.0226 z m -4.7300444,1.14018 -0.2257778,0.0451 h 0.3048 v -0.0226 c -0.022578,0 -0.045156,-0.0113 -0.079022,-0.0452 z m 4.8655111,-0.37253 -0.022578,0.0677 0.067733,0.0226 c 0.022578,0 0.033867,-0.0226 0.045156,-0.0677 v -0.0226 z m -5.1590222,0.28222 h 0.067733 v -0.0226 h -0.067733 c 0,-0.0226 -0.033867,-0.0452 -0.090311,-0.0677 h -0.079022 v 0.0226 c 0.033867,0 0.067733,0.0113 0.1241778,0.0452 h 0.045156 z m 0.3838222,-2.68676 c 0.022578,0.0452 0.045155,0.0677 0.067733,0.0677 h 0.022578 c 0.033867,0 0.045155,-0.0113 0.045155,-0.0452 v -0.0226 z m 0.6434666,0.2032 c 0,0.0339 0.045156,0.0564 0.1467556,0.0677 -0.022578,-0.0452 -0.045156,-0.0677 -0.067733,-0.0677 z M 4.9678792,289.1267 h 0.1016 c 0,0.0226 0.045156,0.0452 0.1354667,0.0677 h 0.022578 v -0.0226 c -0.033867,0 -0.079022,-0.0113 -0.1354667,-0.0452 L 4.9678794,289.104 Z m 3.0254223,2.82223 -0.022578,0.0677 c 0.011289,0 0.022578,0.0113 0.022578,0.0226 l 0.067733,-0.0226 v -0.0226 c 0,-0.0226 -0.011289,-0.0339 -0.045156,-0.0451 z m -2.5400001,-2.70934 c 0,-0.0226 -0.011289,-0.0339 -0.045155,-0.0452 h -0.022578 c -0.022578,0 -0.033867,0.0113 -0.045156,0.0452 l 0.067733,0.0226 z m -0.079022,2.34809 h 0.022578 c 0.033867,0.0113 0.045156,0.0226 0.045156,0.0452 0,0.0339 -0.011289,0.0452 -0.045156,0.0452 h -0.022578 z m 4.5607111,-0.31609 c 0.033867,0 0.045156,-0.0113 0.045156,-0.0451 0,-0.0226 -0.011289,-0.0339 -0.045156,-0.0452 -0.011289,0 -0.022578,0.0113 -0.033867,0.0226 z m -5.0687111,0.63218 h 0.090311 c 0,-0.0226 -0.011289,-0.0339 -0.045155,-0.0452 h -0.045156 v -0.0226 h -0.045155 v 0.0226 h 0.045155 z m 0.9031111,-0.16933 v 0.0226 c 0,0.0339 -0.011289,0.0452 -0.045156,0.0452 h -0.045156 c 0,-0.0226 0.022578,-0.0452 0.067733,-0.0677 z m 3.2173334,-2.40454 h 0.045155 l -0.022578,-0.0903 h -0.045156 z m -4.3349334,2.58516 c 0,0.0339 0.011289,0.0452 0.045156,0.0452 h 0.079022 l -0.022578,-0.0452 -0.033867,0.0226 -0.067733,-0.0339 z m 3.2737778,0 c 0,0.0226 0.011289,0.0339 0.045156,0.0339 l 0.045156,-0.0226 c 0,-0.0113 -0.011289,-0.0226 -0.045156,-0.0339 h -0.045156 z m 2.1900447,-0.0903 c 0,0.0339 0.01129,0.0451 0.04515,0.0451 l 0.03387,-0.0226 c 0,-0.0226 -0.01129,-0.0339 -0.03387,-0.0452 z m -0.7563558,-2.2352 c 0,0.0339 0.011289,0.0452 0.045156,0.0452 v -0.0677 H 9.359257 Z m 0.5983111,2.07715 c -0.022578,0 -0.033867,0.0113 -0.045155,0.0452 l 0.067733,0.0226 z m -4.4929778,5.588 H 5.622635 l -0.090311,-0.0226 H 5.464591 Z m -0.9708444,0.0677 H 4.606635 v -0.0226 H 4.4937459 Z m 1.1966222,-8.01511 c 0,0.0226 0.011289,0.0339 0.045156,0.0339 h 0.045155 c 0,-0.0113 -0.011289,-0.0226 -0.045155,-0.0339 z m 1.3885333,0.39511 0.1016,0.0226 -0.1016,0.0226 z m -1.0611555,2.57386 h -0.045156 v 0.0452 h 0.045156 z m -0.2032,-0.58702 v 0.0452 c -0.033867,0 -0.045156,-0.0113 -0.045156,-0.0452 z m -0.1919111,-0.0564 c 0.033867,0 0.045155,-0.0113 0.045155,-0.0452 H 5.622635 Z m 3.8043555,-1.19663 h 0.045156 v -0.0226 h -0.045156 z m -0.6434666,-1.06115 h 0.045155 v -0.0226 h -0.045155 z m 0.2032,0 h 0.045155 v -0.0226 h -0.045155 z m -3.5672889,2.46098 h 0.022578 v 0.0451 H 5.419435 Z m 0.2257778,-2.11103 0.090311,-0.0226 h -0.090311 z m -0.6660445,0 h 0.045156 v -0.0226 h -0.045156 z m 0.1580445,2.1336 h 0.045155 v -0.0226 H 5.1372128 Z M 7.5869017,286.598 c -0.011289,0.0339 -0.033867,0.0452 -0.067733,0.0565 z m -2.6077334,5.31707 0.067733,-0.0113 h -0.067733 z m 4.9106667,-0.69991 0.011289,-0.0113 -0.011289,-0.0452 z m -4.6284445,0.28222 0.022578,-0.0677 z"
         style="font-style:normal;font-variant:normal;font-weight:500;font-stretch:normal;font-size:11.28888893px;font-family:'Unfolding Tragedy';-inkscape-font-specification:'Unfolding Tragedy Medium';fill:#be30de;fill-opacity:1;stroke-width:0.26458332"
         id="path6234"
         inkscape:connector-curvature="0" />
      <path
         d="m 13.291318,291.47479 c -0.3048,0.0677 -0.508,0.1016 -0.6096,0.1016 -0.191911,-0.0339 -0.327378,-0.12418 -0.4064,-0.29351 -0.09031,-0.2032 -0.169333,-0.63218 -0.225778,-1.29822 -0.01129,-0.0339 -0.01129,-0.1016 -0.01129,-0.19191 l 0.01129,-0.18062 c 0,-0.11289 -0.01129,-0.24836 -0.03387,-0.4064 l -0.02258,-0.11289 c -0.04516,-0.14676 -0.112889,-0.25965 -0.214489,-0.32738 0.225778,-0.59831 0.338667,-1.016 0.338667,-1.23049 v -0.0903 c 0,-0.19191 -0.03387,-0.38382 -0.1016,-0.55316 -0.09031,-0.2032 -0.214489,-0.3048 -0.361245,-0.3048 -0.07902,0 -0.124177,0.0113 -0.158044,0.0452 l -0.158045,0.12418 -0.191911,0.19191 c -0.530577,0.53058 -1.140177,1.30951 -1.8062219,2.31422 -0.6321778,1.04987 -0.9482667,1.79493 -0.9482667,2.24649 0,0.21449 0.067733,0.4064 0.1919111,0.56444 0.1128889,0.12418 0.2257778,0.19191 0.3273778,0.19191 0.5305778,0 1.1514667,-0.42897 1.8400887,-1.29822 0,0.0113 -0.01129,0.0452 -0.02258,0.079 l -0.02258,0.079 c -0.248356,0.75635 -0.383823,1.14017 -0.417689,1.17404 0.03387,0 0.214489,-0.39511 0.553155,-1.17404 0.180623,-0.4064 0.338667,-0.69991 0.474134,-0.86925 0.158044,1.43369 0.620889,2.15618 1.399822,2.15618 0.349955,-0.0339 0.666044,-0.13547 0.925689,-0.3048 0.282222,-0.18062 0.417689,-0.38382 0.417689,-0.59831 0,-0.079 -0.04516,-0.12418 -0.135467,-0.12418 -0.112889,0 -0.327378,0.0339 -0.632178,0.0903 z m -3.217333,-1.85138 -0.079022,-0.0226 c 0.587022,-0.90311 1.128889,-1.64818 1.636889,-2.24649 0.01129,0.0113 0.01129,0.0451 0.01129,0.079 0,0.32738 -0.09031,0.76764 -0.259644,1.33209 -0.07902,0.0339 -0.135467,0.1016 -0.169333,0.18062 l -0.158045,0.23707 c -0.722489,1.10631 -1.3433772,1.81751 -1.873955,2.12231 0.3048,-0.74507 0.5418667,-1.26436 0.7112,-1.54658 0.011289,-0.0226 0.022578,-0.0451 0.033867,-0.0564 l 0.146756,-0.0452 v 0.0226 l 0.112889,-0.0565 c 0,0.0226 0.01129,0.0339 0.03387,0.0339 v -0.0339 c 0,-0.0226 -0.02258,-0.0451 -0.05644,-0.0564 h -0.09031 z m -1.4224002,-4.17688 -0.3160889,-0.0226 -0.022578,0.0339 c -0.1467556,0 -0.2709334,0.12418 -0.3951111,0.38383 0.079022,0.0452 0.1467555,0.0677 0.1806222,0.0677 0.1016,0 0.2822222,-0.0677 0.5305778,-0.2032 0,-0.079 0.045155,-0.14676 0.1467555,-0.22578 v -0.0339 c 0,-0.0226 -0.011289,-0.0339 -0.045155,-0.0452 h -0.022578 z m 0.7224889,2.35937 c -0.067733,-0.0113 -0.1354666,-0.0339 -0.2144889,-0.079 l 0.022578,-0.19191 h -0.022578 l -0.033867,0.19191 c 0,0.0339 0.033867,0.0564 0.1128889,0.0903 h -0.079022 c -0.045155,0.0226 -0.067733,0.0452 -0.067733,0.0677 v 0.0226 l 0.079022,0.0226 c 0,-0.0113 0.056444,-0.0339 0.1580445,-0.0677 0,-0.0113 0,-0.0113 -0.011289,-0.0226 0.011289,0.0113 0.022578,0.0113 0.045155,0.0113 0.022578,0 0.033867,0 0.045156,0.0113 0,-0.0113 0.011289,-0.0226 0.022578,-0.0226 h 0.090311 l 0.056444,0.0226 V 287.806 H 9.4643848 v -0.0226 z m -0.8579555,-2.88995 c -0.079022,0.0564 -0.1128889,0.0903 -0.1128889,0.12418 l 0.022578,0.0452 c 0.079022,0 0.1580444,-0.0452 0.2257777,-0.14675 v -0.0226 l -0.067733,0.0226 z m 0.045155,1.87395 -0.090311,-0.0226 c -0.079022,0 -0.1354667,0.0339 -0.1806222,0.1016 0,0.0339 0.011289,0.0452 0.045155,0.0452 h 0.067733 c 0.079022,-0.0677 0.1354666,-0.1016 0.1580444,-0.1016 z m 0.6773334,2.96898 0.1467555,0.0113 v -0.0339 c 0.090311,0 0.2144889,-0.0226 0.3838222,-0.0564 v 0.0564 l -0.3160889,0.0564 H 9.2386071 Z m -0.3612445,-2.61902 h 0.056444 v 0.0226 h 0.1693333 v 0.0339 h 0.1919111 v -0.0339 H 9.1031404 v -0.0226 h -0.056444 c -0.022578,-0.0452 -0.045155,-0.0677 -0.067733,-0.0677 -0.011289,0 -0.033867,0.0113 -0.045155,0.0339 h -0.056444 z m -1.1514667,-0.39511 c -0.1467555,0.0451 -0.2257777,0.0903 -0.2257777,0.12418 v 0.0226 c 0.1128889,0 0.1919111,-0.0452 0.2257777,-0.12417 z m -0.2257777,-0.0452 c -0.090311,0.0339 -0.1354667,0.0564 -0.1354667,0.0903 v 0.0452 h 0.022578 c 0.079022,0 0.1241778,-0.0339 0.1354666,-0.0903 z m 1.6030222,0.13547 c 0.079022,0 0.1919111,0.0226 0.3273778,0.079 h 0.090311 v -0.0339 c -0.056445,0 -0.1806222,-0.0226 -0.3612445,-0.079 h -0.056444 z m -1.9078222,-2.98027 c 0,0.0113 -0.045156,0.0565 -0.1354667,0.13547 v 0.0452 c 0.056444,0 0.1128889,-0.0339 0.1580444,-0.11288 v -0.0677 z m 0.6999111,3.00285 c -0.079022,0.0113 -0.1128889,0.0226 -0.1128889,0.0564 v 0.0452 h 0.045155 l 0.090311,-0.0677 z m 0.090311,-3.30765 c -0.079022,0.0113 -0.1128889,0.0226 -0.1128889,0.0565 v 0.0451 h 0.045156 c 0.045155,-0.0226 0.067733,-0.0451 0.067733,-0.0677 z m 1.4224,3.72534 c -0.079022,0.0564 -0.1128889,0.0903 -0.1128889,0.11288 h 0.033867 c 0.056444,-0.0339 0.079022,-0.0564 0.079022,-0.079 z m -0.2032,0.16933 -0.022578,0.0903 h 0.056444 c 0,-0.0339 0.011289,-0.0564 0.033867,-0.0903 z m 0.1241778,-0.22578 c 0.056444,0 0.1016,0.0113 0.1354666,0.0339 l 0.022578,-0.0564 H 9.3289182 Z M 7.759762,286.05609 c -0.011289,0 -0.022578,0.0113 -0.033867,0.0451 l 0.022578,0.0452 c 0.022578,0 0.033867,-0.0113 0.033867,-0.0452 v -0.0451 z m 1.7272,1.19662 h 0.1128889 v -0.0339 H 9.4869626 Z m -2.4496889,0.21449 c -0.022578,0 -0.033867,0.0113 -0.045155,0.0451 v 0.0226 h 0.022578 c 0.033867,0 0.045156,-0.0113 0.045156,-0.0452 v -0.0226 z m 0.2257778,-2.52871 c -0.011289,0 -0.033867,0.0113 -0.045156,0.0339 v 0.0226 h 0.045156 z m 0.6321778,1.60302 c 0.033867,0 0.045156,-0.0113 0.045156,-0.0452 h -0.045156 z m 0.067733,0.88053 c 0.033867,0 0.045156,-0.0113 0.045156,-0.0451 h -0.045156 z m 0.8353778,-0.67733 h 0.056444 v -0.0226 h -0.056444 z m 0.4741333,0.69991 h 0.022578 v -0.0564 h -0.022578 z m -2.4384,-0.94827 c -0.011289,0 -0.022578,0.0113 -0.033867,0.0452 h 0.033867 z m 0.7563556,1.016 h 0.045155 v -0.0226 h -0.045155 z m 1.7949333,2.28036 v -0.0226 l 0.067733,0.0226 z m -1.4675555,-2.92382 h 0.045155 l -0.045155,-0.0113 z"
         style="font-style:normal;font-variant:normal;font-weight:500;font-stretch:normal;font-size:11.28888893px;font-family:'Unfolding Tragedy';-inkscape-font-specification:'Unfolding Tragedy Medium';fill:#be30de;fill-opacity:1;stroke-width:0.26458332"
         id="path6236"
         inkscape:connector-curvature="0" />
      <path
         d="m 16.633006,291.81346 c 0,-0.0339 0,-0.0452 -0.01129,-0.0565 0.225778,-0.18062 0.428978,-0.31608 0.598311,-0.41768 0.451555,-0.27094 1.004711,-0.46285 1.648178,-0.58703 1.185333,-0.19191 2.020711,-0.29351 2.517422,-0.29351 0.519289,0 1.061155,0.079 1.6256,0.22578 0.462844,0.12418 0.699911,0.21449 0.699911,0.25964 l 0.01129,-0.0226 c 0,-0.0339 -0.05645,-0.0903 -0.158045,-0.18063 -0.733777,-0.6096 -1.772355,-0.9144 -3.138311,-0.9144 h -0.316089 c -1.524,0 -2.720622,0.29352 -3.612444,0.89183 l 0.214489,-0.65476 0.361244,-0.90311 c 0.146756,-0.34996 0.3048,-0.74507 0.496711,-1.17404 0.01129,-0.0113 0.01129,-0.0226 0.02258,-0.0339 0.316089,-0.69991 0.474134,-1.09502 0.485422,-1.19662 0.01129,-0.2032 -0.05644,-0.38383 -0.191911,-0.55316 -0.124177,-0.16933 -0.270933,-0.24835 -0.440266,-0.24835 -0.282223,0 -0.587023,0.32737 -0.9144,0.99342 -0.124178,-0.1016 -0.282223,-0.15805 -0.474134,-0.15805 -0.327377,0 -0.722489,0.18063 -1.174044,0.55316 -0.349956,0.28222 -0.620889,0.58702 -0.835378,0.89182 h -0.01129 c -0.02258,0 -0.06773,0.0677 -0.146755,0.19191 -0.395111,0.75636 -0.654756,1.45627 -0.767645,2.09974 l -0.02258,0.19191 c -0.03387,0.14675 -0.04516,0.23706 -0.04516,0.27093 -0.01129,0.31609 0.02258,0.59831 0.124178,0.83538 0.124177,0.32738 0.327377,0.48542 0.598311,0.48542 0.316089,0 0.688622,-0.25964 1.128889,-0.76764 h 0.01129 c -0.01129,0.0564 -0.03387,0.23706 -0.06773,0.51928 -0.4064,0.39512 -0.745066,0.74507 -1.027289,1.04987 -2.167466,0.14676 -3.9172441,1.03858 -5.249333,2.68676 -0.1128889,0.19191 -0.1693334,0.34995 -0.1806223,0.46284 -0.011289,0.21449 0.056444,0.37253 0.1919112,0.47413 0.079022,0.0677 0.1580444,0.1016 0.2370666,0.1016 h 0.033867 c 0.056444,0.0226 0.2032,0.0339 0.4628444,0.0339 0.6321778,0 1.1966221,-0.13547 1.6933331,-0.39511 l 0.158044,-0.079 c 0.02258,0 0.124178,-0.0452 0.293512,-0.14676 1.162755,-0.64346 2.190044,-1.49013 3.104444,-2.54 0.1016,0.0113 0.214489,0.0339 0.327378,0.0677 0.01129,0.079 0.01129,0.2032 0.02258,0.36124 l 0.02258,0.39511 c 0.01129,-0.0564 0.1016,-0.28222 0.282223,-0.67733 0.146755,0.0452 0.316088,0.1016 0.508,0.16933 0.801511,0.28222 1.298222,0.41769 1.490133,0.41769 0.07902,0 0.124178,-0.0564 0.124178,-0.15804 0,-0.0452 -0.06773,-0.22578 -0.191911,-0.55316 -0.124178,-0.3048 -0.237067,-0.67733 -0.338667,-1.10631 0,-0.0339 0,-0.0452 -0.01129,-0.0564 l 0.05644,0.36125 c 0.02258,0.16933 0.04516,0.3048 0.05645,0.4064 l 0.146755,0.44027 c 0.01129,0.0339 0.02258,0.0677 0.03387,0.12417 l 0.09031,0.34996 c -0.214489,-0.0677 -0.327378,-0.11289 -0.349955,-0.12418 l -0.959556,-0.4064 c -0.225778,-0.1016 -0.395111,-0.18062 -0.508,-0.23707 l 0.248356,-0.56444 c 0.135466,-0.22578 0.237066,-0.41769 0.293511,-0.56444 l 0.7112,-0.59832 c 0,0.0339 0,0.0452 0.01129,0.0565 z m -1.512711,-2.60773 0.01129,0.0113 c 0.440267,-1.03857 0.790223,-1.55786 1.049867,-1.55786 l -0.124178,0.38382 -0.4064,1.15147 c -0.225777,0.62089 -0.361244,1.00471 -0.4064,1.16275 l -0.3048,0.4064 c -0.180622,0.21449 -0.293511,0.32738 -0.338666,0.32738 l -0.01129,-0.0113 c 0.02258,-0.4064 0.191911,-0.98213 0.496711,-1.73849 l -0.03387,0.0113 -0.02258,-0.0903 z m -4.2672,6.1976 c 0,0.0113 -0.07902,0.0452 -0.237067,0.11288 -0.146756,0.0677 -0.4064,0.14676 -0.7789335,0.24836 0.8466665,-0.80151 1.8965335,-1.41111 3.1496005,-1.85138 -1.162756,1.00471 -1.873956,1.50142 -2.122312,1.50142 z m 3.138311,-3.34152 c -0.04516,-0.0564 -0.06773,-0.11288 -0.07902,-0.16933 0.03387,-0.0903 0.09031,-0.13547 0.158045,-0.13547 0.07902,0.0452 0.124178,0.0677 0.146755,0.0677 l -0.02258,0.0451 h 0.04515 c 0,0.0113 -0.01129,0.0226 -0.02258,0.0226 -0.01129,0.0452 0.01129,0.0677 0.05645,0.0677 v 0.0226 c 0,0.11289 -0.04516,0.16934 -0.124178,0.16934 h -0.04515 c -0.01129,0 -0.02258,-0.0113 -0.02258,-0.0226 l -0.06773,0.0226 0.02258,-0.0677 c -0.01129,0 -0.02258,-0.0113 -0.02258,-0.0226 0.01129,0 0.02258,-0.0113 0.02258,-0.0226 h -0.02258 c 0,0.0113 -0.01129,0.0226 -0.02258,0.0226 z m 2.427111,-3.38666 c 0.01129,0 0.05644,-0.0226 0.112889,-0.0677 0.06773,0.0113 0.1016,0.0339 0.112889,0.0903 -0.01129,0 -0.02258,0.0113 -0.02258,0.0226 0.01129,0 0.02258,0 0.02258,0.0113 -0.05645,0.0339 -0.09031,0.0452 -0.112889,0.0452 0,-0.0113 -0.01129,-0.0226 -0.02258,-0.0226 0,0.0113 -0.01129,0.0226 -0.02258,0.0226 z m -0.722489,2.55129 c 0.03387,-0.0565 0.04515,-0.0903 0.04515,-0.11289 0.03387,0.0339 0.05645,0.0452 0.09031,0.0452 v 0.0903 h -0.09031 z m -2.472267,0.0903 h 0.03387 l 0.05644,0.29351 c -0.03387,0 -0.06773,-0.0903 -0.09031,-0.28222 z m 4.2672,-1.36596 c -0.07902,0.0339 -0.112889,0.0565 -0.112889,0.0903 l 0.02258,0.0677 c 0.05645,-0.0339 0.09031,-0.0677 0.09031,-0.0903 z m -1.377244,0.62089 c 0.07902,0.0113 0.112889,0.0226 0.112889,0.0564 0,0.0339 -0.01129,0.0451 -0.04516,0.0451 h -0.07902 z m -0.970845,-0.84667 0.02258,0.0452 c 0.05645,-0.0113 0.09031,-0.0339 0.1016,-0.0903 l -0.124178,-0.0113 z m -0.05644,-0.38382 c 0.09031,-0.0226 0.135467,-0.0564 0.135467,-0.1016 l -0.09031,-0.0226 c 0,0.0226 0,0.0339 -0.01129,0.0452 z m 3.420533,1.64818 c -0.02258,0 -0.03387,0.0113 -0.04516,0.0452 l -0.01129,0.0451 h 0.09031 l 0.01129,-0.0903 z m -1.377244,-0.41769 h 0.06773 c 0.03387,0.0113 0.04516,0.0226 0.04516,0.0452 l -0.09031,0.0339 -0.02258,-0.0339 z m -3.014134,0.65476 c 0.02258,0 0.1016,-0.0113 0.225778,-0.0339 0,0.0226 -0.05644,0.0452 -0.169333,0.0564 h -0.05644 z m 1.377245,-0.22578 v 0.0113 c -0.146756,0.0226 -0.237067,0.0339 -0.270933,0.0339 l -0.07902,-0.0113 c 0.04516,0 0.158045,-0.0113 0.327378,-0.0339 z m 2.1336,-3.05929 c -0.03387,0 -0.04516,0.0113 -0.05645,0.0452 v 0.0451 h 0.02258 c 0.02258,0 0.03387,-0.0113 0.03387,-0.0451 l 0.01129,-0.0452 z m -4.504267,2.67547 h 0.02258 c 0,0.0113 0.01129,0.0564 0.03387,0.12417 h -0.05645 z m 0.04516,0.23706 h 0.02258 l 0.02258,0.15805 h -0.02258 z m 0.158044,0.93698 h -0.02258 v -0.0226 h 0.02258 v 0.0226 h 0.03387 v 0.0903 h -0.03387 z m -0.869244,-3.72533 h 0.03387 v -0.0564 h -0.03387 l 0.01129,-0.0677 h -0.02258 l -0.01129,0.0677 h 0.02258 z m 0.259644,3.048 h -0.02258 v 0.0677 h 0.02258 z m 0.214489,-1.4224 h 0.02258 l -0.01129,-0.11289 h -0.03387 z m 0.293511,1.524 h 0.03387 c 0,0.0339 0.01129,0.0677 0.02258,0.079 h -0.05645 z m 2.020711,0.21449 H 15.2219 v -0.0339 h 0.02258 v 0.0339 h 0.03387 v 0.0451 h 0.02258 v 0.0339 h -0.02258 v -0.0339 h -0.03387 z m -2.709333,-1.4224 h 0.02258 v 0.0339 h 0.03387 v -0.0339 h -0.02258 c 0.01129,-0.0113 0.02258,-0.0226 0.02258,-0.0339 h -0.05644 z m 4.605867,-1.64818 v 0.0451 h -0.06773 c 0,-0.0339 0.01129,-0.0451 0.04516,-0.0451 z m -4.583289,1.78364 h 0.03387 v -0.079 h -0.03387 z m 0.293511,1.77236 h 0.02258 v -0.0903 h -0.02258 z m -3.2512001,0.88053 0.011289,-0.14675 H 9.588739 Z m 7.6651551,-4.3688 h -0.06773 c 0.01129,-0.0339 0.02258,-0.0451 0.04516,-0.0451 z m -3.544711,0.56445 c 0.03387,0 0.05645,0.0113 0.05645,0.0339 v 0.0113 c -0.03387,0 -0.05645,-0.0113 -0.05645,-0.0339 z m -1.444977,-0.51929 h 0.04516 c -0.01129,-0.0113 -0.02258,-0.0339 -0.02258,-0.0677 h -0.02258 z m 2.765777,2.57386 h 0.07902 v 0.0226 c -0.04516,0 -0.07902,0 -0.09031,0.0113 z m 1.693334,1.14018 c -0.04516,-0.16933 -0.07902,-0.28222 -0.1016,-0.36124 z m -4.007556,-3.23991 h 0.03387 v -0.0564 h -0.03387 z m 2.1336,1.86267 h 0.03387 l 0.01129,-0.0339 h -0.03387 v -0.0339 h -0.02258 v 0.0339 h 0.02258 z m -2.1336,-1.9304 h 0.03387 v -0.0564 h -0.03387 z m 2.359378,0.69991 c 0,0.0339 0.01129,0.0451 0.04515,0.0451 v -0.0451 z m -2.731911,-0.48542 c -0.01129,0.0226 0,0.0339 0.03387,0.0339 l 0.01129,-0.0564 z m 2.054578,0.21449 h 0.04515 c 0,0.0339 -0.01129,0.0452 -0.04515,0.0452 z m -0.835378,1.65946 h -0.04516 c 0,-0.0339 0.01129,-0.0451 0.04516,-0.0451 z m 1.072444,0.18062 -0.146755,0.0339 v -0.0226 z m -1.512711,-0.34995 h 0.05645 c 0,0.0226 -0.02258,0.0339 -0.05645,0.0339 z m 1.885245,1.10631 0.03387,-0.16933 -0.01129,0.14675 z m -1.817512,-0.77893 0.05645,0.0226 c -0.01129,0.0113 -0.01129,0.0113 -0.02258,0.0113 -0.01129,0 -0.01129,0 -0.01129,-0.0113 l -0.02258,0.0452 z m -0.869244,-2.20134 h 0.02258 v -0.0677 h -0.02258 z m 0.428978,0.1016 h 0.02258 v -0.0677 h -0.02258 z m -1.309511,4.04143 h 0.02258 l 0.01129,-0.0677 h -0.02258 z m 1.411111,-3.58987 h 0.02258 v -0.0677 h -0.02258 z m -0.383822,0.14675 h 0.03387 v -0.0451 h -0.03387 z m 0.361244,-0.22577 h 0.04516 c 0.01129,-0.0226 0,-0.0339 -0.03387,-0.0339 z m -1.354667,3.57857 h 0.02258 v -0.0564 h -0.02258 z m 1.095023,-2.73191 h 0.02258 l 0.01129,-0.0564 h -0.02258 z m 2.528711,0.9144 h 0.02258 v 0.0564 h -0.02258 z m -2.223911,-1.61431 h 0.02258 v -0.0564 h -0.02258 z m 2.1336,1.524 -0.112889,0.0226 -0.05645,-0.0113 z m -1.919112,-0.48542 h 0.02258 v -0.0564 h -0.02258 z m -0.282222,1.19662 h 0.03387 v -0.0339 h -0.03387 z m -0.4064,-2.44969 h 0.03387 v -0.0339 h -0.03387 z m -0.925689,3.56729 h 0.02258 v -0.0452 h -0.02258 z m 0.869245,-3.82693 h 0.02258 v -0.0452 h -0.02258 z m -0.06773,-0.48542 h 0.02258 v -0.0452 h -0.02258 z m 0.485423,0.55315 h 0.02258 l 0.01129,-0.0451 h -0.02258 z m 1.603022,2.05458 h 0.04515 v 0.0226 h -0.04515 z m -1.636889,0.18062 h 0.02258 l 0.01129,-0.0452 h -0.02258 z m 1.907822,-0.24835 h 0.07902 l -0.07902,0.0226 z m -1.783644,0.85795 0.02258,0.0113 v -0.0451 h -0.02258 z m 3.872089,0.21449 c 0,0.0565 0.01129,0.13547 0.04516,0.25965 v 0.0339 z m -4.334934,-4.34622 h 0.02258 v -0.0339 h -0.02258 z m 1.275645,1.07244 h 0.02258 v 0.0339 h -0.02258 z m -2.190045,3.90596 h 0.02258 v -0.0339 h -0.02258 z m 2.020711,-4.08658 h 0.02258 v -0.0339 h -0.02258 z m -0.496711,1.17405 h 0.02258 v -0.0339 h -0.02258 z m -0.643466,-0.74507 h 0.02258 v -0.0339 h -0.02258 z m 1.038577,-0.55316 h 0.02258 v -0.0339 h -0.02258 z m -0.09031,-0.11289 h 0.02258 v -0.0339 h -0.02258 z m 0.05645,3.48827 h 0.02258 v 0.0339 h -0.02258 z m -0.587022,-0.38382 h 0.02258 v -0.0339 h -0.02258 z m 1.049866,-2.47227 h 0.03387 l -0.03387,0.0339 z m 1.377245,2.19005 h 0.02258 l -0.03387,0.0452 z m -0.4064,-0.66605 h 0.02258 v -0.0451 z m -0.383823,0.51929 h 0.07902 l -0.07902,0.0113 z m -0.620888,-2.11102 h 0.02258 l -0.03387,0.0339 z m -0.598312,2.00942 h 0.02258 l -0.02258,0.0339 z m -3.8946663,-1.45627 0.022578,-0.0339 h -0.022578 z m 3.4769783,1.94169 0.01129,-0.0564 h -0.01129 z m -0.09031,-0.47413 0.02258,-0.0564 h -0.01129 z m 2.020712,0.98213 0.05644,-0.079 -0.05644,0.0677 z m 0.07902,-1.37724 0.01129,-0.0339 h -0.01129 z m 0.767644,1.37724 h 0.01129 l -0.01129,0.0339 z m -0.643466,-1.23049 h 0.01129 l -0.01129,0.0339 z m -2.415823,-1.14017 0.01129,-0.0226 h -0.01129 z m 4.301067,2.86737 c 0,-0.0226 0,-0.0339 -0.01129,-0.0452 0,0.0226 0,0.0339 0.01129,0.0452 z"
         style="font-style:normal;font-variant:normal;font-weight:500;font-stretch:normal;font-size:11.28888893px;font-family:'Unfolding Tragedy';-inkscape-font-specification:'Unfolding Tragedy Medium';fill:#be30de;fill-opacity:1;stroke-width:0.26458332"
         id="path6238"
         inkscape:connector-curvature="0" />
      <path
         d="m 20.606342,292.06181 c -0.440267,0.13547 -0.880533,0.28223 -1.309511,0.42898 -0.598311,0.21449 -1.027289,0.32738 -1.286933,0.32738 -0.282223,0 -0.4064,-0.23707 -0.372534,-0.69991 l 0.02258,-0.23707 c 0.01129,-0.0564 0.02258,-0.13546 0.04516,-0.24835 l 0.2032,-0.82409 c 1.490133,-1.43369 2.269066,-2.58516 2.348089,-3.46569 0.03387,-0.28222 0,-0.54187 -0.1016,-0.77893 -0.135467,-0.3048 -0.349956,-0.45156 -0.632178,-0.45156 -0.485422,0 -1.016,0.58702 -1.569156,1.76107 l -0.225778,0.54186 c -0.620888,1.46756 -0.959555,2.40454 -0.993422,2.81094 l -0.124178,0.56444 c -0.169333,0.13547 -0.327377,0.24836 -0.485422,0.33867 l -0.237066,0.15804 0.237066,-0.13546 c 0.191911,-0.12418 0.349956,-0.21449 0.474134,-0.29352 -0.124178,1.44498 0.293511,2.16747 1.264355,2.16747 0.338667,0 0.7112,-0.0903 1.128889,-0.28222 l 0.485422,-0.21449 c 1.535289,-0.69991 2.381956,-1.08373 2.54,-1.14018 l 0.01129,0.0113 v -0.0226 l 0.06773,0.0226 v -0.0226 l 0.04516,0.0226 0.04516,-0.0226 v 0.0226 l 0.03387,-0.0226 h 0.214489 l 0.04516,0.0226 v -0.0226 c 0.01129,0 0.02258,0.0113 0.02258,0.0226 l 0.04516,-0.0226 0.05644,0.0226 v -0.0226 l 0.09031,0.0226 c 0.01129,-0.0113 0.06773,-0.0226 0.146755,-0.0226 v -0.0226 l -0.06773,-0.0226 c -0.01129,0.0113 -0.02258,0.0226 -0.03387,0.0226 h -0.620889 c 0.677334,-0.22578 1.365956,-0.33867 2.054578,-0.33867 0.553156,0 1.151467,0.11289 1.783644,0.33867 -0.767644,-0.46285 -1.715911,-0.68863 -2.8448,-0.68863 -0.575733,0 -1.185333,0.0677 -1.806222,0.19191 z m -1.061155,-4.59457 c -0.01129,0.1016 -0.03387,0.2032 -0.07902,0.3048 -0.372533,0.86924 -0.824089,1.67075 -1.354666,2.42711 0.519289,-1.55787 0.982133,-2.57387 1.377244,-3.048 0.05645,0.0564 0.06773,0.16933 0.05645,0.31609 z m 6.637866,-1.58045 -0.01129,0.079 -0.135466,0.0903 c -0.07902,0 -0.146756,0.0677 -0.191911,0.19191 l 0.02258,0.0451 c 0,0.0226 -0.01129,0.0339 -0.04516,0.0339 -0.01129,0.0339 0.01129,0.0451 0.05644,0.0451 l -0.01129,0.12418 0.05645,0.1016 c 0.124178,0.0226 0.191911,0.0677 0.180622,0.13547 0.09031,-0.0226 0.180622,-0.11289 0.282222,-0.28222 0.09031,-0.14676 0.158045,-0.22578 0.2032,-0.22578 v -0.0226 h -0.112889 l 0.01129,-0.0451 h 0.04516 l -0.02258,-0.0452 -0.06773,0.0452 h -0.03387 v -0.0452 c -0.146756,-0.0564 -0.214489,-0.1016 -0.214489,-0.12418 l 0.02258,-0.18062 h -0.06773 z m -0.191911,1.60302 c 0.03387,0 0.04516,0.0226 0.04516,0.079 l 0.04516,-0.0226 0.04516,0.0226 0.09031,-0.1016 0.01129,-0.0677 c 0,-0.0339 -0.05645,-0.0451 -0.158045,-0.0564 z m 0.02258,0.27094 -0.02258,0.0677 0.05645,0.0339 0.09031,-0.0113 c -0.03387,-0.0565 -0.05645,-0.0903 -0.07902,-0.0903 z m -8.782756,2.95769 c 0.1016,0.0339 0.2032,0.0452 0.327378,0.0452 v 0.0339 H 17.4003 c 0,-0.0226 -0.01129,-0.0339 -0.02258,-0.0339 v 0.0339 l -0.03387,-0.0339 h -0.112889 z m -0.259644,-0.0564 c 0.1016,0.0339 0.180622,0.0564 0.237067,0.0564 l -0.02258,0.0452 c -0.05645,-0.0339 -0.146756,-0.0452 -0.248356,-0.0452 z m 9.064978,-4.85422 h 0.06773 v -0.0452 c 0,-0.0226 -0.01129,-0.0339 -0.04516,-0.0451 h -0.02258 z m 1.9304,1.36596 0.06773,0.0226 v -0.0677 H 27.9667 Z m -2.573867,-1.25307 c -0.01129,0.0339 0,0.0451 0.03387,0.0451 h 0.02258 l -0.01129,-0.0677 z m 0.564444,6.43467 c 0.03387,0.0452 0.06773,0.0677 0.1016,0.079 0.02258,0 0.03387,0 0.04516,0.0113 -0.01129,0 -0.05644,-0.0226 -0.135467,-0.079 z m 0.225778,0.14675 c 0.01129,-0.0339 -0.01129,-0.0564 -0.05644,-0.0564 h -0.02258 z m 0.237067,-5.83635 h 0.04515 v -0.0452 h -0.04515 z m 0.564444,-0.6096 h 0.04516 v -0.0226 h -0.04516 z"
         style="font-style:normal;font-variant:normal;font-weight:500;font-stretch:normal;font-size:11.28888893px;font-family:'Unfolding Tragedy';-inkscape-font-specification:'Unfolding Tragedy Medium';fill:#be30de;fill-opacity:1;stroke-width:0.26458332"
         id="path6240"
         inkscape:connector-curvature="0" />
    </g>
  </g>
  <g
     inkscape:groupmode="layer"
     id="layer5"
     inkscape:label="title"
     style="display:inline"
     sodipodi:insensitive="true">
    <g
       aria-label="crusher"
       transform="matrix(0.76260261,-0.37131198,0.544305,1.0462763,0,0)"
       style="font-style:normal;font-weight:normal;font-size:26.54396629px;line-height:1.25;font-family:sans-serif;letter-spacing:0px;word-spacing:0px;display:inline;fill:#be30de;fill-opacity:1;stroke:none;stroke-width:0.35549957"
       id="text1573">
      <path
         d="m -3.6937664,11.769868 c -0.056072,0.008 -0.096124,0.01602 -0.1361753,0.01602 h -0.024031 c -0.096124,-0.01602 -0.1361754,-0.008 -0.1361754,-0.312403 0,-0.136175 0.00801,-0.312402 0.064083,-0.51266 l 0.032041,-0.176226 c 0.040052,-0.232299 0,-0.120155 0.4485775,-1.2976711 0.056072,-0.152196 0.1602063,-0.2883713 0.1922475,-0.3844951 0.064083,0.1602063 0.1281651,0.4966394 0.1762269,0.8330726 0.032041,0.2803606 0.040052,0.2883716 0.1682166,0.2963816 h 0.024031 c 0.2883713,0 0.3364332,-1.0413407 0.3364332,-1.3777739 0,-0.024031 0,-0.056072 -0.00801,-0.080103 v -0.072093 c -0.00801,0.00801 -0.048062,0.2082681 -0.1041341,0.4806188 -0.016021,-0.536691 -0.2403094,-0.8410829 -0.6248044,-0.8410829 -0.4806188,0 -0.8330726,0.6167941 -1.1294541,1.3857842 L -4.502808,9.951527 c -0.056072,0 -0.2242888,0.849093 -0.2242888,1.233588 0,0.680877 0.2162785,1.169506 0.7529695,1.169506 0.4485775,0 0.9852685,-0.472609 1.3377223,-0.825062 0.3764847,-0.376485 0.5847528,-0.640825 0.7049075,-0.76098 -0.056072,0.04806 -0.1521959,0.120155 -0.2723506,0.200258 -0.6728663,0.456588 -1.1695057,0.712918 -1.4899183,0.801031 z m 1.8744133,-1.105423 c -0.00801,0 -0.040052,0.03204 -0.096124,0.08811 0.064083,-0.05607 0.096124,-0.0801 0.096124,-0.08811 z M -2.5563019,8.6939079 V 8.645846 c 0,-0.016021 0,-0.024031 -0.00801,-0.024031 0,0.024031 0,0.048062 0.00801,0.072093 z m -0.4245466,1.2736397 c 0,-0.00801 0.00801,-0.016021 0.024031,-0.024031 -0.00801,0.016021 -0.024031,0.032041 -0.032041,0.040052 z"
         style="font-style:normal;font-variant:normal;font-weight:normal;font-stretch:normal;font-size:8.01031303px;font-family:'Unfolding Tragedy';-inkscape-font-specification:'Unfolding Tragedy';fill:#be30de;fill-opacity:1;stroke-width:0.35549957"
         id="path1575"
         inkscape:connector-curvature="0" />
      <path
         d="M -1.4682761,8.5337016 C -2.0450187,9.8954548 -2.7258953,10.52827 -3.0382975,10.568321 h -0.048062 c 0,0.008 0.016021,0.008 0.048062,0.008 h 0.032041 c 0.2162784,0 0.7049075,-0.192247 1.177516,-0.6648555 -0.1922475,0.6488355 -0.2883713,0.9852685 -0.2883713,0.9932785 l -0.096124,0.376485 c -0.056072,0.200258 -0.128165,0.320413 -0.128165,0.568732 l -0.00801,0.02403 c 0,0.296382 0.1842372,0.488629 0.4005157,0.488629 0.072093,0 0.1762269,-0.01602 0.2322991,-0.07209 l 0.072093,-0.06408 0.1201547,-0.176227 c 0.056072,-0.08811 0.104134,-0.168217 0.1361753,-0.240309 0.2963816,-0.488629 0.95322724,-2.114723 1.01730974,-2.2108468 0.3684744,-0.7609797 0.8571035,-1.2335882 1.44986666,-1.3537429 h -0.016021 c -0.68888695,0 -1.37777387,0.3364332 -1.95451641,1.201547 0.0560722,-0.25633 0.20826814,-0.9131757 0.20826814,-0.9772582 l 0.00801,-0.048062 c 0.00801,-0.00801 0.00801,-0.016021 0.00801,-0.040052 0,-0.3284229 -0.24030939,-0.3925054 -0.3043919,-0.3925054 -0.15219593,0 -0.27235063,0.072093 -0.29638153,0.1361754 l -0.024031,0.040052 c -0.00801,0.00801 -0.024031,0.040052 -0.048062,0.096124 z M -1.3481214,8.365485 c 0,-0.00801 0,-0.016021 0.00801,-0.024031 l -0.00801,0.032041 z"
         style="font-style:normal;font-variant:normal;font-weight:normal;font-stretch:normal;font-size:8.01031303px;font-family:'Unfolding Tragedy';-inkscape-font-specification:'Unfolding Tragedy';fill:#be30de;fill-opacity:1;stroke-width:0.35549957"
         id="path1577"
         inkscape:connector-curvature="0" />
      <path
         d="m 1.4571152,11.345321 c -0.3764848,0.256331 -0.3764848,0.400516 -0.48061883,0.440568 v 0.008 c -0.0320413,-0.05607 -0.0801031,-0.120155 -0.13617532,-0.208268 v -0.008 C 0.83231074,11.329301 1.120682,10.255919 1.4170636,9.3427432 L 1.5932905,8.7900316 c 0.032041,-0.104134 0.072093,-0.1201547 0.072093,-0.25633 0,-0.064083 -0.1041341,-0.2002578 -0.1762269,-0.2002578 h -0.00801 c -0.00801,-0.00801 -0.024031,-0.00801 -0.048062,-0.00801 -0.056072,0 -0.1521959,0.056072 -0.2082681,0.080103 l -0.016021,0.016021 h 0.00801 C 0.96848606,8.8621245 0.51189821,9.7032073 0.44781571,9.8313723 -0.15295777,11.625682 -0.43331872,12.162373 -0.84184469,12.186404 h -0.0801031 c 0,0.008 0.0240309,0.008 0.0720928,0.008 0.41653628,-0.03204 0.70490755,-0.352454 1.34573259,-1.674156 -0.11214438,0.424547 -0.20826814,0.841083 -0.20826814,1.033331 0,0.02403 0,0.03204 0.00801,0.03204 l -0.0160206,0.136175 c 0.0640825,0.24031 0.20025782,0.680877 0.57674253,0.680877 0.16821651,0 0.35245371,-0.0801 0.53669091,-0.24031 C 2.3622805,11.329301 3.1312706,10.223878 3.5718378,8.8140626 3.6599512,8.517681 3.7000028,8.261351 3.7000028,8.0691035 V 8.0210416 C 3.6919925,7.852825 3.6519409,7.7567013 3.5798481,7.7486909 h -0.00801 c -0.1682166,0 -0.3764847,0.3925054 -0.5687322,0.945217 -0.3604644,1.0733819 -0.913176,1.9304851 -1.5459907,2.6514131 z m -0.55271165,0.632815 c 0,0.008 0,0.008 -0.00801,0.01602 z"
         style="font-style:normal;font-variant:normal;font-weight:normal;font-stretch:normal;font-size:8.01031303px;font-family:'Unfolding Tragedy';-inkscape-font-specification:'Unfolding Tragedy';fill:#be30de;fill-opacity:1;stroke-width:0.35549957"
         id="path1579"
         inkscape:connector-curvature="0" />
      <path
         d="m 5.2521263,11.890023 c 0.4245465,-0.488629 0.51266,-1.033331 0.51266,-1.802321 0,-0.6328144 -0.040052,-2.0185985 -0.7049076,-2.0185985 H 5.0278375 C 4.811559,8.0931344 4.4751259,8.3334438 4.4751259,8.5016604 3.9384349,10.135764 3.6660843,10.952816 3.6660843,10.960826 c -0.4325569,0.584753 -0.7689901,1.033331 -1.0092995,1.345733 -0.1922475,0.144186 -0.3284228,0.224289 -0.4005156,0.25633 0.072093,-0.01602 0.2162784,-0.0801 0.4405672,-0.176227 0.4645981,-0.05607 1.3697635,-0.76098 2.0906917,-2.130743 0.00801,0.120155 0.016021,0.224289 0.016021,0.312402 0,0.544701 -0.096124,0.881135 -0.3925053,1.129454 -0.7770004,0.424547 -1.1614954,0.672867 -1.1614954,0.76098 0.00801,0.03204 0.056072,0.04806 0.1521959,0.04806 0.2002579,0 0.6167941,-0.06408 1.2576192,-0.200258 0.2002578,-0.05607 0.3925053,-0.192247 0.5927632,-0.416536 z"
         style="font-style:normal;font-variant:normal;font-weight:normal;font-stretch:normal;font-size:8.01031303px;font-family:'Unfolding Tragedy';-inkscape-font-specification:'Unfolding Tragedy';fill:#be30de;fill-opacity:1;stroke-width:0.35549957"
         id="path1581"
         inkscape:connector-curvature="0" />
      <path
         d="M 9.1900715,9.2706504 C 9.2461437,9.0864132 9.2701747,8.9502379 9.278185,8.8300832 9.2381334,8.4856397 9.125989,8.3574747 8.89369,8.3574747 c -0.1121444,0 -0.3204126,0.088114 -0.5447013,0.2723507 0.8330725,-1.4658873 1.3217016,-2.9558055 1.3217016,-3.5325481 0,-0.128165 -0.00801,-0.5847528 -0.4485775,-0.5847528 H 9.15002 C 8.8376178,4.5846173 8.6774115,4.6967617 8.4771537,4.9530917 8.0526071,5.5058033 7.6841327,6.2267315 6.8911117,8.4295675 L 6.8350395,8.6138047 C 6.7068745,9.0223307 6.386462,10.095713 6.1221217,11.105012 5.5774204,11.593641 4.9205747,12.026198 4.3518425,12.3386 l 0.1121444,-0.05607 c 0.5687322,-0.280361 1.1214438,-0.592763 1.6020626,-0.985268 -0.080103,0.304392 -0.1361754,0.584752 -0.2002579,0.841082 l -0.016021,0.136176 c 0.00801,0.184237 0.152196,0.304392 0.3364332,0.304392 h 0.056072 c 0.1121444,-0.03204 0.2242888,-0.05607 0.3043919,-0.168217 l 0.080103,-0.112144 c 0.00801,-0.008 0.032041,-0.05607 0.072093,-0.128165 L 6.9712148,11.625682 C 7.5960193,10.504239 8.1807721,9.6311145 8.5412362,9.2706504 8.2128134,10.512249 8.1246999,11.201136 8.1246999,11.857982 c 0,0.873124 0.2403094,1.385784 0.7289385,1.385784 0.2162784,0 0.5206703,-0.136176 0.5206703,-0.184238 v -0.008 c 0,-0.008 -0.00801,-0.008 -0.032041,-0.008 h -0.032041 c -0.104134,0.01602 -0.1521959,0.02403 -0.1602062,0.03204 h -0.072093 c -0.3925054,0 -0.5767426,-0.25633 -0.5767426,-0.833072 0,-0.672867 0.152196,-1.393795 0.6888869,-2.9718266 z M 8.3409784,7.6605775 C 8.0686277,8.4375779 7.7161739,9.1424854 7.283617,9.7672898 7.4518336,9.182537 7.5799986,8.7660007 7.6841327,8.5256913 l -0.00801,0.00801 c 0,-0.2082681 0.76899,-2.0906917 1.2015469,-2.9317746 0.040052,-0.072093 0.072093,-0.128165 0.096124,-0.1842372 -0.040052,0.4245466 -0.2723507,1.201547 -0.6328152,2.242888 z m -4.0852597,4.7180745 -0.096124,0.04806 c 0.00801,0 0.040051,-0.01602 0.096124,-0.04806 z m 0.040052,-0.01602 0.016021,-0.008 -0.056072,0.02403 z m 0.040051,-0.01602 -0.024031,0.008 c 0.00801,0 0.016021,0 0.024031,-0.008 z m 0.016021,-0.008 c -0.00801,0 -0.00801,0 -0.016021,0.008 z"
         style="font-style:normal;font-variant:normal;font-weight:normal;font-stretch:normal;font-size:8.01031303px;font-family:'Unfolding Tragedy';-inkscape-font-specification:'Unfolding Tragedy';fill:#be30de;fill-opacity:1;stroke-width:0.35549957"
         id="path1583"
         inkscape:connector-curvature="0" />
      <path
         d="m 10.474224,11.898033 c -0.104134,-0.216278 -0.160206,-0.448577 -0.160206,-0.704907 0,-0.03204 0.008,-0.104135 0.01602,-0.216279 0.825062,-0.496639 1.393794,-1.4979284 1.393794,-1.9705369 v -0.016021 c 0,-0.3284229 -0.272351,-0.6408251 -0.616794,-0.6408251 -0.52067,0 -0.793021,0.3043919 -0.969248,0.5206704 l -0.05607,0.088113 c -0.02403,0 -0.07209,0.1041341 -0.1602063,0.3204125 C 9.7052342,9.7993311 9.6011002,10.336022 9.6011002,10.856692 v 0.176227 C 9.2886979,11.249198 8.9522648,11.377363 8.5837904,11.401394 H 8.4476151 c -0.1041341,0 -0.1922475,-0.008 -0.280361,-0.02403 l -0.128165,-0.02403 0.1201547,0.04005 c 0.1682166,0.05607 0.3925053,0.09612 0.640825,0.09612 0.280361,0 0.5527116,-0.04806 0.8330726,-0.152196 0.25633,1.305681 1.3697636,1.570022 2.1788056,1.842372 l 0.456587,0.128165 c -0.07209,-0.03204 -0.216278,-0.09612 -0.424546,-0.200258 -1.0093,-0.600773 -1.065372,-0.648835 -1.369764,-1.209557 z m 0.104134,-1.882423 c -0.02403,0.02403 -0.04005,0.05607 -0.06408,0.08811 0.07209,-0.2883713 0.24832,-0.7449591 0.376485,-0.8090416 -0.04806,0.2082681 -0.176227,0.51266 -0.312403,0.7209286 z m 1.754259,3.316269 h 0.008 l -0.07209,-0.02403 c 0.03204,0.01602 0.05607,0.02403 0.06408,0.02403 z"
         style="font-style:normal;font-variant:normal;font-weight:normal;font-stretch:normal;font-size:8.01031303px;font-family:'Unfolding Tragedy';-inkscape-font-specification:'Unfolding Tragedy';fill:#be30de;fill-opacity:1;stroke-width:0.35549957"
         id="path1585"
         inkscape:connector-curvature="0" />
      <path
         d="M 12.4559,8.5337016 C 11.879157,9.8954548 11.19828,10.52827 10.885878,10.568321 h -0.04806 c 0,0.008 0.01602,0.008 0.04806,0.008 h 0.03204 c 0.216279,0 0.704908,-0.192247 1.177517,-0.6648555 -0.192248,0.6488355 -0.288372,0.9852685 -0.288372,0.9932785 l -0.09612,0.376485 c -0.05607,0.200258 -0.128165,0.320413 -0.128165,0.568732 l -0.008,0.02403 c 0,0.296382 0.184237,0.488629 0.400516,0.488629 0.07209,0 0.176227,-0.01602 0.232299,-0.07209 l 0.07209,-0.06408 0.120154,-0.176227 c 0.05607,-0.08811 0.104134,-0.168217 0.136176,-0.240309 0.296381,-0.488629 0.953227,-2.114723 1.017309,-2.2108468 0.368475,-0.7609797 0.857104,-1.2335882 1.449867,-1.3537429 h -0.01602 c -0.688887,0 -1.377774,0.3364332 -1.954517,1.201547 0.05607,-0.25633 0.208268,-0.9131757 0.208268,-0.9772582 l 0.008,-0.048062 c 0.008,-0.00801 0.008,-0.016021 0.008,-0.040052 0,-0.3284229 -0.240309,-0.3925054 -0.304392,-0.3925054 -0.152196,0 -0.272351,0.072093 -0.296382,0.1361754 l -0.02403,0.040052 c -0.008,0.00801 -0.02403,0.040052 -0.04806,0.096124 z M 12.576054,8.365485 c 0,-0.00801 0,-0.016021 0.008,-0.024031 l -0.008,0.032041 z"
         style="font-style:normal;font-variant:normal;font-weight:normal;font-stretch:normal;font-size:8.01031303px;font-family:'Unfolding Tragedy';-inkscape-font-specification:'Unfolding Tragedy';fill:#be30de;fill-opacity:1;stroke-width:0.35549957"
         id="path1587"
         inkscape:connector-curvature="0" />
    </g>
  </g>
  <g
     inkscape:groupmode="layer"
     id="layer4"
     inkscape:label="cloud"
     style="display:inline"
     sodipodi:insensitive="true">
    <path
       d="m 27.771249,15.974478 c 0.694548,0.236086 1.398216,0.607085 1.951417,1.229763 0.553667,0.622494 0.973894,1.546056 0.871758,2.342783 0.0074,0.03297 0.971556,69.793294 0.08557,95.502966 H 0.2 c 0,0 0.092269,-76.695127 0,-78.921243 -0.090034,-2.173262 0,-7.15599 0,-7.15599 0.7506713,-1.147796 1.2941441,-0.960526 2.6129675,-0.929016 0.3594004,0.0083 0.7439145,0.10993 1.0635817,-0.02852 0.519067,-0.22504 0.6687187,-0.970936 0.8391341,-1.605412 0.8113138,-3.018599 3.3742878,-4.927661 6.1785047,-4.602726 0.280971,0.03266 0.604261,0.06936 0.767495,-0.16857 0.145546,-0.212021 0.09802,-0.551826 0.064,-0.85444 -0.143998,-1.288973 0.114929,-2.603054 0.868559,-3.345787 0.784337,-0.773841 1.955549,-0.692117 2.933905,0.07387 0.906121,-1.299903 1.912155,-3.159717 3.512267,-3.397215 1.426532,-0.211821 3.809119,0.991332 4.323155,2.897238 1.071457,-1.342183 2.73362,-1.60655 4.407685,-1.037705"
       style="display:inline;fill:url(#linearGradient6410);fill-opacity:1;fill-rule:nonzero;stroke:none;stroke-width:0.0284852"
       id="path176"
       inkscape:connector-curvature="0"
       sodipodi:nodetypes="cccccccccccccccccc" />
    <path
       d="m 9.3272932,36.950984 c -0.372679,2.08508 -1.3971821,3.90201 -2.9312966,4.831414 -1.5338842,0.92931 -3.5820228,0.901402 -5.3281581,-0.246289 -0.63259504,-0.41578 -0.38020141,0.0084 -0.86783887,-0.650588 0.40422926,0.161789 -0.38138438,-1.038406 0.025827,-0.963663 1.75419637,0.323958 3.84516347,0.133225 5.07363447,-1.089116 0.9966048,-0.992258 1.6762311,-2.525261 1.4995366,-4.23639 2.0741804,-0.198523 3.5167943,-2.6169 3.1004505,-5.196303 0.8724268,0.404135 1.7861298,0.0097 2.3026208,-0.740994 0.516253,-0.751265 0.697444,-1.794892 0.753354,-2.83701 0.759966,0.948813 0.735217,2.422077 0.221214,3.341014 -0.514112,0.919329 -1.391602,1.418 -2.239302,1.88663 0.473157,1.925716 -0.479815,3.892779 -2.0123859,4.154964 0.228651,0.38231 0.405907,0.793866 0.544998,1.217868 -0.07404,0.15346 -0.109939,0.345086 -0.142657,0.528464"
       style="display:inline;fill:#409880;fill-opacity:1;fill-rule:nonzero;stroke:none;stroke-width:0.0284852"
       id="path178"
       inkscape:connector-curvature="0"
       sodipodi:nodetypes="ccccccccccccccc" />
    <path
       d="m 26.977228,9.4141257 c 2.959083,-0.403847 3.092178,5.0314853 0.866932,5.3465123 -1.399594,0.198273 -0.310884,-0.652416 -0.344001,-1.636654 -0.04096,-1.212499 -2.577847,-3.4293313 -0.522931,-3.7098583"
       style="display:inline;fill:#30e0b0;fill-opacity:1;fill-rule:nonzero;stroke:none;stroke-width:0.0284852"
       id="path182"
       inkscape:connector-curvature="0" />
    <path
       d="m 2.8129675,28.043741 c 0.3594004,0.0083 0.7439145,0.10993 1.0635817,-0.02852 0.519067,-0.22504 0.668599,-0.971236 0.8391341,-1.605412 0.8113138,-3.018599 3.3742878,-4.927661 6.1785047,-4.602726 0.280971,0.03266 0.604261,0.06936 0.767495,-0.16857 0.145546,-0.212021 0.09802,-0.551826 0.064,-0.85444 -0.143998,-1.288973 0.114929,-2.603054 0.868559,-3.345787 0.784337,-0.773841 1.955549,-0.692117 2.933905,0.07387 0.906121,-1.299903 1.912155,-3.159717 3.512267,-3.397215 1.426532,-0.211821 3.809119,0.991332 4.323155,2.897238 1.071457,-1.342183 2.7335,-1.606851 4.407685,-1.037705 0.694548,0.236086 1.398216,0.607085 1.951417,1.229763 0.0693,0.07773 0.135989,0.160345 0.199208,0.246438 -0.05487,-0.01928 -0.10857,-0.03833 -0.165316,-0.05894 -1.284316,-0.468983 -2.543346,-0.623485 -3.754262,-0.303703 -0.388039,0.102231 -3.19103,1.327091 -2.887964,2.08279 -0.710691,-1.773294 -2.565698,-2.769673 -4.016313,-2.457496 -1.450616,0.312178 -2.488002,1.682987 -2.999247,3.298138 -0.519082,-1.196805 -2.036483,-1.234889 -2.645537,-0.346757 -0.609397,0.888617 -0.577866,2.24832 -0.521446,3.506299 C 11.015296,22.786903 9.1189612,23.33567 7.7723482,24.663814 6.4255014,25.992049 5.6447756,28.083341 5.6482235,30.354344 5.1750502,29.971938 4.6103193,29.928676 4.0926793,29.950025 1.9055237,30.040445 1.6222495,29.513521 0.17058956,31.216557 0.53782666,30.340512 -0.29607667,29.73202 0.2,28.972757 0.9506713,27.824961 1.4941441,28.012231 2.8129675,28.043741"
       style="display:inline;fill:#be30de;fill-opacity:1;fill-rule:nonzero;stroke:none;stroke-width:0.0284852"
       id="path186"
       inkscape:connector-curvature="0"
       sodipodi:nodetypes="ccccccccccccccccsccccccccc" />
    <path
       d="m 30.679998,21.652069 c -1.588199,-0.05065 -1.422995,1.351857 -1.908398,3.062786 -0.397216,-0.985451 -1.334537,-1.612867 -2.189831,-1.710784 -0.854942,-0.09771 -1.639306,0.24128 -2.347035,0.665542 -1.032259,0.618049 -2.047761,1.632512 -1.967854,3.128905 -0.569555,-1.622334 -1.834529,-2.99075 -3.214443,-3.477056 -1.379917,-0.486306 -2.825533,-0.07317 -3.673518,1.050312 0.06872,-1.662881 1.341119,-2.81167 2.74839,-2.713909 1.407383,0.09737 2.835915,1.287401 3.673626,2.82117 0.332343,-1.481948 1.301511,-2.617862 2.545197,-2.982487 1.243574,-0.364231 2.732564,0.05095 3.909503,1.090854 0.45084,-1.329627 1.27159,-2.434902 2.338789,-3.040378"
       style="display:inline;fill:#be30de;fill-opacity:1;fill-rule:nonzero;stroke:none;stroke-width:0.0284852"
       id="path184"
       inkscape:connector-curvature="0"
       sodipodi:nodetypes="cccccscccccc" />
    <path
       d="m 26.977228,9.4141257 c 1.026232,-0.140296 1.711994,0.422825 2.07789,1.2305733 -0.439266,-0.09021 -0.878257,0.132172 -1.039522,0.585001 -0.223133,-0.626374 -0.82921,-1.031102 -1.358356,-1.035873 -0.160462,-0.0016 -0.312608,0.02988 -0.457979,0.08234 -0.09324,-0.4374213 0.06863,-0.7651983 0.777966,-0.8620373"
       style="display:inline;fill:#be30de;fill-opacity:1;fill-rule:nonzero;stroke:none;stroke-width:0.0284852"
       id="path196"
       inkscape:connector-curvature="0" />
    <path
       d="M 2.713688,20.243861 C -0.24539503,19.840014 -0.37849003,25.275347 1.846756,25.590374 3.24635,25.788647 2.15764,24.937958 2.190757,23.95372 2.231717,22.741221 4.768604,20.524388 2.713688,20.243861"
       style="display:inline;fill:#30e0b0;fill-opacity:1;fill-rule:nonzero;stroke:none;stroke-width:0.0284852"
       id="path182-1"
       inkscape:connector-curvature="0" />
    <path
       d="M 2.713688,20.243861 C 1.687456,20.103565 1.001694,20.666686 0.63579797,21.474435 1.075064,21.384225 1.514055,21.606607 1.67532,22.059436 c 0.223133,-0.626374 0.82921,-1.031102 1.358356,-1.035873 0.160462,-0.0016 0.312608,0.02988 0.457979,0.08234 0.09324,-0.437422 -0.06863,-0.765199 -0.777966,-0.862038"
       style="display:inline;fill:#be30de;fill-opacity:1;fill-rule:nonzero;stroke:none;stroke-width:0.0284852"
       id="path196-2"
       inkscape:connector-curvature="0" />
    <path
       d="m 28.139421,39.35459 c 1.604977,-0.800292 2.675449,-2.546643 2.637963,-4.635848 l -0.01136,-1.057093 c 0,0 -0.749169,-0.901186 -0.903507,-0.517011 -0.663182,1.656001 -1.941365,3.321765 -3.630919,3.707339 -1.37119,0.312464 -3.03019,0.06811 -4.382349,-0.995304 -1.275801,1.647411 -2.449922,1.118868 -4.408081,-0.610951 -0.124384,0.953406 -2.883509,1.311991 -3.794023,1.347617 -0.910869,0.03512 -1.901236,-1.958837 -2.447021,-2.924532 0.06188,1.47773 0.320969,3.756485 1.614238,4.061653 1.385043,0.213794 2.977047,0.196409 3.826035,-0.269884 1.375201,1.428664 3.547159,1.580258 4.587464,0.424715 0.201056,0.397516 0.680377,0.717834 1.369853,1.345143 2.289153,1.12615 3.936528,0.924591 5.541707,0.124156 z"
       style="display:inline;fill:#409880;fill-opacity:1;fill-rule:nonzero;stroke:none;stroke-width:0.0284852"
       id="path178-1"
       inkscape:connector-curvature="0"
       sodipodi:nodetypes="cccccccccccccc" />
  </g>
  <g
     inkscape:groupmode="layer"
     id="layer3"
     inkscape:label="body"
     style="display:inline;opacity:1">
    <rect
       style="fill:#404040;fill-opacity:1;fill-rule:evenodd;stroke-width:0.27749732;paint-order:stroke fill markers"
       width="10"
       height="27.5"
       x="20"
       y="86"
       id="rect1790"
       rx="3"
       ry="3.3" />
    <g
       aria-label="Out1 "
       style="font-style:normal;font-weight:normal;font-size:19.7555542px;line-height:1.25;font-family:sans-serif;letter-spacing:0px;word-spacing:0px;fill:#000000;fill-opacity:1;stroke:none;stroke-width:0.26458332"
       id="text1774"
       transform="translate(-0.0795205,-1.297719)">
      <path
         d="m 20.978505,98.272551 q 0,-0.479777 0.229305,-0.744361 0.229306,-0.264583 0.638528,-0.264583 0.409222,0 0.638528,0.264583 0.229305,0.264584 0.229305,0.744361 v 0.550334 q 0,0.493889 -0.229305,0.751416 -0.229306,0.257528 -0.638528,0.257528 -0.409222,0 -0.638528,-0.257528 -0.229305,-0.257527 -0.229305,-0.751416 z m 0.867833,1.284111 q 0.28575,0 0.426861,-0.194027 0.144639,-0.197556 0.144639,-0.560917 v -0.508 q 0,-0.338667 -0.144639,-0.546806 -0.141111,-0.208138 -0.426861,-0.208138 -0.28575,0 -0.430389,0.208138 -0.141111,0.208139 -0.141111,0.546806 v 0.508 q 0,0.363361 0.141111,0.560917 0.144639,0.194027 0.430389,0.194027 z"
         style="font-style:normal;font-variant:normal;font-weight:normal;font-stretch:normal;font-size:3.52777767px;font-family:'SpaceMono Nerd Font';-inkscape-font-specification:'SpaceMono Nerd Font';fill:#ffffff;fill-opacity:1;stroke-width:0.26458332"
         id="path887"
         inkscape:connector-curvature="0" />
      <path
         d="m 24.479218,98.032662 h 0.275166 v 1.749778 h -0.275166 v -0.3175 h -0.04233 q -0.08467,0.169334 -0.222249,0.268111 -0.137584,0.09878 -0.34925,0.09878 -0.144639,0 -0.268112,-0.04939 -0.119944,-0.04586 -0.208138,-0.141111 -0.08467,-0.09525 -0.134056,-0.236361 -0.04586,-0.141111 -0.04586,-0.328083 v -1.044223 h 0.275167 v 1.008945 q 0,0.275167 0.112888,0.402167 0.112889,0.127 0.345723,0.127 0.250472,0 0.391583,-0.169334 0.144639,-0.172861 0.144639,-0.458611 z"
         style="font-style:normal;font-variant:normal;font-weight:normal;font-stretch:normal;font-size:3.52777767px;font-family:'SpaceMono Nerd Font';-inkscape-font-specification:'SpaceMono Nerd Font';fill:#ffffff;fill-opacity:1;stroke-width:0.26458332"
         id="path889"
         inkscape:connector-curvature="0" />
      <path
         d="m 25.327042,98.032662 h 0.550333 v -0.719666 h 0.275167 v 0.719666 h 0.677333 v 0.254 h -0.677333 v 1.135945 q 0,0.105833 0.09525,0.105833 h 0.497417 v 0.254 h -0.596195 q -0.119944,0 -0.197555,-0.07761 -0.07408,-0.07761 -0.07408,-0.197555 v -1.220612 h -0.550333 z"
         style="font-style:normal;font-variant:normal;font-weight:normal;font-stretch:normal;font-size:3.52777767px;font-family:'SpaceMono Nerd Font';-inkscape-font-specification:'SpaceMono Nerd Font';fill:#ffffff;fill-opacity:1;stroke-width:0.26458332"
         id="path891"
         inkscape:connector-curvature="0" />
      <path
         d="m 28.1857,99.507274 v -2.06375 h -0.04233 l -0.405695,0.927805 H 27.44487 v -0.02117 l 0.462138,-1.037166 h 0.575028 v 2.194278 h 0.6985 V 99.78244 H 27.4872 v -0.275166 z"
         style="font-style:normal;font-variant:normal;font-weight:normal;font-stretch:normal;font-size:3.52777767px;font-family:'SpaceMono Nerd Font';-inkscape-font-specification:'SpaceMono Nerd Font';fill:#ffffff;fill-opacity:1;stroke-width:0.26458332"
         id="path893"
         inkscape:connector-curvature="0" />
    </g>
    <g
       aria-label="Out2 "
       style="font-style:normal;font-weight:normal;font-size:19.7555542px;line-height:1.25;font-family:sans-serif;letter-spacing:0px;word-spacing:0px;display:inline;opacity:1;fill:#000000;fill-opacity:1;stroke:none;stroke-width:0.26458332"
       id="text1774-5">
      <path
         d="m 20.978505,109.52255 q 0,-0.47978 0.229305,-0.74436 0.229306,-0.26458 0.638528,-0.26458 0.409222,0 0.638528,0.26458 0.229305,0.26458 0.229305,0.74436 v 0.55033 q 0,0.49389 -0.229305,0.75142 -0.229306,0.25753 -0.638528,0.25753 -0.409222,0 -0.638528,-0.25753 -0.229305,-0.25753 -0.229305,-0.75142 z m 0.867833,1.28411 q 0.28575,0 0.426861,-0.19403 0.144639,-0.19755 0.144639,-0.56091 v -0.508 q 0,-0.33867 -0.144639,-0.54681 -0.141111,-0.20814 -0.426861,-0.20814 -0.28575,0 -0.430389,0.20814 -0.141111,0.20814 -0.141111,0.54681 v 0.508 q 0,0.36336 0.141111,0.56091 0.144639,0.19403 0.430389,0.19403 z"
         style="font-style:normal;font-variant:normal;font-weight:normal;font-stretch:normal;font-size:3.52777767px;font-family:'SpaceMono Nerd Font';-inkscape-font-specification:'SpaceMono Nerd Font';fill:#ffffff;fill-opacity:1;stroke-width:0.26458332"
         id="path878"
         inkscape:connector-curvature="0" />
      <path
         d="m 24.479218,109.28266 h 0.275166 v 1.74978 h -0.275166 v -0.3175 h -0.04233 q -0.08467,0.16933 -0.222249,0.26811 -0.137584,0.0988 -0.34925,0.0988 -0.144639,0 -0.268112,-0.0494 -0.119944,-0.0459 -0.208138,-0.14111 -0.08467,-0.0952 -0.134056,-0.23636 -0.04586,-0.14111 -0.04586,-0.32809 v -1.04422 h 0.275167 v 1.00895 q 0,0.27516 0.112888,0.40216 0.112889,0.127 0.345723,0.127 0.250472,0 0.391583,-0.16933 0.144639,-0.17286 0.144639,-0.45861 z"
         style="font-style:normal;font-variant:normal;font-weight:normal;font-stretch:normal;font-size:3.52777767px;font-family:'SpaceMono Nerd Font';-inkscape-font-specification:'SpaceMono Nerd Font';fill:#ffffff;fill-opacity:1;stroke-width:0.26458332"
         id="path880"
         inkscape:connector-curvature="0" />
      <path
         d="m 25.327042,109.28266 h 0.550333 V 108.563 h 0.275167 v 0.71966 h 0.677333 v 0.254 h -0.677333 v 1.13595 q 0,0.10583 0.09525,0.10583 h 0.497417 v 0.254 h -0.596195 q -0.119944,0 -0.197555,-0.0776 -0.07408,-0.0776 -0.07408,-0.19756 v -1.22061 h -0.550333 z"
         style="font-style:normal;font-variant:normal;font-weight:normal;font-stretch:normal;font-size:3.52777767px;font-family:'SpaceMono Nerd Font';-inkscape-font-specification:'SpaceMono Nerd Font';fill:#ffffff;fill-opacity:1;stroke-width:0.26458332"
         id="path882"
         inkscape:connector-curvature="0" />
      <path
         d="m 29.155839,110.75727 v 0.27517 h -1.672167 v -0.42333 q 0,-0.16934 0.05645,-0.29281 0.05644,-0.127 0.15875,-0.21519 0.105833,-0.0917 0.254,-0.1517 0.148166,-0.06 0.335138,-0.1023 0.313973,-0.0706 0.451556,-0.20109 0.141111,-0.13052 0.141111,-0.32102 v -0.0212 q 0,-0.0953 -0.03175,-0.18697 -0.03175,-0.0917 -0.09878,-0.16581 -0.06703,-0.0741 -0.172861,-0.11642 -0.102305,-0.0459 -0.246944,-0.0459 -0.271639,0 -0.423334,0.16581 -0.148166,0.1658 -0.148166,0.44097 v 0.15522 h -0.296334 v -0.17639 q 0,-0.16933 0.05645,-0.32455 0.05644,-0.15522 0.165805,-0.27517 0.109362,-0.11994 0.271639,-0.1905 0.162278,-0.0705 0.373945,-0.0705 0.215194,0 0.373944,0.067 0.15875,0.0635 0.264584,0.17287 0.105833,0.10583 0.155222,0.24341 0.05292,0.13406 0.05292,0.27517 v 0.0635 q 0,0.28222 -0.176388,0.4833 -0.176389,0.19756 -0.564445,0.28223 -0.338667,0.0741 -0.497417,0.19755 -0.15875,0.11995 -0.15875,0.35278 v 0.10583 z"
         style="font-style:normal;font-variant:normal;font-weight:normal;font-stretch:normal;font-size:3.52777767px;font-family:'SpaceMono Nerd Font';-inkscape-font-specification:'SpaceMono Nerd Font';fill:#ffffff;fill-opacity:1;stroke-width:0.26458332"
         id="path884"
         inkscape:connector-curvature="0" />
    </g>
    <g
       transform="translate(0.0035295,-4e-6)"
       aria-label="In1"
       style="font-style:normal;font-variant:normal;font-weight:normal;font-stretch:normal;font-size:19.7555542px;line-height:1.25;font-family:'SpaceMono Nerd Font';-inkscape-font-specification:'SpaceMono Nerd Font';letter-spacing:0px;word-spacing:0px;display:inline;fill:#000000;fill-opacity:1;stroke:none;stroke-width:0.26458332"
       id="text894">
      <path
         d="M 2.4212127,108.48116 H 3.987546 v 0.27517 h -0.635 v 1.91911 h 0.635 v 0.27517 H 2.4212127 v -0.27517 h 0.635 v -1.91911 h -0.635 z"
         style="font-size:3.52777767px;fill:#ffffff;fill-opacity:1;stroke-width:0.26458332"
         id="path5825"
         inkscape:connector-curvature="0" />
      <path
         d="M 4.8635925,110.95061 H 4.5884258 v -1.74978 h 0.2751667 v 0.29633 h 0.042333 q 0.1622778,-0.34572 0.5644444,-0.34572 0.3033889,0 0.4833056,0.1905 0.1799166,0.18697 0.1799166,0.56445 v 1.04422 H 5.8584258 v -0.98778 q 0,-0.27517 -0.1234722,-0.41275 -0.1234723,-0.13758 -0.3351389,-0.13758 -0.2504722,0 -0.3951111,0.17286 -0.1411111,0.16933 -0.1411111,0.45508 z"
         style="font-size:3.52777767px;fill:#ffffff;fill-opacity:1;stroke-width:0.26458332"
         id="path5827"
         inkscape:connector-curvature="0" />
      <path
         d="m 7.3871112,110.67544 v -2.06375 H 7.3447778 L 6.9390834,109.5395 H 6.6462778 v -0.0212 l 0.4621389,-1.03717 h 0.5750278 v 2.19428 h 0.6985 v 0.27517 H 6.6886112 v -0.27517 z"
         style="font-size:3.52777767px;fill:#ffffff;fill-opacity:1;stroke-width:0.26458332"
         id="path5829"
         inkscape:connector-curvature="0" />
    </g>
    <g
       transform="translate(0.0035295,-4e-6)"
       aria-label="In2"
       inkscape:transform-center-x="8.979239"
       inkscape:transform-center-y="-0.1403165"
       style="font-style:normal;font-variant:normal;font-weight:normal;font-stretch:normal;font-size:19.7555542px;line-height:1.25;font-family:'SpaceMono Nerd Font';-inkscape-font-specification:'SpaceMono Nerd Font';letter-spacing:0px;word-spacing:0px;display:inline;fill:#000000;fill-opacity:1;stroke:none;stroke-width:0.26458332"
       id="text894-6">
      <path
         d="m 12.021398,108.53056 h 1.566333 v 0.27516 h -0.635 v 1.91911 h 0.635 V 111 h -1.566333 v -0.27517 h 0.635 v -1.91911 h -0.635 z"
         style="font-size:3.52777767px;fill:#ffffff;fill-opacity:1;stroke-width:0.26458332"
         id="path5818"
         inkscape:connector-curvature="0" />
      <path
         d="m 14.463777,111 h -0.275166 v -1.74978 h 0.275166 v 0.29634 h 0.04233 q 0.162277,-0.34573 0.564444,-0.34573 0.303389,0 0.483306,0.1905 0.179916,0.18698 0.179916,0.56445 V 111 h -0.275166 v -0.98778 q 0,-0.27516 -0.123473,-0.41275 Q 15.211666,109.46189 15,109.46189 q -0.250473,0 -0.395111,0.17286 -0.141112,0.16933 -0.141112,0.45508 z"
         style="font-size:3.52777767px;fill:#ffffff;fill-opacity:1;stroke-width:0.26458332"
         id="path5820"
         inkscape:connector-curvature="0" />
      <path
         d="M 17.957435,110.72483 V 111 h -1.672167 v -0.42333 q 0,-0.16934 0.05645,-0.29281 0.05644,-0.127 0.15875,-0.21519 0.105833,-0.0917 0.254,-0.1517 0.148166,-0.06 0.335139,-0.1023 0.313972,-0.0706 0.451555,-0.20109 0.141111,-0.13052 0.141111,-0.32102 v -0.0212 q 0,-0.0952 -0.03175,-0.18697 -0.03175,-0.0917 -0.09878,-0.16581 -0.06703,-0.0741 -0.172862,-0.11642 -0.102305,-0.0459 -0.246944,-0.0459 -0.271639,0 -0.423333,0.16581 -0.148167,0.1658 -0.148167,0.44097 v 0.15522 h -0.296333 v -0.17639 q 0,-0.16933 0.05644,-0.32455 0.05645,-0.15522 0.165806,-0.27517 0.109361,-0.11994 0.271639,-0.1905 0.162277,-0.0705 0.373944,-0.0705 0.215194,0 0.373944,0.067 0.15875,0.0635 0.264584,0.17287 0.105833,0.10583 0.155222,0.24341 0.05292,0.13406 0.05292,0.27517 v 0.0635 q 0,0.28222 -0.176389,0.4833 -0.176389,0.19756 -0.564445,0.28223 -0.338666,0.0741 -0.497416,0.19755 -0.15875,0.11995 -0.15875,0.35278 v 0.10583 z"
         style="font-size:3.52777767px;fill:#ffffff;fill-opacity:1;stroke-width:0.26458332"
         id="path5822"
         inkscape:connector-curvature="0" />
    </g>
    <g
       transform="translate(0.0035295,-4e-6)"
       aria-label="CV1"
       style="font-style:normal;font-variant:normal;font-weight:normal;font-stretch:normal;font-size:19.7555542px;line-height:1.25;font-family:'SpaceMono Nerd Font';-inkscape-font-specification:'SpaceMono Nerd Font';letter-spacing:0px;word-spacing:0px;display:inline;fill:#000000;fill-opacity:1;stroke:none;stroke-width:0.26458332"
       id="text894-3" />
    <path
       style="fill:none;stroke:#ffffff;stroke-width:0.5;stroke-linecap:butt;stroke-linejoin:miter;stroke-miterlimit:4;stroke-dasharray:1, 0.5;stroke-dashoffset:5;stroke-opacity:1"
       d="m 7.5,76 v 7.5 H 5 v 7.499999"
       id="path5957"
       inkscape:connector-curvature="0"
       sodipodi:nodetypes="cccc" />
    <path
       style="fill:none;stroke:#ffffff;stroke-width:0.5;stroke-linecap:butt;stroke-linejoin:miter;stroke-miterlimit:4;stroke-dasharray:1, 0.5;stroke-dashoffset:5;stroke-opacity:1"
       d="m 22.5,76 v 7.5 H 15 v 7.499999"
       id="path5959"
       inkscape:connector-curvature="0"
       sodipodi:nodetypes="cccc" />
    <g
       aria-label="Gain"
       style="font-style:normal;font-variant:normal;font-weight:normal;font-stretch:normal;font-size:3.52777767px;line-height:1.25;font-family:'SpaceMono Nerd Font';-inkscape-font-specification:'SpaceMono Nerd Font';letter-spacing:0px;word-spacing:0px;fill:#000000;fill-opacity:1;stroke:none;stroke-width:0.26458332"
       id="text5963"
       transform="translate(1.4999997e-6,-2.5000015)">
      <path
         d="m 19.078082,54.799389 h 1.100667 v 1.185333 h -0.275167 v -0.296333 h -0.04233 q -0.05997,0.155222 -0.211667,0.250472 -0.151694,0.09525 -0.352778,0.09525 -0.398638,0 -0.627944,-0.257528 -0.225778,-0.257528 -0.225778,-0.751416 v -0.550334 q 0,-0.479777 0.229306,-0.744361 0.229305,-0.264583 0.638528,-0.264583 0.211666,0 0.373944,0.07056 0.162278,0.06703 0.271639,0.1905 0.109361,0.119945 0.165805,0.28575 0.05645,0.162278 0.05645,0.34925 v 0.04233 h -0.296333 v -0.04233 q 0,-0.119944 -0.03528,-0.232833 -0.03175,-0.112889 -0.102306,-0.197555 -0.06703,-0.08819 -0.176389,-0.137584 -0.105833,-0.05292 -0.257527,-0.05292 -0.28575,0 -0.430389,0.208138 -0.141111,0.208139 -0.141111,0.546806 v 0.508 q 0,0.363361 0.141111,0.560917 0.144639,0.194027 0.437444,0.194027 0.264583,0 0.41275,-0.169333 0.151695,-0.169333 0.151695,-0.472722 v -0.04233 h -0.804334 z"
         style="font-size:3.52777767px;line-height:4.40972233px;fill:#ffffff;fill-opacity:1;stroke-width:0.26458332"
         id="path6004"
         inkscape:connector-curvature="0" />
      <path
         d="m 21.96849,55.688389 h -0.04233 q -0.08467,0.176389 -0.236361,0.261055 -0.148166,0.08467 -0.313972,0.08467 -0.172861,0 -0.321028,-0.05644 -0.148166,-0.05997 -0.261055,-0.172862 -0.109361,-0.116416 -0.172861,-0.282222 -0.0635,-0.165805 -0.0635,-0.384528 v -0.05644 q 0,-0.215194 0.0635,-0.381 0.0635,-0.165805 0.172861,-0.278694 0.112889,-0.116417 0.261055,-0.176389 0.148167,-0.05997 0.313973,-0.05997 0.179916,0 0.324555,0.08114 0.148167,0.07761 0.232833,0.243417 h 0.04233 v -0.275167 h 0.275166 v 1.389945 q 0,0.105833 0.09525,0.105833 h 0.08819 v 0.254 h -0.186972 q -0.119945,0 -0.197556,-0.07761 -0.07408,-0.07761 -0.07408,-0.197556 z m -0.564445,0.08467 q 0.123473,0 0.225778,-0.04586 0.105833,-0.04586 0.179917,-0.130527 0.07408,-0.08467 0.116416,-0.201084 0.04233,-0.119944 0.04233,-0.264583 v -0.04233 q 0,-0.141111 -0.04233,-0.257528 -0.04233,-0.119945 -0.119944,-0.204611 -0.07408,-0.08467 -0.179917,-0.130528 -0.102305,-0.04939 -0.22225,-0.04939 -0.123472,0 -0.225777,0.04586 -0.102306,0.04586 -0.179917,0.130528 -0.07408,0.08114 -0.116417,0.201083 -0.04233,0.116417 -0.04233,0.257528 v 0.05644 q 0,0.299862 0.155222,0.469195 0.15875,0.165805 0.409222,0.165805 z"
         style="font-size:3.52777767px;line-height:4.40972233px;fill:#ffffff;fill-opacity:1;stroke-width:0.26458332"
         id="path6006"
         inkscape:connector-curvature="0" />
      <path
         d="m 23.398397,53.712833 q 0,-0.102305 0.07056,-0.172861 0.07408,-0.07408 0.176389,-0.07408 0.102305,0 0.172861,0.07408 0.07408,0.07056 0.07408,0.172861 0,0.102306 -0.07408,0.176389 -0.07056,0.07056 -0.172861,0.07056 -0.102306,0 -0.176389,-0.07056 -0.07056,-0.07408 -0.07056,-0.176389 z m -0.500944,2.017889 h 0.613833 v -1.241778 h -0.550333 v -0.254 h 0.8255 v 1.495778 h 0.5715 v 0.254 h -1.4605 z"
         style="font-size:3.52777767px;line-height:4.40972233px;fill:#ffffff;fill-opacity:1;stroke-width:0.26458332"
         id="path6008"
         inkscape:connector-curvature="0" />
      <path
         d="M 25.286916,55.984722 H 25.01175 v -1.749778 h 0.275166 v 0.296334 h 0.04233 q 0.162277,-0.345722 0.564444,-0.345722 0.303389,0 0.483306,0.1905 0.179916,0.186972 0.179916,0.564444 v 1.044222 H 26.28175 v -0.987778 q 0,-0.275166 -0.123473,-0.41275 -0.123472,-0.137583 -0.335138,-0.137583 -0.250473,0 -0.395112,0.172861 -0.141111,0.169334 -0.141111,0.455083 z"
         style="font-size:3.52777767px;line-height:4.40972233px;fill:#ffffff;fill-opacity:1;stroke-width:0.26458332"
         id="path6010"
         inkscape:connector-curvature="0" />
    </g>
    <g
       aria-label="Mix"
       style="font-style:normal;font-variant:normal;font-weight:normal;font-stretch:normal;font-size:3.52777767px;line-height:1.25;font-family:'SpaceMono Nerd Font';-inkscape-font-specification:'SpaceMono Nerd Font';letter-spacing:0px;word-spacing:0px;display:inline;opacity:1;fill:#000000;fill-opacity:1;stroke:none;stroke-width:0.26458332"
       id="text5963-8">
      <path
         d="m 19.470246,67.28997 h 0.564444 l 0.331611,2.342445 h 0.04233 l 0.331611,-2.342445 h 0.564444 v 2.469445 H 21.029524 V 67.41697 h -0.04233 l -0.331611,2.342445 H 20.119357 L 19.787746,67.41697 h -0.04233 v 2.342445 h -0.275167 z"
         style="font-size:3.52777767px;line-height:4.40972233px;fill:#ffffff;fill-opacity:1;stroke-width:0.26458332"
         id="path6013"
         inkscape:connector-curvature="0" />
      <path
         d="m 22.314792,67.487526 q 0,-0.102306 0.07056,-0.172861 0.07408,-0.07408 0.176389,-0.07408 0.102305,0 0.172861,0.07408 0.07408,0.07055 0.07408,0.172861 0,0.102305 -0.07408,0.176389 -0.07056,0.07055 -0.172861,0.07055 -0.102306,0 -0.176389,-0.07055 -0.07056,-0.07408 -0.07056,-0.176389 z m -0.500944,2.017889 h 0.613833 v -1.241778 h -0.550333 v -0.254 h 0.8255 v 1.495778 h 0.5715 v 0.254 h -1.4605 z"
         style="font-size:3.52777767px;line-height:4.40972233px;fill:#ffffff;fill-opacity:1;stroke-width:0.26458332"
         id="path6015"
         inkscape:connector-curvature="0" />
      <path
         d="m 25.17345,68.009637 h 0.313972 l -0.515055,0.832555 v 0.04233 l 0.557388,0.874889 h -0.321027 l -0.47625,-0.769056 h -0.0635 l -0.47625,0.769056 H 23.8717 l 0.557389,-0.874889 v -0.04233 l -0.515056,-0.832555 h 0.313973 l 0.440972,0.726722 h 0.0635 z"
         style="font-size:3.52777767px;line-height:4.40972233px;fill:#ffffff;fill-opacity:1;stroke-width:0.26458332"
         id="path6017"
         inkscape:connector-curvature="0" />
    </g>
    <g
       aria-label="Drive"
       style="font-style:normal;font-variant:normal;font-weight:normal;font-stretch:normal;font-size:3.52777767px;line-height:1.25;font-family:'SpaceMono Nerd Font';-inkscape-font-specification:'SpaceMono Nerd Font';letter-spacing:0px;word-spacing:0px;display:inline;opacity:1;fill:#000000;fill-opacity:1;stroke:none;stroke-width:0.26458332"
       id="text5963-4">
      <path
         d="m 2.3559489,67.265282 h 0.8113888 q 0.4586111,0 0.6702778,0.218722 0.2116666,0.218722 0.2116666,0.6985 v 0.635 q 0,0.479778 -0.2116666,0.6985 -0.2116667,0.218722 -0.6702778,0.218722 H 2.3559489 V 69.456032 H 2.5676155 V 67.540448 H 2.3559489 Z m 0.7690555,2.194277 q 0.1622778,0 0.2786944,-0.03175 0.1199445,-0.03175 0.1975556,-0.105833 0.077611,-0.07761 0.1128889,-0.204611 0.038806,-0.127 0.038806,-0.321028 V 68.20367 q 0,-0.194027 -0.038806,-0.321027 -0.035278,-0.127 -0.1128889,-0.201084 -0.077611,-0.07761 -0.1975556,-0.109361 -0.1164166,-0.03175 -0.2786944,-0.03175 H 2.8639489 v 1.919111 z"
         style="font-size:3.52777767px;line-height:4.40972233px;fill:#ffffff;fill-opacity:1;stroke-width:0.26458332"
         id="path5993"
         inkscape:connector-curvature="0" />
      <path
         d="m 4.4631898,67.984948 h 0.635 v 0.232834 h 0.042333 q 0.067028,-0.144639 0.1905,-0.211667 0.1234722,-0.07056 0.2822222,-0.07056 0.2645833,0 0.4268611,0.172861 0.1622778,0.172862 0.1728611,0.504473 l -0.2892778,0.04233 q 0,-0.243417 -0.1164166,-0.34925 -0.1164167,-0.109361 -0.28575,-0.109361 -0.1093611,0 -0.1905,0.04233 -0.077611,0.04233 -0.1305278,0.116417 -0.052917,0.07408 -0.077611,0.172861 -0.024694,0.09878 -0.024694,0.211667 v 0.740833 h 0.4444999 v 0.254 H 4.4208564 v -0.254 H 4.8230231 V 68.238948 H 4.4631898 Z"
         style="font-size:3.52777767px;line-height:4.40972233px;fill:#ffffff;fill-opacity:1;stroke-width:0.26458332"
         id="path5995"
         inkscape:connector-curvature="0" />
      <path
         d="m 7.2618751,67.462837 q 0,-0.102305 0.070556,-0.172861 0.074083,-0.07408 0.1763889,-0.07408 0.1023055,0 0.1728611,0.07408 0.074083,0.07056 0.074083,0.172861 0,0.102306 -0.074083,0.176389 -0.070556,0.07056 -0.1728611,0.07056 -0.1023056,0 -0.1763889,-0.07056 -0.070556,-0.07408 -0.070556,-0.176389 z M 6.7609307,69.480726 H 7.374764 V 68.238948 H 6.8244307 v -0.254 h 0.8255 v 1.495778 h 0.5714999 v 0.254 H 6.7609307 Z"
         style="font-size:3.52777767px;line-height:4.40972233px;fill:#ffffff;fill-opacity:1;stroke-width:0.26458332"
         id="path5997"
         inkscape:connector-curvature="0" />
      <path
         d="M 9.9159218,69.734726 H 9.372644 L 8.7623385,67.984948 h 0.3245556 l 0.5362222,1.622778 h 0.042333 l 0.5362227,-1.622778 h 0.324555 z"
         style="font-size:3.52777767px;line-height:4.40972233px;fill:#ffffff;fill-opacity:1;stroke-width:0.26458332"
         id="path5999"
         inkscape:connector-curvature="0" />
      <path
         d="m 11.23294,68.944504 q 0.01058,0.261055 0.162278,0.419805 0.151694,0.15875 0.423333,0.15875 0.123473,0 0.215195,-0.02822 0.09172,-0.02822 0.155222,-0.07761 0.06703,-0.04939 0.105833,-0.112889 0.04233,-0.06703 0.06703,-0.141111 l 0.261056,0.07056 q -0.07408,0.243416 -0.275167,0.398638 -0.197556,0.151695 -0.536222,0.151695 -0.186972,0 -0.345722,-0.0635 -0.155223,-0.06703 -0.268111,-0.186972 -0.112889,-0.119945 -0.176389,-0.28575 -0.0635,-0.165806 -0.0635,-0.366889 v -0.08467 q 0,-0.183444 0.0635,-0.342194 0.06703,-0.15875 0.183444,-0.271639 0.116417,-0.116417 0.271639,-0.179917 0.15875,-0.06703 0.342194,-0.06703 0.215195,0 0.370417,0.08114 0.15875,0.07761 0.257528,0.194028 0.102305,0.116417 0.148166,0.254 0.04939,0.137583 0.04939,0.254 v 0.225778 z m 0.585611,-0.747889 q -0.116416,0 -0.218722,0.03881 -0.09878,0.03528 -0.176389,0.102306 -0.07408,0.06703 -0.123472,0.15875 -0.04586,0.08819 -0.05997,0.194028 h 1.128889 q -0.0071,-0.112889 -0.05645,-0.204611 -0.04586,-0.09172 -0.123472,-0.155223 -0.07408,-0.0635 -0.172861,-0.09878 -0.09525,-0.03528 -0.197556,-0.03528 z"
         style="font-size:3.52777767px;line-height:4.40972233px;fill:#ffffff;fill-opacity:1;stroke-width:0.26458332"
         id="path6001"
         inkscape:connector-curvature="0" />
    </g>
    <path
       style="display:inline;fill:#ffffff;fill-opacity:1;stroke:#ffffff;stroke-width:0.5;stroke-linecap:butt;stroke-linejoin:miter;stroke-miterlimit:4;stroke-dasharray:1, 0.5;stroke-dashoffset:5;stroke-opacity:1"
       d="m 22.5,59.749999 c -15,0 -15,0 -15,0"
       id="path5991"
       inkscape:connector-curvature="0" />
    <rect
       style="fill:#404040;fill-opacity:1;fill-rule:evenodd;stroke-width:1.4;stroke:#be30de;stroke-opacity:1;stroke-miterlimit:4;stroke-dasharray:none"
       id="rect6020"
       width="22.5"
       height="22.5"
       x="3.75"
       y="19.75"
       rx="3.8571486"
       ry="3.8571486" />
  </g>
  <g
     inkscape:groupmode="layer"
     id="layer2"
     inkscape:label="components"
     style="display:inline">
    <circle
       style="display:inline;fill:#00ff00;fill-opacity:1;fill-rule:evenodd;stroke-width:0.26458332"
       id="path1592-4-4-6"
       inkscape:label="mixCV"
       r="3"
       cy="91"
       cx="15" />
    <circle
       style="display:inline;fill:#0000ff;fill-opacity:1;fill-rule:evenodd;stroke-width:0.26458332"
       id="path1592-4-9"
       inkscape:label="out2"
       r="3"
       cy="91"
       cx="25" />
    <circle
       style="display:inline;fill:#00ff00;fill-opacity:1;fill-rule:evenodd;stroke-width:0.26458332"
       id="path1592-4-4-6-7"
       inkscape:label="driveCV"
       r="3"
       cy="91"
       cx="5" />
    <circle
       style="display:inline;fill:#00ff00;fill-opacity:1;fill-rule:evenodd;stroke-width:0.26458332"
       id="path1592-4-4-6-8"
       inkscape:label="in2"
       r="3"
       cy="103.5"
       cx="15" />
    <circle
       style="display:inline;fill:#0000ff;fill-opacity:1;fill-rule:evenodd;stroke-width:0.26458332"
       id="path1592-4-9-5"
       inkscape:label="out1"
       r="3"
       cy="103.5"
       cx="25" />
    <circle
       style="display:inline;fill:#00ff00;fill-opacity:1;fill-rule:evenodd;stroke-width:0.26458332"
       id="path1592-4-4-6-7-5"
       inkscape:label="in1"
       r="3"
       cy="103.5"
       cx="5" />
    <circle
       style="display:inline;fill:#ff0000;fill-opacity:1;fill-rule:evenodd;stroke-width:0.26458332"
       id="path1592-4-0-1"
       inkscape:label="mix"
       r="3"
       cy="76"
       cx="22.5" />
    <circle
       style="display:inline;fill:#00ff00;fill-opacity:1;fill-rule:evenodd;stroke-width:0.26458332"
       id="path1592-4-4-6-7-3"
       inkscape:label="gainCV"
       r="3"
       cy="59.75"
       cx="7.5" />
    <circle
       style="display:inline;fill:#ff0000;fill-opacity:1;fill-rule:evenodd;stroke-width:0.26458332"
       id="path1592-4-0"
       inkscape:label="drive"
       r="3"
       cy="76"
       cx="7.5" />
    <circle
       style="display:inline;fill:#ff0000;fill-opacity:1;fill-rule:evenodd;stroke-width:0.26458332"
       id="path1592-4-4"
       inkscape:label="gain"
       r="3"
       cy="59.75"
       cx="22.5" />
  </g>
</svg>
