<?xml version="1.0" encoding="UTF-8" standalone="no"?>
<svg
   xmlns:osb="http://www.openswatchbook.org/uri/2009/osb"
   xmlns:dc="http://purl.org/dc/elements/1.1/"
   xmlns:cc="http://creativecommons.org/ns#"
   xmlns:rdf="http://www.w3.org/1999/02/22-rdf-syntax-ns#"
   xmlns:svg="http://www.w3.org/2000/svg"
   xmlns="http://www.w3.org/2000/svg"
   xmlns:xlink="http://www.w3.org/1999/xlink"
   xmlns:sodipodi="http://sodipodi.sourceforge.net/DTD/sodipodi-0.dtd"
   xmlns:inkscape="http://www.inkscape.org/namespaces/inkscape"
   width="121.92mm"
   height="128.5mm"
   viewBox="0 0 121.92 128.5"
   version="1.1"
   id="svg8"
   inkscape:version="1.0.1 (3bc2e813f5, 2020-09-07)"
   sodipodi:docname="Reflux.svg"
   enable-background="new">
  <defs
     id="defs2">
    <linearGradient
       id="linearGradient1795"
       osb:paint="solid">
      <stop
         style="stop-color:#000000;stop-opacity:1;"
         offset="0"
         id="stop1793" />
    </linearGradient>
    <linearGradient
       id="linearGradient7269"
       osb:paint="solid">
      <stop
         style="stop-color:#000000;stop-opacity:1;"
         offset="0"
         id="stop7267" />
    </linearGradient>
    <linearGradient
       id="linearGradient6416"
       inkscape:collect="always">
      <stop
         id="stop6412"
         offset="0"
         style="stop-color:#30e0b0;stop-opacity:1" />
      <stop
         id="stop6414"
         offset="1"
         style="stop-color:#409880;stop-opacity:1" />
    </linearGradient>
    <linearGradient
       inkscape:collect="always"
       id="linearGradient968">
      <stop
         style="stop-color:#30e0b0;stop-opacity:1"
         offset="0"
         id="stop964" />
      <stop
         style="stop-color:#409880;stop-opacity:1"
         offset="1"
         id="stop966" />
    </linearGradient>
    <linearGradient
       id="linearGradient926"
       inkscape:collect="always">
      <stop
         id="stop922"
         offset="0"
         style="stop-color:#30e0b0;stop-opacity:1" />
      <stop
         id="stop924"
         offset="1"
         style="stop-color:#409880;stop-opacity:0;" />
    </linearGradient>
    <linearGradient
       inkscape:collect="always"
       id="linearGradient4624">
      <stop
         style="stop-color:#409880;stop-opacity:1"
         offset="0"
         id="stop4620" />
      <stop
         style="stop-color:#409880;stop-opacity:0;"
         offset="1"
         id="stop4622" />
    </linearGradient>
    <inkscape:perspective
       sodipodi:type="inkscape:persp3d"
       inkscape:vp_x="-0.52916669 : 65.8375 : 1"
       inkscape:vp_y="0 : 1000 : 0"
       inkscape:vp_z="31.220834 : 67.689583 : 1"
       inkscape:persp3d-origin="25.400001 : 42.833333 : 1"
       id="perspective3717" />
    <linearGradient
       inkscape:collect="always"
       xlink:href="#linearGradient4624"
       id="linearGradient4630"
       x1="15.44"
       y1="285.34"
       x2="15.44"
       y2="190.98956"
       gradientUnits="userSpaceOnUse"
       gradientTransform="matrix(4.0210861,0,0,0.98990457,-0.60421764,1.0906062)" />
    <linearGradient
       inkscape:collect="always"
       xlink:href="#linearGradient926"
       id="linearGradient920"
       x1="15.455564"
       y1="180.33466"
       x2="15.455564"
       y2="283.68228"
       gradientUnits="userSpaceOnUse" />
    <linearGradient
       inkscape:collect="always"
       xlink:href="#linearGradient968"
       id="linearGradient970"
       x1="15.715448"
       y1="180.44376"
       x2="15.455504"
       y2="283.6825"
       gradientUnits="userSpaceOnUse" />
    <linearGradient
       inkscape:collect="always"
       xlink:href="#linearGradient6416"
       id="linearGradient6410"
       x1="14.979761"
       y1="14.090852"
       x2="15.44"
       y2="115.04999"
       gradientUnits="userSpaceOnUse"
       gradientTransform="matrix(4.1466575,0,0,1,-0.62933322,3.1729687e-6)" />
    <linearGradient
       inkscape:collect="always"
       xlink:href="#linearGradient6416"
       id="linearGradient6410-7"
       x1="14.979761"
       y1="14.090852"
       x2="15.44"
       y2="115.04999"
       gradientUnits="userSpaceOnUse"
       gradientTransform="matrix(4.1466574,0,0,1,-0.629333,5.6965019e-6)" />
  </defs>
  <sodipodi:namedview
     id="base"
     pagecolor="#ffffff"
     bordercolor="#666666"
     borderopacity="1.0"
     inkscape:pageopacity="0.0"
     inkscape:pageshadow="2"
     inkscape:zoom="2.56"
     inkscape:cx="154.76783"
     inkscape:cy="156.2404"
     inkscape:document-units="mm"
     inkscape:current-layer="g84"
     showgrid="false"
     inkscape:lockguides="true"
     showguides="true"
     inkscape:window-width="2560"
     inkscape:window-height="1369"
     inkscape:window-x="-8"
     inkscape:window-y="-8"
     inkscape:window-maximized="1"
     objecttolerance="11"
     guidetolerance="20"
     gridtolerance="10"
     inkscape:snap-perpendicular="true"
     inkscape:snap-tangential="true"
     inkscape:snap-object-midpoints="true"
     inkscape:snap-center="true"
     inkscape:snap-intersection-paths="true"
     inkscape:object-paths="true"
     inkscape:snap-bbox="true"
     inkscape:snap-bbox-edge-midpoints="true"
     inkscape:document-rotation="0"
     inkscape:pagecheckerboard="true">
    <inkscape:grid
       type="xygrid"
       id="grid7345"
       units="mm"
       spacingx="0.25"
       spacingy="0.25"
       enabled="false"
       dotted="false" />
  </sodipodi:namedview>
  <metadata
     id="metadata5">
    <rdf:RDF>
      <cc:Work
         rdf:about="">
        <dc:format>image/svg+xml</dc:format>
        <dc:type
           rdf:resource="http://purl.org/dc/dcmitype/StillImage" />
        <dc:title />
      </cc:Work>
    </rdf:RDF>
  </metadata>
  <g
     inkscape:label="BG"
     inkscape:groupmode="layer"
     id="layer1"
     transform="translate(0,-168.5)"
     style="display:inline"
     sodipodi:insensitive="true">
    <rect
       id="rect26-0"
       width="122.56271"
       height="128.5"
       x="0.2"
       y="168.49998"
       style="display:inline;fill:#404040;fill-opacity:1;stroke-width:0.855739"
       sodipodi:insensitive="true" />
    <rect
       style="display:inline;fill:url(#linearGradient4630);fill-opacity:1;stroke-width:0.729555"
       y="190.15207"
       x="0.19999963"
       height="93.397919"
       width="122.56271"
       id="rect4596"
       sodipodi:insensitive="true" />
    <g
       aria-label="RAGE"
       style="font-style:normal;font-variant:normal;font-weight:normal;font-stretch:normal;font-size:19.7556px;line-height:1.25;font-family:Ravie;-inkscape-font-specification:Ravie;letter-spacing:0px;word-spacing:0px;display:inline;fill:#1e90ff;fill-opacity:1;stroke:none;stroke-width:0.264583"
       id="text5750"
       transform="translate(91.875549,-0.3204)">
      <path
         d="m 6.2209459,291.83604 c 0,0.0113 0,0.0226 -0.011289,0.0339 l 0.022578,-0.0226 v 0.0113 c 0.022578,-0.1016 0.045156,-0.15804 0.056444,-0.19191 0.2483556,-0.59831 0.5531556,-1.24177 0.9256889,-1.94169 h 0.022578 v -0.0226 l -0.011289,0.0113 c 0.4628445,-0.86925 0.9482667,-1.524 1.4675556,-1.98685 L 9.3818346,287.106 c 0.1354667,-0.15804 0.2032,-0.28222 0.2032,-0.38382 0,-0.14676 -0.1467556,-0.22578 -0.4515556,-0.22578 -0.4854222,0 -1.0047111,0.3048 -1.5691555,0.92569 l 0.2709333,-0.99342 c -0.033867,-0.36125 -0.1806222,-0.54187 -0.4176889,-0.54187 -0.1016,0 -0.2144889,0.0452 -0.3273778,0.12418 l -0.3273777,0.3048 c -1.4788445,1.37724 -2.5964445,2.07716 -3.3753778,2.08844 -0.2935111,0 -0.4741334,-0.0451 -0.5418667,-0.13546 0.1467556,0.16933 0.4064,0.24835 0.7676444,0.24835 0.7337778,0 1.7610667,-0.42897 3.0818667,-1.27564 v 0.0113 c -0.1919111,0.48542 -0.5644444,1.60302 -1.1176,3.3528 l -0.1919111,0.55315 c -0.011289,0.0564 -0.033867,0.11289 -0.056444,0.15805 l -0.090311,0.25964 -0.022578,0.16934 c 0,0.0677 0,0.11288 0.011289,0.13546 0.033867,-0.079 0.056444,-0.11289 0.079022,-0.11289 h 0.045155 c -0.033867,0.1016 -0.079022,0.15805 -0.1128888,0.16934 0.011289,0.0113 0.011289,0.0113 0.011289,0.0226 0,0.0113 0,0.0113 0.011289,0.0226 h 0.067733 v -0.0677 h 0.045155 c 0.033867,0.0113 0.045156,0.0226 0.045156,0.0452 l -0.067733,0.0226 c 0,0.0339 0.022578,0.0452 0.067733,0.0452 v 0.0452 h -0.1016 c 0.056444,0.12418 0.1919111,0.18063 0.4289778,0.18063 0.033867,0 0.056444,0 0.067733,-0.0113 -0.079022,-0.0452 -0.1580445,-0.079 -0.2596445,-0.1016 0,0.0339 -0.011289,0.0451 -0.045155,0.0451 h -0.022578 v -0.0226 c 0,-0.0903 0.056445,-0.2032 0.1806222,-0.34995 l -0.067733,0.23707 c 0.1016,0.0677 0.2032,0.12417 0.3048,0.16933 l 0.067733,-0.0339 c 0.1241778,-0.0564 0.2032,-0.14675 0.2483556,-0.29351 l -0.011289,-0.0226 h -0.022578 c -0.033867,0 -0.045155,-0.0113 -0.045155,-0.0451 l 0.067733,-0.0226 z m -0.2935111,-0.51929 -0.022578,0.0677 0.056444,0.0226 0.067733,-0.0226 c 0,0.0339 -0.033867,0.0452 -0.090311,0.0452 0,0.0113 0.011289,0.0113 0.022578,0.0113 0,0.0452 -0.022578,0.0677 -0.056444,0.0677 v 0.0451 c 0.033867,0 0.056444,0.0113 0.056444,0.0452 l -0.079022,-0.0226 -0.022578,0.0452 c 0.011289,0 0.022578,0.0113 0.022578,0.0226 -0.1467555,0.0226 -0.2257778,0.0451 -0.2257778,0.0677 -0.1016,-0.0452 -0.1693333,-0.1016 -0.2144888,-0.18062 0.011289,0 0.011289,-0.0113 0.011289,-0.0226 -0.022578,0 -0.033867,-0.0113 -0.033867,-0.0452 0.022578,0 0.033867,-0.0113 0.033867,-0.0226 -0.022578,-0.0564 -0.045155,-0.0903 -0.056444,-0.1016 0.011289,-0.0113 0.011289,-0.0113 0.022578,-0.0113 0.011289,0 0.011289,0 0.022578,-0.0113 l 0.022578,-0.0113 c 0.1016,-0.0564 0.1806223,-0.079 0.2370667,-0.079 z m 2.8222222,-2.67547 c 0,0.1016 -0.056444,0.19191 -0.1806222,0.27093 l 0.1128889,-0.0226 v 0.0677 h -0.045156 v 0.0452 c 0.1016,0.0452 0.1693334,0.0677 0.1919111,0.0677 l -0.022578,0.21449 0.045155,-0.0226 c 0,-0.0113 -0.011289,-0.0226 -0.022578,-0.0226 0.033867,-0.0677 0.045156,-0.12418 0.045156,-0.16933 h 0.045156 l 0.022578,0.1016 h 0.022578 c 0,-0.0226 0.011289,-0.0677 0.022578,-0.14676 h 0.022578 v 0.0452 h 0.067733 c 0,-0.0226 -0.011289,-0.0339 -0.045156,-0.0452 0.033867,-0.0564 0.056444,-0.12417 0.067733,-0.22577 -0.022578,0 -0.033867,-0.0113 -0.045156,-0.0452 v -0.0226 c 0.056445,0 0.090311,-0.0226 0.090311,-0.0677 v -0.0226 h -0.067733 l -0.090311,0.0452 v -0.0452 l -0.2032,0.0226 z m 0.5418667,1.70462 c -0.067733,0.0339 -0.1016,0.0565 -0.1016,0.0903 0.033867,0 0.056444,0.0452 0.079022,0.14676 0.011289,0 0.022578,-0.0113 0.022578,-0.0226 0.011289,0 0.022578,0.0113 0.022578,0.0226 0.045155,-0.0452 0.079022,-0.0677 0.090311,-0.0677 v -0.1016 c -0.022578,-0.0452 -0.045156,-0.0677 -0.067733,-0.0677 z m -3.4318223,1.88525 c -0.022578,0 -0.033867,0 -0.045155,0.0113 0.079022,0.0564 0.1241778,0.11289 0.1580444,0.14675 h 0.045156 c 0.033867,-0.0339 0.079022,-0.0451 0.1467555,-0.0451 v -0.0226 c -0.022578,0 -0.045155,-0.0113 -0.079022,-0.0452 h -0.067733 v -0.0226 c -0.011289,-0.0113 -0.022578,-0.0113 -0.056445,-0.0226 l -0.056444,-0.0113 c -0.011289,0.0113 -0.022578,0.0113 -0.045156,0.0113 z m -0.5983111,-0.24836 c -0.022578,-0.0226 -0.033867,-0.0564 -0.033867,-0.1016 l -0.022578,0.0339 H 5.0694792 v 0.0226 c 0,0.0339 0.033867,0.0564 0.1128889,0.0677 0,0.0339 -0.011289,0.0452 -0.045155,0.0452 0,0.0226 0.022578,0.0452 0.079022,0.0677 0.056444,-0.0339 0.090311,-0.0452 0.1016,-0.0452 0,-0.0113 0,-0.0113 -0.011289,-0.0226 z m 4.0527112,0.0564 0.045155,0.0677 c 0.090311,-0.0452 0.1354667,-0.0903 0.1354667,-0.13547 l -0.022578,-0.0451 c -0.011289,0 -0.022578,0.0113 -0.022578,0.0226 -0.033867,0 -0.045155,-0.0226 -0.045155,-0.0565 -0.033867,0.0226 -0.056445,0.0339 -0.090311,0.0339 z m -1.6707556,0.0677 c 0.033867,0 0.045156,-0.0113 0.045156,-0.0452 l 0.045155,0.0226 c 0,-0.0226 0.011289,-0.0564 0.045156,-0.11289 l -0.067733,-0.0564 c -0.090311,0.0339 -0.1354666,0.0564 -0.1354666,0.079 z m 0.3951111,-0.0677 c 0,0.0113 -0.011289,0.0226 -0.022578,0.0226 0,0.0113 0.011289,0.0226 0.022578,0.0226 0,0.0113 -0.011289,0.0226 -0.022578,0.0226 0,0.0339 0.011289,0.0452 0.045156,0.0452 h 0.067733 v -0.0903 z m 1.4111111,-1.36596 c 0,0.0339 0.011289,0.0452 0.045156,0.0452 0.045155,-0.0226 0.067733,-0.0452 0.067733,-0.0677 v -0.0226 l -0.090311,-0.0226 z m -4.7300444,1.14018 -0.2257778,0.0451 h 0.3048 v -0.0226 c -0.022578,0 -0.045156,-0.0113 -0.079022,-0.0452 z m 4.8655111,-0.37253 -0.022578,0.0677 0.067733,0.0226 c 0.022578,0 0.033867,-0.0226 0.045156,-0.0677 v -0.0226 z m -5.1590222,0.28222 h 0.067733 v -0.0226 h -0.067733 c 0,-0.0226 -0.033867,-0.0452 -0.090311,-0.0677 h -0.079022 v 0.0226 c 0.033867,0 0.067733,0.0113 0.1241778,0.0452 h 0.045156 z m 0.3838222,-2.68676 c 0.022578,0.0452 0.045155,0.0677 0.067733,0.0677 h 0.022578 c 0.033867,0 0.045155,-0.0113 0.045155,-0.0452 v -0.0226 z m 0.6434666,0.2032 c 0,0.0339 0.045156,0.0564 0.1467556,0.0677 -0.022578,-0.0452 -0.045156,-0.0677 -0.067733,-0.0677 z M 4.9678792,289.1267 h 0.1016 c 0,0.0226 0.045156,0.0452 0.1354667,0.0677 h 0.022578 v -0.0226 c -0.033867,0 -0.079022,-0.0113 -0.1354667,-0.0452 L 4.9678794,289.104 Z m 3.0254223,2.82223 -0.022578,0.0677 c 0.011289,0 0.022578,0.0113 0.022578,0.0226 l 0.067733,-0.0226 v -0.0226 c 0,-0.0226 -0.011289,-0.0339 -0.045156,-0.0451 z m -2.5400001,-2.70934 c 0,-0.0226 -0.011289,-0.0339 -0.045155,-0.0452 h -0.022578 c -0.022578,0 -0.033867,0.0113 -0.045156,0.0452 l 0.067733,0.0226 z m -0.079022,2.34809 h 0.022578 c 0.033867,0.0113 0.045156,0.0226 0.045156,0.0452 0,0.0339 -0.011289,0.0452 -0.045156,0.0452 h -0.022578 z m 4.5607111,-0.31609 c 0.033867,0 0.045156,-0.0113 0.045156,-0.0451 0,-0.0226 -0.011289,-0.0339 -0.045156,-0.0452 -0.011289,0 -0.022578,0.0113 -0.033867,0.0226 z m -5.0687111,0.63218 h 0.090311 c 0,-0.0226 -0.011289,-0.0339 -0.045155,-0.0452 h -0.045156 v -0.0226 h -0.045155 v 0.0226 h 0.045155 z m 0.9031111,-0.16933 v 0.0226 c 0,0.0339 -0.011289,0.0452 -0.045156,0.0452 h -0.045156 c 0,-0.0226 0.022578,-0.0452 0.067733,-0.0677 z m 3.2173334,-2.40454 h 0.045155 l -0.022578,-0.0903 h -0.045156 z m -4.3349334,2.58516 c 0,0.0339 0.011289,0.0452 0.045156,0.0452 h 0.079022 l -0.022578,-0.0452 -0.033867,0.0226 -0.067733,-0.0339 z m 3.2737778,0 c 0,0.0226 0.011289,0.0339 0.045156,0.0339 l 0.045156,-0.0226 c 0,-0.0113 -0.011289,-0.0226 -0.045156,-0.0339 h -0.045156 z m 2.1900447,-0.0903 c 0,0.0339 0.01129,0.0451 0.04515,0.0451 l 0.03387,-0.0226 c 0,-0.0226 -0.01129,-0.0339 -0.03387,-0.0452 z m -0.7563558,-2.2352 c 0,0.0339 0.011289,0.0452 0.045156,0.0452 v -0.0677 H 9.359257 Z m 0.5983111,2.07715 c -0.022578,0 -0.033867,0.0113 -0.045155,0.0452 l 0.067733,0.0226 z m -4.4929778,5.588 H 5.622635 l -0.090311,-0.0226 H 5.464591 Z m -0.9708444,0.0677 H 4.606635 v -0.0226 H 4.4937459 Z m 1.1966222,-8.01511 c 0,0.0226 0.011289,0.0339 0.045156,0.0339 h 0.045155 c 0,-0.0113 -0.011289,-0.0226 -0.045155,-0.0339 z m 1.3885333,0.39511 0.1016,0.0226 -0.1016,0.0226 z m -1.0611555,2.57386 h -0.045156 v 0.0452 h 0.045156 z m -0.2032,-0.58702 v 0.0452 c -0.033867,0 -0.045156,-0.0113 -0.045156,-0.0452 z m -0.1919111,-0.0564 c 0.033867,0 0.045155,-0.0113 0.045155,-0.0452 H 5.622635 Z m 3.8043555,-1.19663 h 0.045156 v -0.0226 h -0.045156 z m -0.6434666,-1.06115 h 0.045155 v -0.0226 h -0.045155 z m 0.2032,0 h 0.045155 v -0.0226 h -0.045155 z m -3.5672889,2.46098 h 0.022578 v 0.0451 H 5.419435 Z m 0.2257778,-2.11103 0.090311,-0.0226 h -0.090311 z m -0.6660445,0 h 0.045156 v -0.0226 h -0.045156 z m 0.1580445,2.1336 h 0.045155 v -0.0226 H 5.1372128 Z M 7.5869017,286.598 c -0.011289,0.0339 -0.033867,0.0452 -0.067733,0.0565 z m -2.6077334,5.31707 0.067733,-0.0113 h -0.067733 z m 4.9106667,-0.69991 0.011289,-0.0113 -0.011289,-0.0452 z m -4.6284445,0.28222 0.022578,-0.0677 z"
         style="font-style:normal;font-variant:normal;font-weight:500;font-stretch:normal;font-size:11.2889px;font-family:'Unfolding Tragedy';-inkscape-font-specification:'Unfolding Tragedy Medium';fill:#1e90ff;fill-opacity:1;stroke-width:0.264583"
         id="path6234"
         inkscape:connector-curvature="0" />
      <path
         d="m 13.291318,291.47479 c -0.3048,0.0677 -0.508,0.1016 -0.6096,0.1016 -0.191911,-0.0339 -0.327378,-0.12418 -0.4064,-0.29351 -0.09031,-0.2032 -0.169333,-0.63218 -0.225778,-1.29822 -0.01129,-0.0339 -0.01129,-0.1016 -0.01129,-0.19191 l 0.01129,-0.18062 c 0,-0.11289 -0.01129,-0.24836 -0.03387,-0.4064 l -0.02258,-0.11289 c -0.04516,-0.14676 -0.112889,-0.25965 -0.214489,-0.32738 0.225778,-0.59831 0.338667,-1.016 0.338667,-1.23049 v -0.0903 c 0,-0.19191 -0.03387,-0.38382 -0.1016,-0.55316 -0.09031,-0.2032 -0.214489,-0.3048 -0.361245,-0.3048 -0.07902,0 -0.124177,0.0113 -0.158044,0.0452 l -0.158045,0.12418 -0.191911,0.19191 c -0.530577,0.53058 -1.140177,1.30951 -1.8062219,2.31422 -0.6321778,1.04987 -0.9482667,1.79493 -0.9482667,2.24649 0,0.21449 0.067733,0.4064 0.1919111,0.56444 0.1128889,0.12418 0.2257778,0.19191 0.3273778,0.19191 0.5305778,0 1.1514667,-0.42897 1.8400887,-1.29822 0,0.0113 -0.01129,0.0452 -0.02258,0.079 l -0.02258,0.079 c -0.248356,0.75635 -0.383823,1.14017 -0.417689,1.17404 0.03387,0 0.214489,-0.39511 0.553155,-1.17404 0.180623,-0.4064 0.338667,-0.69991 0.474134,-0.86925 0.158044,1.43369 0.620889,2.15618 1.399822,2.15618 0.349955,-0.0339 0.666044,-0.13547 0.925689,-0.3048 0.282222,-0.18062 0.417689,-0.38382 0.417689,-0.59831 0,-0.079 -0.04516,-0.12418 -0.135467,-0.12418 -0.112889,0 -0.327378,0.0339 -0.632178,0.0903 z m -3.217333,-1.85138 -0.079022,-0.0226 c 0.587022,-0.90311 1.128889,-1.64818 1.636889,-2.24649 0.01129,0.0113 0.01129,0.0451 0.01129,0.079 0,0.32738 -0.09031,0.76764 -0.259644,1.33209 -0.07902,0.0339 -0.135467,0.1016 -0.169333,0.18062 l -0.158045,0.23707 c -0.722489,1.10631 -1.3433772,1.81751 -1.873955,2.12231 0.3048,-0.74507 0.5418667,-1.26436 0.7112,-1.54658 0.011289,-0.0226 0.022578,-0.0451 0.033867,-0.0564 l 0.146756,-0.0452 v 0.0226 l 0.112889,-0.0565 c 0,0.0226 0.01129,0.0339 0.03387,0.0339 v -0.0339 c 0,-0.0226 -0.02258,-0.0451 -0.05644,-0.0564 h -0.09031 z m -1.4224002,-4.17688 -0.3160889,-0.0226 -0.022578,0.0339 c -0.1467556,0 -0.2709334,0.12418 -0.3951111,0.38383 0.079022,0.0452 0.1467555,0.0677 0.1806222,0.0677 0.1016,0 0.2822222,-0.0677 0.5305778,-0.2032 0,-0.079 0.045155,-0.14676 0.1467555,-0.22578 v -0.0339 c 0,-0.0226 -0.011289,-0.0339 -0.045155,-0.0452 h -0.022578 z m 0.7224889,2.35937 c -0.067733,-0.0113 -0.1354666,-0.0339 -0.2144889,-0.079 l 0.022578,-0.19191 h -0.022578 l -0.033867,0.19191 c 0,0.0339 0.033867,0.0564 0.1128889,0.0903 h -0.079022 c -0.045155,0.0226 -0.067733,0.0452 -0.067733,0.0677 v 0.0226 l 0.079022,0.0226 c 0,-0.0113 0.056444,-0.0339 0.1580445,-0.0677 0,-0.0113 0,-0.0113 -0.011289,-0.0226 0.011289,0.0113 0.022578,0.0113 0.045155,0.0113 0.022578,0 0.033867,0 0.045156,0.0113 0,-0.0113 0.011289,-0.0226 0.022578,-0.0226 h 0.090311 l 0.056444,0.0226 V 287.806 H 9.4643848 v -0.0226 z m -0.8579555,-2.88995 c -0.079022,0.0564 -0.1128889,0.0903 -0.1128889,0.12418 l 0.022578,0.0452 c 0.079022,0 0.1580444,-0.0452 0.2257777,-0.14675 v -0.0226 l -0.067733,0.0226 z m 0.045155,1.87395 -0.090311,-0.0226 c -0.079022,0 -0.1354667,0.0339 -0.1806222,0.1016 0,0.0339 0.011289,0.0452 0.045155,0.0452 h 0.067733 c 0.079022,-0.0677 0.1354666,-0.1016 0.1580444,-0.1016 z m 0.6773334,2.96898 0.1467555,0.0113 v -0.0339 c 0.090311,0 0.2144889,-0.0226 0.3838222,-0.0564 v 0.0564 l -0.3160889,0.0564 H 9.2386071 Z m -0.3612445,-2.61902 h 0.056444 v 0.0226 h 0.1693333 v 0.0339 h 0.1919111 v -0.0339 H 9.1031404 v -0.0226 h -0.056444 c -0.022578,-0.0452 -0.045155,-0.0677 -0.067733,-0.0677 -0.011289,0 -0.033867,0.0113 -0.045155,0.0339 h -0.056444 z m -1.1514667,-0.39511 c -0.1467555,0.0451 -0.2257777,0.0903 -0.2257777,0.12418 v 0.0226 c 0.1128889,0 0.1919111,-0.0452 0.2257777,-0.12417 z m -0.2257777,-0.0452 c -0.090311,0.0339 -0.1354667,0.0564 -0.1354667,0.0903 v 0.0452 h 0.022578 c 0.079022,0 0.1241778,-0.0339 0.1354666,-0.0903 z m 1.6030222,0.13547 c 0.079022,0 0.1919111,0.0226 0.3273778,0.079 h 0.090311 v -0.0339 c -0.056445,0 -0.1806222,-0.0226 -0.3612445,-0.079 h -0.056444 z m -1.9078222,-2.98027 c 0,0.0113 -0.045156,0.0565 -0.1354667,0.13547 v 0.0452 c 0.056444,0 0.1128889,-0.0339 0.1580444,-0.11288 v -0.0677 z m 0.6999111,3.00285 c -0.079022,0.0113 -0.1128889,0.0226 -0.1128889,0.0564 v 0.0452 h 0.045155 l 0.090311,-0.0677 z m 0.090311,-3.30765 c -0.079022,0.0113 -0.1128889,0.0226 -0.1128889,0.0565 v 0.0451 h 0.045156 c 0.045155,-0.0226 0.067733,-0.0451 0.067733,-0.0677 z m 1.4224,3.72534 c -0.079022,0.0564 -0.1128889,0.0903 -0.1128889,0.11288 h 0.033867 c 0.056444,-0.0339 0.079022,-0.0564 0.079022,-0.079 z m -0.2032,0.16933 -0.022578,0.0903 h 0.056444 c 0,-0.0339 0.011289,-0.0564 0.033867,-0.0903 z m 0.1241778,-0.22578 c 0.056444,0 0.1016,0.0113 0.1354666,0.0339 l 0.022578,-0.0564 H 9.3289182 Z M 7.759762,286.05609 c -0.011289,0 -0.022578,0.0113 -0.033867,0.0451 l 0.022578,0.0452 c 0.022578,0 0.033867,-0.0113 0.033867,-0.0452 v -0.0451 z m 1.7272,1.19662 h 0.1128889 v -0.0339 H 9.4869626 Z m -2.4496889,0.21449 c -0.022578,0 -0.033867,0.0113 -0.045155,0.0451 v 0.0226 h 0.022578 c 0.033867,0 0.045156,-0.0113 0.045156,-0.0452 v -0.0226 z m 0.2257778,-2.52871 c -0.011289,0 -0.033867,0.0113 -0.045156,0.0339 v 0.0226 h 0.045156 z m 0.6321778,1.60302 c 0.033867,0 0.045156,-0.0113 0.045156,-0.0452 h -0.045156 z m 0.067733,0.88053 c 0.033867,0 0.045156,-0.0113 0.045156,-0.0451 h -0.045156 z m 0.8353778,-0.67733 h 0.056444 v -0.0226 h -0.056444 z m 0.4741333,0.69991 h 0.022578 v -0.0564 h -0.022578 z m -2.4384,-0.94827 c -0.011289,0 -0.022578,0.0113 -0.033867,0.0452 h 0.033867 z m 0.7563556,1.016 h 0.045155 v -0.0226 h -0.045155 z m 1.7949333,2.28036 v -0.0226 l 0.067733,0.0226 z m -1.4675555,-2.92382 h 0.045155 l -0.045155,-0.0113 z"
         style="font-style:normal;font-variant:normal;font-weight:500;font-stretch:normal;font-size:11.2889px;font-family:'Unfolding Tragedy';-inkscape-font-specification:'Unfolding Tragedy Medium';fill:#1e90ff;fill-opacity:1;stroke-width:0.264583"
         id="path6236"
         inkscape:connector-curvature="0" />
      <path
         d="m 16.633006,291.81346 c 0,-0.0339 0,-0.0452 -0.01129,-0.0565 0.225778,-0.18062 0.428978,-0.31608 0.598311,-0.41768 0.451555,-0.27094 1.004711,-0.46285 1.648178,-0.58703 1.185333,-0.19191 2.020711,-0.29351 2.517422,-0.29351 0.519289,0 1.061155,0.079 1.6256,0.22578 0.462844,0.12418 0.699911,0.21449 0.699911,0.25964 l 0.01129,-0.0226 c 0,-0.0339 -0.05645,-0.0903 -0.158045,-0.18063 -0.733777,-0.6096 -1.772355,-0.9144 -3.138311,-0.9144 h -0.316089 c -1.524,0 -2.720622,0.29352 -3.612444,0.89183 l 0.214489,-0.65476 0.361244,-0.90311 c 0.146756,-0.34996 0.3048,-0.74507 0.496711,-1.17404 0.01129,-0.0113 0.01129,-0.0226 0.02258,-0.0339 0.316089,-0.69991 0.474134,-1.09502 0.485422,-1.19662 0.01129,-0.2032 -0.05644,-0.38383 -0.191911,-0.55316 -0.124177,-0.16933 -0.270933,-0.24835 -0.440266,-0.24835 -0.282223,0 -0.587023,0.32737 -0.9144,0.99342 -0.124178,-0.1016 -0.282223,-0.15805 -0.474134,-0.15805 -0.327377,0 -0.722489,0.18063 -1.174044,0.55316 -0.349956,0.28222 -0.620889,0.58702 -0.835378,0.89182 h -0.01129 c -0.02258,0 -0.06773,0.0677 -0.146755,0.19191 -0.395111,0.75636 -0.654756,1.45627 -0.767645,2.09974 l -0.02258,0.19191 c -0.03387,0.14675 -0.04516,0.23706 -0.04516,0.27093 -0.01129,0.31609 0.02258,0.59831 0.124178,0.83538 0.124177,0.32738 0.327377,0.48542 0.598311,0.48542 0.316089,0 0.688622,-0.25964 1.128889,-0.76764 h 0.01129 c -0.01129,0.0564 -0.03387,0.23706 -0.06773,0.51928 -0.4064,0.39512 -0.745066,0.74507 -1.027289,1.04987 -2.167466,0.14676 -3.9172441,1.03858 -5.249333,2.68676 -0.1128889,0.19191 -0.1693334,0.34995 -0.1806223,0.46284 -0.011289,0.21449 0.056444,0.37253 0.1919112,0.47413 0.079022,0.0677 0.1580444,0.1016 0.2370666,0.1016 h 0.033867 c 0.056444,0.0226 0.2032,0.0339 0.4628444,0.0339 0.6321778,0 1.1966221,-0.13547 1.6933331,-0.39511 l 0.158044,-0.079 c 0.02258,0 0.124178,-0.0452 0.293512,-0.14676 1.162755,-0.64346 2.190044,-1.49013 3.104444,-2.54 0.1016,0.0113 0.214489,0.0339 0.327378,0.0677 0.01129,0.079 0.01129,0.2032 0.02258,0.36124 l 0.02258,0.39511 c 0.01129,-0.0564 0.1016,-0.28222 0.282223,-0.67733 0.146755,0.0452 0.316088,0.1016 0.508,0.16933 0.801511,0.28222 1.298222,0.41769 1.490133,0.41769 0.07902,0 0.124178,-0.0564 0.124178,-0.15804 0,-0.0452 -0.06773,-0.22578 -0.191911,-0.55316 -0.124178,-0.3048 -0.237067,-0.67733 -0.338667,-1.10631 0,-0.0339 0,-0.0452 -0.01129,-0.0564 l 0.05644,0.36125 c 0.02258,0.16933 0.04516,0.3048 0.05645,0.4064 l 0.146755,0.44027 c 0.01129,0.0339 0.02258,0.0677 0.03387,0.12417 l 0.09031,0.34996 c -0.214489,-0.0677 -0.327378,-0.11289 -0.349955,-0.12418 l -0.959556,-0.4064 c -0.225778,-0.1016 -0.395111,-0.18062 -0.508,-0.23707 l 0.248356,-0.56444 c 0.135466,-0.22578 0.237066,-0.41769 0.293511,-0.56444 l 0.7112,-0.59832 c 0,0.0339 0,0.0452 0.01129,0.0565 z m -1.512711,-2.60773 0.01129,0.0113 c 0.440267,-1.03857 0.790223,-1.55786 1.049867,-1.55786 l -0.124178,0.38382 -0.4064,1.15147 c -0.225777,0.62089 -0.361244,1.00471 -0.4064,1.16275 l -0.3048,0.4064 c -0.180622,0.21449 -0.293511,0.32738 -0.338666,0.32738 l -0.01129,-0.0113 c 0.02258,-0.4064 0.191911,-0.98213 0.496711,-1.73849 l -0.03387,0.0113 -0.02258,-0.0903 z m -4.2672,6.1976 c 0,0.0113 -0.07902,0.0452 -0.237067,0.11288 -0.146756,0.0677 -0.4064,0.14676 -0.7789335,0.24836 0.8466665,-0.80151 1.8965335,-1.41111 3.1496005,-1.85138 -1.162756,1.00471 -1.873956,1.50142 -2.122312,1.50142 z m 3.138311,-3.34152 c -0.04516,-0.0564 -0.06773,-0.11288 -0.07902,-0.16933 0.03387,-0.0903 0.09031,-0.13547 0.158045,-0.13547 0.07902,0.0452 0.124178,0.0677 0.146755,0.0677 l -0.02258,0.0451 h 0.04515 c 0,0.0113 -0.01129,0.0226 -0.02258,0.0226 -0.01129,0.0452 0.01129,0.0677 0.05645,0.0677 v 0.0226 c 0,0.11289 -0.04516,0.16934 -0.124178,0.16934 h -0.04515 c -0.01129,0 -0.02258,-0.0113 -0.02258,-0.0226 l -0.06773,0.0226 0.02258,-0.0677 c -0.01129,0 -0.02258,-0.0113 -0.02258,-0.0226 0.01129,0 0.02258,-0.0113 0.02258,-0.0226 h -0.02258 c 0,0.0113 -0.01129,0.0226 -0.02258,0.0226 z m 2.427111,-3.38666 c 0.01129,0 0.05644,-0.0226 0.112889,-0.0677 0.06773,0.0113 0.1016,0.0339 0.112889,0.0903 -0.01129,0 -0.02258,0.0113 -0.02258,0.0226 0.01129,0 0.02258,0 0.02258,0.0113 -0.05645,0.0339 -0.09031,0.0452 -0.112889,0.0452 0,-0.0113 -0.01129,-0.0226 -0.02258,-0.0226 0,0.0113 -0.01129,0.0226 -0.02258,0.0226 z m -0.722489,2.55129 c 0.03387,-0.0565 0.04515,-0.0903 0.04515,-0.11289 0.03387,0.0339 0.05645,0.0452 0.09031,0.0452 v 0.0903 h -0.09031 z m -2.472267,0.0903 h 0.03387 l 0.05644,0.29351 c -0.03387,0 -0.06773,-0.0903 -0.09031,-0.28222 z m 4.2672,-1.36596 c -0.07902,0.0339 -0.112889,0.0565 -0.112889,0.0903 l 0.02258,0.0677 c 0.05645,-0.0339 0.09031,-0.0677 0.09031,-0.0903 z m -1.377244,0.62089 c 0.07902,0.0113 0.112889,0.0226 0.112889,0.0564 0,0.0339 -0.01129,0.0451 -0.04516,0.0451 h -0.07902 z m -0.970845,-0.84667 0.02258,0.0452 c 0.05645,-0.0113 0.09031,-0.0339 0.1016,-0.0903 l -0.124178,-0.0113 z m -0.05644,-0.38382 c 0.09031,-0.0226 0.135467,-0.0564 0.135467,-0.1016 l -0.09031,-0.0226 c 0,0.0226 0,0.0339 -0.01129,0.0452 z m 3.420533,1.64818 c -0.02258,0 -0.03387,0.0113 -0.04516,0.0452 l -0.01129,0.0451 h 0.09031 l 0.01129,-0.0903 z m -1.377244,-0.41769 h 0.06773 c 0.03387,0.0113 0.04516,0.0226 0.04516,0.0452 l -0.09031,0.0339 -0.02258,-0.0339 z m -3.014134,0.65476 c 0.02258,0 0.1016,-0.0113 0.225778,-0.0339 0,0.0226 -0.05644,0.0452 -0.169333,0.0564 h -0.05644 z m 1.377245,-0.22578 v 0.0113 c -0.146756,0.0226 -0.237067,0.0339 -0.270933,0.0339 l -0.07902,-0.0113 c 0.04516,0 0.158045,-0.0113 0.327378,-0.0339 z m 2.1336,-3.05929 c -0.03387,0 -0.04516,0.0113 -0.05645,0.0452 v 0.0451 h 0.02258 c 0.02258,0 0.03387,-0.0113 0.03387,-0.0451 l 0.01129,-0.0452 z m -4.504267,2.67547 h 0.02258 c 0,0.0113 0.01129,0.0564 0.03387,0.12417 h -0.05645 z m 0.04516,0.23706 h 0.02258 l 0.02258,0.15805 h -0.02258 z m 0.158044,0.93698 h -0.02258 v -0.0226 h 0.02258 v 0.0226 h 0.03387 v 0.0903 h -0.03387 z m -0.869244,-3.72533 h 0.03387 v -0.0564 h -0.03387 l 0.01129,-0.0677 h -0.02258 l -0.01129,0.0677 h 0.02258 z m 0.259644,3.048 h -0.02258 v 0.0677 h 0.02258 z m 0.214489,-1.4224 h 0.02258 l -0.01129,-0.11289 h -0.03387 z m 0.293511,1.524 h 0.03387 c 0,0.0339 0.01129,0.0677 0.02258,0.079 h -0.05645 z m 2.020711,0.21449 H 15.2219 v -0.0339 h 0.02258 v 0.0339 h 0.03387 v 0.0451 h 0.02258 v 0.0339 h -0.02258 v -0.0339 h -0.03387 z m -2.709333,-1.4224 h 0.02258 v 0.0339 h 0.03387 v -0.0339 h -0.02258 c 0.01129,-0.0113 0.02258,-0.0226 0.02258,-0.0339 h -0.05644 z m 4.605867,-1.64818 v 0.0451 h -0.06773 c 0,-0.0339 0.01129,-0.0451 0.04516,-0.0451 z m -4.583289,1.78364 h 0.03387 v -0.079 h -0.03387 z m 0.293511,1.77236 h 0.02258 v -0.0903 h -0.02258 z m -3.2512001,0.88053 0.011289,-0.14675 H 9.588739 Z m 7.6651551,-4.3688 h -0.06773 c 0.01129,-0.0339 0.02258,-0.0451 0.04516,-0.0451 z m -3.544711,0.56445 c 0.03387,0 0.05645,0.0113 0.05645,0.0339 v 0.0113 c -0.03387,0 -0.05645,-0.0113 -0.05645,-0.0339 z m -1.444977,-0.51929 h 0.04516 c -0.01129,-0.0113 -0.02258,-0.0339 -0.02258,-0.0677 h -0.02258 z m 2.765777,2.57386 h 0.07902 v 0.0226 c -0.04516,0 -0.07902,0 -0.09031,0.0113 z m 1.693334,1.14018 c -0.04516,-0.16933 -0.07902,-0.28222 -0.1016,-0.36124 z m -4.007556,-3.23991 h 0.03387 v -0.0564 h -0.03387 z m 2.1336,1.86267 h 0.03387 l 0.01129,-0.0339 h -0.03387 v -0.0339 h -0.02258 v 0.0339 h 0.02258 z m -2.1336,-1.9304 h 0.03387 v -0.0564 h -0.03387 z m 2.359378,0.69991 c 0,0.0339 0.01129,0.0451 0.04515,0.0451 v -0.0451 z m -2.731911,-0.48542 c -0.01129,0.0226 0,0.0339 0.03387,0.0339 l 0.01129,-0.0564 z m 2.054578,0.21449 h 0.04515 c 0,0.0339 -0.01129,0.0452 -0.04515,0.0452 z m -0.835378,1.65946 h -0.04516 c 0,-0.0339 0.01129,-0.0451 0.04516,-0.0451 z m 1.072444,0.18062 -0.146755,0.0339 v -0.0226 z m -1.512711,-0.34995 h 0.05645 c 0,0.0226 -0.02258,0.0339 -0.05645,0.0339 z m 1.885245,1.10631 0.03387,-0.16933 -0.01129,0.14675 z m -1.817512,-0.77893 0.05645,0.0226 c -0.01129,0.0113 -0.01129,0.0113 -0.02258,0.0113 -0.01129,0 -0.01129,0 -0.01129,-0.0113 l -0.02258,0.0452 z m -0.869244,-2.20134 h 0.02258 v -0.0677 h -0.02258 z m 0.428978,0.1016 h 0.02258 v -0.0677 h -0.02258 z m -1.309511,4.04143 h 0.02258 l 0.01129,-0.0677 h -0.02258 z m 1.411111,-3.58987 h 0.02258 v -0.0677 h -0.02258 z m -0.383822,0.14675 h 0.03387 v -0.0451 h -0.03387 z m 0.361244,-0.22577 h 0.04516 c 0.01129,-0.0226 0,-0.0339 -0.03387,-0.0339 z m -1.354667,3.57857 h 0.02258 v -0.0564 h -0.02258 z m 1.095023,-2.73191 h 0.02258 l 0.01129,-0.0564 h -0.02258 z m 2.528711,0.9144 h 0.02258 v 0.0564 h -0.02258 z m -2.223911,-1.61431 h 0.02258 v -0.0564 h -0.02258 z m 2.1336,1.524 -0.112889,0.0226 -0.05645,-0.0113 z m -1.919112,-0.48542 h 0.02258 v -0.0564 h -0.02258 z m -0.282222,1.19662 h 0.03387 v -0.0339 h -0.03387 z m -0.4064,-2.44969 h 0.03387 v -0.0339 h -0.03387 z m -0.925689,3.56729 h 0.02258 v -0.0452 h -0.02258 z m 0.869245,-3.82693 h 0.02258 v -0.0452 h -0.02258 z m -0.06773,-0.48542 h 0.02258 v -0.0452 h -0.02258 z m 0.485423,0.55315 h 0.02258 l 0.01129,-0.0451 h -0.02258 z m 1.603022,2.05458 h 0.04515 v 0.0226 h -0.04515 z m -1.636889,0.18062 h 0.02258 l 0.01129,-0.0452 h -0.02258 z m 1.907822,-0.24835 h 0.07902 l -0.07902,0.0226 z m -1.783644,0.85795 0.02258,0.0113 v -0.0451 h -0.02258 z m 3.872089,0.21449 c 0,0.0565 0.01129,0.13547 0.04516,0.25965 v 0.0339 z m -4.334934,-4.34622 h 0.02258 v -0.0339 h -0.02258 z m 1.275645,1.07244 h 0.02258 v 0.0339 h -0.02258 z m -2.190045,3.90596 h 0.02258 v -0.0339 h -0.02258 z m 2.020711,-4.08658 h 0.02258 v -0.0339 h -0.02258 z m -0.496711,1.17405 h 0.02258 v -0.0339 h -0.02258 z m -0.643466,-0.74507 h 0.02258 v -0.0339 h -0.02258 z m 1.038577,-0.55316 h 0.02258 v -0.0339 h -0.02258 z m -0.09031,-0.11289 h 0.02258 v -0.0339 h -0.02258 z m 0.05645,3.48827 h 0.02258 v 0.0339 h -0.02258 z m -0.587022,-0.38382 h 0.02258 v -0.0339 h -0.02258 z m 1.049866,-2.47227 h 0.03387 l -0.03387,0.0339 z m 1.377245,2.19005 h 0.02258 l -0.03387,0.0452 z m -0.4064,-0.66605 h 0.02258 v -0.0451 z m -0.383823,0.51929 h 0.07902 l -0.07902,0.0113 z m -0.620888,-2.11102 h 0.02258 l -0.03387,0.0339 z m -0.598312,2.00942 h 0.02258 l -0.02258,0.0339 z m -3.8946663,-1.45627 0.022578,-0.0339 h -0.022578 z m 3.4769783,1.94169 0.01129,-0.0564 h -0.01129 z m -0.09031,-0.47413 0.02258,-0.0564 h -0.01129 z m 2.020712,0.98213 0.05644,-0.079 -0.05644,0.0677 z m 0.07902,-1.37724 0.01129,-0.0339 h -0.01129 z m 0.767644,1.37724 h 0.01129 l -0.01129,0.0339 z m -0.643466,-1.23049 h 0.01129 l -0.01129,0.0339 z m -2.415823,-1.14017 0.01129,-0.0226 h -0.01129 z m 4.301067,2.86737 c 0,-0.0226 0,-0.0339 -0.01129,-0.0452 0,0.0226 0,0.0339 0.01129,0.0452 z"
         style="font-style:normal;font-variant:normal;font-weight:500;font-stretch:normal;font-size:11.2889px;font-family:'Unfolding Tragedy';-inkscape-font-specification:'Unfolding Tragedy Medium';fill:#1e90ff;fill-opacity:1;stroke-width:0.264583"
         id="path6238"
         inkscape:connector-curvature="0" />
      <path
         d="m 20.606342,292.06181 c -0.440267,0.13547 -0.880533,0.28223 -1.309511,0.42898 -0.598311,0.21449 -1.027289,0.32738 -1.286933,0.32738 -0.282223,0 -0.4064,-0.23707 -0.372534,-0.69991 l 0.02258,-0.23707 c 0.01129,-0.0564 0.02258,-0.13546 0.04516,-0.24835 l 0.2032,-0.82409 c 1.490133,-1.43369 2.269066,-2.58516 2.348089,-3.46569 0.03387,-0.28222 0,-0.54187 -0.1016,-0.77893 -0.135467,-0.3048 -0.349956,-0.45156 -0.632178,-0.45156 -0.485422,0 -1.016,0.58702 -1.569156,1.76107 l -0.225778,0.54186 c -0.620888,1.46756 -0.959555,2.40454 -0.993422,2.81094 l -0.124178,0.56444 c -0.169333,0.13547 -0.327377,0.24836 -0.485422,0.33867 l -0.237066,0.15804 0.237066,-0.13546 c 0.191911,-0.12418 0.349956,-0.21449 0.474134,-0.29352 -0.124178,1.44498 0.293511,2.16747 1.264355,2.16747 0.338667,0 0.7112,-0.0903 1.128889,-0.28222 l 0.485422,-0.21449 c 1.535289,-0.69991 2.381956,-1.08373 2.54,-1.14018 l 0.01129,0.0113 v -0.0226 l 0.06773,0.0226 v -0.0226 l 0.04516,0.0226 0.04516,-0.0226 v 0.0226 l 0.03387,-0.0226 h 0.214489 l 0.04516,0.0226 v -0.0226 c 0.01129,0 0.02258,0.0113 0.02258,0.0226 l 0.04516,-0.0226 0.05644,0.0226 v -0.0226 l 0.09031,0.0226 c 0.01129,-0.0113 0.06773,-0.0226 0.146755,-0.0226 v -0.0226 l -0.06773,-0.0226 c -0.01129,0.0113 -0.02258,0.0226 -0.03387,0.0226 h -0.620889 c 0.677334,-0.22578 1.365956,-0.33867 2.054578,-0.33867 0.553156,0 1.151467,0.11289 1.783644,0.33867 -0.767644,-0.46285 -1.715911,-0.68863 -2.8448,-0.68863 -0.575733,0 -1.185333,0.0677 -1.806222,0.19191 z m -1.061155,-4.59457 c -0.01129,0.1016 -0.03387,0.2032 -0.07902,0.3048 -0.372533,0.86924 -0.824089,1.67075 -1.354666,2.42711 0.519289,-1.55787 0.982133,-2.57387 1.377244,-3.048 0.05645,0.0564 0.06773,0.16933 0.05645,0.31609 z m 6.637866,-1.58045 -0.01129,0.079 -0.135466,0.0903 c -0.07902,0 -0.146756,0.0677 -0.191911,0.19191 l 0.02258,0.0451 c 0,0.0226 -0.01129,0.0339 -0.04516,0.0339 -0.01129,0.0339 0.01129,0.0451 0.05644,0.0451 l -0.01129,0.12418 0.05645,0.1016 c 0.124178,0.0226 0.191911,0.0677 0.180622,0.13547 0.09031,-0.0226 0.180622,-0.11289 0.282222,-0.28222 0.09031,-0.14676 0.158045,-0.22578 0.2032,-0.22578 v -0.0226 h -0.112889 l 0.01129,-0.0451 h 0.04516 l -0.02258,-0.0452 -0.06773,0.0452 h -0.03387 v -0.0452 c -0.146756,-0.0564 -0.214489,-0.1016 -0.214489,-0.12418 l 0.02258,-0.18062 h -0.06773 z m -0.191911,1.60302 c 0.03387,0 0.04516,0.0226 0.04516,0.079 l 0.04516,-0.0226 0.04516,0.0226 0.09031,-0.1016 0.01129,-0.0677 c 0,-0.0339 -0.05645,-0.0451 -0.158045,-0.0564 z m 0.02258,0.27094 -0.02258,0.0677 0.05645,0.0339 0.09031,-0.0113 c -0.03387,-0.0565 -0.05645,-0.0903 -0.07902,-0.0903 z m -8.782756,2.95769 c 0.1016,0.0339 0.2032,0.0452 0.327378,0.0452 v 0.0339 H 17.4003 c 0,-0.0226 -0.01129,-0.0339 -0.02258,-0.0339 v 0.0339 l -0.03387,-0.0339 h -0.112889 z m -0.259644,-0.0564 c 0.1016,0.0339 0.180622,0.0564 0.237067,0.0564 l -0.02258,0.0452 c -0.05645,-0.0339 -0.146756,-0.0452 -0.248356,-0.0452 z m 9.064978,-4.85422 h 0.06773 v -0.0452 c 0,-0.0226 -0.01129,-0.0339 -0.04516,-0.0451 h -0.02258 z m 1.9304,1.36596 0.06773,0.0226 v -0.0677 H 27.9667 Z m -2.573867,-1.25307 c -0.01129,0.0339 0,0.0451 0.03387,0.0451 h 0.02258 l -0.01129,-0.0677 z m 0.564444,6.43467 c 0.03387,0.0452 0.06773,0.0677 0.1016,0.079 0.02258,0 0.03387,0 0.04516,0.0113 -0.01129,0 -0.05644,-0.0226 -0.135467,-0.079 z m 0.225778,0.14675 c 0.01129,-0.0339 -0.01129,-0.0564 -0.05644,-0.0564 h -0.02258 z m 0.237067,-5.83635 h 0.04515 v -0.0452 h -0.04515 z m 0.564444,-0.6096 h 0.04516 v -0.0226 h -0.04516 z"
         style="font-style:normal;font-variant:normal;font-weight:500;font-stretch:normal;font-size:11.2889px;font-family:'Unfolding Tragedy';-inkscape-font-specification:'Unfolding Tragedy Medium';fill:#1e90ff;fill-opacity:1;stroke-width:0.264583"
         id="path6240"
         inkscape:connector-curvature="0" />
    </g>
  </g>
  <g
     inkscape:groupmode="layer"
     id="layer4"
     inkscape:label="Cloud"
     style="display:inline">
    <path
       d="m 109.36295,13.923108 c 3.5356,-1.810902 4.71957,0.318942 7.0135,0.94162 2.29584,0.622494 3.02735,-3.862685 6.38626,-2.155891 V 115.04999 c -8.25591,-0.24353 -122.56271,0 -122.56271,0 0,0 -3.7e-7,-74.647349 -0.14217005,-85.326281 2.14118865,-5.565905 5.63964595,-0.363601 5.63964595,-0.363601 3.1127753,-1.147796 -0.131104,-1.347873 5.3376031,-1.316363 1.490313,0.0083 3.084761,0.10993 4.41031,-0.02852 2.152393,-0.22504 2.772949,-0.970936 3.479601,-1.605412 3.364242,-3.018599 3.20608,-8.228548 14.834211,-7.903613 8.936078,1.274776 8.596199,2.369507 9.596368,2.441288 0.568363,-0.313312 3.899507,-4.417521 8.421508,-0.452462 0.657203,-2.14094 2.987637,-2.42402 3.326007,-2.585479 5.433794,0.567516 4.576929,0.9956 8.633852,1.761587 3.757369,-1.299903 7.696372,-3.97926 14.382164,-4.548277 8.912421,0.44269 10.596561,3.570228 12.728109,5.476134 4.442984,-1.342183 9.715181,-4.61517 14.301321,-2.867254"
       style="display:inline;fill:url(#linearGradient6410);fill-opacity:1;fill-rule:nonzero;stroke:none;stroke-width:0.0580054"
       id="path176"
       inkscape:connector-curvature="0"
       sodipodi:nodetypes="cccccccccccccccccc"
       inkscape:label="Base"
       sodipodi:insensitive="true" />
    <g
       id="g370"
       inkscape:label="Decore"
       style="display:inline;opacity:1"
       transform="translate(3.079203,-3.145869)">
      <g
         id="g173">
        <path
           d="m 86.823949,14.414055 c 2.959083,-0.403847 3.092178,5.031485 0.866932,5.346512 -1.399594,0.198273 -0.310884,-0.652416 -0.344001,-1.636654 -0.04096,-1.212499 -2.577847,-3.429331 -0.522931,-3.709858"
           style="display:inline;fill:#30e0b0;fill-opacity:1;fill-rule:nonzero;stroke:none;stroke-width:0.0284852"
           id="path182"
           inkscape:connector-curvature="0" />
        <path
           d="m 86.823949,14.414055 c 1.026232,-0.140296 1.711994,0.422825 2.07789,1.230573 -0.439266,-0.09021 -0.878257,0.132172 -1.039522,0.585001 -0.223133,-0.626374 -0.82921,-1.031102 -1.358356,-1.035873 -0.160462,-0.0016 -0.312608,0.02988 -0.457979,0.08234 -0.09324,-0.437421 0.06863,-0.765198 0.777966,-0.862037"
           style="display:inline;fill:#1e90ff;fill-opacity:1;fill-rule:nonzero;stroke:none;stroke-width:0.0284852"
           id="path196"
           inkscape:connector-curvature="0" />
      </g>
      <g
         id="g177">
        <path
           d="M 2.713688,20.243861 C -0.24539503,19.840014 -0.37849003,25.275347 1.846756,25.590374 3.24635,25.788647 2.15764,24.937958 2.190757,23.95372 2.231717,22.741221 4.768604,20.524388 2.713688,20.243861"
           style="display:inline;fill:#30e0b0;fill-opacity:1;fill-rule:nonzero;stroke:none;stroke-width:0.0284852"
           id="path182-1"
           inkscape:connector-curvature="0" />
        <path
           d="M 2.713688,20.243861 C 1.687456,20.103565 1.001694,20.666686 0.63579797,21.474435 1.075064,21.384225 1.514055,21.606607 1.67532,22.059436 c 0.223133,-0.626374 0.82921,-1.031102 1.358356,-1.035873 0.160462,-0.0016 0.312608,0.02988 0.457979,0.08234 0.09324,-0.437422 -0.06863,-0.765199 -0.777966,-0.862038"
           style="display:inline;fill:#1e90ff;fill-opacity:1;fill-rule:nonzero;stroke:none;stroke-width:0.0284852"
           id="path196-2"
           inkscape:connector-curvature="0" />
      </g>
      <g
         id="g162">
        <path
           d="m 50.336045,11.471051 c -2.959083,-0.403847 -3.092178,5.031487 -0.866932,5.346513 1.399594,0.198273 0.310884,-0.652415 0.344001,-1.636654 0.04096,-1.212499 2.577847,-3.429332 0.522931,-3.709859"
           style="display:inline;fill:#30e0b0;fill-opacity:1;fill-rule:nonzero;stroke:none;stroke-width:0.0284853"
           id="path182-1-4"
           inkscape:connector-curvature="0" />
        <path
           d="m 50.336045,11.471051 c -1.026232,-0.140296 -1.711994,0.422825 -2.07789,1.230574 0.439266,-0.09021 0.878257,0.132172 1.039522,0.585001 0.223133,-0.626374 0.82921,-1.031102 1.358356,-1.035873 0.160462,-0.0016 0.312608,0.02988 0.457979,0.08234 0.09324,-0.437422 -0.06863,-0.765199 -0.777966,-0.862038"
           style="display:inline;fill:#1e90ff;fill-opacity:1;fill-rule:nonzero;stroke:none;stroke-width:0.0284853"
           id="path196-2-4"
           inkscape:connector-curvature="0" />
      </g>
      <g
         id="g84"
         inkscape:label="TopHL"
         style="fill:#1e90ff">
        <path
           d="m 106.30958,16.500535 c 3.5356,-1.810902 4.64205,0.473972 6.93598,1.09665 2.29584,0.622494 3.29796,-3.741836 6.43794,-1.74248 v 0 c -4.06654,-0.176699 -1.47923,2.210285 -6.2005,3.722692 -5.68907,-3.092357 -5.13767,-2.102564 -6.70156,-1.279622 -1.66912,0.878311 -2.12503,1.978803 -4.71213,2.579826 C 96.783917,19.386484 96.839783,25.83952 87.623769,25.675309 83.125761,24.797938 82.99009,18.625401 75.045098,18.491965 67.810294,18.370456 65.379082,23.7343 60.93026,24.399042 58.260626,24.797938 55.027653,22.95173 52.11221,22.33418 c -1.435294,-0.304024 -2.202442,2.836951 -3.620813,2.556419 -2.338771,-0.462572 -1.889421,-1.620435 -4.191366,-1.997554 -1.577375,-0.258416 -2.43299,1.490725 -3.98585,1.264837 -2.008942,-0.292232 -8.436935,-0.644494 -10.122275,-0.853686 -6.401287,-0.794555 -9.589112,3.758281 -14.121322,6.084984 -1.425437,0.731778 -1.389119,3.135198 -2.830754,2.999658 -2.711829,-0.254962 -5.6423742,-0.255276 -7.7014843,-0.432633 -0.8804666,-0.07584 -1.8392782,1.535194 -2.582437,1.471512 -1.468552,-0.125842 -2.4382689,-2.054916 -3.30249651,-2.129043 -1.09034039,-0.09352 -2.67478519,1.570904 -2.67478519,1.570904 0,0 0.142169,10.678931 -10e-7,0 2.14119,-5.565905 5.63964,-1.350201 5.63964,-1.350201 3.11278,-1.147796 2.2805899,-1.567118 5.7395583,-1.425986 1.8394007,0.464793 2.6828117,1.206153 4.0083617,1.067703 2.15239,-0.22504 2.77295,-0.970936 3.4796,-1.605412 3.36424,-3.018599 3.20608,-8.849742 14.83421,-8.524807 8.93608,1.274777 8.5962,2.990701 9.59637,3.062482 0.56836,-0.313312 4.07984,-4.880722 8.60184,-0.915662 0.65721,-2.140941 2.843841,-2.545473 3.182211,-2.706932 5.4338,0.567516 4.540389,1.580252 8.597309,2.34624 3.75737,-1.299904 5.650102,-4.636994 14.382171,-4.548277 9.277831,0.0042 10.648234,2.924272 12.779781,4.830179 4.442984,-1.342184 9.663505,-3.969216 14.249642,-2.2213"
           style="display:inline;fill:#1e90ff;fill-opacity:1;fill-rule:nonzero;stroke:none;stroke-width:0.0580054"
           id="path176-0"
           inkscape:connector-curvature="0"
           sodipodi:nodetypes="cccccsccsssssssssssscccccccccccccc"
           inkscape:label="top_hl" />
        <path
           d="m 47.542575,32.024336 c -8.130177,-2.65989 -7.424121,-2.546112 -11.793514,-1.477323 -2.621962,0.641369 -6.010224,-0.901475 -8.969928,-1.249831 -1.457076,-0.1715 -1.933788,3.026468 -3.371858,2.876817 -2.371278,-0.246763 -3.021401,-1.055136 -5.348184,-1.220171 -1.594403,-0.113085 -2.906662,0.06137 -4.317138,1.373525 -2.083702,2.061191 -3.6469,3.697222 -6.2493045,2.090448 1.8311033,-0.458692 2.6994465,0.219708 4.1785495,-3.430812 1.719327,-2.108308 5.882147,-4.171523 10.747788,-0.636595 0.45867,-2.192071 3.83306,-2.126819 4.155244,-2.318541 5.462933,0.06824 4.648796,0.572884 8.758769,0.964671 3.622755,-1.638055 5.049785,-0.185057 12.209576,3.027812"
           style="display:inline;fill:#1e90ff;fill-opacity:1;fill-rule:nonzero;stroke:none;stroke-width:0.0580054"
           id="path176-0-2"
           inkscape:connector-curvature="0"
           sodipodi:nodetypes="cssssccccccc"
           inkscape:label="Base" />
        <path
           d="m 108.73635,27.737343 c -8.13017,-2.65989 -7.42412,-2.546112 -11.793513,-1.477323 -2.621962,0.641369 -6.010224,-0.901475 -8.969928,-1.249831 -1.457076,-0.1715 -1.933788,3.026468 -3.371858,2.876817 -2.371278,-0.246763 -3.021401,-1.055136 -5.348184,-1.220171 -1.594403,-0.113085 -2.906662,0.06137 -4.317138,1.373525 -2.083702,2.061191 -3.6469,3.697222 -6.249305,2.090448 1.831104,-0.458692 2.699447,0.219708 4.17855,-3.430812 1.719327,-2.108308 5.882147,-4.171523 10.747788,-0.636595 0.45867,-2.192071 3.83306,-2.126819 4.155244,-2.318541 5.462933,0.06824 4.648796,0.572884 8.758769,0.964671 3.622755,-1.638055 5.049785,-0.185057 12.209575,3.027812"
           style="display:inline;fill:#1e90ff;fill-opacity:1;fill-rule:nonzero;stroke:none;stroke-width:0.0580054"
           id="path268"
           inkscape:connector-curvature="0"
           sodipodi:nodetypes="cssssccccccc"
           inkscape:label="Base" />
      </g>
      <g
         id="g79"
         inkscape:label="BottomHL">
        <path
           d="m 44.484052,45.420128 c -1.887904,1.633095 -4.45141,2.406965 -7.088328,1.865754 -2.636529,-0.541132 -5.305807,-2.467723 -6.827517,-5.176879 -0.551329,-0.981452 -0.504551,-0.344851 -0.702459,-1.422585 0.421948,0.528576 0.196112,-1.339315 0.680415,-0.890579 2.084864,1.934922 4.957069,3.693744 7.389368,3.673388 1.973631,-0.0171 3.89404,-0.841474 4.810083,-2.629328 2.8554,1.735838 6.371087,0.779132 7.555129,-2.055098 0.873905,1.192901 2.337635,1.666264 3.519106,1.432998 1.18154,-0.234023 2.119482,-1.056363 2.891972,-1.993518 0.360832,1.605499 -0.660006,2.980734 -1.951073,3.375976 -1.291459,0.395549 -2.777664,0.0548 -4.204578,-0.287 -0.670936,2.266535 -3.241262,3.249274 -5.428532,2.076259 0.04358,0.574951 1.34e-4,1.129991 -0.101759,1.66142 -0.200128,0.07695 -0.375772,0.225536 -0.54177,0.369186"
           style="display:inline;fill:#409880;fill-opacity:1;fill-rule:nonzero;stroke:none;stroke-width:0.0389313"
           id="path178"
           inkscape:connector-curvature="0"
           sodipodi:nodetypes="ccccccccccccccc" />
        <path
           d="m 114.89885,41.992195 c 2.91002,-1.130792 4.85091,-3.598341 4.78293,-6.550335 l -0.0207,-1.493645 c 0,0 -1.35833,-1.273353 -1.63815,-0.730523 -1.20244,2.339887 -3.51993,4.693569 -6.58329,5.238375 -2.48613,0.441504 -5.49409,0.09624 -7.94572,-1.406339 -2.31318,2.327749 -4.442002,1.580932 -7.992379,-0.863258 -0.225534,1.347138 -5.228148,1.853809 -6.879018,1.904148 -1.651514,0.04962 -3.447167,-2.767787 -4.43674,-4.132289 0.112196,2.087995 0.581955,5.307817 2.926805,5.739012 2.511248,0.302085 5.397742,0.277521 6.937062,-0.381339 2.493401,2.018665 6.43142,2.232864 8.31761,0.600111 0.36455,0.56168 1.23361,1.014281 2.48371,1.900653 4.15052,1.591221 7.13739,1.306423 10.04778,0.175429 z"
           style="display:inline;fill:#409880;fill-opacity:1;fill-rule:nonzero;stroke:none;stroke-width:0.0455931"
           id="path178-1"
           inkscape:connector-curvature="0"
           sodipodi:nodetypes="cccccccccccccc"
           inkscape:label="path178-1" />
        <path
           d="M -0.73913076,55.028064 C -3.1647528,55.617593 -2.8792034,54.377573 -2.879203,54.377572 c 0,-1.975552 0,0 -0.061195,-4.18222 1.7631926,0.88694 1.1167342,1.135775 2.74871194,-0.03565 1.74617456,2.849092 5.31038756,3.605218 7.65902556,1.625647 0.231985,1.460446 1.317467,2.550539 2.474909,2.883124 1.1578565,0.331941 2.3679675,0.02929 3.4834055,-0.45113 -0.412905,1.5929 -1.949522,2.349414 -3.278483,2.110797 C 8.817721,56.089613 7.651644,55.107166 6.538755,54.150948 4.905972,55.860146 2.170673,55.559306 0.76147904,53.516206 0.3793414,54.424305 0.1178543,54.746021 -0.73908236,55.02809"
           style="display:inline;fill:#409880;fill-opacity:1;fill-rule:nonzero;stroke:none;stroke-width:0.0389313"
           id="path178-3"
           inkscape:connector-curvature="0"
           sodipodi:nodetypes="ccccccccccc" />
      </g>
    </g>
  </g>
  <g
     aria-label="reflux"
     transform="rotate(-20.922313,0.57900445,-4.5238347)"
     id="text286"
     style="font-size:11.3123px;line-height:1.25;font-family:'Unfolding Tragedy';-inkscape-font-specification:'Unfolding Tragedy, Normal';fill:#1e90ff;fill-opacity:1;stroke-width:0.282807"
     inkscape:label="Title">
    <path
       d="m 2.9042407,13.628629 q 0.045249,-0.113123 0.067874,-0.135748 l 0.033937,-0.05656 q 0.022625,-0.06787 0.1357476,-0.124436 0.1244353,-0.06787 0.2828075,-0.06787 0.033937,0 0.1018107,0.02262 0.079186,0.02262 0.1470599,0.07919 0.067874,0.05656 0.1244353,0.169685 0.056561,0.113123 0.056561,0.282807 0,0.04525 -0.011312,0.05656 l -0.011312,0.06787 q 0,0.03394 -0.033937,0.203621 -0.033937,0.169685 -0.090498,0.384618 -0.045249,0.214934 -0.090498,0.44118 -0.045249,0.214934 -0.079186,0.350681 0.6108641,-0.916296 1.3122267,-1.300914 0.7126749,-0.395931 1.4479744,-0.395931 h 0.022625 q -0.6334888,0.124436 -1.1425423,0.610864 -0.5090535,0.486429 -0.904984,1.300915 -0.022625,0.03394 -0.113123,0.237558 -0.079186,0.192309 -0.2036213,0.486429 -0.1244353,0.282808 -0.2828075,0.633489 -0.1470599,0.339369 -0.3054321,0.678738 -0.1470599,0.339369 -0.2941198,0.633489 -0.1357476,0.282807 -0.2375583,0.452492 -0.033937,0.07919 -0.090498,0.169684 -0.045249,0.07919 -0.1018107,0.169685 l -0.1696845,0.24887 -0.1018107,0.0905 q -0.056562,0.05656 -0.1583722,0.07919 -0.090498,0.02262 -0.1696845,0.02262 -0.226246,0 -0.3959305,-0.180996 -0.1696845,-0.19231 -0.1696845,-0.509054 l 0.011312,-0.03394 q 0,-0.260183 0.056561,-0.418555 Q 1.6146385,18.1083 1.6712,17.893366 l 0.1357476,-0.531678 q 0,-0.02263 0.4072428,-1.402725 -0.4977412,0.497741 -0.9615455,0.723987 -0.47511657,0.214933 -0.70136257,0.214933 h -0.0452492 q -0.0678738,0 -0.0678738,-0.01131 h 0.0678738 q 0.1696845,-0.02263 0.4185551,-0.203623 0.24887057,-0.180997 0.54299037,-0.531678 0.3054321,-0.350682 0.6221765,-0.88236 0.3280567,-0.531678 0.6334888,-1.255665 z m -0.011312,0.158372 0.011312,-0.04525 q -0.011312,0.01131 -0.011312,0.03394 z"
       style="fill:#1e90ff;fill-opacity:1;stroke-width:0.282807"
       id="path56" />
    <path
       d="m 6.2413583,18.764413 q 0.1583722,0.29412 0.2828075,0.486429 0.1244353,0.180997 0.3054321,0.339369 0.1923091,0.169684 0.4977411,0.361993 0.3167444,0.203622 0.8484225,0.520366 0.226246,0.113123 0.3733059,0.180997 0.1470599,0.06787 0.226246,0.101811 L 8.1305123,20.574381 Q 7.7006449,20.427321 7.2142161,20.257636 6.7390995,20.099264 6.2979198,19.816457 5.8680524,19.544962 5.5286834,19.103782 q -0.339369,-0.44118 -0.4751166,-1.13123 -0.5769273,0.214934 -1.1764792,0.214934 -0.2601829,0 -0.4864289,-0.03394 -0.2375583,-0.04525 -0.418555,-0.101811 l -0.1696845,-0.05656 0.1809968,0.03394 q 0.1809967,0.03394 0.3959304,0.03394 h 0.1923091 q 0.7579241,-0.04525 1.4366621,-0.520365 v -0.248871 q 0,-0.554303 0.113123,-1.108605 0.113123,-0.565615 0.339369,-1.119918 0.1809968,-0.452492 0.226246,-0.452492 l 0.079186,-0.124435 q 0.090498,-0.113123 0.2149337,-0.237559 0.1244353,-0.135747 0.2828075,-0.237558 0.1696845,-0.113123 0.3846182,-0.180997 0.2149337,-0.07919 0.4864289,-0.07919 0.1809967,0 0.3393689,0.07919 0.1583722,0.06787 0.2714952,0.203622 0.1244353,0.124435 0.1923091,0.294119 0.067874,0.158373 0.067874,0.328057 v 0.02262 q 0,0.24887 -0.1470599,0.622176 -0.1357476,0.361994 -0.3959305,0.757924 -0.2601828,0.395931 -0.6221764,0.769237 -0.3619936,0.373306 -0.8031733,0.633488 -0.011312,0.124436 -0.022625,0.203622 0,0.06787 0,0.101811 0,0.520365 0.2262463,0.995482 z m 0.1470599,-2.658391 q 0.1470599,-0.226245 0.2601829,-0.509053 0.1244353,-0.282807 0.1809968,-0.509053 -0.067874,0.03394 -0.1470599,0.158372 -0.079186,0.124435 -0.1583722,0.29412 -0.067874,0.169684 -0.1357476,0.361993 -0.056561,0.180997 -0.090498,0.328057 0.022625,-0.03394 0.045249,-0.06787 0.022625,-0.03394 0.045249,-0.05656 z m 2.4773936,4.683293 q -0.022625,0 -0.090498,-0.03394 l 0.1018107,0.03394 z"
       style="fill:#1e90ff;fill-opacity:1;stroke-width:0.282807"
       id="path58" />
    <path
       d="m 8.3567476,19.805145 q 0.1018107,0.113123 0.1583722,0.282807 0.067874,0.169684 0.113123,0.373306 0.045249,0.203621 0.056561,0.418555 0.022625,0.226246 0.022625,0.429867 0,0.554303 -0.090498,1.187792 -0.090498,0.644801 -0.2601829,1.27829 -0.1583722,0.644801 -0.3733059,1.221728 -0.2149336,0.58824 -0.4638042,1.040732 -0.2601829,0.452492 -0.5316781,0.723987 -0.2828075,0.271495 -0.5543027,0.271495 -0.1696845,0 -0.3280567,-0.124435 -0.1696845,-0.113123 -0.2149337,-0.203622 -0.1470599,-0.305432 -0.1809968,-1.244353 0.022625,-0.384618 0.056561,-0.803173 0.033937,-0.407243 0.090498,-0.859735 0.1018107,-0.520365 0.226246,-1.018107 0.1244353,-0.486429 0.2601829,-0.927608 0.1357476,-0.44118 0.2601829,-0.814486 0.1244353,-0.373306 0.2149337,-0.633489 -0.022625,0 -0.033937,0.01131 -0.3619936,0.214933 -0.8144856,0.361993 -0.452492,0.158372 -0.8257979,0.158372 -0.3506813,0 -0.5090535,-0.07919 0.045249,0.01131 0.113123,0.02262 0.067874,0.01131 0.1583722,0.02263 h 0.1244353 q 0.1809968,0 0.5090535,-0.0905 0.3280567,-0.07919 0.6448011,-0.226246 0.3167444,-0.135747 0.5543027,-0.316744 0.226246,-0.169685 0.226246,-0.350681 0,-0.02263 -0.011312,-0.02263 -0.011312,0 -0.011312,-0.02263 0,-0.226246 0.8936717,-2.601829 0.3846182,-1.029401 0.678738,-1.7647 0.3054321,-0.746612 0.5316781,-1.244353 0.2375583,-0.497742 0.4185551,-0.791861 0.1809968,-0.29412 0.3280567,-0.452492 0.1470599,-0.158373 0.2828073,-0.203622 0.135748,-0.04525 0.271495,-0.04525 h 0.01131 q 0.226246,0.02262 0.373306,0.180997 l 0.07919,0.02262 q 0.04525,0.02262 0.124435,0.0905 0.07919,0.05656 0.14706,0.158372 0.06787,0.0905 0.113123,0.203621 0.05656,0.113123 0.05656,0.248871 v 0.0905 q -0.03394,0.497742 -0.83711,2.692328 -0.271495,0.950233 -1.1199175,2.013589 -0.2941198,0.237558 -0.5429904,0.44118 -0.2488706,0.203621 -0.4638043,0.384618 -0.045249,0.113123 -0.079186,0.192309 -0.022625,0.0905 -0.045249,0.169685 0.113123,0.04525 0.1923091,0.14706 z M 7.7345712,22.938652 Q 8.2775615,21.6038 8.2775615,20.61963 q 0,-0.226246 -0.056561,-0.418555 -0.045249,-0.192309 -0.113123,-0.339369 -0.056562,0.248871 -0.056562,0.271495 v 0.01131 q 0,0 0.011312,0.02262 0,0.05656 -0.090498,0.316744 -0.090498,0.260183 -0.2375582,0.667426 -0.1357476,0.407243 -0.2941198,0.927609 -0.1696845,0.520366 -0.3054321,1.085981 -0.1470599,0.565615 -0.2375583,1.153854 -0.090498,0.58824 -0.090498,1.13123 0,0.02263 0.011312,0.02263 0.022625,0 0.079186,-0.0905 0.045249,-0.07919 0.1470599,-0.350681 0.1018107,-0.271495 0.2714952,-0.769236 0.1583722,-0.497742 0.4185551,-1.323539 z m 1.5158481,-6.086018 q 0.5882396,-1.300914 0.8597347,-2.036214 0.282808,-0.735299 0.29412,-0.916296 l -0.03394,-0.06787 -0.07919,0.02262 Q 9.9065257,14.5223 8.8657941,17.57662 q -0.022625,0.06787 -0.045249,0.135748 -0.022625,0.05656 -0.045249,0.113123 0.226246,-0.407243 0.4751166,-0.972858 z M 4.635001,20.857188 q -0.022625,-0.01131 -0.033937,-0.01131 0.011312,0 0.033937,0.01131 z"
       style="fill:#1e90ff;fill-opacity:1;stroke-width:0.282807"
       id="path60" />
    <path
       d="m 11.444998,17.497435 q -0.214934,0.678738 -0.395931,1.346164 -0.180997,0.667426 -0.328057,1.221728 -0.14706,0.554303 -0.237558,0.961546 -0.0905,0.407243 -0.113123,0.554303 0,-0.19231 0.135748,-1.244353 0.14706,-1.040732 0.407242,-2.963823 0.05656,-0.44118 0.169685,-1.085981 0.124435,-0.656113 0.260183,-1.323539 0.135747,-0.667425 0.260183,-1.244353 0.124435,-0.588239 0.192309,-0.882359 l 0.06787,-0.260183 q 0,-0.0905 0.610864,-2.26246 L 12.61016,9.8955699 q 0.101811,-0.3280566 0.214934,-0.3959304 0.124435,-0.067874 0.237558,-0.067874 0.237559,0 0.29412,0.1470599 0.05656,0.1357476 0.124435,0.4864286 -0.01131,0.633489 -0.0905,1.289603 -0.06787,0.644801 -0.192309,1.266977 -0.113123,0.610864 -0.248871,1.176479 -0.135747,0.554303 -0.282807,0.995483 -0.135748,0.429867 -0.260183,0.735299 -0.113123,0.29412 -0.192309,0.395931 0.06787,-0.113123 0.14706,-0.407243 0.0905,-0.305432 0.169684,-0.746612 0.0905,-0.44118 0.158372,-0.972858 0.06787,-0.54299 0.0905,-1.13123 -0.03394,0.14706 -0.04525,0.14706 0.01131,0.01131 0.01131,0.03394 0,0.463804 -1.300914,4.649355 z"
       style="fill:#1e90ff;fill-opacity:1;stroke-width:0.282807"
       id="path62" />
    <path
       d="m 14.340929,17.983864 q 0.678738,-0.769236 1.233041,-1.685532 0.565615,-0.916297 0.950233,-2.058839 0.203622,-0.58824 0.407243,-0.961545 0.214934,-0.373306 0.39593,-0.373306 h 0.01131 q 0.14706,0.01131 0.169684,0.384618 v 0.06787 q 0,0.203621 -0.04525,0.475116 -0.04525,0.260183 -0.135748,0.576928 -0.475116,1.504535 -1.266977,2.681015 -0.780549,1.165166 -1.809968,2.047526 -0.395931,0.339369 -0.757924,0.339369 -0.203622,0 -0.339369,-0.101811 -0.135748,-0.101811 -0.237558,-0.24887 -0.0905,-0.14706 -0.14706,-0.316745 -0.05656,-0.169684 -0.0905,-0.29412 l 0.02263,-0.192309 q -0.01131,0 -0.01131,-0.04525 0,-0.203621 0.07919,-0.599552 0.0905,-0.407243 0.214933,-0.859735 -0.339369,0.701363 -0.599552,1.153855 -0.24887,0.452492 -0.463804,0.712675 -0.226246,0.260183 -0.418555,0.373306 -0.203621,0.113123 -0.418555,0.124435 -0.101811,0 -0.101811,-0.01131 h 0.113123 q 0.214934,-0.01131 0.407243,-0.169685 0.192309,-0.169684 0.407243,-0.554302 0.203621,-0.384619 0.44118,-1.018107 0.24887,-0.633489 0.565615,-1.583722 0.03394,-0.06787 0.158372,-0.29412 0.124435,-0.237558 0.282807,-0.531678 0.169685,-0.305432 0.339369,-0.610864 0.169685,-0.316745 0.305432,-0.554303 h -0.01131 l 0.02263,-0.02262 q 0.05656,-0.02262 0.147059,-0.06787 0.0905,-0.04525 0.14706,-0.04525 0.05656,0 0.06787,0.01131 h 0.01131 q 0.07919,0 0.158373,0.113123 0.0905,0.10181 0.0905,0.169684 0,0.14706 -0.03394,0.203621 -0.03394,0.04525 -0.06787,0.158373 l -0.24887,0.780548 q -0.158372,0.486429 -0.305432,0.995483 -0.14706,0.497741 -0.260183,0.938921 -0.113123,0.429867 -0.180997,0.757924 -0.06787,0.328056 -0.06787,0.463804 v 0.01131 q 0.05656,0.0905 0.101811,0.169685 0.05656,0.06787 0.0905,0.124435 v -0.01131 q 0.05656,-0.02263 0.0905,-0.06787 0.04525,-0.05656 0.10181,-0.124435 0.06787,-0.07919 0.169685,-0.180997 0.113123,-0.113123 0.316744,-0.248871 z m -0.791861,0.916297 q 0.01131,-0.01131 0.01131,-0.02263 z"
       style="fill:#1e90ff;fill-opacity:1;stroke-width:0.282807"
       id="path64" />
    <path
       d="m 23.571747,19.940892 q 1.809968,0.44118 3.065634,1.119918 0.588239,0.328056 1.153854,0.678738 0.565615,0.350681 1.02942,0.656113 0.475116,0.316745 0.803173,0.554303 0.339369,0.237558 0.475116,0.339369 -0.135747,-0.07919 -0.497741,-0.282808 Q 29.250522,22.802904 28.752781,22.554033 28.25504,22.316475 27.655488,22.04498 27.067248,21.784797 26.445072,21.558551 26.128327,21.445428 25.69846,21.320993 25.268592,21.20787 24.804788,21.094747 24.340984,20.981624 23.87718,20.879813 23.413375,20.778002 23.017445,20.698816 22.632827,20.630946 22.361331,20.585693 22.089836,20.540443 22.01065,20.540443 H 21.9654 q -0.01131,-0.03394 -0.69005,-0.03394 h -0.203622 q -0.373306,0 -0.735299,0.03394 -0.350682,0.04525 -0.701363,0.101811 l -0.260183,0.04525 q -0.05656,0.01131 -0.10181,0.01131 -0.04525,0.01131 -0.0905,0.01131 -0.260183,0 -0.475116,-0.192309 -0.203622,-0.192309 -0.203622,-0.497741 0,-0.04525 0.02262,-0.158372 l 0.05656,-0.248871 q 0.01131,-0.03394 0.01131,-0.169684 0,-0.226246 -0.06787,-0.622177 -0.06787,-0.407242 -0.192309,-1.018107 v -0.01131 q -0.486429,0.497741 -0.814486,0.825798 -0.316744,0.316744 -0.554303,0.520366 -0.226246,0.203621 -0.418555,0.316744 -0.192309,0.124436 -0.418555,0.214934 l -1.402725,1.142542 -0.03394,0.02263 0.05656,-0.06787 q 0.06787,-0.203621 0.24887,-0.452492 0.180997,-0.248871 0.407243,-0.497741 0.214934,-0.237558 0.44118,-0.452492 0.226246,-0.226246 0.384618,-0.361994 1.233041,-1.368788 1.866529,-2.273772 -0.180996,-0.69005 -0.463804,-1.233041 -0.282807,-0.554302 -0.54299,-0.938921 -0.260183,-0.39593 -0.452492,-0.610864 -0.192309,-0.226246 -0.192309,-0.282807 l 0.02262,-0.02262 q 0.203622,0 0.757924,0.576927 0.565615,0.565615 1.27829,1.696845 l 0.135748,0.316745 q 0.859735,-0.791861 1.42535,-1.368788 0.576927,-0.576928 0.927608,-0.938921 0.350681,-0.361994 0.520366,-0.531678 0.180997,-0.180997 0.24887,-0.180997 0.01131,0 0.02262,0.01131 v 0.02262 q 0,0.0905 -0.135748,0.350681 -0.124435,0.260183 -0.452491,0.746612 -0.316745,0.475116 -0.859735,1.199104 -0.531678,0.723987 -1.357476,1.742094 0.06787,0.180996 0.10181,0.350681 0.04525,0.158372 0.07919,0.305432 0.135747,0.576927 0.214933,0.98417 0.0905,0.395931 0.0905,0.644801 0,0.169685 -0.01131,0.203622 0.746612,-0.169685 1.561098,-0.169685 0.475116,0 0.723987,0.02263 0.260183,0.02262 0.271495,0.03394 0,-0.01131 0.02263,-0.01131 0.04525,0 0.203621,0.02263 0.169685,0.02263 0.384618,0.06787 0.226246,0.04525 0.475117,0.0905 0.24887,0.05656 0.475116,0.113123 z"
       style="fill:#1e90ff;fill-opacity:1;stroke-width:0.282807"
       id="path66" />
  </g>
</svg>
