<svg xmlns="http://www.w3.org/2000/svg" xmlns:xlink="http://www.w3.org/1999/xlink" width="115.2" height="128.5mm" viewBox="0 0 30.48 128.5">
  <defs>
    <linearGradient id="b">
      <stop offset="0" style="stop-color:#30e0b0;stop-opacity:1"/>
      <stop offset="1" style="stop-color:#409880;stop-opacity:1"/>
    </linearGradient>
    <linearGradient id="a">
      <stop offset="0" style="stop-color:#409880;stop-opacity:1"/>
      <stop offset="1" style="stop-color:#409880;stop-opacity:0"/>
    </linearGradient>
    <linearGradient xlink:href="#a" id="c" x1="15.44" x2="15.44" y1="285.34" y2="190.99" gradientTransform="matrix(1 0 0 .9899 0 1.09)" gradientUnits="userSpaceOnUse"/>
    <linearGradient xlink:href="#b" id="d" x1="14.98" x2="15.44" y1="14.091" y2="115.05" gradientUnits="userSpaceOnUse"/>
  </defs>
  <g style="display:inline">
    <path d="M.2 168.5h30.48V297H.2z" style="display:inline;fill:#404040;fill-opacity:1;stroke-width:.42674565" transform="translate(0 -168.5)"/>
    <path d="M.2 190.152h30.48v93.398H.2z" style="display:inline;fill:url(#c);fill-opacity:1;stroke-width:.36381963" transform="translate(0 -168.5)"/>
    <g aria-label="RAGE" style="font-style:normal;font-variant:normal;font-weight:400;font-stretch:normal;font-size:19.7555542px;line-height:1.25;font-family:Ravie;-inkscape-font-specification:Ravie;letter-spacing:0;word-spacing:0;display:inline;fill:#a0dc28;fill-opacity:1;stroke:none;stroke-width:.26458332">
      <path d="M6.22 291.836c0 .011 0 .023-.01.034l.022-.023v.012c.023-.102.045-.158.057-.192.248-.599.553-1.242.925-1.942h.023v-.023l-.011.012c.463-.87.948-1.524 1.467-1.987l.689-.621c.135-.158.203-.282.203-.384 0-.147-.147-.226-.452-.226-.485 0-1.004.305-1.569.926l.271-.993c-.034-.362-.18-.542-.417-.542a.594.594 0 0 0-.328.124l-.327.305c-1.479 1.377-2.597 2.077-3.376 2.088-.293 0-.474-.045-.541-.135.146.17.406.248.767.248.734 0 1.761-.429 3.082-1.276v.012c-.192.485-.564 1.603-1.118 3.353l-.191.553a.654.654 0 0 1-.057.158l-.09.26-.023.169c0 .067 0 .113.012.135.033-.079.056-.113.079-.113h.045c-.034.102-.08.158-.113.17.011.011.011.011.011.022 0 .012 0 .012.011.023h.068v-.068h.045c.034.011.045.023.045.045l-.067.023c0 .034.022.045.067.045v.045h-.101c.056.125.192.181.429.181.034 0 .056 0 .068-.011a.89.89 0 0 0-.26-.102c0 .034-.011.045-.045.045h-.023v-.022c0-.09.057-.204.18-.35l-.067.237c.102.067.203.124.305.169l.068-.034a.437.437 0 0 0 .248-.293l-.011-.023h-.023c-.034 0-.045-.011-.045-.045l.068-.023zm-.293-.52-.022.068.056.023.068-.023c0 .034-.034.046-.09.046 0 .011.011.011.022.011 0 .045-.022.068-.056.068v.045c.034 0 .056.011.056.045l-.079-.023-.022.046c.011 0 .022.01.022.022-.146.023-.225.045-.225.068a.432.432 0 0 1-.215-.18c.011 0 .011-.012.011-.023-.022 0-.034-.012-.034-.046.023 0 .034-.01.034-.022a.345.345 0 0 0-.056-.102c.011-.011.011-.011.022-.011.012 0 .012 0 .023-.011l.023-.012a.52.52 0 0 1 .237-.079zm2.823-2.675c0 .102-.057.192-.181.271l.113-.022v.067h-.045v.046a.75.75 0 0 0 .192.067l-.023.215.045-.023a.024.024 0 0 0-.022-.022.38.38 0 0 0 .045-.17h.045l.023.102h.022c0-.023.011-.068.023-.147h.022v.045h.068c0-.022-.011-.034-.045-.045a.534.534 0 0 0 .068-.226c-.023 0-.034-.011-.046-.045v-.023c.057 0 .09-.022.09-.067v-.023h-.067l-.09.045v-.045l-.203.023zm.542 1.705c-.068.034-.102.056-.102.09.034 0 .056.045.079.147a.024.024 0 0 0 .023-.023c.01 0 .022.012.022.023.045-.045.08-.068.09-.068v-.101c-.022-.046-.045-.068-.067-.068zM5.86 292.23c-.023 0-.034 0-.045.011.079.057.124.113.158.147h.045c.034-.034.079-.045.147-.045v-.023c-.023 0-.046-.01-.08-.045h-.067v-.022c-.012-.012-.023-.012-.057-.023l-.056-.011c-.011.011-.023.011-.045.011zm-.599-.248c-.022-.023-.033-.057-.033-.102l-.023.034h-.136v.023c0 .034.034.056.113.067 0 .034-.01.046-.045.046 0 .022.023.045.08.067a.285.285 0 0 1 .1-.045c0-.011 0-.011-.01-.023zm4.053.056.045.068c.09-.045.136-.09.136-.136l-.023-.045a.024.024 0 0 0-.022.023c-.034 0-.046-.023-.046-.057-.033.023-.056.034-.09.034zm-1.67.068c.033 0 .045-.011.045-.045l.045.022c0-.022.01-.056.045-.113l-.068-.056c-.09.034-.135.056-.135.079zm.394-.068a.024.024 0 0 1-.022.023c0 .011.011.022.022.022a.024.024 0 0 1-.022.023c0 .034.011.045.045.045h.068v-.09zm1.412-1.366c0 .034.01.045.045.045.045-.022.067-.045.067-.067v-.023l-.09-.022zm-4.73 1.14-.226.046h.305v-.023c-.023 0-.046-.011-.08-.045zm4.865-.372-.023.068.068.022c.023 0 .034-.022.045-.068v-.022zm-5.159.282h.068v-.023h-.068c0-.022-.034-.045-.09-.067h-.08v.022c.035 0 .068.012.125.046h.045zm.384-2.687c.022.046.045.068.068.068H4.9c.034 0 .045-.011.045-.045v-.023zm.643.204c0 .033.045.056.147.067-.023-.045-.045-.067-.068-.067zm-.485-.113h.101c0 .022.046.045.136.067h.023v-.022a.269.269 0 0 1-.136-.045l-.124-.023Zm3.025 2.822-.022.068c.011 0 .022.01.022.022l.068-.022v-.023c0-.023-.011-.034-.045-.045zm-2.54-2.71c0-.022-.011-.033-.045-.045h-.022c-.023 0-.034.012-.046.046l.068.022zm-.079 2.349h.023c.034.011.045.022.045.045 0 .034-.011.045-.045.045h-.023zm4.561-.316c.034 0 .045-.012.045-.046 0-.022-.011-.033-.045-.045-.011 0-.023.012-.034.023zm-5.069.632h.09c0-.023-.01-.034-.045-.045h-.045v-.023h-.045v.023h.045zm.903-.17v.023c0 .034-.01.045-.045.045H5.68c0-.022.023-.045.068-.067zm3.218-2.404h.045l-.023-.09h-.045zm-4.335 2.585c0 .034.011.045.045.045h.079l-.023-.045-.033.023-.068-.034zm3.274 0c0 .023.01.034.045.034l.045-.023c0-.01-.011-.022-.045-.034h-.045zm2.19-.09c0 .034.01.045.045.045l.034-.023c0-.022-.012-.034-.034-.045zm-.757-2.235c0 .033.012.045.045.045v-.068H9.36Zm.599 2.077c-.023 0-.034.011-.046.045l.068.023zm-4.493 5.588h.158l-.09-.023h-.068Zm-.971.067h.113v-.022h-.113Zm1.196-8.015c0 .023.012.034.046.034h.045c0-.011-.012-.022-.045-.034zm1.389.395.102.023-.102.023zm-1.061 2.574h-.045v.045h.045zm-.203-.587v.045c-.034 0-.046-.01-.046-.045zm-.192-.056c.034 0 .045-.011.045-.045h-.045Zm3.804-1.197h.045v-.022h-.045zm-.643-1.06h.045v-.024h-.045zm.203 0h.045v-.024h-.045zm-3.568 2.46h.023v.045h-.023Zm.226-2.111.09-.023h-.09zm-.666 0h.045v-.023H4.98zm.158 2.134h.045v-.023h-.045Zm2.45-5.261c-.011.034-.034.045-.068.057zm-2.608 5.317.068-.011h-.068zm4.91-.7.012-.011-.011-.045zm-4.628.282.023-.067z" style="font-style:normal;font-variant:normal;font-weight:500;font-stretch:normal;font-size:11.28888893px;font-family:&quot;Unfolding Tragedy&quot;;-inkscape-font-specification:&quot;Unfolding Tragedy Medium&quot;;fill:#a0dc28;fill-opacity:1;stroke-width:.26458332" transform="translate(0 -168.5)"/>
      <path d="M13.291 291.475c-.304.067-.508.101-.61.101-.191-.034-.327-.124-.406-.293-.09-.203-.169-.632-.225-1.298-.012-.034-.012-.102-.012-.192l.012-.18c0-.114-.012-.25-.034-.407l-.023-.113c-.045-.147-.113-.26-.214-.328.225-.598.338-1.016.338-1.23v-.09c0-.192-.034-.384-.101-.553-.09-.204-.215-.305-.362-.305-.079 0-.124.011-.158.045l-.158.124-.192.192c-.53.53-1.14 1.31-1.806 2.314-.632 1.05-.948 1.795-.948 2.247 0 .214.068.406.192.564.113.124.226.192.327.192.53 0 1.152-.429 1.84-1.298a.458.458 0 0 1-.022.079l-.023.079c-.248.756-.384 1.14-.418 1.174.034 0 .215-.395.554-1.174.18-.407.338-.7.474-.87.158 1.434.62 2.157 1.4 2.157.35-.034.666-.136.925-.305.282-.18.418-.384.418-.598 0-.08-.045-.125-.136-.125-.112 0-.327.034-.632.09zm-3.217-1.852-.079-.022c.587-.903 1.129-1.648 1.637-2.247.011.012.011.045.011.08 0 .327-.09.767-.26 1.331a.332.332 0 0 0-.169.181l-.158.237c-.722 1.106-1.343 1.818-1.874 2.122.305-.745.542-1.264.711-1.546a.246.246 0 0 1 .034-.057l.147-.045v.023l.113-.057c0 .023.011.034.034.034v-.034c0-.022-.023-.045-.057-.056h-.09zm-1.422-4.176-.317-.023-.022.034c-.147 0-.271.124-.395.384a.45.45 0 0 0 .18.067c.102 0 .283-.067.531-.203 0-.079.045-.147.147-.226v-.034c0-.022-.012-.033-.045-.045h-.023zm.722 2.359a.628.628 0 0 1-.214-.08l.022-.191H9.16l-.034.192c0 .034.034.056.113.09h-.08c-.045.023-.067.045-.067.068v.023l.079.022c0-.011.056-.034.158-.068 0-.01 0-.01-.011-.022.01.011.022.011.045.011.022 0 .034 0 .045.011 0-.01.011-.022.023-.022h.09l.056.022v-.056h-.113v-.023zm-.858-2.89c-.079.056-.113.09-.113.124l.023.045c.079 0 .158-.045.226-.146v-.023l-.068.023zm.045 1.874-.09-.023a.203.203 0 0 0-.18.102c0 .034.01.045.044.045h.068c.08-.068.136-.101.158-.101zm.678 2.969.146.011v-.034c.09 0 .215-.022.384-.056v.056l-.316.057H9.24Zm-.362-2.62h.057v.023h.17v.034h.191v-.034h-.192v-.022h-.056c-.023-.045-.045-.068-.068-.068-.011 0-.034.011-.045.034h-.057zm-1.151-.394c-.147.045-.226.09-.226.124v.023c.113 0 .192-.046.226-.125zM7.5 286.7c-.09.033-.135.056-.135.09v.045h.022c.08 0 .124-.034.136-.09zm1.603.135c.08 0 .192.023.328.079h.09v-.034c-.057 0-.18-.022-.361-.079h-.057zm-1.908-2.98c0 .011-.045.056-.135.135v.045c.056 0 .113-.033.158-.112v-.068zm.7 3.003c-.079.01-.113.022-.113.056v.045h.045l.09-.067zm.09-3.308c-.078.011-.112.023-.112.056v.046h.045c.045-.023.068-.046.068-.068zm1.423 3.725c-.08.057-.113.09-.113.113h.034c.056-.034.079-.056.079-.079zm-.203.17-.023.09h.057c0-.034.01-.056.033-.09zm.124-.226a.24.24 0 0 1 .135.034l.023-.057h-.158Zm-1.57-1.163c-.01 0-.022.011-.033.045l.022.045c.023 0 .034-.01.034-.045v-.045zm1.728 1.197H9.6v-.034h-.113Zm-2.45.214c-.022 0-.034.012-.045.045v.023h.023c.034 0 .045-.011.045-.045v-.023zm.226-2.529c-.011 0-.034.012-.045.034v.023h.045zm.632 1.604c.034 0 .045-.012.045-.046h-.045zm.068.88c.034 0 .045-.011.045-.045h-.045zm.835-.677h.057v-.023h-.057zm.474.7h.023v-.057h-.023zm-2.438-.949c-.011 0-.023.012-.034.046h.034zm.756 1.016h.046v-.022H7.59zm1.795 2.28v-.022l.068.023zm-1.467-2.923h.045l-.045-.011z" style="font-style:normal;font-variant:normal;font-weight:500;font-stretch:normal;font-size:11.28888893px;font-family:&quot;Unfolding Tragedy&quot;;-inkscape-font-specification:&quot;Unfolding Tragedy Medium&quot;;fill:#a0dc28;fill-opacity:1;stroke-width:.26458332" transform="translate(0 -168.5)"/>
      <path d="M16.633 291.813c0-.033 0-.045-.011-.056a5.53 5.53 0 0 1 .598-.418c.452-.27 1.005-.463 1.648-.587 1.186-.192 2.02-.293 2.518-.293.519 0 1.06.079 1.625.226.463.124.7.214.7.26l.011-.023c0-.034-.056-.09-.158-.181-.733-.61-1.772-.914-3.138-.914h-.316c-1.524 0-2.72.293-3.612.891l.214-.654.361-.904c.147-.35.305-.745.497-1.174.011-.01.011-.022.023-.033.316-.7.474-1.095.485-1.197a.79.79 0 0 0-.192-.553c-.124-.17-.27-.249-.44-.249-.282 0-.587.328-.915.994a.727.727 0 0 0-.474-.158c-.327 0-.722.18-1.174.553-.35.282-.62.587-.835.892h-.011c-.023 0-.068.067-.147.192-.395.756-.655 1.456-.768 2.1l-.022.191a1.524 1.524 0 0 0-.046.271c-.01.316.023.599.125.836.124.327.327.485.598.485.316 0 .689-.26 1.129-.768h.011a11.98 11.98 0 0 0-.068.52c-.406.395-.745.745-1.027 1.05-2.167.146-3.917 1.038-5.25 2.686-.112.192-.169.35-.18.463-.011.215.057.373.192.474a.366.366 0 0 0 .237.102h.034c.056.022.203.034.463.034a3.61 3.61 0 0 0 1.693-.395l.158-.08c.023 0 .124-.045.294-.146a11.465 11.465 0 0 0 3.104-2.54c.102.011.215.034.328.068.01.079.01.203.022.36l.023.396c.011-.056.101-.282.282-.677.147.045.316.101.508.169.801.282 1.298.418 1.49.418.08 0 .124-.057.124-.158 0-.046-.068-.226-.192-.554a7.672 7.672 0 0 1-.338-1.106c0-.034 0-.045-.012-.056l.057.361c.022.17.045.305.056.406l.147.44c.011.035.023.068.034.125l.09.35a3.496 3.496 0 0 1-.35-.124l-.96-.407c-.225-.101-.394-.18-.507-.237l.248-.564c.135-.226.237-.418.294-.565l.71-.598c0 .034 0 .045.012.056zm-1.513-2.607.012.011c.44-1.039.79-1.558 1.05-1.558l-.125.384-.406 1.151a25.83 25.83 0 0 0-.407 1.163l-.304.407c-.18.214-.294.327-.339.327l-.011-.011c.022-.407.192-.982.496-1.739l-.033.012-.023-.09zm-4.267 6.197c0 .012-.079.046-.237.113-.147.068-.406.147-.779.249.847-.802 1.897-1.412 3.15-1.852-1.163 1.005-1.874 1.502-2.123 1.502zm3.138-3.341a.384.384 0 0 1-.079-.17c.034-.09.09-.135.158-.135a.451.451 0 0 0 .147.068l-.022.045h.045a.024.024 0 0 1-.023.022c-.011.046.011.068.057.068v.023c0 .113-.046.17-.125.17h-.045a.024.024 0 0 1-.022-.024l-.068.023.023-.068a.024.024 0 0 1-.023-.022.024.024 0 0 0 .023-.023h-.023a.024.024 0 0 1-.023.023zm2.428-3.387a.331.331 0 0 0 .112-.068c.068.012.102.034.113.09a.024.024 0 0 0-.022.023c.011 0 .022 0 .022.012-.056.034-.09.045-.113.045a.024.024 0 0 0-.022-.023.024.024 0 0 1-.023.023zm-.723 2.551c.034-.056.045-.09.045-.112.034.033.057.045.09.045v.09h-.09zm-2.472.09h.034l.056.294c-.034 0-.068-.09-.09-.282zm4.267-1.365c-.08.034-.113.056-.113.09l.023.068c.056-.034.09-.068.09-.09zm-1.377.62c.079.012.113.023.113.057s-.012.045-.046.045h-.079zm-.971-.846.022.045c.057-.011.09-.034.102-.09l-.124-.011zm-.057-.384c.09-.022.136-.056.136-.101l-.09-.023c0 .023 0 .034-.012.045zm3.421 1.648c-.023 0-.034.012-.045.046l-.011.045h.09l.011-.09zm-1.377-.417h.067c.034.011.046.022.046.045l-.09.034-.023-.034zm-3.014.654c.022 0 .101-.01.225-.033 0 .022-.056.045-.169.056h-.056zm1.377-.225v.011a2.663 2.663 0 0 1-.271.034l-.08-.011c.046 0 .159-.012.328-.034zm2.133-3.06c-.033 0-.045.012-.056.046v.045h.023c.022 0 .033-.012.033-.045l.012-.046zm-4.504 2.676h.023a.7.7 0 0 0 .034.124h-.057zm.045.237h.023l.022.158h-.022zm.158.937h-.022v-.023h.022v.023h.034v.09h-.034zm-.869-3.725h.034v-.057h-.034l.011-.068h-.022l-.011.068h.022zm.26 3.048h-.023v.067h.023zm.214-1.423h.023l-.011-.113h-.034zm.294 1.524h.034c0 .034.01.068.022.08h-.056zm2.02.215h-.022v-.034h.022v.034h.034v.045h.023v.034h-.023v-.034h-.034zm-2.709-1.423h.023v.034h.034v-.034h-.023c.011-.011.023-.022.023-.034h-.057zm4.606-1.648v.045h-.068c0-.034.012-.045.045-.045zm-4.583 1.784h.034v-.08h-.034zm.293 1.772h.023v-.09h-.023zm-3.251.88.011-.146H9.59Zm7.665-4.368h-.068c.012-.034.023-.045.046-.045zm-3.545.564c.034 0 .057.012.057.034v.011c-.034 0-.057-.01-.057-.033zm-1.444-.52h.045c-.012-.01-.023-.033-.023-.067h-.022zm2.765 2.575h.08v.022c-.046 0-.08 0-.091.012zm1.694 1.14c-.046-.17-.08-.282-.102-.361zm-4.008-3.24h.034v-.056h-.034zm2.134 1.863h.034l.01-.034h-.033v-.034h-.023v.034h.023zm-2.134-1.93h.034v-.057h-.034zm2.36.7c0 .033.01.044.045.044v-.045zm-2.732-.486c-.012.022 0 .034.033.034l.012-.057zm2.054.214h.045c0 .034-.011.046-.045.046zm-.835 1.66h-.045c0-.034.01-.045.045-.045zm1.072.18-.147.034v-.022zm-1.513-.35h.057c0 .023-.023.034-.057.034zm1.886 1.107.034-.17-.012.147zm-1.818-.78.057.023c-.012.012-.012.012-.023.012s-.011 0-.011-.012l-.023.046zm-.87-2.2h.024v-.068h-.023zm.43.101h.023v-.068h-.023zm-1.31 4.042h.023l.011-.068h-.022zm1.412-3.59h.022v-.068h-.022zm-.384.146h.034v-.045h-.034zm.36-.225h.046c.011-.023 0-.034-.034-.034zm-1.354 3.578h.023v-.056h-.023zm1.095-2.732h.023l.011-.056h-.022zm2.529.915h.023v.056h-.023zm-2.224-1.615h.023v-.056h-.023zm2.134 1.524-.113.023-.057-.011zm-1.92-.485h.023v-.056H13.1zm-.282 1.197h.034v-.034h-.034zm-.406-2.45h.034v-.034h-.034zm-.926 3.567h.023v-.045h-.023zm.87-3.827h.022v-.045h-.022zm-.068-.485h.022v-.045h-.022zm.485.553h.023l.011-.045h-.022zm1.603 2.055h.045v.022h-.045zm-1.637.18h.023l.011-.045h-.022zm1.908-.248h.08l-.08.022zm-1.783.858.022.011v-.045h-.022zm3.872.214c0 .057.01.136.045.26v.034zm-4.335-4.346h.022v-.034H12.4zm1.275 1.072h.023v.034h-.023zm-2.19 3.906h.023v-.033h-.023zm2.021-4.086h.023v-.034h-.023zm-.497 1.174h.023v-.034h-.023zm-.643-.745h.022v-.034h-.022zm1.038-.553h.023v-.034h-.023zm-.09-.113h.023v-.034h-.023zm.057 3.488h.022v.034h-.022zm-.587-.384h.022v-.034h-.022zm1.05-2.472h.033l-.034.034zm1.377 2.19h.022l-.034.045zm-.407-.666h.023v-.045zm-.384.52h.08l-.08.01zm-.62-2.112h.022l-.034.034zm-.599 2.01h.023l-.023.034zm-3.894-1.457.022-.033h-.022zm3.477 1.942.01-.056h-.01zm-.09-.474.022-.056h-.012zm2.02.982.056-.079-.056.068zm.079-1.377.011-.034h-.011zm.768 1.377h.01l-.01.034zm-.644-1.23h.011l-.01.034zm-2.416-1.14.012-.023H12.5zm4.301 2.867c0-.023 0-.034-.01-.045 0 .022 0 .034.01.045z" style="font-style:normal;font-variant:normal;font-weight:500;font-stretch:normal;font-size:11.28888893px;font-family:&quot;Unfolding Tragedy&quot;;-inkscape-font-specification:&quot;Unfolding Tragedy Medium&quot;;fill:#a0dc28;fill-opacity:1;stroke-width:.26458332" transform="translate(0 -168.5)"/>
      <path d="M20.606 292.062c-.44.135-.88.282-1.31.429-.597.214-1.026.327-1.286.327-.282 0-.407-.237-.373-.7l.023-.237c.011-.056.023-.135.045-.248l.203-.824c1.49-1.434 2.27-2.585 2.348-3.466.034-.282 0-.542-.101-.779-.136-.305-.35-.451-.632-.451-.486 0-1.016.587-1.57 1.76l-.225.543c-.621 1.467-.96 2.404-.994 2.81l-.124.565c-.17.135-.327.248-.485.339l-.237.158.237-.136c.192-.124.35-.214.474-.293-.124 1.445.293 2.167 1.264 2.167.339 0 .711-.09 1.129-.282l.485-.215c1.536-.7 2.382-1.083 2.54-1.14l.012.011v-.022l.067.022v-.022l.046.022.045-.022v.022l.034-.022h.214l.045.022v-.022c.012 0 .023.011.023.022l.045-.022.056.022v-.022l.09.022a.343.343 0 0 1 .148-.022v-.023l-.068-.022c-.011.011-.023.022-.034.022h-.62a6.476 6.476 0 0 1 2.054-.338c.553 0 1.151.113 1.783.338-.767-.463-1.716-.688-2.845-.688-.575 0-1.185.067-1.806.192zm-1.06-4.595a1.014 1.014 0 0 1-.08.305c-.372.87-.824 1.67-1.354 2.427.519-1.558.982-2.574 1.377-3.048.056.057.067.17.056.316zm6.637-1.58-.011.079-.136.09c-.079 0-.146.068-.192.192l.023.045c0 .023-.011.034-.045.034-.011.034.011.045.056.045l-.011.124.056.102c.125.022.192.068.181.135.09-.022.18-.113.282-.282.09-.147.158-.226.203-.226v-.022h-.112l.01-.045h.046l-.023-.046-.067.046h-.034v-.046c-.147-.056-.215-.101-.215-.124l.023-.18h-.068zm-.192 1.603c.034 0 .045.022.045.079l.045-.023.046.023.09-.102.011-.067c0-.034-.056-.046-.158-.057zm.023.27-.023.068.057.034.09-.01c-.034-.057-.057-.091-.08-.091zm-8.783 2.958a.998.998 0 0 0 .327.046v.034H17.4c0-.023-.011-.034-.022-.034v.034l-.034-.034h-.113zm-.26-.056a.86.86 0 0 0 .237.056l-.022.046a.514.514 0 0 0-.249-.046zm9.065-4.854h.068v-.045c0-.023-.011-.034-.045-.045h-.023zm1.93 1.366.068.022v-.067h-.067Zm-2.573-1.253c-.011.034 0 .045.034.045h.022l-.011-.068zm.564 6.434a.208.208 0 0 0 .102.08c.022 0 .034 0 .045.01a.468.468 0 0 1-.135-.078zm.226.147c.011-.034-.011-.056-.056-.056h-.023zm.237-5.836h.045v-.045h-.045zm.565-.61h.045v-.022h-.045z" style="font-style:normal;font-variant:normal;font-weight:500;font-stretch:normal;font-size:11.28888893px;font-family:&quot;Unfolding Tragedy&quot;;-inkscape-font-specification:&quot;Unfolding Tragedy Medium&quot;;fill:#a0dc28;fill-opacity:1;stroke-width:.26458332" transform="translate(0 -168.5)"/>
    </g>
  </g>
  <g style="display:inline">
    <g aria-label="resolve" style="font-style:normal;font-variant:normal;font-weight:400;font-stretch:normal;font-size:7.05555534px;line-height:10;font-family:&quot;Unfolding Tragedy&quot;;-inkscape-font-specification:&quot;Unfolding Tragedy&quot;;letter-spacing:0;word-spacing:0;fill:#a0dc28;fill-opacity:1;stroke:none;stroke-width:.26458332">
      <path d="M6.2 4.728c-.508 1.2-1.108 1.757-1.383 1.793h-.042c0 .007.014.007.042.007h.028c.19 0 .621-.17 1.037-.586-.169.571-.254.868-.254.875l-.084.331c-.05.177-.113.283-.113.501l-.007.022c0 .26.162.43.353.43.063 0 .155-.014.204-.064l.064-.056.105-.155a1.61 1.61 0 0 0 .12-.212c.261-.43.84-1.863.896-1.947.325-.67.755-1.087 1.278-1.193h-.015c-.606 0-1.213.297-1.721 1.059.05-.226.183-.805.183-.861l.007-.042c.007-.007.007-.014.007-.036 0-.289-.211-.345-.268-.345-.134 0-.24.063-.26.12l-.022.035a.417.417 0 0 0-.042.085zm.106-.148c0-.007 0-.014.007-.02l-.007.027z" style="font-style:normal;font-variant:normal;font-weight:400;font-stretch:normal;font-size:7.05555534px;font-family:&quot;Unfolding Tragedy&quot;;-inkscape-font-specification:&quot;Unfolding Tragedy&quot;;fill:#a0dc28;fill-opacity:1;stroke-width:.26458332" transform="matrix(1.15353 -.58115 .5533 1.21158 -6.196 8.892)"/>
      <path d="M8.396 7.692a1.407 1.407 0 0 1-.142-.621c0-.028.008-.092.015-.19.726-.438 1.227-1.32 1.227-1.736V5.13c0-.29-.24-.565-.543-.565-.459 0-.699.268-.854.459l-.05.077c-.02 0-.063.092-.14.283-.19.458-.282.93-.282 1.39v.155a1.76 1.76 0 0 1-.897.324h-.12c-.091 0-.169-.007-.246-.02l-.113-.022.106.035c.148.05.345.085.564.085.247 0 .487-.042.734-.134C7.88 8.348 8.86 8.58 9.574 8.82l.402.113a8.552 8.552 0 0 1-.374-.177c-.889-.529-.938-.571-1.206-1.065Zm.091-1.658c-.02.02-.035.05-.056.077.063-.254.219-.656.331-.712a2.253 2.253 0 0 1-.275.635Zm1.545 2.92h.008l-.064-.02c.028.014.05.02.056.02z" style="font-style:normal;font-variant:normal;font-weight:400;font-stretch:normal;font-size:7.05555534px;font-family:&quot;Unfolding Tragedy&quot;;-inkscape-font-specification:&quot;Unfolding Tragedy&quot;;fill:#a0dc28;fill-opacity:1;stroke-width:.26458332" transform="matrix(1.15353 -.58115 .5533 1.21158 -6.196 8.892)"/>
      <path d="M11.348 7.685c.373-.43.451-.91.451-1.588 0-.557-.035-1.778-.62-1.778h-.029c-.19.021-.487.233-.487.381-.473 1.44-.712 2.16-.712 2.166-.381.515-.678.91-.89 1.186a2.07 2.07 0 0 1-.352.225c.063-.014.19-.07.388-.155.409-.05 1.206-.67 1.841-1.877.007.106.014.198.014.276 0 .48-.084.776-.345.994-.685.374-1.023.593-1.023.67.007.029.049.043.134.043.176 0 .543-.056 1.107-.176.177-.05.346-.17.523-.367zm.766-1.193c-.282.833-.304.939-.304 1.13 0 .161.029.253.036.253v.007c0 .19.296.325.465.325.734 0 1.419-1.27 1.419-2.618 0-.247-.064-.6-.064-.882.007-.007.021-.007.035-.007.141 0 .304.466.339.466.021-.007.035-.064.035-.17 0-.395-.162-.592-.409-.592h-.042c-.014-.057-.021-.099-.028-.12 0 .021.007.063.014.127-.48.028-1.038.818-1.496 2.081zm1.305-1.573a.743.743 0 0 1 .205-.198c-.028 1.426-.798 2.865-1.256 2.921 0-.035.007-.098.035-.204.261-1.13.699-2.096 1.016-2.52zm-1.051 2.759v-.036l.007.007c.007 0 .014 0 .014.007-.007.015-.014.022-.021.022zm2.209-.776c.543-1.75.811-2.717.811-2.9 0-.007 0-.014-.007-.021.007 0 .014-.036.029-.092-.043.973-.247 1.848-.353 2.032.19-.254.769-2.075.79-3.655-.056-.29-.064-.395-.261-.395-.092 0-.198.021-.282.29l-.085.26c-.254.903-.381 1.383-.381 1.411l-.042.163c-.113.494-.452 2.102-.55 2.829-.212 1.587-.34 2.462-.34 2.625.043-.254.318-1.419.671-2.547z" style="font-style:normal;font-variant:normal;font-weight:400;font-stretch:normal;font-size:7.05555534px;font-family:&quot;Unfolding Tragedy&quot;;-inkscape-font-specification:&quot;Unfolding Tragedy&quot;;fill:#a0dc28;fill-opacity:1;stroke-width:.26458332" transform="matrix(1.15353 -.58115 .5533 1.21158 -6.196 8.892)"/>
      <path d="M16.623 5.815a5.887 5.887 0 0 0-.416.903v-.092a84.733 84.733 0 0 0-.148-2.137c-.064-.198-.085-.226-.198-.247h-.035c-.134 0-.184.098-.219.155l-.183.508c-.41 1.129-.89 2.088-1.171 2.512-.036.049-.071.084-.092.12.423-.424 1.023-1.299 1.51-2.357 0 .183.028.41.035.684l.042 1.397c.057.72.029.875.261.875.014 0 .022 0 .029-.007h.007c.05 0 .14-.05.176-.084l.057-.071c.02-.021.007-.021.077-.219.579-1.644 1.044-2.406 1.58-2.674l.156-.077c.05-.022.106-.05.155-.078.014 0 .021 0 .028.007l.085.05c.035 0 .106-.085.106-.149 0-.148-.155-.289-.374-.289-.543 0-1.108.614-1.468 1.27zm-2.582 1.827c.007 0 .021-.007.035-.02-.014.006-.028.006-.042.006v.007zm.05-.035-.015.014c.007-.007.014-.007.014-.014z" style="font-style:normal;font-variant:normal;font-weight:400;font-stretch:normal;font-size:7.05555534px;font-family:&quot;Unfolding Tragedy&quot;;-inkscape-font-specification:&quot;Unfolding Tragedy&quot;;fill:#a0dc28;fill-opacity:1;stroke-width:.26458332" transform="matrix(1.15353 -.58115 .5533 1.21158 -6.196 8.892)"/>
      <path d="M18.786 7.692a1.407 1.407 0 0 1-.141-.621c0-.028.007-.092.014-.19.727-.438 1.228-1.32 1.228-1.736V5.13c0-.29-.24-.565-.544-.565-.458 0-.698.268-.853.459l-.05.077c-.02 0-.063.092-.14.283a3.61 3.61 0 0 0-.283 1.39v.155c-.275.19-.572.303-.896.324H17c-.092 0-.17-.007-.247-.02l-.113-.022.106.035c.148.05.346.085.564.085.247 0 .487-.042.734-.134.226 1.15 1.207 1.383 1.92 1.623l.401.113a8.552 8.552 0 0 1-.374-.177c-.889-.529-.938-.571-1.206-1.065zm.092-1.658c-.021.02-.036.05-.057.077.064-.254.219-.656.332-.712a2.253 2.253 0 0 1-.275.635zm1.545 2.92h.007l-.064-.02a.19.19 0 0 0 .057.02z" style="font-style:normal;font-variant:normal;font-weight:400;font-stretch:normal;font-size:7.05555534px;font-family:&quot;Unfolding Tragedy&quot;;-inkscape-font-specification:&quot;Unfolding Tragedy&quot;;fill:#a0dc28;fill-opacity:1;stroke-width:.26458332" transform="matrix(1.15353 -.58115 .5533 1.21158 -6.196 8.892)"/>
    </g>
  </g>
  <g style="display:inline">
    <path d="M27.771 15.974c.695.237 1.398.608 1.952 1.23.553.623.974 1.546.871 2.343.008.033.972 69.793.086 95.503H.2s.092-76.695 0-78.921c-.09-2.174 0-7.156 0-7.156.75-1.148 1.294-.96 2.613-.93.36.009.744.11 1.064-.028.519-.225.668-.97.839-1.605.811-3.019 3.374-4.928 6.178-4.603.281.033.604.07.768-.168.145-.213.098-.552.064-.855-.144-1.289.115-2.603.868-3.346.785-.774 1.956-.692 2.934.074.906-1.3 1.912-3.16 3.512-3.397 1.427-.212 3.81.991 4.324 2.897 1.071-1.342 2.733-1.606 4.407-1.038" style="display:inline;fill:url(#d);fill-opacity:1;fill-rule:nonzero;stroke:none;stroke-width:.0284852"/>
    <path d="M9.327 36.951c-.372 2.085-1.397 3.902-2.931 4.831-1.534.93-3.582.902-5.328-.246-.633-.416-.38.009-.868-.65.404.161-.381-1.039.026-.964 1.754.324 3.845.133 5.073-1.09a5.244 5.244 0 0 0 1.5-4.236c2.074-.198 3.517-2.617 3.1-5.196.873.404 1.787.01 2.303-.74.516-.752.698-1.796.753-2.838.76.949.736 2.422.222 3.341-.514.92-1.392 1.418-2.24 1.887.473 1.925-.48 3.892-2.012 4.155.229.382.406.794.545 1.218-.074.153-.11.345-.143.528" style="display:inline;fill:#409880;fill-opacity:1;fill-rule:nonzero;stroke:none;stroke-width:.0284852"/>
    <path d="M26.977 9.414c2.96-.404 3.092 5.032.867 5.347-1.4.198-.31-.653-.344-1.637-.04-1.213-2.578-3.43-.523-3.71" style="display:inline;fill:#30e0b0;fill-opacity:1;fill-rule:nonzero;stroke:none;stroke-width:.0284852"/>
    <path d="M2.813 28.044c.36.008.744.11 1.064-.029.519-.225.668-.971.839-1.605.811-3.019 3.374-4.928 6.178-4.603.281.033.604.07.768-.168.145-.213.098-.552.064-.855-.144-1.289.115-2.603.868-3.346.785-.774 1.956-.692 2.934.074.906-1.3 1.912-3.16 3.512-3.397 1.427-.212 3.81.991 4.324 2.897 1.071-1.342 2.733-1.607 4.407-1.038.695.237 1.398.608 1.952 1.23.069.078.136.16.199.247l-.165-.06c-1.285-.468-2.544-.623-3.755-.303-.388.102-3.19 1.327-2.888 2.083-.71-1.773-2.565-2.77-4.016-2.458-1.45.313-2.488 1.683-3 3.298-.518-1.196-2.036-1.234-2.645-.346-.61.888-.578 2.248-.521 3.506-1.917-.384-3.813.165-5.16 1.493-1.346 1.328-2.127 3.42-2.124 5.69-.473-.382-1.038-.425-1.555-.404-2.187.09-2.47-.436-3.922 1.267.367-.876-.467-1.485.029-2.244.75-1.148 1.294-.96 2.613-.93" style="display:inline;fill:#a0dc28;fill-opacity:1;fill-rule:nonzero;stroke:none;stroke-width:.0284852"/>
    <path d="M30.68 21.652c-1.588-.05-1.423 1.352-1.908 3.063-.398-.986-1.335-1.613-2.19-1.71-.855-.099-1.64.24-2.347.665-1.033.618-2.048 1.632-1.968 3.129-.57-1.623-1.835-2.991-3.215-3.478-1.38-.486-2.825-.073-3.673 1.05.069-1.662 1.341-2.81 2.748-2.713 1.408.097 2.836 1.287 3.674 2.821.332-1.482 1.301-2.618 2.545-2.982 1.244-.365 2.733.05 3.91 1.09.45-1.33 1.271-2.435 2.338-3.04M26.977 9.414c1.026-.14 1.712.423 2.078 1.23a.892.892 0 0 0-1.04.586c-.223-.627-.829-1.031-1.358-1.036-.16-.002-.312.03-.458.082-.093-.437.069-.765.778-.862" style="display:inline;fill:#a0dc28;fill-opacity:1;fill-rule:nonzero;stroke:none;stroke-width:.0284852"/>
    <path d="M2.714 20.244c-2.96-.404-3.092 5.031-.867 5.346 1.4.199.31-.652.344-1.636.04-1.213 2.578-3.43.523-3.71" style="display:inline;fill:#30e0b0;fill-opacity:1;fill-rule:nonzero;stroke:none;stroke-width:.0284852"/>
    <path d="M2.714 20.244c-1.027-.14-1.712.423-2.078 1.23a.892.892 0 0 1 1.04.585c.222-.626.829-1.03 1.358-1.035.16-.002.312.03.458.082.093-.438-.069-.765-.778-.862" style="display:inline;fill:#a0dc28;fill-opacity:1;fill-rule:nonzero;stroke:none;stroke-width:.0284852"/>
    <path d="M28.14 39.355c1.604-.8 2.675-2.547 2.637-4.636l-.011-1.057s-.75-.902-.903-.517c-.664 1.656-1.942 3.321-3.631 3.707a5.244 5.244 0 0 1-4.383-.995c-1.276 1.647-2.45 1.119-4.408-.611-.124.953-2.883 1.312-3.794 1.347-.91.035-1.901-1.958-2.447-2.924.062 1.478.321 3.756 1.614 4.061 1.385.214 2.977.197 3.826-.27 1.376 1.43 3.548 1.58 4.588.425.2.398.68.718 1.37 1.345 2.289 1.127 3.936.925 5.541.125z" style="display:inline;fill:#409880;fill-opacity:1;fill-rule:nonzero;stroke:none;stroke-width:.0284852"/>
  </g>
  <g style="display:inline;opacity:1">
    <rect width="28.914" height="13.077" x=".983" y="101.25" rx="1.147" ry="1.51" style="fill:#404040;fill-opacity:1;fill-rule:evenodd;stroke-width:.250426;paint-order:stroke fill markers"/>
    <path d="M11.25 30.16v74.567" style="display:inline;fill:none;stroke:#404040;stroke-width:.294915;stroke-linecap:round;stroke-linejoin:miter;stroke-miterlimit:4;stroke-dasharray:none;stroke-dashoffset:0;stroke-opacity:1"/>
    <rect width="28.75" height="7.5" x="1.25" y="24.162" rx="1.25" ry="1.25" style="display:inline;opacity:1;fill:#404040;fill-opacity:1;fill-rule:evenodd;stroke-width:.263496;paint-order:stroke fill markers"/>
    <g style="font-style:normal;font-variant:normal;font-weight:400;font-stretch:normal;font-size:2.82222px;line-height:1.25;font-family:&quot;SpaceMono Nerd Font&quot;;-inkscape-font-specification:&quot;SpaceMono Nerd Font&quot;;letter-spacing:0;word-spacing:0;fill:#fff;fill-opacity:1;stroke:none;stroke-width:.264583">
      <path d="M2.982 38.5H4.37v.22h-.575v1.755h-.237V38.72h-.576Zm1.722.575h.508v.187h.034q.054-.116.153-.17.098-.056.225-.056.212 0 .342.138.13.139.138.404l-.231.034q0-.195-.093-.28-.093-.087-.229-.087-.087 0-.152.034-.062.034-.105.093-.042.06-.062.138-.02.08-.02.17v.592h.356v.203h-.897v-.203h.321v-.993h-.288Zm2.239-.417q0-.082.057-.138.059-.06.14-.06.083 0 .14.06.058.056.058.138 0 .082-.059.14-.056.057-.138.057-.082 0-.141-.056-.057-.06-.057-.141zm-.4 1.614h.49v-.993h-.44v-.204h.66v1.197h.458v.203H6.543zm2.755-.012h-.034q-.068.128-.186.193-.116.062-.254.062-.141 0-.265-.048-.125-.048-.22-.138-.094-.09-.15-.223-.054-.136-.054-.308v-.045q0-.17.057-.302.056-.136.15-.226.092-.093.217-.141.124-.048.26-.048.152 0 .264.068.116.065.181.192h.034v-.22h.22v1.744q0 .096-.062.158-.06.062-.155.062h-.912v-.203h.833q.076 0 .076-.085zm-.469.046q.1 0 .184-.037.085-.036.147-.104.065-.068.101-.161.037-.096.037-.212v-.034q0-.112-.037-.206-.036-.096-.101-.163-.062-.068-.15-.105-.085-.04-.18-.04-.1 0-.187.038-.084.036-.15.104-.061.068-.098.16-.034.094-.034.207v.045q0 .119.034.212.037.093.099.16.065.065.15.102.084.034.185.034z" aria-label="Trig" style="fill:#fff;fill-opacity:1;stroke-width:.264583" transform="translate(0 -11.838)"/>
    </g>
    <g style="font-style:normal;font-variant:normal;font-weight:400;font-stretch:normal;font-size:2.82222px;line-height:1.25;font-family:&quot;SpaceMono Nerd Font&quot;;-inkscape-font-specification:&quot;SpaceMono Nerd Font&quot;;letter-spacing:0;word-spacing:0;fill:#fff;fill-opacity:1;stroke:none;stroke-width:.264583">
      <path d="M13.866 38.762h1.253v.22h-.508v1.536h.508v.22h-1.253v-.22h.508v-1.536h-.508zm1.954 1.976h-.22v-1.4h.22v.237h.033q.13-.277.452-.277.243 0 .387.153.144.15.144.451v.836h-.22v-.79q0-.22-.1-.33-.098-.11-.267-.11-.2 0-.316.138-.113.135-.113.364zm2.546-.491h-.846l-.144.49h-.254l.598-1.975h.446l.598 1.976h-.254zm-.44-1.383-.342 1.163h.717l-.341-1.163z" aria-label="InA" style="fill:#fff;fill-opacity:1;stroke-width:.264583" transform="translate(0 -11.838)"/>
    </g>
    <g style="font-style:normal;font-variant:normal;font-weight:400;font-stretch:normal;font-size:2.82222px;line-height:1.25;font-family:&quot;SpaceMono Nerd Font&quot;;-inkscape-font-specification:&quot;SpaceMono Nerd Font&quot;;letter-spacing:0;word-spacing:0;fill:#fff;fill-opacity:1;stroke:none;stroke-width:.264583">
      <path d="M22.617 38.782h1.253v.22h-.508v1.535h.508v.22h-1.253v-.22h.508v-1.535h-.508zm1.954 1.976h-.22v-1.4h.22v.237h.034q.13-.277.451-.277.243 0 .387.153.144.15.144.451v.836h-.22v-.79q0-.22-.099-.33-.099-.111-.268-.111-.2 0-.316.138-.113.136-.113.364zm1.421-.221h.169v-1.535h-.17v-.22h.8q.14 0 .248.04.11.039.183.107.076.067.113.163.04.094.04.204v.033q0 .082-.026.15-.025.068-.07.121-.046.054-.108.094-.06.036-.13.056v.034q.141.04.237.152.096.11.096.271v.034q0 .11-.04.206-.036.093-.112.164-.073.068-.183.107-.108.04-.249.04h-.798zm.406 0h.375q.167 0 .271-.081.105-.085.105-.232v-.017q0-.152-.1-.24-.098-.09-.267-.09h-.384zm0-.88h.384q.17 0 .268-.088.099-.087.099-.24v-.016q0-.144-.105-.226-.104-.085-.27-.085h-.376z" aria-label="InB" style="fill:#fff;fill-opacity:1;stroke-width:.264583" transform="translate(0 -11.838)"/>
    </g>
    <g style="font-style:normal;font-variant:normal;font-weight:400;font-stretch:normal;font-size:2.82222px;line-height:1.25;font-family:&quot;SpaceMono Nerd Font&quot;;-inkscape-font-specification:&quot;SpaceMono Nerd Font&quot;;letter-spacing:0;word-spacing:0;fill:#fff;fill-opacity:1;stroke:none;stroke-width:.264583">
      <path d="M2.982 111H4.37v.22h-.575v1.755h-.237v-1.755h-.576Zm1.722.575h.508v.187h.034q.054-.116.153-.17.098-.056.225-.056.212 0 .342.138.13.139.138.404l-.231.034q0-.195-.093-.28-.093-.087-.229-.087-.087 0-.152.034-.062.034-.105.093-.042.06-.062.138-.02.08-.02.17v.592h.356v.203h-.897v-.203h.321v-.993h-.288Zm2.239-.417q0-.082.057-.138.059-.06.14-.06.083 0 .14.06.058.056.058.138 0 .082-.059.14-.056.057-.138.057-.082 0-.141-.056-.057-.06-.057-.141zm-.4 1.614h.49v-.993h-.44v-.204h.66v1.197h.458v.203H6.543zm2.755-.012h-.034q-.068.128-.186.193-.116.062-.254.062-.141 0-.265-.048-.125-.048-.22-.138-.094-.09-.15-.223-.054-.136-.054-.308v-.045q0-.17.057-.302.056-.136.15-.226.092-.093.217-.141.124-.048.26-.048.152 0 .264.068.116.065.181.192h.034v-.22h.22v1.744q0 .096-.062.158-.06.062-.155.062h-.912v-.204h.833q.076 0 .076-.084zm-.469.046q.1 0 .184-.037.085-.036.147-.104.065-.068.101-.161.037-.096.037-.212v-.034q0-.112-.037-.206-.036-.096-.101-.163-.062-.068-.15-.105-.085-.04-.18-.04-.1 0-.187.038-.084.036-.15.104-.061.068-.098.16-.034.094-.034.207v.045q0 .119.034.212.037.093.099.16.065.065.15.102.084.034.185.034z" aria-label="Trig" style="fill:#fff;fill-opacity:1;stroke-width:.264583"/>
    </g>
    <g style="font-style:normal;font-variant:normal;font-weight:400;font-stretch:normal;font-size:2.82222px;line-height:1.25;font-family:&quot;SpaceMono Nerd Font&quot;;-inkscape-font-specification:&quot;SpaceMono Nerd Font&quot;;letter-spacing:0;word-spacing:0;fill:#fff;fill-opacity:1;stroke:none;stroke-width:.264583">
      <path d="M12.97 112.03q0-.384.183-.596.183-.211.51-.211.328 0 .511.211.184.212.184.596v.44q0 .395-.184.601-.183.206-.51.206-.328 0-.511-.206-.184-.206-.184-.6zm.693 1.027q.23 0 .342-.155.116-.158.116-.449v-.406q0-.271-.116-.438-.113-.166-.342-.166-.228 0-.344.166-.113.167-.113.438v.406q0 .29.113.449.116.155.344.155zm2.107-1.219h.22v1.4h-.22v-.254h-.034q-.068.135-.178.214-.11.08-.28.08-.115 0-.214-.04-.096-.037-.166-.113-.068-.076-.108-.19-.036-.112-.036-.262v-.835h.22v.807q0 .22.09.322.09.101.277.101.2 0 .313-.135.116-.138.116-.367zm.678 0h.44v-.576h.22v.576h.542v.203h-.542v.909q0 .085.077.085h.398v.203h-.477q-.096 0-.158-.062-.06-.062-.06-.158v-.977h-.44zm2.815.909h-.847l-.144.49h-.254l.598-1.975h.446l.599 1.976h-.254zm-.44-1.383-.342 1.163h.717l-.342-1.163z" aria-label="OutA" style="fill:#fff;fill-opacity:1;stroke-width:.264583"/>
    </g>
    <g style="font-style:normal;font-variant:normal;font-weight:400;font-stretch:normal;font-size:2.82222px;line-height:1.25;font-family:&quot;SpaceMono Nerd Font&quot;;-inkscape-font-specification:&quot;SpaceMono Nerd Font&quot;;letter-spacing:0;word-spacing:0;fill:#fff;fill-opacity:1;stroke:none;stroke-width:.264583">
      <path d="M21.72 112.03q0-.384.184-.596.183-.211.51-.211.328 0 .512.211.183.212.183.596v.44q0 .395-.183.601-.184.206-.511.206-.328 0-.511-.206t-.183-.6zm.695 1.027q.228 0 .341-.155.116-.158.116-.449v-.406q0-.271-.116-.438-.113-.166-.341-.166-.229 0-.344.166-.113.167-.113.438v.406q0 .29.113.449.115.155.344.155zm2.106-1.219h.22v1.4h-.22v-.254h-.034q-.067.135-.178.214-.11.08-.279.08-.116 0-.214-.04-.096-.037-.167-.113-.068-.076-.107-.19-.037-.112-.037-.262v-.835h.22v.807q0 .22.09.322.09.101.277.101.2 0 .313-.135.116-.138.116-.367zm.679 0h.44v-.576h.22v.576h.542v.203h-.542v.909q0 .085.076.085h.398v.203h-.477q-.096 0-.158-.062-.06-.062-.06-.158v-.977h-.44zm1.688 1.18h.17v-1.536h-.17v-.22h.799q.14 0 .248.04.11.04.184.107.076.068.112.164.04.093.04.203v.034q0 .082-.025.15-.026.067-.071.12-.045.054-.107.094-.06.036-.13.056v.034q.141.04.237.153.096.11.096.27v.034q0 .11-.04.206-.036.093-.112.164-.074.068-.184.107-.107.04-.248.04h-.799zm.406 0h.376q.166 0 .27-.082.105-.085.105-.232v-.016q0-.153-.099-.24-.098-.09-.268-.09h-.384zm0-.88h.384q.17 0 .268-.088.1-.088.1-.24v-.017q0-.144-.105-.226-.105-.085-.271-.085h-.376z" aria-label="OutB" style="fill:#fff;fill-opacity:1;stroke-width:.264583"/>
    </g>
  </g>
</svg>
