<?xml version="1.0" encoding="UTF-8" standalone="no"?>
<svg
   xmlns:osb="http://www.openswatchbook.org/uri/2009/osb"
   xmlns:dc="http://purl.org/dc/elements/1.1/"
   xmlns:cc="http://creativecommons.org/ns#"
   xmlns:rdf="http://www.w3.org/1999/02/22-rdf-syntax-ns#"
   xmlns:svg="http://www.w3.org/2000/svg"
   xmlns="http://www.w3.org/2000/svg"
   xmlns:xlink="http://www.w3.org/1999/xlink"
   xmlns:sodipodi="http://sodipodi.sourceforge.net/DTD/sodipodi-0.dtd"
   xmlns:inkscape="http://www.inkscape.org/namespaces/inkscape"
   width="30.48mm"
   height="128.5mm"
   viewBox="0 0 30.479999 128.5"
   version="1.1"
   id="svg8"
   inkscape:version="1.0.1 (3bc2e813f5, 2020-09-07)"
   sodipodi:docname="Resolve.svg"
   enable-background="new">
  <defs
     id="defs2">
    <marker
       inkscape:stockid="DiamondL"
       orient="auto"
       refY="0.0"
       refX="0.0"
       id="DiamondL"
       style="overflow:visible"
       inkscape:isstock="true">
      <path
         id="path1118"
         d="M 0,-7.0710768 L -7.0710894,0 L 0,7.0710589 L 7.0710462,0 L 0,-7.0710768 z "
         style="fill-rule:evenodd;stroke:#404040;stroke-width:1pt;stroke-opacity:1;fill:#404040;fill-opacity:1"
         transform="scale(0.8)" />
    </marker>
    <marker
       inkscape:stockid="Arrow1Mstart"
       orient="auto"
       refY="0.0"
       refX="0.0"
       id="Arrow1Mstart"
       style="overflow:visible"
       inkscape:isstock="true">
      <path
         id="path1045"
         d="M 0.0,0.0 L 5.0,-5.0 L -12.5,0.0 L 5.0,5.0 L 0.0,0.0 z "
         style="fill-rule:evenodd;stroke:#404040;stroke-width:1pt;stroke-opacity:1;fill:#404040;fill-opacity:1"
         transform="scale(0.4) translate(10,0)" />
    </marker>
    <linearGradient
       id="linearGradient1795"
       osb:paint="solid">
      <stop
         style="stop-color:#000000;stop-opacity:1;"
         offset="0"
         id="stop1793" />
    </linearGradient>
    <linearGradient
       id="linearGradient7269"
       osb:paint="solid">
      <stop
         style="stop-color:#000000;stop-opacity:1;"
         offset="0"
         id="stop7267" />
    </linearGradient>
    <linearGradient
       id="linearGradient6416"
       inkscape:collect="always">
      <stop
         id="stop6412"
         offset="0"
         style="stop-color:#30e0b0;stop-opacity:1" />
      <stop
         id="stop6414"
         offset="1"
         style="stop-color:#409880;stop-opacity:1" />
    </linearGradient>
    <linearGradient
       inkscape:collect="always"
       id="linearGradient968">
      <stop
         style="stop-color:#30e0b0;stop-opacity:1"
         offset="0"
         id="stop964" />
      <stop
         style="stop-color:#409880;stop-opacity:1"
         offset="1"
         id="stop966" />
    </linearGradient>
    <linearGradient
       id="linearGradient926"
       inkscape:collect="always">
      <stop
         id="stop922"
         offset="0"
         style="stop-color:#30e0b0;stop-opacity:1" />
      <stop
         id="stop924"
         offset="1"
         style="stop-color:#409880;stop-opacity:0;" />
    </linearGradient>
    <linearGradient
       inkscape:collect="always"
       id="linearGradient4624">
      <stop
         style="stop-color:#409880;stop-opacity:1"
         offset="0"
         id="stop4620" />
      <stop
         style="stop-color:#409880;stop-opacity:0;"
         offset="1"
         id="stop4622" />
    </linearGradient>
    <inkscape:perspective
       sodipodi:type="inkscape:persp3d"
       inkscape:vp_x="-0.52916667 : 65.8375 : 1"
       inkscape:vp_y="0 : 1000 : 0"
       inkscape:vp_z="31.220833 : 67.689583 : 1"
       inkscape:persp3d-origin="25.4 : 42.833333 : 1"
       id="perspective3717" />
    <linearGradient
       inkscape:collect="always"
       xlink:href="#linearGradient4624"
       id="linearGradient4630"
       x1="15.44"
       y1="285.34"
       x2="15.44"
       y2="190.98956"
       gradientUnits="userSpaceOnUse"
       gradientTransform="matrix(1,0,0,0.98990457,-3.7997961e-7,1.0906062)" />
    <linearGradient
       inkscape:collect="always"
       xlink:href="#linearGradient926"
       id="linearGradient920"
       x1="15.455564"
       y1="180.33466"
       x2="15.455564"
       y2="283.68228"
       gradientUnits="userSpaceOnUse" />
    <linearGradient
       inkscape:collect="always"
       xlink:href="#linearGradient968"
       id="linearGradient970"
       x1="15.715448"
       y1="180.44376"
       x2="15.455504"
       y2="283.6825"
       gradientUnits="userSpaceOnUse" />
    <linearGradient
       inkscape:collect="always"
       xlink:href="#linearGradient6416"
       id="linearGradient6410"
       x1="14.979761"
       y1="14.090852"
       x2="15.44"
       y2="115.04999"
       gradientUnits="userSpaceOnUse" />
  </defs>
  <sodipodi:namedview
     id="base"
     pagecolor="#ffffff"
     bordercolor="#666666"
     borderopacity="1.0"
     inkscape:pageopacity="0.0"
     inkscape:pageshadow="2"
     inkscape:zoom="2.8284271"
     inkscape:cx="108.50131"
     inkscape:cy="197.41223"
     inkscape:document-units="mm"
     inkscape:current-layer="layer3"
     showgrid="true"
     inkscape:lockguides="true"
     showguides="false"
     inkscape:window-width="2560"
     inkscape:window-height="1369"
     inkscape:window-x="-8"
     inkscape:window-y="-8"
     inkscape:window-maximized="1"
     objecttolerance="11"
     guidetolerance="20"
     gridtolerance="10"
     inkscape:snap-perpendicular="true"
     inkscape:snap-tangential="true"
     inkscape:snap-object-midpoints="true"
     inkscape:snap-center="true"
     inkscape:snap-intersection-paths="true"
     inkscape:object-paths="true"
     inkscape:snap-bbox="true"
     inkscape:snap-bbox-edge-midpoints="true"
     inkscape:snap-global="true"
     inkscape:document-rotation="0">
    <inkscape:grid
       type="xygrid"
       id="grid7345"
       units="mm"
       spacingx="0.25"
       spacingy="0.25"
       enabled="true"
       dotted="false" />
  </sodipodi:namedview>
  <metadata
     id="metadata5">
    <rdf:RDF>
      <cc:Work
         rdf:about="">
        <dc:format>image/svg+xml</dc:format>
        <dc:type
           rdf:resource="http://purl.org/dc/dcmitype/StillImage" />
        <dc:title />
      </cc:Work>
    </rdf:RDF>
  </metadata>
  <g
     inkscape:label="BG"
     inkscape:groupmode="layer"
     id="layer1"
     transform="translate(0,-168.5)"
     style="display:inline"
     sodipodi:insensitive="true">
    <rect
       id="rect26-0"
       width="30.48"
       height="128.5"
       x="0.2"
       y="168.49998"
       style="display:inline;fill:#404040;fill-opacity:1;stroke-width:0.42674565" />
    <rect
       style="display:inline;fill:url(#linearGradient4630);fill-opacity:1;stroke-width:0.36381963"
       y="190.15207"
       x="0.19999963"
       height="93.397919"
       width="30.48"
       id="rect4596" />
    <g
       aria-label="RAGE"
       style="font-style:normal;font-variant:normal;font-weight:normal;font-stretch:normal;font-size:19.7555542px;line-height:1.25;font-family:Ravie;-inkscape-font-specification:Ravie;letter-spacing:0px;word-spacing:0px;display:inline;fill:#a0dc28;fill-opacity:1;stroke:none;stroke-width:0.26458332"
       id="text5750">
      <path
         d="m 6.2209459,291.83604 c 0,0.0113 0,0.0226 -0.011289,0.0339 l 0.022578,-0.0226 v 0.0113 c 0.022578,-0.1016 0.045156,-0.15804 0.056444,-0.19191 0.2483556,-0.59831 0.5531556,-1.24177 0.9256889,-1.94169 h 0.022578 v -0.0226 l -0.011289,0.0113 c 0.4628445,-0.86925 0.9482667,-1.524 1.4675556,-1.98685 L 9.3818346,287.106 c 0.1354667,-0.15804 0.2032,-0.28222 0.2032,-0.38382 0,-0.14676 -0.1467556,-0.22578 -0.4515556,-0.22578 -0.4854222,0 -1.0047111,0.3048 -1.5691555,0.92569 l 0.2709333,-0.99342 c -0.033867,-0.36125 -0.1806222,-0.54187 -0.4176889,-0.54187 -0.1016,0 -0.2144889,0.0452 -0.3273778,0.12418 l -0.3273777,0.3048 c -1.4788445,1.37724 -2.5964445,2.07716 -3.3753778,2.08844 -0.2935111,0 -0.4741334,-0.0451 -0.5418667,-0.13546 0.1467556,0.16933 0.4064,0.24835 0.7676444,0.24835 0.7337778,0 1.7610667,-0.42897 3.0818667,-1.27564 v 0.0113 c -0.1919111,0.48542 -0.5644444,1.60302 -1.1176,3.3528 l -0.1919111,0.55315 c -0.011289,0.0564 -0.033867,0.11289 -0.056444,0.15805 l -0.090311,0.25964 -0.022578,0.16934 c 0,0.0677 0,0.11288 0.011289,0.13546 0.033867,-0.079 0.056444,-0.11289 0.079022,-0.11289 h 0.045155 c -0.033867,0.1016 -0.079022,0.15805 -0.1128888,0.16934 0.011289,0.0113 0.011289,0.0113 0.011289,0.0226 0,0.0113 0,0.0113 0.011289,0.0226 h 0.067733 v -0.0677 h 0.045155 c 0.033867,0.0113 0.045156,0.0226 0.045156,0.0452 l -0.067733,0.0226 c 0,0.0339 0.022578,0.0452 0.067733,0.0452 v 0.0452 h -0.1016 c 0.056444,0.12418 0.1919111,0.18063 0.4289778,0.18063 0.033867,0 0.056444,0 0.067733,-0.0113 -0.079022,-0.0452 -0.1580445,-0.079 -0.2596445,-0.1016 0,0.0339 -0.011289,0.0451 -0.045155,0.0451 h -0.022578 v -0.0226 c 0,-0.0903 0.056445,-0.2032 0.1806222,-0.34995 l -0.067733,0.23707 c 0.1016,0.0677 0.2032,0.12417 0.3048,0.16933 l 0.067733,-0.0339 c 0.1241778,-0.0564 0.2032,-0.14675 0.2483556,-0.29351 l -0.011289,-0.0226 h -0.022578 c -0.033867,0 -0.045155,-0.0113 -0.045155,-0.0451 l 0.067733,-0.0226 z m -0.2935111,-0.51929 -0.022578,0.0677 0.056444,0.0226 0.067733,-0.0226 c 0,0.0339 -0.033867,0.0452 -0.090311,0.0452 0,0.0113 0.011289,0.0113 0.022578,0.0113 0,0.0452 -0.022578,0.0677 -0.056444,0.0677 v 0.0451 c 0.033867,0 0.056444,0.0113 0.056444,0.0452 l -0.079022,-0.0226 -0.022578,0.0452 c 0.011289,0 0.022578,0.0113 0.022578,0.0226 -0.1467555,0.0226 -0.2257778,0.0451 -0.2257778,0.0677 -0.1016,-0.0452 -0.1693333,-0.1016 -0.2144888,-0.18062 0.011289,0 0.011289,-0.0113 0.011289,-0.0226 -0.022578,0 -0.033867,-0.0113 -0.033867,-0.0452 0.022578,0 0.033867,-0.0113 0.033867,-0.0226 -0.022578,-0.0564 -0.045155,-0.0903 -0.056444,-0.1016 0.011289,-0.0113 0.011289,-0.0113 0.022578,-0.0113 0.011289,0 0.011289,0 0.022578,-0.0113 l 0.022578,-0.0113 c 0.1016,-0.0564 0.1806223,-0.079 0.2370667,-0.079 z m 2.8222222,-2.67547 c 0,0.1016 -0.056444,0.19191 -0.1806222,0.27093 l 0.1128889,-0.0226 v 0.0677 h -0.045156 v 0.0452 c 0.1016,0.0452 0.1693334,0.0677 0.1919111,0.0677 l -0.022578,0.21449 0.045155,-0.0226 c 0,-0.0113 -0.011289,-0.0226 -0.022578,-0.0226 0.033867,-0.0677 0.045156,-0.12418 0.045156,-0.16933 h 0.045156 l 0.022578,0.1016 h 0.022578 c 0,-0.0226 0.011289,-0.0677 0.022578,-0.14676 h 0.022578 v 0.0452 h 0.067733 c 0,-0.0226 -0.011289,-0.0339 -0.045156,-0.0452 0.033867,-0.0564 0.056444,-0.12417 0.067733,-0.22577 -0.022578,0 -0.033867,-0.0113 -0.045156,-0.0452 v -0.0226 c 0.056445,0 0.090311,-0.0226 0.090311,-0.0677 v -0.0226 h -0.067733 l -0.090311,0.0452 v -0.0452 l -0.2032,0.0226 z m 0.5418667,1.70462 c -0.067733,0.0339 -0.1016,0.0565 -0.1016,0.0903 0.033867,0 0.056444,0.0452 0.079022,0.14676 0.011289,0 0.022578,-0.0113 0.022578,-0.0226 0.011289,0 0.022578,0.0113 0.022578,0.0226 0.045155,-0.0452 0.079022,-0.0677 0.090311,-0.0677 v -0.1016 c -0.022578,-0.0452 -0.045156,-0.0677 -0.067733,-0.0677 z m -3.4318223,1.88525 c -0.022578,0 -0.033867,0 -0.045155,0.0113 0.079022,0.0564 0.1241778,0.11289 0.1580444,0.14675 h 0.045156 c 0.033867,-0.0339 0.079022,-0.0451 0.1467555,-0.0451 v -0.0226 c -0.022578,0 -0.045155,-0.0113 -0.079022,-0.0452 h -0.067733 v -0.0226 c -0.011289,-0.0113 -0.022578,-0.0113 -0.056445,-0.0226 l -0.056444,-0.0113 c -0.011289,0.0113 -0.022578,0.0113 -0.045156,0.0113 z m -0.5983111,-0.24836 c -0.022578,-0.0226 -0.033867,-0.0564 -0.033867,-0.1016 l -0.022578,0.0339 H 5.0694792 v 0.0226 c 0,0.0339 0.033867,0.0564 0.1128889,0.0677 0,0.0339 -0.011289,0.0452 -0.045155,0.0452 0,0.0226 0.022578,0.0452 0.079022,0.0677 0.056444,-0.0339 0.090311,-0.0452 0.1016,-0.0452 0,-0.0113 0,-0.0113 -0.011289,-0.0226 z m 4.0527112,0.0564 0.045155,0.0677 c 0.090311,-0.0452 0.1354667,-0.0903 0.1354667,-0.13547 l -0.022578,-0.0451 c -0.011289,0 -0.022578,0.0113 -0.022578,0.0226 -0.033867,0 -0.045155,-0.0226 -0.045155,-0.0565 -0.033867,0.0226 -0.056445,0.0339 -0.090311,0.0339 z m -1.6707556,0.0677 c 0.033867,0 0.045156,-0.0113 0.045156,-0.0452 l 0.045155,0.0226 c 0,-0.0226 0.011289,-0.0564 0.045156,-0.11289 l -0.067733,-0.0564 c -0.090311,0.0339 -0.1354666,0.0564 -0.1354666,0.079 z m 0.3951111,-0.0677 c 0,0.0113 -0.011289,0.0226 -0.022578,0.0226 0,0.0113 0.011289,0.0226 0.022578,0.0226 0,0.0113 -0.011289,0.0226 -0.022578,0.0226 0,0.0339 0.011289,0.0452 0.045156,0.0452 h 0.067733 v -0.0903 z m 1.4111111,-1.36596 c 0,0.0339 0.011289,0.0452 0.045156,0.0452 0.045155,-0.0226 0.067733,-0.0452 0.067733,-0.0677 v -0.0226 l -0.090311,-0.0226 z m -4.7300444,1.14018 -0.2257778,0.0451 h 0.3048 v -0.0226 c -0.022578,0 -0.045156,-0.0113 -0.079022,-0.0452 z m 4.8655111,-0.37253 -0.022578,0.0677 0.067733,0.0226 c 0.022578,0 0.033867,-0.0226 0.045156,-0.0677 v -0.0226 z m -5.1590222,0.28222 h 0.067733 v -0.0226 h -0.067733 c 0,-0.0226 -0.033867,-0.0452 -0.090311,-0.0677 h -0.079022 v 0.0226 c 0.033867,0 0.067733,0.0113 0.1241778,0.0452 h 0.045156 z m 0.3838222,-2.68676 c 0.022578,0.0452 0.045155,0.0677 0.067733,0.0677 h 0.022578 c 0.033867,0 0.045155,-0.0113 0.045155,-0.0452 v -0.0226 z m 0.6434666,0.2032 c 0,0.0339 0.045156,0.0564 0.1467556,0.0677 -0.022578,-0.0452 -0.045156,-0.0677 -0.067733,-0.0677 z M 4.9678792,289.1267 h 0.1016 c 0,0.0226 0.045156,0.0452 0.1354667,0.0677 h 0.022578 v -0.0226 c -0.033867,0 -0.079022,-0.0113 -0.1354667,-0.0452 L 4.9678794,289.104 Z m 3.0254223,2.82223 -0.022578,0.0677 c 0.011289,0 0.022578,0.0113 0.022578,0.0226 l 0.067733,-0.0226 v -0.0226 c 0,-0.0226 -0.011289,-0.0339 -0.045156,-0.0451 z m -2.5400001,-2.70934 c 0,-0.0226 -0.011289,-0.0339 -0.045155,-0.0452 h -0.022578 c -0.022578,0 -0.033867,0.0113 -0.045156,0.0452 l 0.067733,0.0226 z m -0.079022,2.34809 h 0.022578 c 0.033867,0.0113 0.045156,0.0226 0.045156,0.0452 0,0.0339 -0.011289,0.0452 -0.045156,0.0452 h -0.022578 z m 4.5607111,-0.31609 c 0.033867,0 0.045156,-0.0113 0.045156,-0.0451 0,-0.0226 -0.011289,-0.0339 -0.045156,-0.0452 -0.011289,0 -0.022578,0.0113 -0.033867,0.0226 z m -5.0687111,0.63218 h 0.090311 c 0,-0.0226 -0.011289,-0.0339 -0.045155,-0.0452 h -0.045156 v -0.0226 h -0.045155 v 0.0226 h 0.045155 z m 0.9031111,-0.16933 v 0.0226 c 0,0.0339 -0.011289,0.0452 -0.045156,0.0452 h -0.045156 c 0,-0.0226 0.022578,-0.0452 0.067733,-0.0677 z m 3.2173334,-2.40454 h 0.045155 l -0.022578,-0.0903 h -0.045156 z m -4.3349334,2.58516 c 0,0.0339 0.011289,0.0452 0.045156,0.0452 h 0.079022 l -0.022578,-0.0452 -0.033867,0.0226 -0.067733,-0.0339 z m 3.2737778,0 c 0,0.0226 0.011289,0.0339 0.045156,0.0339 l 0.045156,-0.0226 c 0,-0.0113 -0.011289,-0.0226 -0.045156,-0.0339 h -0.045156 z m 2.1900447,-0.0903 c 0,0.0339 0.01129,0.0451 0.04515,0.0451 l 0.03387,-0.0226 c 0,-0.0226 -0.01129,-0.0339 -0.03387,-0.0452 z m -0.7563558,-2.2352 c 0,0.0339 0.011289,0.0452 0.045156,0.0452 v -0.0677 H 9.359257 Z m 0.5983111,2.07715 c -0.022578,0 -0.033867,0.0113 -0.045155,0.0452 l 0.067733,0.0226 z m -4.4929778,5.588 H 5.622635 l -0.090311,-0.0226 H 5.464591 Z m -0.9708444,0.0677 H 4.606635 v -0.0226 H 4.4937459 Z m 1.1966222,-8.01511 c 0,0.0226 0.011289,0.0339 0.045156,0.0339 h 0.045155 c 0,-0.0113 -0.011289,-0.0226 -0.045155,-0.0339 z m 1.3885333,0.39511 0.1016,0.0226 -0.1016,0.0226 z m -1.0611555,2.57386 h -0.045156 v 0.0452 h 0.045156 z m -0.2032,-0.58702 v 0.0452 c -0.033867,0 -0.045156,-0.0113 -0.045156,-0.0452 z m -0.1919111,-0.0564 c 0.033867,0 0.045155,-0.0113 0.045155,-0.0452 H 5.622635 Z m 3.8043555,-1.19663 h 0.045156 v -0.0226 h -0.045156 z m -0.6434666,-1.06115 h 0.045155 v -0.0226 h -0.045155 z m 0.2032,0 h 0.045155 v -0.0226 h -0.045155 z m -3.5672889,2.46098 h 0.022578 v 0.0451 H 5.419435 Z m 0.2257778,-2.11103 0.090311,-0.0226 h -0.090311 z m -0.6660445,0 h 0.045156 v -0.0226 h -0.045156 z m 0.1580445,2.1336 h 0.045155 v -0.0226 H 5.1372128 Z M 7.5869017,286.598 c -0.011289,0.0339 -0.033867,0.0452 -0.067733,0.0565 z m -2.6077334,5.31707 0.067733,-0.0113 h -0.067733 z m 4.9106667,-0.69991 0.011289,-0.0113 -0.011289,-0.0452 z m -4.6284445,0.28222 0.022578,-0.0677 z"
         style="font-style:normal;font-variant:normal;font-weight:500;font-stretch:normal;font-size:11.28888893px;font-family:'Unfolding Tragedy';-inkscape-font-specification:'Unfolding Tragedy Medium';fill:#a0dc28;fill-opacity:1;stroke-width:0.26458332"
         id="path6234"
         inkscape:connector-curvature="0" />
      <path
         d="m 13.291318,291.47479 c -0.3048,0.0677 -0.508,0.1016 -0.6096,0.1016 -0.191911,-0.0339 -0.327378,-0.12418 -0.4064,-0.29351 -0.09031,-0.2032 -0.169333,-0.63218 -0.225778,-1.29822 -0.01129,-0.0339 -0.01129,-0.1016 -0.01129,-0.19191 l 0.01129,-0.18062 c 0,-0.11289 -0.01129,-0.24836 -0.03387,-0.4064 l -0.02258,-0.11289 c -0.04516,-0.14676 -0.112889,-0.25965 -0.214489,-0.32738 0.225778,-0.59831 0.338667,-1.016 0.338667,-1.23049 v -0.0903 c 0,-0.19191 -0.03387,-0.38382 -0.1016,-0.55316 -0.09031,-0.2032 -0.214489,-0.3048 -0.361245,-0.3048 -0.07902,0 -0.124177,0.0113 -0.158044,0.0452 l -0.158045,0.12418 -0.191911,0.19191 c -0.530577,0.53058 -1.140177,1.30951 -1.8062219,2.31422 -0.6321778,1.04987 -0.9482667,1.79493 -0.9482667,2.24649 0,0.21449 0.067733,0.4064 0.1919111,0.56444 0.1128889,0.12418 0.2257778,0.19191 0.3273778,0.19191 0.5305778,0 1.1514667,-0.42897 1.8400887,-1.29822 0,0.0113 -0.01129,0.0452 -0.02258,0.079 l -0.02258,0.079 c -0.248356,0.75635 -0.383823,1.14017 -0.417689,1.17404 0.03387,0 0.214489,-0.39511 0.553155,-1.17404 0.180623,-0.4064 0.338667,-0.69991 0.474134,-0.86925 0.158044,1.43369 0.620889,2.15618 1.399822,2.15618 0.349955,-0.0339 0.666044,-0.13547 0.925689,-0.3048 0.282222,-0.18062 0.417689,-0.38382 0.417689,-0.59831 0,-0.079 -0.04516,-0.12418 -0.135467,-0.12418 -0.112889,0 -0.327378,0.0339 -0.632178,0.0903 z m -3.217333,-1.85138 -0.079022,-0.0226 c 0.587022,-0.90311 1.128889,-1.64818 1.636889,-2.24649 0.01129,0.0113 0.01129,0.0451 0.01129,0.079 0,0.32738 -0.09031,0.76764 -0.259644,1.33209 -0.07902,0.0339 -0.135467,0.1016 -0.169333,0.18062 l -0.158045,0.23707 c -0.722489,1.10631 -1.3433772,1.81751 -1.873955,2.12231 0.3048,-0.74507 0.5418667,-1.26436 0.7112,-1.54658 0.011289,-0.0226 0.022578,-0.0451 0.033867,-0.0564 l 0.146756,-0.0452 v 0.0226 l 0.112889,-0.0565 c 0,0.0226 0.01129,0.0339 0.03387,0.0339 v -0.0339 c 0,-0.0226 -0.02258,-0.0451 -0.05644,-0.0564 h -0.09031 z m -1.4224002,-4.17688 -0.3160889,-0.0226 -0.022578,0.0339 c -0.1467556,0 -0.2709334,0.12418 -0.3951111,0.38383 0.079022,0.0452 0.1467555,0.0677 0.1806222,0.0677 0.1016,0 0.2822222,-0.0677 0.5305778,-0.2032 0,-0.079 0.045155,-0.14676 0.1467555,-0.22578 v -0.0339 c 0,-0.0226 -0.011289,-0.0339 -0.045155,-0.0452 h -0.022578 z m 0.7224889,2.35937 c -0.067733,-0.0113 -0.1354666,-0.0339 -0.2144889,-0.079 l 0.022578,-0.19191 h -0.022578 l -0.033867,0.19191 c 0,0.0339 0.033867,0.0564 0.1128889,0.0903 h -0.079022 c -0.045155,0.0226 -0.067733,0.0452 -0.067733,0.0677 v 0.0226 l 0.079022,0.0226 c 0,-0.0113 0.056444,-0.0339 0.1580445,-0.0677 0,-0.0113 0,-0.0113 -0.011289,-0.0226 0.011289,0.0113 0.022578,0.0113 0.045155,0.0113 0.022578,0 0.033867,0 0.045156,0.0113 0,-0.0113 0.011289,-0.0226 0.022578,-0.0226 h 0.090311 l 0.056444,0.0226 V 287.806 H 9.4643848 v -0.0226 z m -0.8579555,-2.88995 c -0.079022,0.0564 -0.1128889,0.0903 -0.1128889,0.12418 l 0.022578,0.0452 c 0.079022,0 0.1580444,-0.0452 0.2257777,-0.14675 v -0.0226 l -0.067733,0.0226 z m 0.045155,1.87395 -0.090311,-0.0226 c -0.079022,0 -0.1354667,0.0339 -0.1806222,0.1016 0,0.0339 0.011289,0.0452 0.045155,0.0452 h 0.067733 c 0.079022,-0.0677 0.1354666,-0.1016 0.1580444,-0.1016 z m 0.6773334,2.96898 0.1467555,0.0113 v -0.0339 c 0.090311,0 0.2144889,-0.0226 0.3838222,-0.0564 v 0.0564 l -0.3160889,0.0564 H 9.2386071 Z m -0.3612445,-2.61902 h 0.056444 v 0.0226 h 0.1693333 v 0.0339 h 0.1919111 v -0.0339 H 9.1031404 v -0.0226 h -0.056444 c -0.022578,-0.0452 -0.045155,-0.0677 -0.067733,-0.0677 -0.011289,0 -0.033867,0.0113 -0.045155,0.0339 h -0.056444 z m -1.1514667,-0.39511 c -0.1467555,0.0451 -0.2257777,0.0903 -0.2257777,0.12418 v 0.0226 c 0.1128889,0 0.1919111,-0.0452 0.2257777,-0.12417 z m -0.2257777,-0.0452 c -0.090311,0.0339 -0.1354667,0.0564 -0.1354667,0.0903 v 0.0452 h 0.022578 c 0.079022,0 0.1241778,-0.0339 0.1354666,-0.0903 z m 1.6030222,0.13547 c 0.079022,0 0.1919111,0.0226 0.3273778,0.079 h 0.090311 v -0.0339 c -0.056445,0 -0.1806222,-0.0226 -0.3612445,-0.079 h -0.056444 z m -1.9078222,-2.98027 c 0,0.0113 -0.045156,0.0565 -0.1354667,0.13547 v 0.0452 c 0.056444,0 0.1128889,-0.0339 0.1580444,-0.11288 v -0.0677 z m 0.6999111,3.00285 c -0.079022,0.0113 -0.1128889,0.0226 -0.1128889,0.0564 v 0.0452 h 0.045155 l 0.090311,-0.0677 z m 0.090311,-3.30765 c -0.079022,0.0113 -0.1128889,0.0226 -0.1128889,0.0565 v 0.0451 h 0.045156 c 0.045155,-0.0226 0.067733,-0.0451 0.067733,-0.0677 z m 1.4224,3.72534 c -0.079022,0.0564 -0.1128889,0.0903 -0.1128889,0.11288 h 0.033867 c 0.056444,-0.0339 0.079022,-0.0564 0.079022,-0.079 z m -0.2032,0.16933 -0.022578,0.0903 h 0.056444 c 0,-0.0339 0.011289,-0.0564 0.033867,-0.0903 z m 0.1241778,-0.22578 c 0.056444,0 0.1016,0.0113 0.1354666,0.0339 l 0.022578,-0.0564 H 9.3289182 Z M 7.759762,286.05609 c -0.011289,0 -0.022578,0.0113 -0.033867,0.0451 l 0.022578,0.0452 c 0.022578,0 0.033867,-0.0113 0.033867,-0.0452 v -0.0451 z m 1.7272,1.19662 h 0.1128889 v -0.0339 H 9.4869626 Z m -2.4496889,0.21449 c -0.022578,0 -0.033867,0.0113 -0.045155,0.0451 v 0.0226 h 0.022578 c 0.033867,0 0.045156,-0.0113 0.045156,-0.0452 v -0.0226 z m 0.2257778,-2.52871 c -0.011289,0 -0.033867,0.0113 -0.045156,0.0339 v 0.0226 h 0.045156 z m 0.6321778,1.60302 c 0.033867,0 0.045156,-0.0113 0.045156,-0.0452 h -0.045156 z m 0.067733,0.88053 c 0.033867,0 0.045156,-0.0113 0.045156,-0.0451 h -0.045156 z m 0.8353778,-0.67733 h 0.056444 v -0.0226 h -0.056444 z m 0.4741333,0.69991 h 0.022578 v -0.0564 h -0.022578 z m -2.4384,-0.94827 c -0.011289,0 -0.022578,0.0113 -0.033867,0.0452 h 0.033867 z m 0.7563556,1.016 h 0.045155 v -0.0226 h -0.045155 z m 1.7949333,2.28036 v -0.0226 l 0.067733,0.0226 z m -1.4675555,-2.92382 h 0.045155 l -0.045155,-0.0113 z"
         style="font-style:normal;font-variant:normal;font-weight:500;font-stretch:normal;font-size:11.28888893px;font-family:'Unfolding Tragedy';-inkscape-font-specification:'Unfolding Tragedy Medium';fill:#a0dc28;fill-opacity:1;stroke-width:0.26458332"
         id="path6236"
         inkscape:connector-curvature="0" />
      <path
         d="m 16.633006,291.81346 c 0,-0.0339 0,-0.0452 -0.01129,-0.0565 0.225778,-0.18062 0.428978,-0.31608 0.598311,-0.41768 0.451555,-0.27094 1.004711,-0.46285 1.648178,-0.58703 1.185333,-0.19191 2.020711,-0.29351 2.517422,-0.29351 0.519289,0 1.061155,0.079 1.6256,0.22578 0.462844,0.12418 0.699911,0.21449 0.699911,0.25964 l 0.01129,-0.0226 c 0,-0.0339 -0.05645,-0.0903 -0.158045,-0.18063 -0.733777,-0.6096 -1.772355,-0.9144 -3.138311,-0.9144 h -0.316089 c -1.524,0 -2.720622,0.29352 -3.612444,0.89183 l 0.214489,-0.65476 0.361244,-0.90311 c 0.146756,-0.34996 0.3048,-0.74507 0.496711,-1.17404 0.01129,-0.0113 0.01129,-0.0226 0.02258,-0.0339 0.316089,-0.69991 0.474134,-1.09502 0.485422,-1.19662 0.01129,-0.2032 -0.05644,-0.38383 -0.191911,-0.55316 -0.124177,-0.16933 -0.270933,-0.24835 -0.440266,-0.24835 -0.282223,0 -0.587023,0.32737 -0.9144,0.99342 -0.124178,-0.1016 -0.282223,-0.15805 -0.474134,-0.15805 -0.327377,0 -0.722489,0.18063 -1.174044,0.55316 -0.349956,0.28222 -0.620889,0.58702 -0.835378,0.89182 h -0.01129 c -0.02258,0 -0.06773,0.0677 -0.146755,0.19191 -0.395111,0.75636 -0.654756,1.45627 -0.767645,2.09974 l -0.02258,0.19191 c -0.03387,0.14675 -0.04516,0.23706 -0.04516,0.27093 -0.01129,0.31609 0.02258,0.59831 0.124178,0.83538 0.124177,0.32738 0.327377,0.48542 0.598311,0.48542 0.316089,0 0.688622,-0.25964 1.128889,-0.76764 h 0.01129 c -0.01129,0.0564 -0.03387,0.23706 -0.06773,0.51928 -0.4064,0.39512 -0.745066,0.74507 -1.027289,1.04987 -2.167466,0.14676 -3.9172441,1.03858 -5.249333,2.68676 -0.1128889,0.19191 -0.1693334,0.34995 -0.1806223,0.46284 -0.011289,0.21449 0.056444,0.37253 0.1919112,0.47413 0.079022,0.0677 0.1580444,0.1016 0.2370666,0.1016 h 0.033867 c 0.056444,0.0226 0.2032,0.0339 0.4628444,0.0339 0.6321778,0 1.1966221,-0.13547 1.6933331,-0.39511 l 0.158044,-0.079 c 0.02258,0 0.124178,-0.0452 0.293512,-0.14676 1.162755,-0.64346 2.190044,-1.49013 3.104444,-2.54 0.1016,0.0113 0.214489,0.0339 0.327378,0.0677 0.01129,0.079 0.01129,0.2032 0.02258,0.36124 l 0.02258,0.39511 c 0.01129,-0.0564 0.1016,-0.28222 0.282223,-0.67733 0.146755,0.0452 0.316088,0.1016 0.508,0.16933 0.801511,0.28222 1.298222,0.41769 1.490133,0.41769 0.07902,0 0.124178,-0.0564 0.124178,-0.15804 0,-0.0452 -0.06773,-0.22578 -0.191911,-0.55316 -0.124178,-0.3048 -0.237067,-0.67733 -0.338667,-1.10631 0,-0.0339 0,-0.0452 -0.01129,-0.0564 l 0.05644,0.36125 c 0.02258,0.16933 0.04516,0.3048 0.05645,0.4064 l 0.146755,0.44027 c 0.01129,0.0339 0.02258,0.0677 0.03387,0.12417 l 0.09031,0.34996 c -0.214489,-0.0677 -0.327378,-0.11289 -0.349955,-0.12418 l -0.959556,-0.4064 c -0.225778,-0.1016 -0.395111,-0.18062 -0.508,-0.23707 l 0.248356,-0.56444 c 0.135466,-0.22578 0.237066,-0.41769 0.293511,-0.56444 l 0.7112,-0.59832 c 0,0.0339 0,0.0452 0.01129,0.0565 z m -1.512711,-2.60773 0.01129,0.0113 c 0.440267,-1.03857 0.790223,-1.55786 1.049867,-1.55786 l -0.124178,0.38382 -0.4064,1.15147 c -0.225777,0.62089 -0.361244,1.00471 -0.4064,1.16275 l -0.3048,0.4064 c -0.180622,0.21449 -0.293511,0.32738 -0.338666,0.32738 l -0.01129,-0.0113 c 0.02258,-0.4064 0.191911,-0.98213 0.496711,-1.73849 l -0.03387,0.0113 -0.02258,-0.0903 z m -4.2672,6.1976 c 0,0.0113 -0.07902,0.0452 -0.237067,0.11288 -0.146756,0.0677 -0.4064,0.14676 -0.7789335,0.24836 0.8466665,-0.80151 1.8965335,-1.41111 3.1496005,-1.85138 -1.162756,1.00471 -1.873956,1.50142 -2.122312,1.50142 z m 3.138311,-3.34152 c -0.04516,-0.0564 -0.06773,-0.11288 -0.07902,-0.16933 0.03387,-0.0903 0.09031,-0.13547 0.158045,-0.13547 0.07902,0.0452 0.124178,0.0677 0.146755,0.0677 l -0.02258,0.0451 h 0.04515 c 0,0.0113 -0.01129,0.0226 -0.02258,0.0226 -0.01129,0.0452 0.01129,0.0677 0.05645,0.0677 v 0.0226 c 0,0.11289 -0.04516,0.16934 -0.124178,0.16934 h -0.04515 c -0.01129,0 -0.02258,-0.0113 -0.02258,-0.0226 l -0.06773,0.0226 0.02258,-0.0677 c -0.01129,0 -0.02258,-0.0113 -0.02258,-0.0226 0.01129,0 0.02258,-0.0113 0.02258,-0.0226 h -0.02258 c 0,0.0113 -0.01129,0.0226 -0.02258,0.0226 z m 2.427111,-3.38666 c 0.01129,0 0.05644,-0.0226 0.112889,-0.0677 0.06773,0.0113 0.1016,0.0339 0.112889,0.0903 -0.01129,0 -0.02258,0.0113 -0.02258,0.0226 0.01129,0 0.02258,0 0.02258,0.0113 -0.05645,0.0339 -0.09031,0.0452 -0.112889,0.0452 0,-0.0113 -0.01129,-0.0226 -0.02258,-0.0226 0,0.0113 -0.01129,0.0226 -0.02258,0.0226 z m -0.722489,2.55129 c 0.03387,-0.0565 0.04515,-0.0903 0.04515,-0.11289 0.03387,0.0339 0.05645,0.0452 0.09031,0.0452 v 0.0903 h -0.09031 z m -2.472267,0.0903 h 0.03387 l 0.05644,0.29351 c -0.03387,0 -0.06773,-0.0903 -0.09031,-0.28222 z m 4.2672,-1.36596 c -0.07902,0.0339 -0.112889,0.0565 -0.112889,0.0903 l 0.02258,0.0677 c 0.05645,-0.0339 0.09031,-0.0677 0.09031,-0.0903 z m -1.377244,0.62089 c 0.07902,0.0113 0.112889,0.0226 0.112889,0.0564 0,0.0339 -0.01129,0.0451 -0.04516,0.0451 h -0.07902 z m -0.970845,-0.84667 0.02258,0.0452 c 0.05645,-0.0113 0.09031,-0.0339 0.1016,-0.0903 l -0.124178,-0.0113 z m -0.05644,-0.38382 c 0.09031,-0.0226 0.135467,-0.0564 0.135467,-0.1016 l -0.09031,-0.0226 c 0,0.0226 0,0.0339 -0.01129,0.0452 z m 3.420533,1.64818 c -0.02258,0 -0.03387,0.0113 -0.04516,0.0452 l -0.01129,0.0451 h 0.09031 l 0.01129,-0.0903 z m -1.377244,-0.41769 h 0.06773 c 0.03387,0.0113 0.04516,0.0226 0.04516,0.0452 l -0.09031,0.0339 -0.02258,-0.0339 z m -3.014134,0.65476 c 0.02258,0 0.1016,-0.0113 0.225778,-0.0339 0,0.0226 -0.05644,0.0452 -0.169333,0.0564 h -0.05644 z m 1.377245,-0.22578 v 0.0113 c -0.146756,0.0226 -0.237067,0.0339 -0.270933,0.0339 l -0.07902,-0.0113 c 0.04516,0 0.158045,-0.0113 0.327378,-0.0339 z m 2.1336,-3.05929 c -0.03387,0 -0.04516,0.0113 -0.05645,0.0452 v 0.0451 h 0.02258 c 0.02258,0 0.03387,-0.0113 0.03387,-0.0451 l 0.01129,-0.0452 z m -4.504267,2.67547 h 0.02258 c 0,0.0113 0.01129,0.0564 0.03387,0.12417 h -0.05645 z m 0.04516,0.23706 h 0.02258 l 0.02258,0.15805 h -0.02258 z m 0.158044,0.93698 h -0.02258 v -0.0226 h 0.02258 v 0.0226 h 0.03387 v 0.0903 h -0.03387 z m -0.869244,-3.72533 h 0.03387 v -0.0564 h -0.03387 l 0.01129,-0.0677 h -0.02258 l -0.01129,0.0677 h 0.02258 z m 0.259644,3.048 h -0.02258 v 0.0677 h 0.02258 z m 0.214489,-1.4224 h 0.02258 l -0.01129,-0.11289 h -0.03387 z m 0.293511,1.524 h 0.03387 c 0,0.0339 0.01129,0.0677 0.02258,0.079 h -0.05645 z m 2.020711,0.21449 H 15.2219 v -0.0339 h 0.02258 v 0.0339 h 0.03387 v 0.0451 h 0.02258 v 0.0339 h -0.02258 v -0.0339 h -0.03387 z m -2.709333,-1.4224 h 0.02258 v 0.0339 h 0.03387 v -0.0339 h -0.02258 c 0.01129,-0.0113 0.02258,-0.0226 0.02258,-0.0339 h -0.05644 z m 4.605867,-1.64818 v 0.0451 h -0.06773 c 0,-0.0339 0.01129,-0.0451 0.04516,-0.0451 z m -4.583289,1.78364 h 0.03387 v -0.079 h -0.03387 z m 0.293511,1.77236 h 0.02258 v -0.0903 h -0.02258 z m -3.2512001,0.88053 0.011289,-0.14675 H 9.588739 Z m 7.6651551,-4.3688 h -0.06773 c 0.01129,-0.0339 0.02258,-0.0451 0.04516,-0.0451 z m -3.544711,0.56445 c 0.03387,0 0.05645,0.0113 0.05645,0.0339 v 0.0113 c -0.03387,0 -0.05645,-0.0113 -0.05645,-0.0339 z m -1.444977,-0.51929 h 0.04516 c -0.01129,-0.0113 -0.02258,-0.0339 -0.02258,-0.0677 h -0.02258 z m 2.765777,2.57386 h 0.07902 v 0.0226 c -0.04516,0 -0.07902,0 -0.09031,0.0113 z m 1.693334,1.14018 c -0.04516,-0.16933 -0.07902,-0.28222 -0.1016,-0.36124 z m -4.007556,-3.23991 h 0.03387 v -0.0564 h -0.03387 z m 2.1336,1.86267 h 0.03387 l 0.01129,-0.0339 h -0.03387 v -0.0339 h -0.02258 v 0.0339 h 0.02258 z m -2.1336,-1.9304 h 0.03387 v -0.0564 h -0.03387 z m 2.359378,0.69991 c 0,0.0339 0.01129,0.0451 0.04515,0.0451 v -0.0451 z m -2.731911,-0.48542 c -0.01129,0.0226 0,0.0339 0.03387,0.0339 l 0.01129,-0.0564 z m 2.054578,0.21449 h 0.04515 c 0,0.0339 -0.01129,0.0452 -0.04515,0.0452 z m -0.835378,1.65946 h -0.04516 c 0,-0.0339 0.01129,-0.0451 0.04516,-0.0451 z m 1.072444,0.18062 -0.146755,0.0339 v -0.0226 z m -1.512711,-0.34995 h 0.05645 c 0,0.0226 -0.02258,0.0339 -0.05645,0.0339 z m 1.885245,1.10631 0.03387,-0.16933 -0.01129,0.14675 z m -1.817512,-0.77893 0.05645,0.0226 c -0.01129,0.0113 -0.01129,0.0113 -0.02258,0.0113 -0.01129,0 -0.01129,0 -0.01129,-0.0113 l -0.02258,0.0452 z m -0.869244,-2.20134 h 0.02258 v -0.0677 h -0.02258 z m 0.428978,0.1016 h 0.02258 v -0.0677 h -0.02258 z m -1.309511,4.04143 h 0.02258 l 0.01129,-0.0677 h -0.02258 z m 1.411111,-3.58987 h 0.02258 v -0.0677 h -0.02258 z m -0.383822,0.14675 h 0.03387 v -0.0451 h -0.03387 z m 0.361244,-0.22577 h 0.04516 c 0.01129,-0.0226 0,-0.0339 -0.03387,-0.0339 z m -1.354667,3.57857 h 0.02258 v -0.0564 h -0.02258 z m 1.095023,-2.73191 h 0.02258 l 0.01129,-0.0564 h -0.02258 z m 2.528711,0.9144 h 0.02258 v 0.0564 h -0.02258 z m -2.223911,-1.61431 h 0.02258 v -0.0564 h -0.02258 z m 2.1336,1.524 -0.112889,0.0226 -0.05645,-0.0113 z m -1.919112,-0.48542 h 0.02258 v -0.0564 h -0.02258 z m -0.282222,1.19662 h 0.03387 v -0.0339 h -0.03387 z m -0.4064,-2.44969 h 0.03387 v -0.0339 h -0.03387 z m -0.925689,3.56729 h 0.02258 v -0.0452 h -0.02258 z m 0.869245,-3.82693 h 0.02258 v -0.0452 h -0.02258 z m -0.06773,-0.48542 h 0.02258 v -0.0452 h -0.02258 z m 0.485423,0.55315 h 0.02258 l 0.01129,-0.0451 h -0.02258 z m 1.603022,2.05458 h 0.04515 v 0.0226 h -0.04515 z m -1.636889,0.18062 h 0.02258 l 0.01129,-0.0452 h -0.02258 z m 1.907822,-0.24835 h 0.07902 l -0.07902,0.0226 z m -1.783644,0.85795 0.02258,0.0113 v -0.0451 h -0.02258 z m 3.872089,0.21449 c 0,0.0565 0.01129,0.13547 0.04516,0.25965 v 0.0339 z m -4.334934,-4.34622 h 0.02258 v -0.0339 h -0.02258 z m 1.275645,1.07244 h 0.02258 v 0.0339 h -0.02258 z m -2.190045,3.90596 h 0.02258 v -0.0339 h -0.02258 z m 2.020711,-4.08658 h 0.02258 v -0.0339 h -0.02258 z m -0.496711,1.17405 h 0.02258 v -0.0339 h -0.02258 z m -0.643466,-0.74507 h 0.02258 v -0.0339 h -0.02258 z m 1.038577,-0.55316 h 0.02258 v -0.0339 h -0.02258 z m -0.09031,-0.11289 h 0.02258 v -0.0339 h -0.02258 z m 0.05645,3.48827 h 0.02258 v 0.0339 h -0.02258 z m -0.587022,-0.38382 h 0.02258 v -0.0339 h -0.02258 z m 1.049866,-2.47227 h 0.03387 l -0.03387,0.0339 z m 1.377245,2.19005 h 0.02258 l -0.03387,0.0452 z m -0.4064,-0.66605 h 0.02258 v -0.0451 z m -0.383823,0.51929 h 0.07902 l -0.07902,0.0113 z m -0.620888,-2.11102 h 0.02258 l -0.03387,0.0339 z m -0.598312,2.00942 h 0.02258 l -0.02258,0.0339 z m -3.8946663,-1.45627 0.022578,-0.0339 h -0.022578 z m 3.4769783,1.94169 0.01129,-0.0564 h -0.01129 z m -0.09031,-0.47413 0.02258,-0.0564 h -0.01129 z m 2.020712,0.98213 0.05644,-0.079 -0.05644,0.0677 z m 0.07902,-1.37724 0.01129,-0.0339 h -0.01129 z m 0.767644,1.37724 h 0.01129 l -0.01129,0.0339 z m -0.643466,-1.23049 h 0.01129 l -0.01129,0.0339 z m -2.415823,-1.14017 0.01129,-0.0226 h -0.01129 z m 4.301067,2.86737 c 0,-0.0226 0,-0.0339 -0.01129,-0.0452 0,0.0226 0,0.0339 0.01129,0.0452 z"
         style="font-style:normal;font-variant:normal;font-weight:500;font-stretch:normal;font-size:11.28888893px;font-family:'Unfolding Tragedy';-inkscape-font-specification:'Unfolding Tragedy Medium';fill:#a0dc28;fill-opacity:1;stroke-width:0.26458332"
         id="path6238"
         inkscape:connector-curvature="0" />
      <path
         d="m 20.606342,292.06181 c -0.440267,0.13547 -0.880533,0.28223 -1.309511,0.42898 -0.598311,0.21449 -1.027289,0.32738 -1.286933,0.32738 -0.282223,0 -0.4064,-0.23707 -0.372534,-0.69991 l 0.02258,-0.23707 c 0.01129,-0.0564 0.02258,-0.13546 0.04516,-0.24835 l 0.2032,-0.82409 c 1.490133,-1.43369 2.269066,-2.58516 2.348089,-3.46569 0.03387,-0.28222 0,-0.54187 -0.1016,-0.77893 -0.135467,-0.3048 -0.349956,-0.45156 -0.632178,-0.45156 -0.485422,0 -1.016,0.58702 -1.569156,1.76107 l -0.225778,0.54186 c -0.620888,1.46756 -0.959555,2.40454 -0.993422,2.81094 l -0.124178,0.56444 c -0.169333,0.13547 -0.327377,0.24836 -0.485422,0.33867 l -0.237066,0.15804 0.237066,-0.13546 c 0.191911,-0.12418 0.349956,-0.21449 0.474134,-0.29352 -0.124178,1.44498 0.293511,2.16747 1.264355,2.16747 0.338667,0 0.7112,-0.0903 1.128889,-0.28222 l 0.485422,-0.21449 c 1.535289,-0.69991 2.381956,-1.08373 2.54,-1.14018 l 0.01129,0.0113 v -0.0226 l 0.06773,0.0226 v -0.0226 l 0.04516,0.0226 0.04516,-0.0226 v 0.0226 l 0.03387,-0.0226 h 0.214489 l 0.04516,0.0226 v -0.0226 c 0.01129,0 0.02258,0.0113 0.02258,0.0226 l 0.04516,-0.0226 0.05644,0.0226 v -0.0226 l 0.09031,0.0226 c 0.01129,-0.0113 0.06773,-0.0226 0.146755,-0.0226 v -0.0226 l -0.06773,-0.0226 c -0.01129,0.0113 -0.02258,0.0226 -0.03387,0.0226 h -0.620889 c 0.677334,-0.22578 1.365956,-0.33867 2.054578,-0.33867 0.553156,0 1.151467,0.11289 1.783644,0.33867 -0.767644,-0.46285 -1.715911,-0.68863 -2.8448,-0.68863 -0.575733,0 -1.185333,0.0677 -1.806222,0.19191 z m -1.061155,-4.59457 c -0.01129,0.1016 -0.03387,0.2032 -0.07902,0.3048 -0.372533,0.86924 -0.824089,1.67075 -1.354666,2.42711 0.519289,-1.55787 0.982133,-2.57387 1.377244,-3.048 0.05645,0.0564 0.06773,0.16933 0.05645,0.31609 z m 6.637866,-1.58045 -0.01129,0.079 -0.135466,0.0903 c -0.07902,0 -0.146756,0.0677 -0.191911,0.19191 l 0.02258,0.0451 c 0,0.0226 -0.01129,0.0339 -0.04516,0.0339 -0.01129,0.0339 0.01129,0.0451 0.05644,0.0451 l -0.01129,0.12418 0.05645,0.1016 c 0.124178,0.0226 0.191911,0.0677 0.180622,0.13547 0.09031,-0.0226 0.180622,-0.11289 0.282222,-0.28222 0.09031,-0.14676 0.158045,-0.22578 0.2032,-0.22578 v -0.0226 h -0.112889 l 0.01129,-0.0451 h 0.04516 l -0.02258,-0.0452 -0.06773,0.0452 h -0.03387 v -0.0452 c -0.146756,-0.0564 -0.214489,-0.1016 -0.214489,-0.12418 l 0.02258,-0.18062 h -0.06773 z m -0.191911,1.60302 c 0.03387,0 0.04516,0.0226 0.04516,0.079 l 0.04516,-0.0226 0.04516,0.0226 0.09031,-0.1016 0.01129,-0.0677 c 0,-0.0339 -0.05645,-0.0451 -0.158045,-0.0564 z m 0.02258,0.27094 -0.02258,0.0677 0.05645,0.0339 0.09031,-0.0113 c -0.03387,-0.0565 -0.05645,-0.0903 -0.07902,-0.0903 z m -8.782756,2.95769 c 0.1016,0.0339 0.2032,0.0452 0.327378,0.0452 v 0.0339 H 17.4003 c 0,-0.0226 -0.01129,-0.0339 -0.02258,-0.0339 v 0.0339 l -0.03387,-0.0339 h -0.112889 z m -0.259644,-0.0564 c 0.1016,0.0339 0.180622,0.0564 0.237067,0.0564 l -0.02258,0.0452 c -0.05645,-0.0339 -0.146756,-0.0452 -0.248356,-0.0452 z m 9.064978,-4.85422 h 0.06773 v -0.0452 c 0,-0.0226 -0.01129,-0.0339 -0.04516,-0.0451 h -0.02258 z m 1.9304,1.36596 0.06773,0.0226 v -0.0677 H 27.9667 Z m -2.573867,-1.25307 c -0.01129,0.0339 0,0.0451 0.03387,0.0451 h 0.02258 l -0.01129,-0.0677 z m 0.564444,6.43467 c 0.03387,0.0452 0.06773,0.0677 0.1016,0.079 0.02258,0 0.03387,0 0.04516,0.0113 -0.01129,0 -0.05644,-0.0226 -0.135467,-0.079 z m 0.225778,0.14675 c 0.01129,-0.0339 -0.01129,-0.0564 -0.05644,-0.0564 h -0.02258 z m 0.237067,-5.83635 h 0.04515 v -0.0452 h -0.04515 z m 0.564444,-0.6096 h 0.04516 v -0.0226 h -0.04516 z"
         style="font-style:normal;font-variant:normal;font-weight:500;font-stretch:normal;font-size:11.28888893px;font-family:'Unfolding Tragedy';-inkscape-font-specification:'Unfolding Tragedy Medium';fill:#a0dc28;fill-opacity:1;stroke-width:0.26458332"
         id="path6240"
         inkscape:connector-curvature="0" />
    </g>
  </g>
  <g
     inkscape:groupmode="layer"
     id="layer5"
     inkscape:label="title"
     style="display:inline"
     sodipodi:insensitive="true">
    <flowRoot
       xml:space="preserve"
       id="flowRoot915"
       style="font-style:normal;font-variant:normal;font-weight:normal;font-stretch:normal;font-size:13.3333px;line-height:1.25;font-family:'SpaceMono Nerd Font';-inkscape-font-specification:'SpaceMono Nerd Font';letter-spacing:0px;word-spacing:0px;fill:#000000;fill-opacity:1;stroke:none"
       transform="scale(0.26458333)"><flowRegion
         id="flowRegion917"><rect
           id="rect919"
           width="9.4488192"
           height="14.173228"
           x="70.866142"
           y="41.574802" /></flowRegion><flowPara
         id="flowPara921" /></flowRoot>
    <text
       id="text937"
       y="9.75"
       x="11.577642"
       style="font-style:normal;font-variant:normal;font-weight:normal;font-stretch:normal;font-size:7.05556px;line-height:0;font-family:'Anonymous Pro for Powerline';-inkscape-font-specification:'Anonymous Pro for Powerline';letter-spacing:0px;word-spacing:0px;fill:#000000;fill-opacity:1;stroke:none;stroke-width:0.264583"
       xml:space="preserve" />
    <g
       aria-label="resolve"
       style="font-style:normal;font-variant:normal;font-weight:normal;font-stretch:normal;font-size:7.05555534px;line-height:10;font-family:'Unfolding Tragedy';-inkscape-font-specification:'Unfolding Tragedy';letter-spacing:0px;word-spacing:0px;fill:#a0dc28;fill-opacity:1;stroke:none;stroke-width:0.26458332"
       id="text959"
       transform="matrix(1.1535296,-0.58114524,0.55330156,1.2115784,-6.1959171,8.8917623)">
      <path
         d="m 6.1998491,4.7284122 c -0.508,1.1994444 -1.1077222,1.7568333 -1.3828889,1.7921111 h -0.042333 c 0,0.00706 0.014111,0.00706 0.042333,0.00706 h 0.028222 c 0.1905,0 0.6208888,-0.1693333 1.0371666,-0.5856111 -0.1693333,0.5715 -0.254,0.8678334 -0.254,0.8748889 L 5.5436824,7.1484677 C 5.4942936,7.3248566 5.4307936,7.4306899 5.4307936,7.6494121 l -0.00706,0.021167 c 0,0.2610556 0.1622778,0.4303889 0.3527778,0.4303889 0.0635,0 0.1552222,-0.014111 0.2046111,-0.0635 l 0.0635,-0.056445 0.1058377,-0.155222 C 6.1998491,7.7481899 6.2421824,7.6776344 6.2704046,7.6141344 6.5314602,7.1837455 7.1100157,5.7514678 7.1664602,5.6668011 7.4910157,4.9965233 7.9214046,4.5802456 8.4435157,4.4744122 h -0.014111 c -0.6067778,0 -1.2135555,0.2963334 -1.7215555,1.0583333 C 6.757238,5.3069678 6.8912935,4.7284122 6.8912935,4.6719678 l 0.00706,-0.042333 c 0.00706,-0.00706 0.00706,-0.014111 0.00706,-0.035278 0,-0.2892778 -0.2116666,-0.3457222 -0.2681111,-0.3457222 -0.1340555,0 -0.2398889,0.0635 -0.2610555,0.1199444 l -0.021167,0.035278 c -0.00706,0.00706 -0.021167,0.035278 -0.042333,0.084667 z M 6.3056824,4.5802456 c 0,-0.00706 0,-0.014111 0.00706,-0.021167 l -0.00706,0.028222 z"
         style="font-style:normal;font-variant:normal;font-weight:normal;font-stretch:normal;font-size:7.05555534px;font-family:'Unfolding Tragedy';-inkscape-font-specification:'Unfolding Tragedy';fill:#a0dc28;fill-opacity:1;stroke-width:0.26458332"
         id="path961"
         inkscape:connector-curvature="0" />
      <path
         d="M 8.39556,7.6917455 C 8.303838,7.5012455 8.2544489,7.2966344 8.2544489,7.0708566 c 0,-0.028222 0.00706,-0.091722 0.014111,-0.1905 C 8.9952822,6.4429122 9.4962266,5.5609678 9.4962266,5.14469 V 5.130579 c 0,-0.2892778 -0.2398889,-0.5644444 -0.5432777,-0.5644444 -0.4586111,0 -0.6985,0.2681111 -0.8537222,0.4586111 l -0.049389,0.077611 c -0.021167,0 -0.0635,0.091722 -0.1411111,0.2822222 -0.1905,0.4586111 -0.2822222,0.9313333 -0.2822222,1.3899444 v 0.1552222 c -0.2751667,0.1905 -0.5715,0.3033889 -0.8960556,0.3245555 H 6.6105045 c -0.091722,0 -0.1693333,-0.00706 -0.2469444,-0.021167 L 6.2506712,7.211967 6.3565045,7.247245 c 0.1481667,0.049389 0.3457222,0.084667 0.5644444,0.084667 0.2469445,0 0.4868333,-0.042333 0.7337778,-0.1340555 0.2257778,1.1500555 1.2065,1.3828888 1.919111,1.6227777 l 0.4021667,0.112889 C 9.9125044,8.905301 9.7855044,8.8488565 9.60206,8.7571343 8.71306,8.2279677 8.6636711,8.1856343 8.39556,7.6917455 Z M 8.4872822,6.03369 c -0.021167,0.021167 -0.035278,0.049389 -0.056444,0.077611 0.0635,-0.254 0.2187222,-0.6561667 0.3316111,-0.7126111 C 8.7201163,5.5821343 8.6072271,5.8502454 8.4872822,6.03369 Z m 1.5451668,2.9209999 h 0.0071 l -0.0635,-0.021167 c 0.028223,0.014111 0.049389,0.021167 0.056445,0.021167 z"
         style="font-style:normal;font-variant:normal;font-weight:normal;font-stretch:normal;font-size:7.05555534px;font-family:'Unfolding Tragedy';-inkscape-font-specification:'Unfolding Tragedy';fill:#a0dc28;fill-opacity:1;stroke-width:0.26458332"
         id="path963"
         inkscape:connector-curvature="0" />
      <path
         d="M 11.347538,7.6846899 C 11.721483,7.254301 11.799094,6.7745233 11.799094,6.09719 c 0,-0.5573889 -0.03528,-1.778 -0.620889,-1.778 h -0.02822 c -0.1905,0.021167 -0.486834,0.2328333 -0.486834,0.381 -0.472722,1.4393333 -0.7126106,2.1589999 -0.7126106,2.1660555 -0.381,0.5150555 -0.6773333,0.9101666 -0.889,1.1853333 -0.1693333,0.127 -0.2892778,0.1975555 -0.3527778,0.2257778 0.0635,-0.014111 0.1905,-0.070556 0.3880556,-0.1552223 0.4092222,-0.049389 1.2064998,-0.6702777 1.8414998,-1.8767777 0.0071,0.1058334 0.01411,0.1975556 0.01411,0.2751667 0,0.4797777 -0.08467,0.7761111 -0.345722,0.9948333 -0.6843888,0.3739444 -1.0230555,0.5926666 -1.0230555,0.6702777 0.00706,0.028222 0.049389,0.042333 0.1340556,0.042333 0.1763888,0 0.5432779,-0.056445 1.1077219,-0.1763889 0.176389,-0.049389 0.345722,-0.1693333 0.522111,-0.3668889 z"
         style="font-style:normal;font-variant:normal;font-weight:normal;font-stretch:normal;font-size:7.05555534px;font-family:'Unfolding Tragedy';-inkscape-font-specification:'Unfolding Tragedy';fill:#a0dc28;fill-opacity:1;stroke-width:0.26458332"
         id="path965"
         inkscape:connector-curvature="0" />
      <path
         d="m 12.113838,6.4923011 c -0.282223,0.8325555 -0.303389,0.9383888 -0.303389,1.1288888 0,0.1622778 0.02822,0.254 0.03528,0.254 v 0.00706 c 0,0.1905 0.296333,0.3245555 0.465666,0.3245555 0.733778,0 1.418167,-1.27 1.418167,-2.617611 0,-0.2469445 -0.0635,-0.5997222 -0.0635,-0.8819444 0.0071,-0.00706 0.02117,-0.00706 0.03528,-0.00706 0.141111,0 0.303388,0.4656667 0.338666,0.4656667 0.02117,-0.00706 0.03528,-0.0635 0.03528,-0.1693334 0,-0.3951111 -0.162278,-0.5926666 -0.409222,-0.5926666 h -0.04233 c -0.01411,-0.056445 -0.02117,-0.098778 -0.02822,-0.1199445 0,0.021167 0.0071,0.0635 0.01411,0.127 -0.479777,0.028222 -1.037166,0.8184445 -1.495777,2.0813889 z m 1.305277,-1.5733889 c 0.07761,-0.098778 0.141112,-0.1622778 0.204612,-0.1975555 -0.02822,1.4252221 -0.797278,2.8645554 -1.255889,2.9209999 0,-0.035278 0.0071,-0.098778 0.03528,-0.2046111 0.261056,-1.1288889 0.6985,-2.0955 1.016,-2.5188333 z m -1.051277,2.7587222 v -0.035278 l 0.0071,0.00706 c 0.0071,0 0.01411,0 0.01411,0.00706 -0.0071,0.014111 -0.01411,0.021167 -0.02117,0.021167 z"
         style="font-style:normal;font-variant:normal;font-weight:normal;font-stretch:normal;font-size:7.05555534px;font-family:'Unfolding Tragedy';-inkscape-font-specification:'Unfolding Tragedy';fill:#a0dc28;fill-opacity:1;stroke-width:0.26458332"
         id="path967"
         inkscape:connector-curvature="0" />
      <path
         d="m 14.576998,6.9015233 c 0.543278,-1.7497778 0.811389,-2.7163888 0.811389,-2.8998333 0,-0.00706 0,-0.014111 -0.0071,-0.021167 0.0071,0 0.01411,-0.035278 0.02822,-0.091722 -0.04233,0.9736667 -0.246945,1.8485555 -0.352778,2.032 0.1905,-0.254 0.769056,-2.0743333 0.790222,-3.6547777 -0.05644,-0.2892778 -0.0635,-0.3951111 -0.261055,-0.3951111 -0.09172,0 -0.197556,0.021167 -0.282222,0.2892778 l -0.08467,0.2610555 c -0.254,0.9031111 -0.381,1.3828889 -0.381,1.4111111 l -0.04233,0.1622778 C 14.682832,4.4885233 14.344165,6.09719 14.245387,6.8239122 14.033721,8.4114121 13.906721,9.286301 13.906721,9.4485788 c 0.04233,-0.254 0.3175,-1.4181667 0.670277,-2.5470555 z"
         style="font-style:normal;font-variant:normal;font-weight:normal;font-stretch:normal;font-size:7.05555534px;font-family:'Unfolding Tragedy';-inkscape-font-specification:'Unfolding Tragedy';fill:#a0dc28;fill-opacity:1;stroke-width:0.26458332"
         id="path969"
         inkscape:connector-curvature="0" />
      <path
         d="m 16.62322,5.8149677 c -0.07761,0.127 -0.246945,0.4515556 -0.416278,0.9031111 V 6.6263566 C 16.171664,6.0478011 16.11522,5.1094122 16.058775,4.4885233 15.995275,4.2909678 15.974109,4.2627456 15.86122,4.2415789 h -0.03528 c -0.134056,0 -0.183445,0.098778 -0.218722,0.1552222 l -0.183445,0.508 c -0.409222,1.1288889 -0.889,2.0884444 -1.171222,2.5117777 -0.03528,0.049389 -0.07056,0.084667 -0.09172,0.1199445 0.423333,-0.4233334 1.023055,-1.2982222 1.509889,-2.3565555 0,0.1834444 0.02822,0.4092222 0.03528,0.6843888 l 0.04233,1.397 c 0.05644,0.7196666 0.02822,0.8748889 0.261055,0.8748889 0.01411,0 0.02117,0 0.02822,-0.00706 h 0.0071 c 0.04939,0 0.141111,-0.049389 0.176389,-0.084667 l 0.05644,-0.070556 c 0.02117,-0.021167 0.0071,-0.021167 0.07761,-0.2187222 0.578555,-1.6439444 1.044222,-2.4059444 1.580444,-2.6740555 l 0.155222,-0.077611 c 0.04939,-0.021167 0.105833,-0.049389 0.155222,-0.077611 0.01411,0 0.02117,0 0.02822,0.00706 l 0.08467,0.049389 c 0.03528,0 0.105834,-0.084667 0.105834,-0.1481666 0,-0.1481667 -0.155223,-0.2892778 -0.373945,-0.2892778 -0.543278,0 -1.107722,0.6138333 -1.467555,1.2699999 z m -2.582334,1.8273889 c 0.0071,0 0.02117,-0.00706 0.03528,-0.021167 -0.01411,0.00706 -0.02822,0.00706 -0.04233,0.00706 v 0.00706 z m 0.04939,-0.035278 -0.01411,0.014111 c 0.0071,-0.00706 0.01411,-0.00706 0.01411,-0.014111 z"
         style="font-style:normal;font-variant:normal;font-weight:normal;font-stretch:normal;font-size:7.05555534px;font-family:'Unfolding Tragedy';-inkscape-font-specification:'Unfolding Tragedy';fill:#a0dc28;fill-opacity:1;stroke-width:0.26458332"
         id="path971"
         inkscape:connector-curvature="0" />
      <path
         d="m 18.785968,7.6917455 c -0.09172,-0.1905 -0.141111,-0.3951111 -0.141111,-0.6208889 0,-0.028222 0.0071,-0.091722 0.01411,-0.1905 C 19.38569,6.4429122 19.886634,5.5609678 19.886634,5.14469 V 5.130579 c 0,-0.2892778 -0.239888,-0.5644444 -0.543277,-0.5644444 -0.458611,0 -0.6985,0.2681111 -0.853723,0.4586111 l -0.04939,0.077611 c -0.02117,0 -0.0635,0.091722 -0.141112,0.2822222 -0.1905,0.4586111 -0.282222,0.9313333 -0.282222,1.3899444 v 0.1552222 c -0.275166,0.1905 -0.5715,0.3033889 -0.896055,0.3245555 H 17.00091 c -0.09172,0 -0.169333,-0.00706 -0.246944,-0.021167 L 16.641077,7.211967 16.74691,7.247245 c 0.148167,0.049389 0.345723,0.084667 0.564445,0.084667 0.246944,0 0.486833,-0.042333 0.733777,-0.1340555 0.225778,1.1500555 1.2065,1.3828888 1.919112,1.6227777 l 0.402166,0.1128889 c -0.0635,-0.028222 -0.1905,-0.084667 -0.373944,-0.1763889 -0.889,-0.5291666 -0.938389,-0.5715 -1.2065,-1.0653888 z M 18.87769,6.03369 c -0.02117,0.021167 -0.03528,0.049389 -0.05644,0.077611 0.0635,-0.254 0.218722,-0.6561667 0.331611,-0.7126111 -0.04233,0.1834444 -0.155223,0.4515555 -0.275167,0.635 z m 1.545167,2.9209999 h 0.0071 l -0.0635,-0.021167 c 0.02822,0.014111 0.04939,0.021167 0.05645,0.021167 z"
         style="font-style:normal;font-variant:normal;font-weight:normal;font-stretch:normal;font-size:7.05555534px;font-family:'Unfolding Tragedy';-inkscape-font-specification:'Unfolding Tragedy';fill:#a0dc28;fill-opacity:1;stroke-width:0.26458332"
         id="path973"
         inkscape:connector-curvature="0" />
    </g>
  </g>
  <g
     inkscape:groupmode="layer"
     id="layer4"
     inkscape:label="cloud"
     style="display:inline"
     sodipodi:insensitive="true">
    <path
       d="m 27.771249,15.974478 c 0.694548,0.236086 1.398216,0.607085 1.951417,1.229763 0.553667,0.622494 0.973894,1.546056 0.871758,2.342783 0.0074,0.03297 0.971556,69.793294 0.08557,95.502966 H 0.2 c 0,0 0.092269,-76.695127 0,-78.921243 -0.090034,-2.173262 0,-7.15599 0,-7.15599 0.7506713,-1.147796 1.2941441,-0.960526 2.6129675,-0.929016 0.3594004,0.0083 0.7439145,0.10993 1.0635817,-0.02852 0.519067,-0.22504 0.6687187,-0.970936 0.8391341,-1.605412 0.8113138,-3.018599 3.3742878,-4.927661 6.1785047,-4.602726 0.280971,0.03266 0.604261,0.06936 0.767495,-0.16857 0.145546,-0.212021 0.09802,-0.551826 0.064,-0.85444 -0.143998,-1.288973 0.114929,-2.603054 0.868559,-3.345787 0.784337,-0.773841 1.955549,-0.692117 2.933905,0.07387 0.906121,-1.299903 1.912155,-3.159717 3.512267,-3.397215 1.426532,-0.211821 3.809119,0.991332 4.323155,2.897238 1.071457,-1.342183 2.73362,-1.60655 4.407685,-1.037705"
       style="display:inline;fill:url(#linearGradient6410);fill-opacity:1;fill-rule:nonzero;stroke:none;stroke-width:0.0284852"
       id="path176"
       inkscape:connector-curvature="0"
       sodipodi:nodetypes="cccccccccccccccccc" />
    <path
       d="m 9.3272932,36.950984 c -0.372679,2.08508 -1.3971821,3.90201 -2.9312966,4.831414 -1.5338842,0.92931 -3.5820228,0.901402 -5.3281581,-0.246289 -0.63259504,-0.41578 -0.38020141,0.0084 -0.86783887,-0.650588 0.40422926,0.161789 -0.38138438,-1.038406 0.025827,-0.963663 1.75419637,0.323958 3.84516347,0.133225 5.07363447,-1.089116 0.9966048,-0.992258 1.6762311,-2.525261 1.4995366,-4.23639 2.0741804,-0.198523 3.5167943,-2.6169 3.1004505,-5.196303 0.8724268,0.404135 1.7861298,0.0097 2.3026208,-0.740994 0.516253,-0.751265 0.697444,-1.794892 0.753354,-2.83701 0.759966,0.948813 0.735217,2.422077 0.221214,3.341014 -0.514112,0.919329 -1.391602,1.418 -2.239302,1.88663 0.473157,1.925716 -0.479815,3.892779 -2.0123859,4.154964 0.228651,0.38231 0.405907,0.793866 0.544998,1.217868 -0.07404,0.15346 -0.109939,0.345086 -0.142657,0.528464"
       style="display:inline;fill:#409880;fill-opacity:1;fill-rule:nonzero;stroke:none;stroke-width:0.0284852"
       id="path178"
       inkscape:connector-curvature="0"
       sodipodi:nodetypes="ccccccccccccccc" />
    <path
       d="m 26.977228,9.4141257 c 2.959083,-0.403847 3.092178,5.0314853 0.866932,5.3465123 -1.399594,0.198273 -0.310884,-0.652416 -0.344001,-1.636654 -0.04096,-1.212499 -2.577847,-3.4293313 -0.522931,-3.7098583"
       style="display:inline;fill:#30e0b0;fill-opacity:1;fill-rule:nonzero;stroke:none;stroke-width:0.0284852"
       id="path182"
       inkscape:connector-curvature="0" />
    <path
       d="m 2.8129675,28.043741 c 0.3594004,0.0083 0.7439145,0.10993 1.0635817,-0.02852 0.519067,-0.22504 0.668599,-0.971236 0.8391341,-1.605412 0.8113138,-3.018599 3.3742878,-4.927661 6.1785047,-4.602726 0.280971,0.03266 0.604261,0.06936 0.767495,-0.16857 0.145546,-0.212021 0.09802,-0.551826 0.064,-0.85444 -0.143998,-1.288973 0.114929,-2.603054 0.868559,-3.345787 0.784337,-0.773841 1.955549,-0.692117 2.933905,0.07387 0.906121,-1.299903 1.912155,-3.159717 3.512267,-3.397215 1.426532,-0.211821 3.809119,0.991332 4.323155,2.897238 1.071457,-1.342183 2.7335,-1.606851 4.407685,-1.037705 0.694548,0.236086 1.398216,0.607085 1.951417,1.229763 0.0693,0.07773 0.135989,0.160345 0.199208,0.246438 -0.05487,-0.01928 -0.10857,-0.03833 -0.165316,-0.05894 -1.284316,-0.468983 -2.543346,-0.623485 -3.754262,-0.303703 -0.388039,0.102231 -3.19103,1.327091 -2.887964,2.08279 -0.710691,-1.773294 -2.565698,-2.769673 -4.016313,-2.457496 -1.450616,0.312178 -2.488002,1.682987 -2.999247,3.298138 -0.519082,-1.196805 -2.036483,-1.234889 -2.645537,-0.346757 -0.609397,0.888617 -0.577866,2.24832 -0.521446,3.506299 C 11.015296,22.786903 9.1189612,23.33567 7.7723482,24.663814 6.4255014,25.992049 5.6447756,28.083341 5.6482235,30.354344 5.1750502,29.971938 4.6103193,29.928676 4.0926793,29.950025 1.9055237,30.040445 1.6222495,29.513521 0.17058956,31.216557 0.53782666,30.340512 -0.29607667,29.73202 0.2,28.972757 0.9506713,27.824961 1.4941441,28.012231 2.8129675,28.043741"
       style="display:inline;fill:#a0dc28;fill-opacity:1;fill-rule:nonzero;stroke:none;stroke-width:0.0284852"
       id="path186"
       inkscape:connector-curvature="0"
       sodipodi:nodetypes="ccccccccccccccccsccccccccc" />
    <path
       d="m 30.679998,21.652069 c -1.588199,-0.05065 -1.422995,1.351857 -1.908398,3.062786 -0.397216,-0.985451 -1.334537,-1.612867 -2.189831,-1.710784 -0.854942,-0.09771 -1.639306,0.24128 -2.347035,0.665542 -1.032259,0.618049 -2.047761,1.632512 -1.967854,3.128905 -0.569555,-1.622334 -1.834529,-2.99075 -3.214443,-3.477056 -1.379917,-0.486306 -2.825533,-0.07317 -3.673518,1.050312 0.06872,-1.662881 1.341119,-2.81167 2.74839,-2.713909 1.407383,0.09737 2.835915,1.287401 3.673626,2.82117 0.332343,-1.481948 1.301511,-2.617862 2.545197,-2.982487 1.243574,-0.364231 2.732564,0.05095 3.909503,1.090854 0.45084,-1.329627 1.27159,-2.434902 2.338789,-3.040378"
       style="display:inline;fill:#a0dc28;fill-opacity:1;fill-rule:nonzero;stroke:none;stroke-width:0.0284852"
       id="path184"
       inkscape:connector-curvature="0"
       sodipodi:nodetypes="cccccscccccc" />
    <path
       d="m 26.977228,9.4141257 c 1.026232,-0.140296 1.711994,0.422825 2.07789,1.2305733 -0.439266,-0.09021 -0.878257,0.132172 -1.039522,0.585001 -0.223133,-0.626374 -0.82921,-1.031102 -1.358356,-1.035873 -0.160462,-0.0016 -0.312608,0.02988 -0.457979,0.08234 -0.09324,-0.4374213 0.06863,-0.7651983 0.777966,-0.8620373"
       style="display:inline;fill:#a0dc28;fill-opacity:1;fill-rule:nonzero;stroke:none;stroke-width:0.0284852"
       id="path196"
       inkscape:connector-curvature="0" />
    <path
       d="M 2.713688,20.243861 C -0.24539503,19.840014 -0.37849003,25.275347 1.846756,25.590374 3.24635,25.788647 2.15764,24.937958 2.190757,23.95372 2.231717,22.741221 4.768604,20.524388 2.713688,20.243861"
       style="display:inline;fill:#30e0b0;fill-opacity:1;fill-rule:nonzero;stroke:none;stroke-width:0.0284852"
       id="path182-1"
       inkscape:connector-curvature="0" />
    <path
       d="M 2.713688,20.243861 C 1.687456,20.103565 1.001694,20.666686 0.63579797,21.474435 1.075064,21.384225 1.514055,21.606607 1.67532,22.059436 c 0.223133,-0.626374 0.82921,-1.031102 1.358356,-1.035873 0.160462,-0.0016 0.312608,0.02988 0.457979,0.08234 0.09324,-0.437422 -0.06863,-0.765199 -0.777966,-0.862038"
       style="display:inline;fill:#a0dc28;fill-opacity:1;fill-rule:nonzero;stroke:none;stroke-width:0.0284852"
       id="path196-2"
       inkscape:connector-curvature="0" />
    <path
       d="m 28.139421,39.35459 c 1.604977,-0.800292 2.675449,-2.546643 2.637963,-4.635848 l -0.01136,-1.057093 c 0,0 -0.749169,-0.901186 -0.903507,-0.517011 -0.663182,1.656001 -1.941365,3.321765 -3.630919,3.707339 -1.37119,0.312464 -3.03019,0.06811 -4.382349,-0.995304 -1.275801,1.647411 -2.449922,1.118868 -4.408081,-0.610951 -0.124384,0.953406 -2.883509,1.311991 -3.794023,1.347617 -0.910869,0.03512 -1.901236,-1.958837 -2.447021,-2.924532 0.06188,1.47773 0.320969,3.756485 1.614238,4.061653 1.385043,0.213794 2.977047,0.196409 3.826035,-0.269884 1.375201,1.428664 3.547159,1.580258 4.587464,0.424715 0.201056,0.397516 0.680377,0.717834 1.369853,1.345143 2.289153,1.12615 3.936528,0.924591 5.541707,0.124156 z"
       style="display:inline;fill:#409880;fill-opacity:1;fill-rule:nonzero;stroke:none;stroke-width:0.0284852"
       id="path178-1"
       inkscape:connector-curvature="0"
       sodipodi:nodetypes="cccccccccccccc" />
  </g>
  <g
     inkscape:groupmode="layer"
     id="layer3"
     inkscape:label="body"
     style="display:inline;opacity:1">
    <rect
       style="fill:#404040;fill-opacity:1;fill-rule:evenodd;stroke-width:0.22786511;paint-order:stroke fill markers"
       width="28.913574"
       height="10.826821"
       x="0.98307294"
       y="103.5"
       id="rect1790"
       rx="1.1466465"
       ry="1.25" />
    <g
       transform="translate(0.0035295,-4e-6)"
       aria-label="CV1"
       style="font-style:normal;font-variant:normal;font-weight:normal;font-stretch:normal;font-size:19.7555542px;line-height:1.25;font-family:'SpaceMono Nerd Font';-inkscape-font-specification:'SpaceMono Nerd Font';letter-spacing:0px;word-spacing:0px;display:inline;fill:#000000;fill-opacity:1;stroke:none;stroke-width:0.26458332"
       id="text894-3" />
    <path
       style="display:inline;fill:none;stroke:#404040;stroke-width:0.294915;stroke-linecap:round;stroke-linejoin:miter;stroke-miterlimit:4;stroke-dasharray:none;stroke-dashoffset:0;stroke-opacity:1"
       d="m 11.25,30.159658 c 0,74.566872 0,74.566872 0,74.566872"
       id="path1020"
       inkscape:connector-curvature="0" />
    <rect
       style="display:inline;opacity:1;fill:#404040;fill-opacity:1;fill-rule:evenodd;stroke-width:0.263496;paint-order:stroke fill markers"
       width="28.75"
       height="7.5"
       x="1.25"
       y="24.162045"
       id="rect1790-7"
       rx="1.25"
       ry="1.25" />
    <text
       xml:space="preserve"
       style="font-style:normal;font-variant:normal;font-weight:normal;font-stretch:normal;font-size:3.52778px;line-height:1.25;font-family:'SpaceMono Nerd Font';-inkscape-font-specification:'SpaceMono Nerd Font';letter-spacing:0px;word-spacing:0px;fill:#000000;fill-opacity:1;stroke:none;stroke-width:0.264583"
       x="2.5"
       y="34.75"
       id="text1997" />
    <text
       xml:space="preserve"
       style="font-style:normal;font-variant:normal;font-weight:normal;font-stretch:normal;font-size:3.52778px;line-height:1.25;font-family:'SpaceMono Nerd Font';-inkscape-font-specification:'SpaceMono Nerd Font';letter-spacing:0px;word-spacing:0px;fill:#000000;fill-opacity:1;stroke:none;stroke-width:0.264583"
       x="3.75"
       y="33.499996"
       id="text2001" />
    <g
       aria-label="Trig"
       style="font-style:normal;font-variant:normal;font-weight:normal;font-stretch:normal;font-size:2.82222px;line-height:1.25;font-family:'SpaceMono Nerd Font';-inkscape-font-specification:'SpaceMono Nerd Font';letter-spacing:0px;word-spacing:0px;fill:#ffffff;fill-opacity:1;stroke:none;stroke-width:0.264583"
       id="text2005"
       transform="translate(0,-11.837955)">
      <path
         d="M 2.9818886,38.499756 H 4.370422 v 0.220133 H 3.7946887 v 1.755422 H 3.557622 V 38.719889 H 2.9818886 Z"
         style="fill:#ffffff;fill-opacity:1;stroke-width:0.264583"
         id="path2153"
         inkscape:connector-curvature="0" />
      <path
         d="m 4.7043702,39.075489 h 0.508 v 0.186267 h 0.033867 q 0.053622,-0.115711 0.1524,-0.169334 0.098778,-0.05644 0.2257777,-0.05644 0.2116667,0 0.3414889,0.138289 0.1298223,0.138289 0.1382889,0.403578 l -0.2314222,0.03387 q 0,-0.194733 -0.093133,-0.2794 -0.093133,-0.08749 -0.2286,-0.08749 -0.087489,0 -0.1524,0.03387 -0.062089,0.03387 -0.1044223,0.09313 -0.042333,0.05927 -0.062089,0.138289 -0.019756,0.07902 -0.019756,0.169334 v 0.592666 h 0.3556 v 0.2032 H 4.6705035 v -0.2032 H 4.9922369 V 39.278689 H 4.7043702 Z"
         style="fill:#ffffff;fill-opacity:1;stroke-width:0.264583"
         id="path2155"
         inkscape:connector-curvature="0" />
      <path
         d="m 6.9433184,38.6578 q 0,-0.08184 0.056445,-0.138289 0.059267,-0.05927 0.1411111,-0.05927 0.081844,0 0.1382889,0.05927 0.059267,0.05644 0.059267,0.138289 0,0.08185 -0.059267,0.141111 -0.056445,0.05645 -0.1382889,0.05645 -0.081844,0 -0.1411111,-0.05645 -0.056445,-0.05927 -0.056445,-0.141111 z M 6.5425629,40.272111 H 7.0336295 V 39.278689 H 6.5933629 v -0.2032 h 0.6604 v 1.196622 h 0.4572 v 0.2032 h -1.1684 z"
         style="fill:#ffffff;fill-opacity:1;stroke-width:0.264583"
         id="path2157"
         inkscape:connector-curvature="0" />
      <path
         d="m 9.2979779,40.260822 h -0.033867 q -0.067733,0.127 -0.1862667,0.191912 -0.1157111,0.06209 -0.254,0.06209 -0.1411111,0 -0.2652889,-0.04798 Q 8.4343779,40.418867 8.3384223,40.328556 8.245289,40.238245 8.1888445,40.1056 8.1352223,39.970133 8.1352223,39.797978 v -0.04516 q 0,-0.169333 0.056444,-0.301977 0.056444,-0.135467 0.1495778,-0.225778 0.093133,-0.09313 0.2173111,-0.141111 0.1241778,-0.04798 0.2596445,-0.04798 0.1524,0 0.2652889,0.06773 0.1157111,0.06491 0.1806222,0.191911 h 0.033867 V 39.07548 h 0.2201333 v 1.744133 q 0,0.09596 -0.062089,0.158045 -0.059267,0.06209 -0.1552222,0.06209 H 8.3892223 v -0.2032 h 0.8325556 q 0.0762,0 0.0762,-0.08467 z m -0.4684889,0.04516 q 0.098778,0 0.1834444,-0.03669 0.084667,-0.03669 0.1467556,-0.104422 0.064911,-0.06773 0.1016,-0.160867 0.036689,-0.09595 0.036689,-0.211667 v -0.03387 q 0,-0.112889 -0.036689,-0.206022 -0.036689,-0.09596 -0.1016,-0.163689 -0.062089,-0.06773 -0.1495778,-0.104423 -0.084667,-0.03951 -0.1806222,-0.03951 -0.098778,0 -0.1862667,0.03669 -0.084667,0.03669 -0.1495778,0.104422 -0.062089,0.06773 -0.098778,0.160867 -0.033867,0.09313 -0.033867,0.206022 v 0.04516 q 0,0.118533 0.033867,0.211667 0.036689,0.09313 0.098778,0.160866 0.064911,0.06491 0.1495778,0.1016 0.084667,0.03387 0.1862667,0.03387 z"
         style="fill:#ffffff;fill-opacity:1;stroke-width:0.264583"
         id="path2159"
         inkscape:connector-curvature="0" />
    </g>
    <g
       aria-label="InA"
       style="font-style:normal;font-variant:normal;font-weight:normal;font-stretch:normal;font-size:2.82222px;line-height:1.25;font-family:'SpaceMono Nerd Font';-inkscape-font-specification:'SpaceMono Nerd Font';letter-spacing:0px;word-spacing:0px;fill:#ffffff;fill-opacity:1;stroke:none;stroke-width:0.264583"
       id="text2009"
       transform="translate(0,-11.837955)">
      <path
         d="m 13.865708,38.762222 h 1.253066 v 0.220133 h -0.508 v 1.535289 h 0.508 v 0.220134 h -1.253066 v -0.220134 h 0.508 v -1.535289 h -0.508 z"
         style="fill:#ffffff;fill-opacity:1;stroke-width:0.264583"
         id="path2162"
         inkscape:connector-curvature="0" />
      <path
         d="m 15.819612,40.737778 h -0.220134 v -1.399823 h 0.220134 v 0.237067 h 0.03387 q 0.129822,-0.276578 0.451556,-0.276578 0.242711,0 0.386644,0.1524 0.143934,0.149578 0.143934,0.451556 v 0.835378 h -0.220134 v -0.790223 q 0,-0.220133 -0.09878,-0.3302 -0.09878,-0.110066 -0.268111,-0.110066 -0.200377,0 -0.316089,0.138289 -0.112888,0.135466 -0.112888,0.364066 z"
         style="fill:#ffffff;fill-opacity:1;stroke-width:0.264583"
         id="path2164"
         inkscape:connector-curvature="0" />
      <path
         d="m 18.366182,40.246711 h -0.846667 l -0.143933,0.491067 h -0.254 l 0.598311,-1.975556 h 0.445911 l 0.598311,1.975556 h -0.254 z m -0.440267,-1.382889 -0.341489,1.162756 h 0.716845 l -0.341489,-1.162756 z"
         style="fill:#ffffff;fill-opacity:1;stroke-width:0.264583"
         id="path2166"
         inkscape:connector-curvature="0" />
    </g>
    <g
       aria-label="InB"
       style="font-style:normal;font-variant:normal;font-weight:normal;font-stretch:normal;font-size:2.82222px;line-height:1.25;font-family:'SpaceMono Nerd Font';-inkscape-font-specification:'SpaceMono Nerd Font';letter-spacing:0px;word-spacing:0px;fill:#ffffff;fill-opacity:1;stroke:none;stroke-width:0.264583"
       id="text2013"
       transform="translate(0,-11.837955)">
      <path
         d="m 22.617119,38.781978 h 1.253067 v 0.220134 h -0.508 v 1.535289 h 0.508 v 0.220133 h -1.253067 v -0.220133 h 0.508 v -1.535289 h -0.508 z"
         style="fill:#ffffff;fill-opacity:1;stroke-width:0.264583"
         id="path2169"
         inkscape:connector-curvature="0" />
      <path
         d="M 24.571023,40.757534 H 24.35089 v -1.399822 h 0.220133 v 0.237066 h 0.03387 q 0.129822,-0.276577 0.451555,-0.276577 0.242711,0 0.386645,0.1524 0.143933,0.149577 0.143933,0.451555 v 0.835378 H 25.36689 v -0.790222 q 0,-0.220134 -0.09878,-0.3302 -0.09878,-0.110067 -0.268111,-0.110067 -0.200378,0 -0.316089,0.138289 -0.112889,0.135467 -0.112889,0.364067 z"
         style="fill:#ffffff;fill-opacity:1;stroke-width:0.264583"
         id="path2171"
         inkscape:connector-curvature="0" />
      <path
         d="m 25.991527,40.537401 h 0.169333 v -1.535289 h -0.169333 v -0.220134 h 0.798689 q 0.141111,0 0.248355,0.03951 0.110067,0.03951 0.183445,0.107244 0.0762,0.06773 0.112889,0.163689 0.03951,0.09313 0.03951,0.2032 v 0.03387 q 0,0.08184 -0.0254,0.149577 -0.0254,0.06773 -0.07056,0.121356 -0.04515,0.05362 -0.107244,0.09313 -0.05927,0.03669 -0.129823,0.05644 v 0.03387 q 0.141112,0.03951 0.237067,0.1524 0.09596,0.110067 0.09596,0.270934 v 0.03387 q 0,0.110067 -0.03951,0.206023 -0.03669,0.09313 -0.112889,0.163688 -0.07338,0.06773 -0.183445,0.107245 -0.107244,0.03951 -0.248355,0.03951 h -0.798689 z m 0.4064,0 h 0.375355 q 0.166511,0 0.270934,-0.08185 0.104422,-0.08467 0.104422,-0.231422 v -0.01693 q 0,-0.1524 -0.09878,-0.239889 Q 26.951078,39.877 26.781747,39.877 h -0.383822 z m 0,-0.880534 h 0.383822 q 0.169333,0 0.268111,-0.08749 0.09878,-0.08749 0.09878,-0.239888 v -0.01693 q 0,-0.143933 -0.104422,-0.225778 -0.104423,-0.08467 -0.270934,-0.08467 h -0.375355 z"
         style="fill:#ffffff;fill-opacity:1;stroke-width:0.264583"
         id="path2173"
         inkscape:connector-curvature="0" />
    </g>
    <text
       xml:space="preserve"
       style="font-style:normal;font-variant:normal;font-weight:normal;font-stretch:normal;font-size:2.82222px;line-height:1.25;font-family:'SpaceMono Nerd Font';-inkscape-font-specification:'SpaceMono Nerd Font';letter-spacing:0px;word-spacing:0px;fill:#ffffff;fill-opacity:1;stroke:none;stroke-width:0.264583"
       x="2.5"
       y="109.75"
       id="text2021" />
    <g
       aria-label="Trig"
       style="font-style:normal;font-variant:normal;font-weight:normal;font-stretch:normal;font-size:2.82222223px;line-height:1.25;font-family:'SpaceMono Nerd Font';-inkscape-font-specification:'SpaceMono Nerd Font';letter-spacing:0px;word-spacing:0px;fill:#ffffff;fill-opacity:1;stroke:none;stroke-width:0.26458332"
       id="text2025">
      <path
         d="M 2.9818886,110.99976 H 4.370422 v 0.22013 H 3.7946887 v 1.75542 H 3.557622 v -1.75542 H 2.9818886 Z"
         style="fill:#ffffff;fill-opacity:1;stroke-width:0.26458332"
         id="path2176"
         inkscape:connector-curvature="0" />
      <path
         d="m 4.7043702,111.57549 h 0.508 v 0.18627 h 0.033867 q 0.053622,-0.11572 0.1524,-0.16934 0.098778,-0.0564 0.2257777,-0.0564 0.2116667,0 0.3414889,0.13829 0.1298223,0.13829 0.1382889,0.40357 l -0.2314222,0.0339 q 0,-0.19473 -0.093133,-0.2794 -0.093133,-0.0875 -0.2286,-0.0875 -0.087489,0 -0.1524,0.0339 -0.062089,0.0339 -0.1044223,0.0931 -0.042333,0.0593 -0.062089,0.13829 -0.019756,0.079 -0.019756,0.16933 v 0.59267 h 0.3556 v 0.2032 H 4.6705035 v -0.2032 h 0.3217334 v -0.99342 H 4.7043702 Z"
         style="fill:#ffffff;fill-opacity:1;stroke-width:0.26458332"
         id="path2178"
         inkscape:connector-curvature="0" />
      <path
         d="m 6.9433184,111.1578 q 0,-0.0818 0.056445,-0.13829 0.059267,-0.0593 0.1411111,-0.0593 0.081844,0 0.1382889,0.0593 0.059267,0.0564 0.059267,0.13829 0,0.0818 -0.059267,0.14111 -0.056445,0.0564 -0.1382889,0.0564 -0.081844,0 -0.1411111,-0.0564 -0.056445,-0.0593 -0.056445,-0.14111 z m -0.4007555,1.61431 h 0.4910666 v -0.99342 H 6.5933629 v -0.2032 h 0.6604 v 1.19662 h 0.4572 v 0.2032 h -1.1684 z"
         style="fill:#ffffff;fill-opacity:1;stroke-width:0.26458332"
         id="path2180"
         inkscape:connector-curvature="0" />
      <path
         d="m 9.2979779,112.76082 h -0.033867 q -0.067733,0.127 -0.1862667,0.19191 -0.1157111,0.0621 -0.254,0.0621 -0.1411111,0 -0.2652889,-0.048 -0.1241777,-0.048 -0.2201333,-0.13828 -0.093133,-0.0903 -0.1495778,-0.22296 -0.053622,-0.13547 -0.053622,-0.30762 v -0.0452 q 0,-0.16933 0.056444,-0.30198 0.056444,-0.13546 0.1495778,-0.22577 0.093133,-0.0931 0.2173111,-0.14111 0.1241778,-0.048 0.2596445,-0.048 0.1524,0 0.2652889,0.0677 0.1157111,0.0649 0.1806222,0.19191 h 0.033867 v -0.22013 H 9.518111 v 1.74413 q 0,0.096 -0.062089,0.15805 -0.059267,0.0621 -0.1552222,0.0621 H 8.3892223 v -0.2032 h 0.8325556 q 0.0762,0 0.0762,-0.0847 z m -0.4684889,0.0452 q 0.098778,0 0.1834444,-0.0367 0.084667,-0.0367 0.1467556,-0.10442 0.064911,-0.0677 0.1016,-0.16087 0.036689,-0.096 0.036689,-0.21167 v -0.0339 q 0,-0.11289 -0.036689,-0.20603 -0.036689,-0.096 -0.1016,-0.16368 -0.062089,-0.0677 -0.1495778,-0.10443 -0.084667,-0.0395 -0.1806222,-0.0395 -0.098778,0 -0.1862667,0.0367 -0.084667,0.0367 -0.1495778,0.10442 -0.062089,0.0677 -0.098778,0.16087 -0.033867,0.0931 -0.033867,0.20602 v 0.0452 q 0,0.11853 0.033867,0.21166 0.036689,0.0931 0.098778,0.16087 0.064911,0.0649 0.1495778,0.1016 0.084667,0.0339 0.1862667,0.0339 z"
         style="fill:#ffffff;fill-opacity:1;stroke-width:0.26458332"
         id="path2182"
         inkscape:connector-curvature="0" />
    </g>
    <g
       aria-label="OutA"
       style="font-style:normal;font-variant:normal;font-weight:normal;font-stretch:normal;font-size:2.82222223px;line-height:1.25;font-family:'SpaceMono Nerd Font';-inkscape-font-specification:'SpaceMono Nerd Font';letter-spacing:0px;word-spacing:0px;fill:#ffffff;fill-opacity:1;stroke:none;stroke-width:0.26458332"
       id="text2029">
      <path
         d="m 12.96919,112.02987 q 0,-0.38383 0.183444,-0.59549 0.183444,-0.21167 0.510822,-0.21167 0.327378,0 0.510822,0.21167 0.183445,0.21166 0.183445,0.59549 v 0.44026 q 0,0.39511 -0.183445,0.60114 -0.183444,0.20602 -0.510822,0.20602 -0.327378,0 -0.510822,-0.20602 -0.183444,-0.20603 -0.183444,-0.60114 z m 0.694266,1.02729 q 0.2286,0 0.341489,-0.15523 0.115711,-0.15804 0.115711,-0.44873 v -0.4064 q 0,-0.27093 -0.115711,-0.43744 -0.112889,-0.16652 -0.341489,-0.16652 -0.2286,0 -0.344311,0.16652 -0.112889,0.16651 -0.112889,0.43744 v 0.4064 q 0,0.29069 0.112889,0.44873 0.115711,0.15523 0.344311,0.15523 z"
         style="fill:#ffffff;fill-opacity:1;stroke-width:0.26458332"
         id="path2185"
         inkscape:connector-curvature="0" />
      <path
         d="m 15.76976,111.83796 h 0.220133 v 1.39982 H 15.76976 v -0.254 h -0.03387 q -0.06773,0.13546 -0.1778,0.21449 -0.110066,0.079 -0.2794,0.079 -0.115711,0 -0.214489,-0.0395 -0.09596,-0.0367 -0.166511,-0.11289 -0.06773,-0.0762 -0.107244,-0.18909 -0.03669,-0.11289 -0.03669,-0.26247 v -0.83537 h 0.220133 v 0.80715 q 0,0.22013 0.09031,0.32173 0.09031,0.1016 0.276578,0.1016 0.200378,0 0.313267,-0.13546 0.115711,-0.13829 0.115711,-0.36689 z"
         style="fill:#ffffff;fill-opacity:1;stroke-width:0.26458332"
         id="path2187"
         inkscape:connector-curvature="0" />
      <path
         d="m 16.448019,111.83796 h 0.440267 v -0.57574 h 0.220133 v 0.57574 h 0.541867 v 0.2032 h -0.541867 v 0.90875 q 0,0.0847 0.0762,0.0847 h 0.397934 v 0.2032 h -0.476956 q -0.09596,0 -0.158044,-0.0621 -0.05927,-0.0621 -0.05927,-0.15805 v -0.97648 h -0.440267 z"
         style="fill:#ffffff;fill-opacity:1;stroke-width:0.26458332"
         id="path2189"
         inkscape:connector-curvature="0" />
      <path
         d="m 19.262701,112.74671 h -0.846667 l -0.143933,0.49107 h -0.254 l 0.598311,-1.97556 h 0.445911 l 0.598311,1.97556 h -0.254 z m -0.440267,-1.38289 -0.341489,1.16276 h 0.716845 l -0.341489,-1.16276 z"
         style="fill:#ffffff;fill-opacity:1;stroke-width:0.26458332"
         id="path2191"
         inkscape:connector-curvature="0" />
    </g>
    <g
       aria-label="OutB"
       style="font-style:normal;font-variant:normal;font-weight:normal;font-stretch:normal;font-size:2.82222223px;line-height:1.25;font-family:'SpaceMono Nerd Font';-inkscape-font-specification:'SpaceMono Nerd Font';letter-spacing:0px;word-spacing:0px;fill:#ffffff;fill-opacity:1;stroke:none;stroke-width:0.26458332"
       id="text2033">
      <path
         d="m 21.720599,112.02987 q 0,-0.38383 0.183444,-0.59549 0.183445,-0.21167 0.510823,-0.21167 0.327377,0 0.510822,0.21167 0.183444,0.21166 0.183444,0.59549 v 0.44026 q 0,0.39511 -0.183444,0.60114 -0.183445,0.20602 -0.510822,0.20602 -0.327378,0 -0.510823,-0.20602 -0.183444,-0.20603 -0.183444,-0.60114 z m 0.694267,1.02729 q 0.2286,0 0.341489,-0.15523 0.115711,-0.15804 0.115711,-0.44873 v -0.4064 q 0,-0.27093 -0.115711,-0.43744 -0.112889,-0.16652 -0.341489,-0.16652 -0.2286,0 -0.344311,0.16652 -0.112889,0.16651 -0.112889,0.43744 v 0.4064 q 0,0.29069 0.112889,0.44873 0.115711,0.15523 0.344311,0.15523 z"
         style="fill:#ffffff;fill-opacity:1;stroke-width:0.26458332"
         id="path2194"
         inkscape:connector-curvature="0" />
      <path
         d="m 24.521169,111.83796 h 0.220134 v 1.39982 h -0.220134 v -0.254 h -0.03387 q -0.06773,0.13546 -0.1778,0.21449 -0.110067,0.079 -0.2794,0.079 -0.115711,0 -0.214489,-0.0395 -0.09596,-0.0367 -0.166511,-0.11289 -0.06773,-0.0762 -0.107245,-0.18909 -0.03669,-0.11289 -0.03669,-0.26247 v -0.83537 h 0.220134 v 0.80715 q 0,0.22013 0.09031,0.32173 0.09031,0.1016 0.276578,0.1016 0.200377,0 0.313266,-0.13546 0.115711,-0.13829 0.115711,-0.36689 z"
         style="fill:#ffffff;fill-opacity:1;stroke-width:0.26458332"
         id="path2196"
         inkscape:connector-curvature="0" />
      <path
         d="m 25.199429,111.83796 h 0.440266 v -0.57574 h 0.220134 v 0.57574 h 0.541866 v 0.2032 h -0.541866 v 0.90875 q 0,0.0847 0.0762,0.0847 h 0.397933 v 0.2032 h -0.476955 q -0.09596,0 -0.158045,-0.0621 -0.05927,-0.0621 -0.05927,-0.15805 v -0.97648 h -0.440266 z"
         style="fill:#ffffff;fill-opacity:1;stroke-width:0.26458332"
         id="path2198"
         inkscape:connector-curvature="0" />
      <path
         d="m 26.888044,113.01764 h 0.169333 v -1.53528 h -0.169333 v -0.22014 h 0.798689 q 0.141111,0 0.248355,0.0395 0.110067,0.0395 0.183445,0.10725 0.0762,0.0677 0.112889,0.16369 0.03951,0.0931 0.03951,0.2032 v 0.0339 q 0,0.0819 -0.0254,0.14958 -0.0254,0.0677 -0.07056,0.12136 -0.04515,0.0536 -0.107244,0.0931 -0.05927,0.0367 -0.129823,0.0564 v 0.0339 q 0.141112,0.0395 0.237067,0.1524 0.09596,0.11007 0.09596,0.27093 v 0.0339 q 0,0.11007 -0.03951,0.20602 -0.03669,0.0931 -0.112889,0.16369 -0.07338,0.0677 -0.183445,0.10725 -0.107244,0.0395 -0.248355,0.0395 h -0.798689 z m 0.4064,0 h 0.375355 q 0.166511,0 0.270934,-0.0818 0.104422,-0.0847 0.104422,-0.23142 v -0.0169 q 0,-0.1524 -0.09878,-0.23988 -0.09878,-0.0903 -0.268111,-0.0903 h -0.383822 z m 0,-0.88053 h 0.383822 q 0.169333,0 0.268111,-0.0875 0.09878,-0.0875 0.09878,-0.23989 v -0.0169 q 0,-0.14393 -0.104422,-0.22578 -0.104423,-0.0847 -0.270934,-0.0847 h -0.375355 z"
         style="fill:#ffffff;fill-opacity:1;stroke-width:0.26458332"
         id="path2200"
         inkscape:connector-curvature="0" />
    </g>
  </g>
  <g
     inkscape:groupmode="layer"
     id="layer2"
     inkscape:label="components"
     style="display:none">
    <circle
       style="display:inline;fill:#0000ff;fill-opacity:1;fill-rule:evenodd;stroke-width:0.26458332"
       id="path1592-4-9-5"
       inkscape:label="outb"
       r="3"
       cy="107.25"
       cx="25" />
    <circle
       cx="16.25"
       cy="107.25"
       r="3"
       inkscape:label="outa"
       id="circle976"
       style="display:inline;fill:#0000ff;fill-opacity:1;fill-rule:evenodd;stroke-width:0.26458332" />
    <circle
       style="display:inline;fill:#0000ff;fill-opacity:1;fill-rule:evenodd;stroke-width:0.26458332"
       id="path1592-4-4-6-7-5"
       inkscape:label="trig"
       r="3"
       cy="107.25"
       cx="6.25" />
    <circle
       style="display:inline;fill:#00ff00;fill-opacity:1;fill-rule:evenodd;stroke-width:0.26458332"
       id="path1592-4-9"
       inkscape:label="in8b"
       r="3"
       cy="99.75"
       cx="25" />
    <circle
       style="display:inline;fill:#00ff00;fill-opacity:1;fill-rule:evenodd;stroke-width:0.26458332"
       id="path1592-4-4-6"
       inkscape:label="in8a"
       r="3"
       cy="99.75"
       cx="16.25" />
    <circle
       cx="25"
       cy="92.25"
       r="3"
       inkscape:label="in7b"
       id="circle980"
       style="display:inline;fill:#00ff00;fill-opacity:1;fill-rule:evenodd;stroke-width:0.26458332" />
    <circle
       cx="16.25"
       cy="92.25"
       r="3"
       inkscape:label="in7a"
       id="circle978"
       style="display:inline;fill:#00ff00;fill-opacity:1;fill-rule:evenodd;stroke-width:0.26458332" />
    <circle
       style="display:inline;fill:#00ff00;fill-opacity:1;fill-rule:evenodd;stroke-width:0.26458332"
       id="circle986"
       inkscape:label="in6b"
       r="3"
       cy="84.75"
       cx="25" />
    <circle
       style="display:inline;fill:#00ff00;fill-opacity:1;fill-rule:evenodd;stroke-width:0.26458332"
       id="circle984"
       inkscape:label="in6a"
       r="3"
       cy="84.75"
       cx="16.25" />
    <circle
       cx="25"
       cy="77.25"
       r="3"
       inkscape:label="in5b"
       id="circle992"
       style="display:inline;fill:#00ff00;fill-opacity:1;fill-rule:evenodd;stroke-width:0.26458332" />
    <circle
       cx="16.25"
       cy="77.25"
       r="3"
       inkscape:label="in5a"
       id="circle990"
       style="display:inline;fill:#00ff00;fill-opacity:1;fill-rule:evenodd;stroke-width:0.26458332" />
    <circle
       cx="25"
       cy="69.75"
       r="3"
       inkscape:label="in4b"
       id="circle998"
       style="display:inline;fill:#00ff00;fill-opacity:1;fill-rule:evenodd;stroke-width:0.26458332" />
    <circle
       cx="16.25"
       cy="69.75"
       r="3"
       inkscape:label="in4a"
       id="circle996"
       style="display:inline;fill:#00ff00;fill-opacity:1;fill-rule:evenodd;stroke-width:0.26458332" />
    <circle
       style="display:inline;fill:#00ff00;fill-opacity:1;fill-rule:evenodd;stroke-width:0.26458332"
       id="circle1004"
       inkscape:label="in3b"
       r="3"
       cy="62.25"
       cx="25" />
    <circle
       style="display:inline;fill:#00ff00;fill-opacity:1;fill-rule:evenodd;stroke-width:0.26458332"
       id="circle1002"
       inkscape:label="in3a"
       r="3"
       cy="62.25"
       cx="16.25" />
    <circle
       cx="25"
       cy="54.75"
       r="3"
       inkscape:label="in2b"
       id="circle1010"
       style="display:inline;fill:#00ff00;fill-opacity:1;fill-rule:evenodd;stroke-width:0.26458332" />
    <circle
       cx="16.25"
       cy="54.75"
       r="3"
       inkscape:label="in2a"
       id="circle1008"
       style="display:inline;fill:#00ff00;fill-opacity:1;fill-rule:evenodd;stroke-width:0.26458332" />
    <circle
       style="display:inline;fill:#00ff00;fill-opacity:1;fill-rule:evenodd;stroke-width:0.26458332"
       id="circle1016"
       inkscape:label="in1b"
       r="3"
       cy="47.25"
       cx="25" />
    <circle
       style="display:inline;fill:#00ff00;fill-opacity:1;fill-rule:evenodd;stroke-width:0.26458332"
       id="circle1014"
       inkscape:label="in1a"
       r="3"
       cy="47.25"
       cx="16.25" />
    <circle
       cx="11.25"
       cy="101"
       r="1.5"
       inkscape:label="led8"
       id="circle2046-4-7-4-1-6-7-6"
       style="display:inline;fill:#ff00ff;fill-opacity:1;fill-rule:evenodd;stroke-width:0.13229166" />
    <circle
       cx="11.25"
       cy="93.5"
       r="1.5"
       inkscape:label="led7"
       id="circle2046-4-7-4-1-6-7"
       style="display:inline;fill:#ff00ff;fill-opacity:1;fill-rule:evenodd;stroke-width:0.13229166" />
    <circle
       cx="11.25"
       cy="86"
       r="1.5"
       inkscape:label="led6"
       id="circle2046-4-7-4-1-6"
       style="display:inline;fill:#ff00ff;fill-opacity:1;fill-rule:evenodd;stroke-width:0.13229166" />
    <circle
       cx="11.25"
       cy="78.5"
       r="1.5"
       inkscape:label="led5"
       id="circle2046-4-7-4-1"
       style="display:inline;fill:#ff00ff;fill-opacity:1;fill-rule:evenodd;stroke-width:0.13229166" />
    <circle
       cx="11.25"
       cy="71"
       r="1.5"
       inkscape:label="led4"
       id="circle2046-4-7-4"
       style="display:inline;fill:#ff00ff;fill-opacity:1;fill-rule:evenodd;stroke-width:0.13229166" />
    <circle
       cx="11.25"
       cy="63.5"
       r="1.5"
       inkscape:label="led3"
       id="circle2046-4-7"
       style="display:inline;fill:#ff00ff;fill-opacity:1;fill-rule:evenodd;stroke-width:0.13229166" />
    <circle
       cx="11.25"
       cy="56"
       r="1.5"
       inkscape:label="led2"
       id="circle2046-4"
       style="display:inline;fill:#ff00ff;fill-opacity:1;fill-rule:evenodd;stroke-width:0.13229166" />
    <circle
       cx="11.25"
       cy="48.5"
       r="1.5"
       inkscape:label="led1"
       id="circle2046"
       style="display:inline;fill:#ff00ff;fill-opacity:1;fill-rule:evenodd;stroke-width:0.13229166" />
    <circle
       style="display:inline;fill:#00ff00;fill-opacity:1;fill-rule:evenodd;stroke-width:0.26458332"
       id="path1592-4-4-6-7"
       inkscape:label="trig8"
       r="3"
       cy="99.75"
       cx="6.25" />
    <circle
       cx="6.25"
       cy="92.25"
       r="3"
       inkscape:label="trig7"
       id="circle982"
       style="display:inline;fill:#00ff00;fill-opacity:1;fill-rule:evenodd;stroke-width:0.26458332" />
    <circle
       style="display:inline;fill:#00ff00;fill-opacity:1;fill-rule:evenodd;stroke-width:0.26458332"
       id="circle988"
       inkscape:label="trig6"
       r="3"
       cy="84.75"
       cx="6.25" />
    <circle
       cx="6.25"
       cy="77.25"
       r="3"
       inkscape:label="trig5"
       id="circle994"
       style="display:inline;fill:#00ff00;fill-opacity:1;fill-rule:evenodd;stroke-width:0.26458332" />
    <circle
       cx="6.25"
       cy="69.75"
       r="3"
       inkscape:label="trig4"
       id="circle1000"
       style="display:inline;fill:#00ff00;fill-opacity:1;fill-rule:evenodd;stroke-width:0.26458332" />
    <circle
       style="display:inline;fill:#00ff00;fill-opacity:1;fill-rule:evenodd;stroke-width:0.26458332"
       id="circle1006"
       inkscape:label="trig3"
       r="3"
       cy="62.25"
       cx="6.25" />
    <circle
       cx="6.25"
       cy="54.75"
       r="3"
       inkscape:label="trig2"
       id="circle1012"
       style="display:inline;fill:#00ff00;fill-opacity:1;fill-rule:evenodd;stroke-width:0.26458332" />
    <circle
       style="display:inline;fill:#00ff00;fill-opacity:1;fill-rule:evenodd;stroke-width:0.26458332"
       id="circle1018"
       inkscape:label="trig1"
       r="3"
       cy="47.25"
       cx="6.25" />
  </g>
</svg>
